<?xml version="1.0" encoding="utf-8"?>
<!-- Generator: Adobe Illustrator 24.0.3, SVG Export Plug-In . SVG Version: 6.00 Build 0)  -->
<svg version="1.1" id="Layer_1" xmlns="http://www.w3.org/2000/svg" xmlns:xlink="http://www.w3.org/1999/xlink" x="0px" y="0px"
	 viewBox="0 0 128 128" style="enable-background:new 0 0 128 128;" xml:space="preserve">
<style type="text/css">
	.st0{clip-path:url(#SVGID_2_);}
	.st1{fill:#FEFEFE;}
	.st2{fill:#E28B00;}
	.st3{fill:#FCF7EE;}
	.st4{fill:#F8E3C2;}
	.st5{fill:#FAEFDD;}
	.st6{fill:#FDD200;}
	.st7{fill:#E4E4E4;}
	.st8{fill:#FDDF52;}
	.st9{fill:#E69915;}
	.st10{fill:#EAA312;}
	.st11{fill:#E89F18;}
	.st12{fill:#E79C16;}
	.st13{fill:#C97D00;}
	.st14{fill:#FDD700;}
	.st15{fill:#EFEFEF;}
	.st16{fill:#C57700;}
	.st17{fill:#FEE357;}
	.st18{fill:#F3C736;}
	.st19{fill:#E79D00;}
	.st20{fill:#F7CA00;}
	.st21{fill:#F8AD00;}
	.st22{fill:#F5C400;}
	.st23{fill:#E28C00;}
	.st24{fill:#E28E00;}
	.st25{fill:#E79E00;}
	.st26{fill:#E09200;}
	.st27{fill:#F6B800;}
	.st28{fill:#F6A900;}
	.st29{fill:#F1D065;}
	.st30{fill:#F89000;}
	.st31{fill:#F3CD58;}
	.st32{fill:#D78500;}
	.st33{fill:#F4A600;}
	.st34{fill:#EEC856;}
	.st35{fill:#F3CD56;}
	.st36{fill:#DC8700;}
	.st37{fill:#DB8700;}
	.st38{fill:#F5A200;}
	.st39{fill:#D88600;}
	.st40{fill:#F4A200;}
	.st41{fill:#D78900;}
	.st42{fill:#D78400;}
	.st43{fill:#F39B00;}
	.st44{fill:#D98600;}
	.st45{fill:#F4CD43;}
	.st46{fill:#F3CC3D;}
	.st47{fill:#F3CC3C;}
	.st48{fill:#F3C62D;}
	.st49{fill:#FBB300;}
	.st50{fill:#F7AF00;}
	.st51{fill:#F4CE48;}
	.st52{fill:#F9BF00;}
	.st53{fill:#F3D368;}
	.st54{fill:#F7CA02;}
	.st55{fill:#F8C202;}
	.st56{fill:#E19A04;}
	.st57{fill:#F6C800;}
	.st58{fill:#DC9600;}
	.st59{fill:#D59000;}
	.st60{fill:#D67000;}
	.st61{fill:#D66E00;}
	.st62{fill:#D87200;}
	.st63{fill:#F3D171;}
	.st64{fill:#F58F00;}
	.st65{fill:#F3CD57;}
	.st66{fill:#4F3603;}
	.st67{fill:#AC8A2B;}
	.st68{fill:#F79200;}
	.st69{fill:#F7A300;}
	.st70{fill:#D56B00;}
	.st71{fill:#F99600;}
	.st72{fill:#EED395;}
	.st73{fill:#F3DAA3;}
	.st74{fill:#EFC852;}
	.st75{fill:#EDC54E;}
	.st76{fill:#E7C45B;}
	.st77{fill:#E3BE4E;}
	.st78{fill:#F6D059;}
	.st79{fill:#DD7700;}
	.st80{fill:#ECC869;}
	.st81{fill:#F6DDA3;}
	.st82{fill:#F89100;}
	.st83{fill:#F5D782;}
	.st84{fill:#F8BD07;}
	.st85{fill:#F5BB00;}
	.st86{fill:#F4D051;}
	.st87{fill:#F3D172;}
	.st88{fill:#F89200;}
	.st89{fill:#F99A00;}
	.st90{fill:#F5B706;}
	.st91{fill:#F6CA09;}
	.st92{fill:#F6CA10;}
	.st93{fill:#FA9600;}
	.st94{fill:#F9B000;}
	.st95{fill:#F8AA00;}
	.st96{fill:#C6A351;}
	.st97{fill:#E5AD06;}
	.st98{fill:#C9A550;}
	.st99{fill:#F5CC2E;}
	.st100{fill:#F0CD62;}
	.st101{fill:#F4CF45;}
	.st102{fill:#F4CD39;}
	.st103{fill:#F8C724;}
	.st104{fill:#F8BE00;}
	.st105{fill:#F3D070;}
	.st106{fill:#493402;}
	.st107{fill:#F3BF02;}
	.st108{fill:#F99700;}
	.st109{fill:#4B3703;}
	.st110{fill:#F89600;}
	.st111{fill:#493302;}
	.st112{fill:#4E3609;}
	.st113{fill:#D97400;}
	.st114{fill:#F7B000;}
	.st115{fill:#F89E00;}
	.st116{fill:#D67B00;}
	.st117{fill:#ED9000;}
	.st118{fill:#E68300;}
	.st119{fill:#F8C726;}
	.st120{fill:#3C2900;}
	.st121{fill:#FA9500;}
	.st122{fill:#F6A800;}
	.st123{fill:#F8A000;}
	.st124{fill:#E77E00;}
	.st125{fill:#DC7600;}
	.st126{fill:#F69700;}
	.st127{fill:#E78D00;}
	.st128{fill:#F79100;}
	.st129{fill:#F8A700;}
	.st130{fill:#FA9700;}
	.st131{fill:#F59900;}
	.st132{fill:#F5CD56;}
	.st133{fill:#F5A800;}
	.st134{fill:#443002;}
	.st135{fill:#F6B900;}
	.st136{fill:#A78644;}
	.st137{fill:#F3CC54;}
	.st138{fill:#EBD69A;}
	.st139{fill:#F0C026;}
	.st140{fill:#FDCC20;}
	.st141{fill:#D5B262;}
	.st142{fill:#715725;}
	.st143{fill:#684F18;}
	.st144{fill:#E6C986;}
	.st145{fill:#F7DEA3;}
	.st146{fill:#F4CD47;}
	.st147{fill:#F4CF51;}
	.st148{fill:#F5C401;}
	.st149{fill:#F4CD45;}
	.st150{fill:#A9893A;}
	.st151{fill:#382700;}
	.st152{fill:#9B6F25;}
	.st153{fill:#E1A600;}
	.st154{fill:#4D3908;}
	.st155{fill:#F79700;}
	.st156{fill:#996A12;}
	.st157{fill:#F4C302;}
	.st158{fill:#D46A00;}
	.st159{fill:#A27919;}
	.st160{fill:#F3D071;}
	.st161{fill:#F2D266;}
	.st162{fill:#F3D99E;}
	.st163{fill:#D7B86F;}
	.st164{fill:#EFCE63;}
	.st165{fill:#F4C31E;}
	.st166{fill:#F4D15A;}
	.st167{fill:#F4D579;}
	.st168{fill:#F1CE6D;}
	.st169{fill:#F1C531;}
	.st170{fill:#483412;}
	.st171{fill:#F8E7AC;}
	.st172{fill:#695124;}
	.st173{fill:#F5C403;}
	.st174{fill:#EEC752;}
	.st175{fill:#EDCF8F;}
	.st176{fill:#3D2B01;}
	.st177{fill:#6B4C09;}
	.st178{fill:#F3CF57;}
	.st179{fill:#F4CF4F;}
	.st180{fill:#BD9A46;}
	.st181{fill:#AB894A;}
	.st182{fill:#9B7D31;}
	.st183{fill:#A5863E;}
	.st184{fill:#CCA95A;}
	.st185{fill:#F5C601;}
	.st186{fill:#EBB800;}
	.st187{fill:#F2C000;}
	.st188{fill:#AC8C3E;}
	.st189{fill:#C99F37;}
	.st190{fill:#CAA754;}
	.st191{fill:#573C00;}
	.st192{fill:#E0AA12;}
	.st193{fill:#533903;}
	.st194{fill:#735402;}
	.st195{fill:#725310;}
	.st196{fill:#DCBA74;}
	.st197{fill:#EDD397;}
	.st198{fill:#DDBE78;}
	.st199{fill:#F5DCA2;}
	.st200{fill:#F2CD4E;}
	.st201{fill:#EECE89;}
	.st202{fill:#C7A34E;}
	.st203{fill:#DABA72;}
	.st204{fill:#B4954D;}
	.st205{fill:#EFBD04;}
	.st206{fill:#EFCF88;}
	.st207{fill:#EACB87;}
	.st208{fill:#EDD091;}
	.st209{fill:#BF9F57;}
	.st210{fill:#B39142;}
	.st211{fill:#3C2B03;}
	.st212{fill:#EBD193;}
	.st213{fill:#D1A541;}
	.st214{fill:#D9BA75;}
	.st215{fill:#CAAB65;}
</style>
<g>
	<defs>
		<circle id="SVGID_1_" cx="64" cy="64" r="62"/>
	</defs>
	<clipPath id="SVGID_2_">
		<use xlink:href="#SVGID_1_"  style="overflow:visible;"/>
	</clipPath>
	<g id="CDLoVR.tif" class="st0">
		<g>
			<path class="st1" d="M126,67.2c0,20.9,0,41.8,0,62.7c-41.6,0-83.1,0-124.7,0c0-42.4,0-84.9,0-127.3c0-1.3,0.2-1.5,1.5-1.5
				c18.7,0.1,37.4,0,56.1,0c-0.1,1.1-1,1.1-1.8,1.2C41.6,4.1,28.7,11,18.3,22.5c-4,4.3-7.2,9.2-9.6,14.6c-0.9,1.7-1.7,3.4-2.2,5.2
				c-0.6,1.6-1.2,3.2-1.5,4.9C1.8,59.4,1.6,71.6,5.4,83.7c1.7,5.5,4.3,10.6,7.5,15.4c0.9,1.4,2,2.8,3,4.1c1.4,1.7,2.8,3.3,4.4,4.8
				c1.5,1.7,3.2,3,4.9,4.4c4.2,3.1,8.6,5.9,13.3,8c0.8,0.3,1.7,0.6,2.5,1c0.5,0.3,1.2,0.4,0.8,1.3c-0.4,0.3-0.9,0.4-1.4,0.4
				c-3.1-0.1-6.2,0.4-9.4,0.4c-7.1,0.1-14.1,0.5-21.1,1.6c-0.8,0.1-1.7,0.1-2.6,0.7c2.6,1,5.1,1.1,7.7,1.3c8,0.7,16.1,0.9,24.1,1.2
				c14.2,0.6,28.4,0.4,42.6,0.2c10.9-0.1,21.9-0.5,32.7-1.8c1.2-0.1,2.4-0.3,3.8-0.9c-1.2-0.6-2.2-0.7-3.1-0.8
				c-7.5-0.9-15-1.3-22.6-1.5c-2.9-0.1-5.8-0.1-8.6-0.6c-0.8-1.3,0.5-1.4,1.1-1.7c3.1-1.2,6.1-2.6,8.9-4.4c3.5-2.2,6.9-4.5,10-7.2
				c2.2-2,3.9-4.5,6.3-6.4c0.8-0.4,1.1-1.2,1.7-1.8c0.5-0.5,0.8-1.1,1.2-1.7c6.7-9.1,10.7-19.3,11.8-30.5c0.1-0.7,0.2-1.3,0.7-1.9
				C125.7,67.1,125.8,67.1,126,67.2z"/>
			<path class="st1" d="M68.8,1.2c18.6,0,37.1,0,55.7,0c1.3,0,1.5,0.2,1.5,1.5c-0.1,18.8,0,37.6,0,56.5c-0.2,0.1-0.3,0.1-0.5,0
				c-0.5-0.5-0.6-1.2-0.7-1.9c-1.2-12.8-6-24.1-14.4-33.9C100,11.3,86.8,4.3,71,2.4c-0.7-0.1-1.5-0.2-2.1-0.7
				C68.7,1.5,68.7,1.4,68.8,1.2z"/>
			<path class="st2" d="M68.8,1.6c7,0.8,13.8,2.2,20.2,5.2c21.3,10.2,33.5,27,36.3,50.5c0.1,0.6,0.2,1.2,0.3,1.8
				c0.3,2.7,0.3,5.4,0,8.1c-0.6,5.8-1.6,11.5-3.7,17c-2.2,5.7-4.9,11.1-8.7,15.9c-0.4,0.1-0.5-0.1-0.6-0.5c0.1-1,0.7-1.7,1.2-2.5
				c6.9-11,9.9-22.9,9.2-35.8c-0.3-5.6-1.4-11.1-3.4-16.3c-1.6-4.7-3.9-9.1-6.6-13.3c-1.3-2.1-2.9-4-4.4-5.9c-1.2-1.4-2.7-2.6-3.8-4
				c-1.5-1.4-3-2.9-4.8-4.1c-4-3.1-8.3-5.7-12.9-7.8c-23-9.1-44.2-6.2-63.4,9.5c-5.7,4.6-10.1,10.3-13.7,16.7
				c-0.4,0.6-0.5,1.6-1.6,1.5c-0.1-0.3-0.1-0.6,0-0.9c4.3-9.6,10.9-17.3,19.3-23.5C36.5,6.8,46.4,3,57.4,1.8
				c0.5-0.1,1.3,0.2,1.5-0.6c0.7,0,1.5,0,2.2,0C63,1.6,65,1.3,66.9,1.4C67.6,1.5,68.2,1.2,68.8,1.6z"/>
			<path class="st3" d="M125.6,67.2c0-2.7,0-5.4,0-8.1c0.1,0,0.3,0,0.4,0c0,2.7,0,5.4,0,8.1C125.9,67.2,125.8,67.2,125.6,67.2z"/>
			<path class="st4" d="M67,1.5c-2-0.1-4,0.5-5.9-0.3c2,0,3.9,0,5.9,0c0.1,0.1,0.2,0.1,0.1,0.2C67.1,1.5,67,1.5,67,1.5z"/>
			<path class="st5" d="M67,1.5c0-0.1,0-0.2,0-0.3c0.6,0,1.2,0,1.8,0c0,0.1,0,0.3,0,0.4C68.2,1.6,67.6,1.5,67,1.5z"/>
			<path class="st6" d="M119.8,44.7c1.8,4.2,2.6,8.6,3.3,13.1c0.5,3.3,0.5,6.6,0.4,9.9c-0.4,10.2-3.3,19.8-8.5,28.6
				c-0.7,1.2-1.4,2.3-2.1,3.4c-0.2,0.6-0.4,1.2-0.9,1.6c-0.5,0.6-1,1.2-1.3,2c-7.4,8.5-16.4,14.8-26.9,18.9c-0.5,0.7-1.3,0.9-2,1.1
				c-3.7,1.3-7.5,1.9-11.3,2.5c-0.2,0.1-0.4,0.1-0.6,0.1c-4.6,0.5-9.2,0.6-13.8,0c-0.2,0-0.4-0.1-0.6-0.1c-3.8-0.7-7.6-1.2-11.3-2.6
				c-0.7-0.3-1.6-0.4-2.1-1.1c-1.2-0.5-2.4-1.1-3.7-1.6c-0.5-0.6-0.1-1.1,0.3-1.4c2.6-2,4.5-4.6,7.2-6.4c3,0.4,5.8,1.6,8.8,2
				c18.7,2.5,34.3-3.1,46.6-17.4c7.9-9.2,11.8-20,11.7-32.2c0-3.9-0.4-7.7-1.2-11.5c-0.1-0.5-0.2-1.1-0.1-1.6c1-2,3.1-2.9,4.5-4.5
				C117.2,46.4,118.1,45.1,119.8,44.7z"/>
			<path class="st6" d="M8.4,37.8c2.3-3.8,4.6-7.7,7.5-11.1c6.8-8.1,15-14.2,24.8-18.1c8.6-3.4,17.5-4.6,26.7-4
				c6.9,0.5,13.6,2.1,20,5.1c-2.6,2.4-5.2,4.7-7.7,7.2c-0.2,0.2-0.4,0.4-0.8,0.4c-3.2-0.6-6.3-1.6-9.6-2c-1.3-0.1-2.5-0.2-3.8-0.2
				c-1.6,0-3.1,0-4.7,0c-9.7,0.1-18.5,3.2-26.4,8.6c-11.6,8-18.6,19-21.1,32.8c-1.1,6.3-0.9,12.7,0.3,19c0.1,0.6,0.3,1.2,0.3,1.8
				C11.5,80,9,82.3,6.3,84.4c-0.4,0.3-0.9,0.5-1.2-0.2C1,71.8,1.2,59.4,4.6,46.9c0.7-1.6,1-3.2,1.7-4.8C6.9,40.7,7.3,39,8.4,37.8z"
				/>
			<path class="st7" d="M41.9,122.3c4.4,1.5,8.8,2.4,13.4,3.2c-0.4,0.4-0.8,0.2-0.9,0.2c0.1,0,0.6,0.2,1.1-0.2
				c4.8,0.4,9.6,0.4,14.4,0c0.5,0.4,1.1,0,1.6,0.3c0.2,0,0-0.2,0-0.2c-0.4,0.1-0.9,0.3-1.3-0.1c4.5-0.8,9-1.8,13.4-3.3
				c0.3,0.3,0.6,0.3,1,0.3c4.1,0.1,8.2,0.1,12.3,0.4c6.8,0.5,13.6,0.5,20.2,1.8c0.8,0.2,2.3-0.1,2.2,1c0,0.9-1.5,0.9-2.3,1
				c-3.6,0.8-7.3,1-10.9,1.2c-6.8,0.5-13.6,0.6-20.4,0.8c-14.5,0.6-29,0.3-43.5,0.2c-6,0-12-0.2-18-0.7c-5.7-0.4-11.5-0.6-17.1-1.8
				c-0.5-0.1-1.2-0.1-1.2-0.8c0-0.6,0.7-0.6,1.1-0.7c3.3-0.7,6.6-1.1,10-1.3c5.7-0.4,11.5-0.6,17.2-0.9
				C36.8,122.7,39.4,123.1,41.9,122.3z"/>
			<path class="st8" d="M5.1,84.2c0.8,0.5,1-0.3,1.5-0.6c2.5-1.7,4.2-4.4,6.8-6c0.6,0.3,0.7,0.8,0.8,1.4c1.2,4.2,2.9,8.3,5.2,12
				c0.3,0.5,0.6,0.9,0.5,1.5c-2.2,2.5-4.7,4.8-7.3,6.9C9.4,94.8,6.9,89.7,5.1,84.2z"/>
			<path class="st8" d="M45.6,113c-1.7,2.2-3.9,3.9-5.9,5.9c-0.6,0.5-1.4,0.9-1.4,1.8c-4.8-2.1-9.3-4.7-13.3-8.1
				c2.4-2.4,4.5-5.1,7.5-6.8c2.1,0.7,3.6,2.3,5.5,3.2c2,1,4,2.1,6.2,2.9C44.7,112.2,45.3,112.4,45.6,113z"/>
			<path class="st6" d="M32.3,106c-2.5,2.1-4.5,4.8-7.4,6.6c-1.7-1.3-3.4-2.7-4.9-4.3c-0.4-0.9,0.3-1.2,0.8-1.6
				c1.9-1.9,3.8-3.8,5.9-5.5c0.4-0.1,0.8,0,1,0.3C29.1,103.1,31.4,103.9,32.3,106z"/>
			<path class="st8" d="M26.8,101.2c-0.2,1.2-1.4,1.5-2.1,2.2c-1.5,1.7-3.4,3-4.7,4.8c-1.6-1.5-3.1-3.1-4.4-4.9
				c0.2-0.9,0.9-1.4,1.6-2c1.4-1.1,2.6-2.3,3.8-3.5c0.6-0.5,1.1-1.2,2-1.1C24.5,98.2,26.3,99.2,26.8,101.2z"/>
			<path class="st6" d="M23.1,97.1c-2.4,1.3-3.8,3.6-6,5.2c-0.5,0.3-0.9,0.8-1.4,1.2c-1.2-1.2-2.1-2.6-3-4c1.5-2.1,3.5-3.7,5.4-5.4
				c0.5-0.5,1.2-0.9,1.7-1.3C21.6,93.6,22.6,95.2,23.1,97.1z"/>
			<path class="st9" d="M8.4,37.8c-0.6,1.5-1.2,2.9-1.9,4.4c-0.1,0.1-0.3,0.1-0.4,0c0.5-1.9,1.2-3.6,2.2-5.3
				C8.3,37.2,8.3,37.5,8.4,37.8z"/>
			<path class="st10" d="M6.1,42.1c0.1,0,0.3,0,0.4,0c-0.7,1.6-0.9,3.4-1.9,4.8C4.8,45.3,5.3,43.7,6.1,42.1z"/>
			<path class="st11" d="M110.5,103.3c-0.3-1.1,0.8-1.4,1.2-2.1c0.3,0,0.5,0,0.4,0.4C111.6,102.3,111.3,103,110.5,103.3z"/>
			<path class="st12" d="M112,101.6c-0.1-0.1-0.2-0.3-0.4-0.4c0.4-0.5,0.7-1,1.1-1.5c0.1,0.1,0.3,0.3,0.4,0.4
				C112.9,100.7,112.6,101.2,112,101.6z"/>
			<path class="st8" d="M79.2,17c0.2-1.1,1.1-1.6,1.8-2.2c1.6-1.3,3.1-2.8,4.6-4.3c0.5-0.5,1-0.9,1.7-0.9c4.7,2,9,4.7,12.9,7.8
				c0.4,0.6,0,1.1-0.4,1.5c-2.1,1.9-4.1,4-6.4,5.7c-0.7,0-1.2-0.3-1.7-0.7c-3.6-2.6-7.4-4.5-11.5-6.1C79.9,17.7,79.4,17.5,79.2,17z"
				/>
			<path class="st8" d="M119.8,44.7c-2.7,2.3-4.9,5-7.8,7.1c-0.4,0-0.6-0.2-0.7-0.5c-1.3-4.5-3.4-8.5-5.5-12.6
				c0-0.3-0.1-0.6,0.1-0.9c1.9-2.5,4.2-4.6,6.8-6.3c0.1-0.1,0.2,0,0.4,0C116,35.5,118.3,39.9,119.8,44.7z"/>
			<path class="st6" d="M113.1,31.4c-2.2,1.9-4.4,3.8-6.5,5.9c-0.3,0.3-0.6,0.6-0.6,1.1c-0.3,0.1-0.5,0-0.6-0.2
				c-1.2-2.1-3.1-3.6-3.9-6c2-2.7,4.6-4.7,7.2-6.7C110.4,27.4,111.9,29.3,113.1,31.4z"/>
			<path class="st8" d="M108.7,25.5c-2.1,2.5-4.7,4.5-7.1,6.7c-1,0.1-1.3-0.6-1.6-1.4c-0.2-1.6-1.8-2-2.5-3.2
				c1.8-2.4,4.1-4.3,6.4-6.2c0.3-0.2,0.7-0.3,1,0C106.2,22.9,107.5,24.2,108.7,25.5z"/>
			<path class="st6" d="M105,21.5c-1.6,0.6-2.7,2-4,3.1c-1.1,1-2.2,2.1-3.3,3.2c0.1,0.2,0,0.3-0.2,0.4c-1.7-0.9-3.2-1.9-4-3.8
				c1.6-2,3.6-3.6,5.5-5.3c0.5-0.5,1.2-0.9,1.2-1.7C102,18.6,103.4,20.1,105,21.5z"/>
			<path class="st13" d="M93.5,24.4c1.4,1.2,2.7,2.4,4.1,3.6c1.3,0.5,2.1,1.4,2.6,2.6c0.3,0.6,0.8,1.1,1.4,1.5
				c1.5,2.1,3,4.1,4.4,6.2c2.6,4.2,4.4,8.7,5.9,13.3c1,4.8,1.7,9.6,1.6,14.6c-0.3,11.8-4.2,22.2-11.7,31.2
				c-7.2,8.7-16.4,14.3-27.3,17c-9.8,2.4-19.4,1.7-28.9-1.5c-4.8-1.7-9.1-4.1-13.3-7c-1.8-1.6-3.7-3.2-5.5-4.8
				c-1.2-1.4-2.5-2.7-3.7-4.1c-1.1-1.5-2.2-3-3.3-4.4c-2.6-4.5-4.9-9.1-6.2-14.2c-0.1-0.3-0.1-0.6-0.2-0.9
				C9.6,60.4,13,44.9,24.7,31.5C33,22,43.5,16.5,56,14.8c1.5-0.2,2.9-0.3,4.4-0.3c1.7,0.3,3.4,0.3,5.2,0c4.7,0,9.2,1.1,13.7,2.5
				C84.4,18.6,89,21.4,93.5,24.4z"/>
			<path class="st14" d="M113.9,68.3c0-2.1,0-4.1,0-6.2c0.1,0,0.1,0,0.2,0c0,2,0,4.1,0,6.1C114.1,68.3,114,68.3,113.9,68.3z"/>
			<path class="st15" d="M55.6,125.5c-0.6,0.6-1.2,0.4-1.8,0.1c0.5,0,1-0.1,1.6-0.1C55.4,125.5,55.5,125.5,55.6,125.5z"/>
			<path class="st15" d="M70.2,125.5c0.5,0,1,0.1,2.1,0.1c-1.2,0.3-1.8,0.5-2.3-0.1C70,125.5,70.1,125.5,70.2,125.5z"/>
			<path class="st16" d="M65.5,14.5c-1.7,0.6-3.4,0.6-5.2,0C62.1,14.5,63.8,14.5,65.5,14.5z"/>
			<path class="st17" d="M100.3,30.7c-0.9-0.9-1.8-1.7-2.6-2.6c0-0.1,0-0.2,0.1-0.3C98.9,28.4,100.1,29.1,100.3,30.7z"/>
			<path class="st2" d="M15.4,75.4c-0.8-1.7-0.9-3.7-1-5.5c-0.5-8.7,0.4-17.1,4.3-25c2.7-5.6,6.1-10.6,10.6-14.9
				c6.9-6.5,14.9-10.8,24.3-12.5c7.9-1.5,15.7-1,23.4,1.1c0.2,0,0.3,0.2,0.4,0.3c-4.4,4-8.8,8-13.1,12.1c-1,1-2.1,1.7-3.5,1.7
				c-1.6,0.1-3.2,0.1-4.8-0.4c-1.3-0.4-2.2-1.4-2.9-2.5c-0.1-0.1-0.2-0.3-0.3-0.4c-0.2-0.4-0.4-0.9-0.6-1.3
				c-0.1-0.1-0.1-0.3-0.2-0.4c-0.1-0.4-0.3-0.7-0.5-1c-0.1-0.1-0.2-0.3-0.2-0.4c-0.3-0.6-0.6-1.1-1-1.5c-0.4-0.4-0.8-0.8-1.1-1.2
				c-0.4-0.6-0.7-1.4-1.7-1.4c-1.7-0.1-1.5,1.2-1.6,2.1c-0.1,2.2-0.1,4.4-0.4,6.6c-0.2,1.4-0.4,2.7-0.9,3.9
				c-0.4,0.8-1.2,1.4-1.6,2.2c-0.8,1.1-2,1.8-3.3,2.2c-3.5,1.1-5.5,3.6-6.4,7.1c-0.3,1.4-1.1,2.6-1.5,3.9c-0.7,2.7-1.2,5.4-2.1,8.1
				c-0.1,0.3-0.1,0.5-0.2,0.8c-0.2,0.6-0.5,1.2-1.2,1.6c-2,0.5-4.1-0.1-6.2,0.6c1.2-0.4,2.4-0.4,3.7-0.2c-0.7,1-0.7,1-2.6,1.4
				c1.4,0.2,3-0.6,4.7-0.1c0.4,0.3,0.7,0.6,0.3,1.2c-1.4,0.4-2.8,1-4.2,1.6c-0.1,0.1-0.2,0.2-0.4,0.2c0.3,0.1,0.4-0.2,0.6-0.3
				c1.2-0.2,2.1-1.3,3.5-1c0.3,0.4,0.3,0.8,0,1.2c-0.5,0.4-1.1,0.4-1.6,0.8c-0.1,0.1-0.3,0.2-0.4,0.3c-0.5,0.4-1.3,0.5-1.2,1.4
				c-1.8,2.5-4.4,4.3-6.6,6.4C17.1,74.5,16.5,75.5,15.4,75.4z"/>
			<path class="st18" d="M87.3,107.1c-3.3,1.8-6.7,3.3-10.3,4.5c-1.8,0.4-3.5,0.9-5.3,1c-1.1-0.2-2.3,0-3.4-0.3
				c-0.6-0.1-0.6,0.1-0.6,0.5c-0.7,0.3-1.4,0.3-2.1,0.2c-1.7-0.4-3.5-0.4-5.2,0c-1,0.2-2.1-0.1-3.1,0c-1-0.2-2-0.4-3-0.4
				c-0.2,0-0.4,0-0.6-0.1c-1.8-0.6-3.7-0.8-5.5-1.3c-0.1-1.2,1.4-1.4,1.4-2.5c0.4-0.5,0.9-0.5,1.4-0.5c1.1,0.3,1.8,0,2.3-1.1
				c0.5-1.2,1.4-1.9,2.7-1.1c0.6,0.4,0.9,0,1.3-0.4c1.1-0.9,2.2-1.7,3-2.9c1-1.4,2.6-1.9,4.2-2.4c2.1-0.7,4.2-1.5,6.2-2.4
				c2.1-0.9,4.3-2,6.6-2.6c0.4-0.2,0.6-0.5,0.8-0.9c1.2-3,4-4.3,6.6-5.6c1.3-0.7,3-0.7,4.3,0.1c1.2,0.8,1.3,2.2,1.1,3.7
				c-0.2,1.7-0.5,3.4-1.6,4.9c-0.5,0.8-1,1.7-0.8,2.7c0.3,1.1-0.4,1.5-1.2,1.9c-1.6,0.8-2.5,2.2-3.1,3.8c0.8,0.5,1.5,0.1,2.2,0.1
				C86.4,106.1,87.2,106,87.3,107.1z"/>
			<path class="st2" d="M109.8,53.2c0.8,2.5,1.2,5.1,1.4,7.7c0.8,12.1-2.1,23.2-9.3,33c-1.3,1.7-2.6,3.4-4.3,4.7
				c-0.4-0.3-0.4-0.7-0.4-1.2c0.4-4.4-0.5-8.6-0.9-13c-0.1-1-0.1-2,0.3-2.9c-0.2-4.4-0.6-8.8-2.3-13c-0.1-0.9,0.5-1.3,1.1-1.8
				C100.2,62.2,105.2,57.9,109.8,53.2z"/>
			<path class="st19" d="M109.8,53.2c0.1,0.6-0.3,1-0.7,1.4c-4.7,4.4-9.4,8.7-14.1,13.1c-0.2,0.1-0.2,0.4-0.3,0.6
				c-0.6,0.1-0.8-0.4-1-0.8c-1-2.7-0.9-5.7-2.2-8.3c-1.2-2.2-0.9-4.6-1-6.9c0-0.2,0-0.4,0.1-0.5c3.9-3.9,8-7.5,12.1-11.3
				c0.5-0.4,0.9-1.1,1.7-0.6C106.8,44.1,108.7,48.5,109.8,53.2z"/>
			<path class="st20" d="M51.1,108.6c-0.5,0-1,0.1-1.5,0.4c-1.3,1.1-2.9,1-4.4,1.2c-0.3,0.1-0.6,0.1-0.8-0.1
				c-3.3-1.3-6.4-3.1-9.4-5.1c-0.4-0.2-0.7-0.4-0.9-0.8c-0.1-0.2-0.1-0.4,0.1-0.5c3.1-2.5,5.7-5.5,8.9-7.8c0.7-0.1,1.3,0.4,1.4,0.9
				c0.4,1.4,1.3,2.7,1.3,4.2c0,1-0.1,2.2,0.9,2.6c1,0.5,2.3-0.1,3.1-0.7c1.3-1.1,2.4-2.5,3.4-4c1.8-3,3-6.4,6.6-8.1
				c1.6-0.8,3.4-1.8,4.8-3.2c1.4,0.4,2.6,0,3.8-0.5c0.9-0.4,1.8-0.6,2.4,0.4c0.5,0.8,1.1,0.1,1.6,0.3c0.2,0,0.3,0.1,0.5,0.2
				c0,1.5-1.2,2.1-2.1,2.8c-4.7,4.3-9.3,8.6-13.9,12.9C55.1,105.3,53.3,107.1,51.1,108.6z"/>
			<path class="st19" d="M27.2,65c0.4-0.3,0.3-0.7,0.4-1.1c0.2-0.1,0.4-0.1,0.5,0.1c0.5,1.5,0.6,3.1,0.6,4.7
				c-0.9,1.4-0.5,3.3-1.9,4.9c1-0.9,0.6-2.4,2-2.6c1,1.6,1.3,3.4,2.1,5.1c0.2,0.5,0.6,0.9,0.8,1.4c0.3,0.5,0.4,1,0.4,1.6
				c-0.1,0.9-0.4,1.7-0.8,2.6c-0.4,0.7-0.7,1.4-1.2,2.1c-2,1.5-3.6,3.5-5.5,5.1c-0.9,0.8-1.6,2.1-3.2,1.7c-2.6-4.3-4.5-8.8-5.7-13.7
				c-0.1-0.5-0.1-1-0.2-1.4c3.1-2.6,6.1-5.2,8.9-8.1c0.1-0.9,1-0.9,1.5-1.5l0,0C26.1,65.4,26.7,65.3,27.2,65z"/>
			<path class="st19" d="M61.1,32.2c1.1-0.1,1.8-0.5,2.6-1.3c4-3.8,8-7.5,12-11.3c0.5-0.4,1-0.7,1.6-0.7c5.1,1.4,9.7,3.9,14,7
				c-0.5,1.9-2.6,3.7-4.2,3.7c-0.5-1-1-1.9-1.1-3c-0.1-1-0.6-1.8-1.7-2.1c-1.6-0.7-3.1-0.6-4.3,0.9c-1.8,2.1-3.9,4-5.6,6.2
				c-1.3,2.2-3.3,3-5.8,2.4c-2.4-0.5-4.9-0.3-7.2-1C61.3,32.8,61,32.6,61.1,32.2z"/>
			<path class="st21" d="M97.2,81.6c-0.6,0.9-0.7,1.9-0.4,2.9c0.8,3.3,0.5,6.7,1.1,10.1c0.2,1.3-0.2,2.6-0.3,4
				c-2.8,3.6-6.5,6.1-10.4,8.4c-1-1.2-2.3-0.3-3.4-0.4c-0.4,0-0.9,0.2-1.2-0.3c-0.2-0.4,0.3-0.6,0.4-0.9c0.9-1.7,1.8-3.5,3.9-4.1
				c0.6-0.2,0.7-0.8,0.6-1.4c0.2-1,0.8-1.9,1.5-2.3c1.7-0.9,2-2.9,3.5-3.9c0.3-0.2,0.4-0.5,0.3-0.8c-0.6-1.9,0.6-3.6,0.5-5.5
				c0-0.7,0.4-1.4,0.8-2c0.3-0.5,0.5-1,0.5-1.7C94.8,82.3,95.5,81.7,97.2,81.6z"/>
			<path class="st2" d="M104.3,39.9c-2,1-3.4,2.8-5,4.2c-2.6,2.2-4.9,4.6-7.4,6.9c-0.4,0.3-0.7,0.7-1.2,0.7
				c-0.1-0.1-0.3-0.2-0.4-0.4c-0.6-2.3-1.3-4.5-2.1-6.7c1.5-2.2,3.8-3.8,5.7-5.7c1.4-1.4,3-2.7,4.4-4.1c0.4-0.4,0.8-1,1.6-0.8
				C101.8,35.6,103,37.8,104.3,39.9z"/>
			<path class="st22" d="M43,96c-2.7,2.9-5.7,5.6-8.9,8.1c-1.9-1.3-3.8-2.6-5.2-4.4c0-0.8,0.7-1.2,1.2-1.7c2.6-2.6,5.3-5,8-7.6
				c0.2-0.1,0.3-0.1,0.5,0c1.7,1.6,3.7,2.9,4.6,5.2C43.2,95.7,43.1,95.9,43,96z"/>
			<path class="st19" d="M99.8,34c-2.4,2.2-4.8,4.4-7.1,6.6c-1.4,1.3-2.7,2.7-4.3,3.7c-0.2,0.1-0.3,0.1-0.5,0
				c-0.7-0.8-0.9-1.8-1.3-2.7c-0.1-0.5-0.2-0.9-0.2-1.4c0.1-1,0.3-2,0.7-3c2.2-2.9,5.1-5.1,7.7-7.5c0.2-0.2,0.5-0.3,0.9-0.2
				C97.3,30.9,98.9,32.2,99.8,34z"/>
			<path class="st20" d="M38.2,90.5c0,0.7-0.5,1.1-1,1.5c-2.7,2-4.7,4.8-7.4,6.8c-0.3,0.2-0.6,0.6-0.9,0.9c-0.6-0.6-1.6-0.9-1.8-1.9
				c-0.1-1.6,1.2-2.7,1.4-4.3c0.1-0.8,0.4-1.5,0.5-2.3c0.1-0.3,0.3-0.7,0.4-1c1.6-1.6,2.8-3.7,5.4-4.1C36.2,87.5,37.2,89,38.2,90.5z
				"/>
			<path class="st23" d="M29.8,90.5c-0.1,0.2-0.2,0.5-0.4,0.7c-1.2,1.7-3,2.9-4.4,4.4c-1.4-1.6-2.5-3.4-3.7-5.2
				c1.4-0.5,2.4-1.5,3.5-2.5c1.6-1.6,3-3.4,5-4.5c1,0.8,0.9,1.9,0.7,3C30.3,87.8,29.9,89.1,29.8,90.5z"/>
			<path class="st2" d="M95.8,29.6c-2.8,2.5-5.8,4.8-8.1,7.7c-0.4-0.4-0.5-0.9-0.4-1.3c0.7-2,0.1-3.9-0.2-5.9c0-0.2,0.1-0.4,0.3-0.5
				c1.8-0.7,2.8-2.3,4-3.7C93,27,94.5,28.2,95.8,29.6z"/>
			<path class="st24" d="M65.5,112.6c0.7,0,1.5,0,2.2,0c1.2-0.4,2.4-0.7,3.7-0.3c1.9,0.1,3.7-0.8,5.6-0.7c-2.3,1.1-4.9,1.3-7.4,1.7
				c-5.8,0.9-11.5,0.6-17.3-0.7c-0.2,0-0.3-0.2-0.4-0.3c0.6-0.3,1.2-0.3,1.9,0c0.1,0,0.2,0,0.4,0c0.9,0.5,2-0.1,3,0.3
				c1.1,0,2.2,0,3.3,0C62.1,112.3,63.8,112.4,65.5,112.6z"/>
			<path class="st25" d="M25,95.7c0.9-2.1,2.8-3.1,4.4-4.4c0,2.5-1.1,4.5-2.2,6.6C26.3,97.3,25.5,96.5,25,95.7z"/>
			<path class="st26" d="M53.7,112.3c-0.6,0-1.2,0-1.9,0c-2.6-0.3-5.1-0.9-7.4-2.2c0.3,0,0.5,0,0.8,0c1.1-0.1,2.1-0.1,2.9,0.8
				C50,111.3,51.9,111.8,53.7,112.3z"/>
			<path class="st27" d="M31.2,49.9c0.8-2.1,1.5-4.2,2.4-6.3c1.1-2.5,2.9-4.2,5.6-5c1.3-0.4,2.4-1.1,3.4-2.1c1-0.6,2.2-0.9,3.1-1.7
				c0.3-0.2,0.7-0.4,1.1-0.5c0.6-0.1,0.9-0.5,1.3-1c0.2-0.2,0.4-0.3,0.6-0.4c1,0,2-0.5,3,0.2c1.7,1.2,2,2.3,0.9,4.2
				c-0.6,1-1.1,2-1.2,3.2c0,1.2-1.1,1.7-1.6,2.6c-0.3,0.5-0.4,1.2-1,1.5c-0.5,0.3-1,1-1.6,0.8c-0.7-0.2-0.5-1-0.6-1.6
				c-0.2-1.4-0.8-1.5-1.7-0.5c-0.7,0.8-1.6,1.4-2.7,1.6c-0.8,0.3-1.1,1.1-1.5,1.7c-0.3,0.3-0.6,0.7-1,0.7c-0.5,0-0.9-0.3-1.2-0.6
				c-1.4-1.3-2.6-1.1-3.7,0.5c-0.4,0.7-0.7,1.4-1.3,2c-0.2,0.2-0.4,0.4-0.6,0.5C32.3,50.2,31.8,50.3,31.2,49.9z"/>
			<path class="st28" d="M49.3,42.9c0.9-1,2-1.7,1.7-3.3c-0.1-0.6,0.4-1.3,0.7-1.8c1.8-2.9,1.2-4.2-2.1-4.4c-0.4,0-0.7,0-1.1,0
				c0.2-1,1.2-1,1.8-1.3c0.9,0,1.8,0.2,2.7,0.1c0.6-0.1,1.2-0.3,1.8-0.2c0.2,0,0.5,0,0.7,0c1.8,0.3,3.7,0.4,5.5,0.4
				c0.1,0.1,0.2,0.2,0.4,0.4c0.2,0.6-0.2,0.9-0.5,1.3c-1.8,1.8-3.5,3.7-5.8,5.1c-0.6-0.7-1.1-0.6-1.4,0.3c-0.5,1.3-0.8,2.7-1.8,3.7
				c-0.4,0-0.8-0.2-1.2,0.3C50,44,49.9,43.9,49.3,42.9z"/>
			<path class="st29" d="M28.2,69.1c-0.1-1.7-0.2-3.5-0.4-5.2c-0.2-0.3-0.2-0.5,0.1-0.7c0.3-0.3,0-0.5,0-0.7
				c-0.1-0.3,0.1-0.5,0.3-0.6c0.7-0.4,1.7,0.1,2.2-0.7c0.1-0.1,0.2-0.3,0.3-0.4c0.2-0.2,0.4-0.4,0.7-0.4c0.5-0.1,1-0.1,1.4,0.3
				c0.5,1,0.4,2.1,0.7,3.1c0.1,0.6,0.3,1.2,0.2,1.9c-0.1,1-1.4,0.8-1.6,1.6c-0.2,0.2,0.1,0-0.1,0.2c-0.7,1-2.6,1-2.6,2.8
				c0,0.3-0.6,0.6-1.1,0.5C27.8,70.1,28,69.6,28.2,69.1z"/>
			<path class="st27" d="M44.1,34.8c0.9-3.6,1.1-7.3,1.1-11c0-2.3,0.9-2.9,2.6-1.9c-0.6,2,0,4-0.2,6c-0.1,1.8-1.2,3.4-1.2,5.3
				C46.5,34.3,45,35.1,44.1,34.8z"/>
			<path class="st30" d="M55.2,32.2c-0.7,0-1.3,0.1-1.9,0.3c-2.5-1.3-3.6-3.6-4.3-6.1c-0.2-0.9-0.7-1.7-1.3-2.4
				c-0.1-0.5-0.2-1.1,0.5-1.3c0.5-0.2,0.9,0.2,1.1,0.6c0.5,0.2,0.9,0.6,1.1,1.1c0.4,0.6,0.6,1.3,1.1,1.9l0,0
				c0.4,0.4,0.3,1.1,0.7,1.5l0,0c0.2,0.5,0.3,1.1,0.7,1.5l0,0C53.3,30.5,54.6,31.1,55.2,32.2z"/>
			<path class="st28" d="M44.1,34.8c1.2-0.4,2.2-0.9,2-2.5c-0.2-1.6,1.1-2.9,1.4-4.5c0.8,0.8,0.8,1.9,1.5,2.7
				c0.3,0.5,0.6,0.9,0.6,1.5c-1.3,0.9-2.6,1.9-3.5,3.2c-0.9,0.9-1.9,1.8-3.3,1.5C42.8,35.7,43.4,35.2,44.1,34.8z"/>
			<path class="st31" d="M31.2,49.9c0.5-0.1,1-0.3,1.5-0.4c1.2,1.6,0,2.7-0.7,3.9c-0.7,1.4-1.5,2.6-0.3,4.1c0.2,0.3,0.2,0.7,0,1
				c-1.1,0.9-2,0.4-2.7-0.6C30.1,55.4,30.5,52.6,31.2,49.9z"/>
			<path class="st32" d="M28.3,62.1c-0.1,0.1-0.2,0.2-0.4,0.4c-1.9-0.1-3.8,0.6-5.7-0.1c0.8-0.8,2.1-0.5,3.1-1.2
				c-1.3-0.5-2.4,0.1-3.6,0c2.1-0.7,4.3-1,6.5-0.9c0.3,0.2,0.4,0.4,0.4,0.8C28.7,61.4,28.6,61.8,28.3,62.1z"/>
			<path class="st33" d="M48.6,30.7c-0.6-0.9-1.1-1.9-1.1-3c-0.8-1.5,0.2-3.1-0.5-4.7c-0.2-0.5,0.6-0.8,0.9-1.3
				c1.2-0.2,1.2,0.8,1.5,1.5c-1-0.7-1.3-0.2-1.5,0.7c0.6,0.6,1,1.4,1.3,2.2c-0.4,1.1-0.9,2.2,0,3.4C49.3,30.1,49.3,30.7,48.6,30.7z"
				/>
			<path class="st34" d="M29.1,58c0.8,0.2,1.6,1.1,2.5,0.4c0.4-0.7,1.3-0.5,1.9-1c0.2-0.1,0.3-0.1,0.5-0.1c0.5,0.1,0.8,0.3,0.8,0.9
				c-0.1,0.3-0.2,0.5-0.4,0.7c-0.4,0.5-0.9,1-1.5,1.2c-1.4,0-2.8-0.3-3.8-1.4C29,58.5,29,58.3,29.1,58z"/>
			<path class="st35" d="M29,58.8c1.4,0.2,2.6,1,4,1.1c0.1,0.2,0.1,0.3,0,0.5c-0.7,0.2-1.5-0.1-2.1,0.2c-0.5,0.2-1.2,0.1-1.6,0.5
				c-0.1,0.1-0.3,0.1-0.5,0.1c-0.2,0-0.3-0.1-0.4-0.2c0-0.2-0.1-0.5-0.1-0.7C28.5,59.7,28.7,59.3,29,58.8z"/>
			<path class="st36" d="M26.8,58.4c-2.1,0-4.1,0-6.2,0c2-0.7,4.1-1.2,6.2-0.4c0.1,0.1,0.2,0.2,0.1,0.2
				C26.9,58.3,26.8,58.4,26.8,58.4z"/>
			<path class="st32" d="M27.9,63.2c0,0.2,0,0.5-0.1,0.7c-0.1,0-0.2,0-0.3,0C26.2,64,25.2,65,23.8,65l0,0C25,64,26.4,63.5,27.9,63.2
				z"/>
			<path class="st37" d="M28,57c-1.1,0-2.2-0.3-3.6-1.1C26.1,55.8,27.1,56.4,28,57z"/>
			<path class="st38" d="M55.2,32.2c-0.8-0.9-2.3-1.4-2.2-3c0.9,0.8,1.5,1.9,2.6,2.6C55.4,31.9,55.3,32.1,55.2,32.2z"/>
			<path class="st39" d="M25.7,65.8c-0.3,0.7-1,0.9-1.5,1.5c-0.3-0.1-0.7-0.2-0.3-0.5C24.4,66.4,24.9,65.8,25.7,65.8z"/>
			<path class="st40" d="M51.5,26.3c-0.8-0.4-1.2-1-1.1-1.9C51.1,24.8,51.4,25.5,51.5,26.3z"/>
			<path class="st40" d="M52.3,27.8c-0.7-0.3-0.8-0.8-0.7-1.5C52.2,26.6,52.3,27.1,52.3,27.8z"/>
			<path class="st41" d="M26.8,58.4c0-0.1,0-0.2,0-0.4c0.6,0.1,1.2-0.2,1.8,0.4C27.9,58.4,27.3,58.4,26.8,58.4z"/>
			<path class="st42" d="M28.4,53.3c0.7,0,0.9,0.4,1.3,0.8C28.9,54.3,28.7,53.9,28.4,53.3z"/>
			<path class="st43" d="M53,29.2c-0.7-0.3-0.8-0.8-0.7-1.5C52.7,28.1,52.9,28.7,53,29.2z"/>
			<path class="st44" d="M23.8,65c-0.3,0.4-0.6,0.7-1.2,0.5C22.8,64.9,23.4,65.1,23.8,65C23.8,65,23.8,65,23.8,65z"/>
			<path class="st39" d="M27.2,65c-0.4,0.5-0.9,0.7-1.5,0.7C26,65.1,26.5,65,27.2,65z"/>
			<path class="st22" d="M97.2,81.6c-1.1,0.6-2.7,0.9-1.9,2.8c0.1,0.2,0,0.5-0.2,0.6c-1.5,1.4-1.3,3.2-1.5,4.9
				c-0.2,1.2,0,2.5-0.3,3.5c-0.3,1.1-1.5,2.1-2.3,3.2c-1,1.3-2.2,2.3-3.4,3.4c-0.2,0.1-0.5,0.3-0.7,0.2c-0.5-0.3,0.1-0.4,0.2-0.6
				c0.9-2.4,2.7-4.4,2.7-7.2c0-1.2-0.1-2.5-0.8-3.1c-1-0.8-3.1-0.8-3.8-0.1c-1.1,1.1-2.6,1.2-3.8,2.1c-1.4,1-1.9,2.5-3,3.6
				c-0.3,0.2-0.7,0.3-0.7,0.8c-2.3,0.6-4.4,1.7-6.5,2.6c-1.8,0.8-3.7,1.6-5.6,2.3c-1.6,0.6-3.4,0.8-4.5,2.1
				c-1.1,1.3-2.6,2.3-3.7,3.7c-0.5,0.6-1.1,0.6-1.4,0.3c-1.6-1.6-2-0.1-2.4,1c-0.5,1.2-1.2,1.9-2.5,0.9c2.5-3.2,5.8-5.6,8.7-8.3
				c1.7-1.6,3.4-3.2,5.1-4.8c2.7-2.5,5.6-4.8,8-7.6c1.4-0.6,1.4-0.6,2.7,0.6c0.3,0.3,0.8-0.2,1.2-0.1c1.3,0.4,2.6,0.3,3.9-0.4
				c1.1,0.1,1.7-0.9,2.6-1.3c1.1-0.5,2.6-0.9,3.4-1.5c1.9-1.7,4-3.2,5.6-5.2c0.7-0.9,1-2.2,1.7-3.3c0.4-0.7,0.8-1.4,0.1-2.2
				c-0.1-0.1-0.2-0.4-0.2-0.5c0.8-1.8-0.5-3.3-0.7-4.9c-0.1-0.7-0.2-1.5,0.9-1.6c0.2,0.3,0.5,0.5,0.7,0.8
				C96.7,72.6,96.7,77.1,97.2,81.6z"/>
			<path class="st45" d="M48.1,110.8c-1-0.3-1.9-0.5-2.9-0.8c1.4-0.8,2.9-0.7,4.4-1.1C50,110.3,49.1,110.5,48.1,110.8z"/>
			<path class="st46" d="M71.4,112.3c-1.2,0.1-2.5,0.2-3.7,0.3c0-0.2-0.6-0.6-0.2-0.6C68.8,112,70.2,111.5,71.4,112.3z"/>
			<path class="st47" d="M65.5,112.6c-1.7,0-3.4,0-5.1,0C62.1,112,63.8,112.1,65.5,112.6z"/>
			<path class="st26" d="M57.1,112.6c-1-0.1-2,0.4-3-0.3C55.1,112.4,56.1,112,57.1,112.6z"/>
			<path class="st48" d="M77.7,95.7c-0.3-0.7-0.3-0.7,0.7-0.8C78.3,95.3,78,95.5,77.7,95.7z"/>
			<path class="st49" d="M93.9,67.6c-0.8,0.3-0.8,0.9-0.4,1.5c-0.6,1-1.2,2.1-2.5,2.4c-0.6-0.1-1,0.4-1.4,0.7
				c-1.7,1.4-3.4,2.8-4.5,4.8c-0.7,1.2-1.7,2.1-2.8,2.8c-0.6,0.4-1.2,0.9-1.5,1.6c-0.7,0.8-1.3,1.7-2.4,2c-0.5,0.1-0.9-0.1-1.3-0.4
				c-1.1-1.5,0.8-1.7,1.1-2.6c0.2-0.1-0.2-0.2-0.1,0.1c0,0,0,0.1-0.1,0.1c-0.2,0.1-0.3,0.1-0.5,0.2c-0.4,0-0.7-0.2-0.8-0.6
				c0.5-2.3,1.1-4.4,3.1-5.9c0.5-0.3,0.5-0.9,0.4-1.3c-0.6-1.8,0-3.2,1.6-4.1c0.3-0.8,0.1-1.7,0.2-2.5c0-1.2,1.6-1,1.8-2
				c0.2-0.4,0.4-0.9,0.8-1.2c0.7,0.2,1.2,0.5,1.8-0.3c0.6-0.9,1.9-1.2,2.5-2.4c0.1-0.2,0.4-0.3,0.6-0.3l2.1-0.9
				C93.4,61.7,93.3,64.8,93.9,67.6z"/>
			<path class="st28" d="M88,44.4c0.1,0,0.2,0,0.4,0c1.1,2.4,2,4.8,2.2,7.4c0,0.1,0,0.2,0,0.4c-1.1,2-2.8,3.4-4.5,4.8
				c-1.2,0.9-2.2-0.1-3-1c-0.1-1.3-1.1-2.2-1.7-3.3c-0.2-0.2-0.4-0.3-0.5-0.5c-0.1-0.2-0.1-0.3,0-0.5c0.6-1.2,1.4-2.2,2.7-2.7
				c1.7-0.1,1.8,1,1.9,2.3c0,0.2,0.4,0,0.2,0c-0.1,0-0.1,0-0.1-0.1c0-0.9,0-1.8,0.4-2.7c0.3-1,0.4-2-0.2-3
				C86.2,44.5,87.5,45.3,88,44.4z"/>
			<path class="st50" d="M83.3,55.8c1.6,1.5,2.8,1,4-0.5c1-1.2,2.2-2.1,3.3-3.2c0.5,0.4,0.4,1,0.3,1.5c-0.3,1.9,0.2,3.7,0.8,5.5
				c-0.9,0.6,0.3,1.4-0.3,2.1c-2.1-2.6-2.4,0.8-3.7,1.1c-0.8,0.2-1.6,1-1.7,2.2c-0.7-0.3-0.6-1.2-1.3-1.4c-1.2,0-1.5-0.8-1.4-1.8
				c0.1-0.7,0.3-1.4,0-2.1C83.5,58.1,83,56.9,83.3,55.8z"/>
			<path class="st51" d="M82.1,69.1c-0.1,0.5,0.1,1.6-1,0.6c-0.4,0.6-1,1.3-0.7,2.1c0.6,1.5,0.7,2.6-1.1,3.5c-0.8,0.4-1.6,1.7-1.6,3
				c0,0.8-0.4,1.2-0.8,1.8c-0.1,0.1-0.4,0.4-0.3,0.4c0.3,0.1,0.7,0.3,1,0c0.5-0.3,1-0.7,1.4-1c-0.3,0.9-0.8,1.8-1.6,2.3
				c-0.4,0.2-0.7,0.5-0.2,1c0.3,0.5,0.9,1,0.3,1.7c-1.6,1.4-2.8,3.2-5.1,3.5c-0.7-0.2-1.9,1.5-2.2-0.6c0-0.4-0.8-0.2-1.4-0.1
				c-1.3,0.3-2.6,2-4.1,0.4c0-0.1,0.1-0.2,0.1-0.2c0.8-1.5,2-2.3,3.7-2.4c-0.7-0.9-0.7-0.9-2-1.4c-0.8-0.3-0.9-0.7-0.5-1.4
				c0.3-0.6,0.8-1.1,1.5-1.3c1.4-0.4,2-1.8,3-2.7c0.3-0.3,0.9-1,0.1-1.9c-0.7-0.7,0.2-1.6,1-1.8c2-0.6,2.5-3,4.5-3.6
				c0.4-0.1,0.4-0.6,0.3-1c-0.1-0.6,0.2-1,0.7-1.4c-0.5,0.2-0.6,0.5-0.8,0.8c-1.3,0.6-2.5,1.3-3.8,1.7c-1.5-0.4-1.4-1.1-0.5-2
				c1.3-1.5,2.9-2.7,4.4-4.1c0.4-0.5,0.9-0.8,1.5-0.7c1.4,0.2,2.8,0.2,4.2,0c0.8-0.1,1.6-0.1,2.2,0.6c-0.4,0.8-1.3,0.9-1.8,1.5
				C82,67.1,82.6,68.2,82.1,69.1z"/>
			<path class="st52" d="M43,96c0-0.1,0-0.2,0-0.4c0.9-1,1.8-1.9,2.9-2.8c0.5-0.4,1-0.9,1.8-0.5c0.9,0.3,1.2,1,1.4,1.9
				c0.2,0.9,0.4,1.7,0.8,2.6c1-0.7,1.3-1.8,2-2.7c0.3-0.3,0.9-0.2,1.1-0.6c0.3-2.9,2.5-3.8,4.7-5.1c2.1-1.2,4-2.8,6-4.2
				c0.4-0.3,0.8-0.7,1.4-0.7c1.2,0.2,1.6,0.8,0.5,1.6c-0.9,0.6-0.9,1.4-0.8,2.3c0,0,0,0,0,0c-0.4,0.9-1,1.3-2,1.7
				c-1.6,0.7-2.9,2.2-4.4,2.9c-1.4,0.7-1.6,2.4-3,3.1c-0.3,0.2-0.2,0.5-0.2,0.8c0,0.9,0,1.6-1.2,2.1c-0.7,0.3-0.7,1.8-1.4,2.6
				c-1.5,1.8-3.2,3.1-5.5,3.7c-0.9,0.2-2-1.6-1.8-3.1C45.6,99.9,44.2,96.7,43,96z"/>
			<path class="st18" d="M72.5,87.9c1.9-0.8,3.2-2.4,4.8-3.7c0.7,0.3,0.8-0.8,1.5-0.7c1.4,0.2,1.2,1.2,0.8,2.1
				c-0.6,1.2-1.5,2.2-2.6,3C76.5,88.8,76,89,75.6,89c-0.2,0-1.5,0.4-0.4-0.6c0.3-0.3-0.2-0.4-0.5-0.5c-0.6,0-1.2,0-1.8,0
				C72.8,87.9,72.7,87.9,72.5,87.9z"/>
			<path class="st53" d="M28.6,70.6c0.4-0.5,0.7-1,1.1-1.4c-0.3-0.6-0.7,0.4-0.9-0.1c-0.1-0.5,0.4-0.9,0.7-0.9
				c1.1,0.1,1.7-0.7,2.5-1.3c0.5-0.4,1.2-0.7,1.8-1c0.3-0.1,0.5-0.1,0.8,0c0.9,0.4,1.1,1.3,1.6,2c0.1,0.2,0.1,0.3,0.1,0.5
				c-0.3,0.9-0.5,1.9,0.1,2.8c0.3,1,1,1.9,0.6,3c-0.3,0.8-1.7,0.2-1.6,1.5c-0.7,1.3-1.9,1.6-3.2,1.2c-0.6-0.2-1.2-0.1-1.7-0.4
				c-0.6-1.8-1.3-3.6-1.9-5.4C28.5,70.8,28.5,70.7,28.6,70.6z"/>
			<path class="st22" d="M29.8,90.5c-0.9-1.1-0.1-2.2,0.1-3.2c0.3-1.3,0.3-2.5-0.1-3.8c0.4-0.6,0.5-1.4,1.1-1.8
				c0.6-0.4,0.9-1.2,1.7-1.2c0.2,0,0.3,0.1,0.5,0.2c0.7,1.6,0.7,3.4,1.8,4.8c0.1,0.3,0.3,0.7,0.1,1C32.7,87.1,31.5,89.2,29.8,90.5z"
				/>
			<path class="st54" d="M30.5,76.4c0.4-0.3,0.8-0.7,1.4-0.3c1.4,1,2.4,0.3,3.4-0.7c0.1-0.8,0.9-0.8,1.4-1.2
				c0.3-1.2-0.8-2.1-0.7-3.3c1.8,0.3,2.8,1.8,3.9,2.9c-1.4,2.2-3.4,3.7-5.4,5.3c-0.3,0.2-0.7,0.2-1.1,0c-0.8-0.7-1.6-1.3-1.7-2.4
				c-0.1,0.3,0.2,0.9-0.5,0.8C31,77.2,30.8,76.8,30.5,76.4z"/>
			<path class="st55" d="M31.2,77.6c0.4,0.1,0.4-1.6,1-0.2c0.3,0.6,1.3,0.8,1.2,1.7c0.1,0.1,0.2,0.3,0.2,0.5c-0.1,0.5-0.2,1.1-1,1
				l0,0c-0.6-0.3-0.7-1-1.1-1.5C31.7,78.5,31.5,78,31.2,77.6z"/>
			<path class="st56" d="M28.6,70.6c0,0.1,0,0.2-0.1,0.4c-1,0.9-0.8,2.5-1.9,3.5c-0.1-0.2-0.1-0.3-0.1-0.4c0.1-1.3,1.6-2.3,0.8-3.8
				c-0.1-0.3,0.3-0.9,0.8-1.1C28.3,69.6,28.2,70.2,28.6,70.6z"/>
			<path class="st57" d="M31.6,79.1c0.9,0.1,1,0.8,1.1,1.5c-0.7,0.1-0.9,1.3-1.8,1.1C31.1,80.8,31.4,79.9,31.6,79.1z"/>
			<path class="st58" d="M27.2,69.1c-0.7,0.6-1.3,1.2-2.7,1.5c1-0.8,1.7-1.3,2.3-1.8C26.9,68.8,27.1,68.9,27.2,69.1z"/>
			<path class="st59" d="M27.2,69.1c-0.1-0.1-0.2-0.2-0.4-0.4c0.4,0,0.6-0.8,1-0.3C28,68.6,27.5,68.9,27.2,69.1z"/>
			<path class="st50" d="M49.3,42.9c0.3,0.8,0.8,0.6,1.2,0.1c0.4-0.6,0.9-0.8,1.4-0.1c0.7,0.7-0.3,1.5,0.2,2.6
				c0.2-2.2,1.2-3.7,2-5.3c0.3-0.5,0.4-1.2,1.1-1.4c1.9-2.3,4.5-3.8,6.3-6.3c3,0.4,6,0.8,9,1.1c2,0.2,2.8-1.4,3.9-2.6
				c0.2-0.1,0.1,0.9,0.6,0.2c0.4-0.5,0.8-0.9,1.5-0.7c0.5,0.7,0.3,1.4,0.1,2.2c-0.3,0.6-0.8,1.1-1.3,1.6c-1.2,1.1-2.1,2.4-3.6,3.1
				c0.1,0.1,0.1,0.2,0.2,0.3c0.9,1.2,2.2,2.1,2.5,3.7c0.1,0.7-0.1,1.3-0.6,1.7c-2.8,2.4-5.2,5.2-8.2,7.3c-1.2-0.2-2-1-2.8-1.9
				c-0.7-1.3-1.2-2.5-0.7-4.1c0.4-1.4-1.9-2.9-3.4-2.3c-1.2,0.5-2.5,1.2-2.6,2.8c0,0.3-0.1,0.6-0.2,0.9c-0.7,2.5-0.5,2.8,2,3.3
				c0.2,0,0.5,0.1,0.6,0.3c0.2,0.5-0.2,0.8-0.6,1.1c-0.7,0.3-1.4,0.4-2.1,0.3c-0.6-0.1-1.5-0.4-1.7,0.5c-0.2,0.8,0.7,1,1.3,1.2
				c0.2,0.1,0.4,0.3,0.6,0.5c0.3,1,0.9,1.5,1.9,1.7c0.6,0.1,1.2,0.3,1.5,0.9c-0.2,1.3-1.6,1.7-2.2,2.7c-0.1,0.1-0.3,0.2-0.5,0.1
				c-0.2-0.1-0.3-0.1-0.4-0.2c-0.8-0.6-1.2-1.3-1.3-2.3c-0.1-0.1-0.1-0.3-0.2-0.4c-0.2-0.3-0.5-0.5-0.7-0.8
				c-0.1-0.2-0.2-0.3-0.3-0.5c-0.3,0-0.2,0.2-0.3,0.4c-0.4,0.8-0.3,2.1-1.8,1.2c-0.6-2.1,0.3-4,0.7-5.9c0-0.3,0.1-0.6-0.1-1
				c-1,1.4-2.1,2.4-3.9,2.6c-1,0.1-1.9,0.9-2.7,1.7c-0.4,0.4-1,0.9-1.6,0.6c-0.7-0.5-0.3-1.2-0.1-1.8c0.2-0.5,0.4-1,0.6-1.5
				c0-0.1,0.1-0.2,0.2-0.2c0,0-0.1,0.1-0.1,0.1c-0.2,0.3-0.4,0.4-0.7,0.3c-0.2-0.2-0.2-0.4-0.2-0.7c0-0.2,0-0.3,0.1-0.5
				c0.3-0.5,0.7-1.1,1-1.6c0.1-0.2,0.3-0.4,0.5-0.5c0.3-0.3,0.6-0.6,0.9-0.7c1-0.2,0-0.6,0.1-0.9c0-0.8-0.5-1.7,0.7-2.1
				c0.1,0.5-0.2,1.1,0.2,1.6C48,44.5,49.2,44.2,49.3,42.9z"/>
			<path class="st50" d="M79.9,25.2c1.2-1.8,2-2,4.4-1.1c0.5,1.1,0.9,2.3,0.8,3.4c-0.1,1.2,0.1,2.2,0.7,3.1c0,0.2,0.1,0.3,0,0.5
				c-0.3,0.4-0.5,0.8-0.8,1.2c-0.3,0.1-0.6,0-1-0.1c-1.1-0.2-1.8-1-2.7-1.8c-0.9,1.3-2.3,2.3-2.1,4.1c-0.5,0.4-1.1,0.8-1.5,1.5
				c-0.1,0.2-0.2,0.4-0.3,0.6c-0.1,0.7,0.6,1.3,0.3,2c-0.1,0.3-0.2,0.5-0.4,0.7c-0.6,0.5-1,1.3-1.6,1.8c-0.5,0.4-1,1-1.7,0.4
				c-1.1-2.6-0.2-4.8,1.2-6.9c0.1-0.2,0.3-0.5,0.5-0.7c0.9-1,1.1-2.2,0.9-3.4c-0.2-0.9,0.4-1.4,0.9-1.8
				C78.8,27.6,79.5,26.5,79.9,25.2z"/>
			<path class="st60" d="M85.8,31.1c-0.9-1.1-1.5-2.2-1-3.8c0.3-1-0.8-2-0.5-3.2c1.2-0.2,2,0.8,2,1.5c0.1,1.4,1,2.6,0.9,4
				c0,0.1,0,0.3,0,0.4C87,30.6,86.7,31.3,85.8,31.1z"/>
			<path class="st52" d="M79.9,25.2c0.5,1.6-0.8,2.4-1.6,3.3c-0.5,0.6-1.3,0.9-1.4,1.8c0,0.2-0.2,0.3-0.4,0.4c-1.2,0-1.3,1.3-2.3,2
				c0-0.7,0.1-1.1,0.1-1.6C76,28.9,77.9,27,79.9,25.2z"/>
			<path class="st27" d="M47.5,92.7c-1.1-0.2-1.5,0.7-2.2,1.3c-0.8,0.6-1.2,1.6-2.3,1.7c-1-1.6-2.3-3-3.8-4.1
				c-0.4-0.3-0.6-0.6-0.6-1.1c0.5-1.4,2-1.7,2.8-2.8c0.3-0.2,0.6-0.4,1-0.3c0.6,0.2,1.1,0.5,1.3,1.1c0.5,2,1.5,3.3,3.7,3.2
				c0.1,0,0.2,0.2,0.2,0.3C47.7,92.2,47.7,92.5,47.5,92.7z"/>
			<path class="st52" d="M41.5,87.9c-0.7,1.2-2,1.7-2.9,2.6c-0.1,0-0.2,0-0.4,0c-1.6-1-2.4-2.5-3.3-4.1c-0.1-0.2-0.2-0.5-0.4-0.7
				c0.7-0.8,1.3-1.7,2.6-1.8C38.8,85,40.5,86.1,41.5,87.9z"/>
			<path class="st50" d="M88,44.4c0,1.8-1.5,0.8-2.2,1.1c-0.1,0.1-0.1,0.1-0.2,0.2c-0.2,0.1-0.5,0.1-0.7,0c-0.6-0.2-1.2-1-1.9-0.2
				c-0.2,1-0.1,1.9,0.5,2.8c0.2,0.3,0.4,0.6,0.2,0.9c-1.1,0.6-1.8,1.7-2.7,2.6c-0.2,0.2-0.4,0.3-0.6,0.3c-0.5,0.1-0.6,0.3-0.4,0.8
				c-0.1,0.8-0.7,0.6-1.2,0.7c-1-0.2-2-0.7-3-0.7c-0.4,0-1-0.2-0.9-0.5c0.2-1.1-0.2-0.6-0.6-0.3c-0.8,0.5-1.6,0.6-2.5,0.3
				c-0.7-1.3,0.5-1.7,1.1-2.2c2-1.7,3.7-3.7,5.8-5.3c0.5-0.4,0.9-0.9,1.2-1.4c0.1-0.1,0.2-0.3,0.3-0.4c0.4-0.4,0.9-0.7,1.3-1.1
				c0.2-0.2,0.3-0.4,0.5-0.5c1.3-0.6,2-2,3.4-2.3c0.1,0.1,0.3,0.2,0.4,0.3c0.6,0.7-0.1,1.5,0.3,2.3c0.1,0.2,0.1,0.4,0.3,0.5
				c0.1,0,0.2,0,0.3-0.1c0.1-0.1,0.2-0.2,0.3-0.3C87.7,42.5,87.8,43.5,88,44.4z"/>
			<path class="st61" d="M85.8,41.8c-0.4-0.3-1-0.5-0.4-1.1c0.5-0.4,0.1-0.8,0-1.1c0.4-0.7-0.2-1.4-0.1-2.1c0-0.8,0.2-1.5,0.4-2.2
				c0.4-0.6-0.1-0.9-0.3-1.4c-0.1-0.6,0.2-1.1,0.1-1.7c-0.1-0.4-0.2-0.8,0.1-1.2c0,0,0,0,0,0c0.5-0.4,1-0.7,1.5-1.1
				c1.3,2.4,0.6,4.9,0.4,7.4c-0.5,0.9-0.5,2-0.7,3c-0.5,0.7,0.1,1.5-0.4,2.2l0,0C85.9,42.8,86.1,41.9,85.8,41.8z"/>
			<path class="st62" d="M86.6,42.5c0.1-0.7-0.3-1.6,0.4-2.2c0,0.5,0,1,0,1.5C86.9,42.1,86.9,42.4,86.6,42.5z"/>
			<path class="st63" d="M34.5,58.4c0-0.5-0.3-0.7-0.7-0.7c-0.2-0.1-0.4-0.4-0.7-0.4c0.1,0.1,0.2,0.3,0.3,0.4
				c-0.3,1-1.3,0.3-1.8,0.7c-0.9-1.3-1.3-2.8-0.6-4.3c0.4-0.7,1-1.3,1.4-2.1c0.4-0.8,0.6-1.6,0.3-2.4c0.1-0.1,0.2-0.3,0.4-0.4
				c0.8-0.3,1.1-1,1.5-1.8c0.4-0.9,1.2-1.5,2.2-1.4c1.1,0.2,1,1.2,0.9,2.1c0,1.6-0.8,3.2-0.3,4.9c0,0.2,0,0.3,0,0.5
				c-0.1,0.3-0.3,0.6-0.1,0.8c0.2,0.2,0.4,0,0.6-0.1c0.6-0.1,1.2-0.1,1.8,0c0.4,0.8-0.4,1.1-0.7,1.6c-0.2,0.2-0.3,0.3-0.5,0.5
				c-0.2,0.2-0.3,0.3-0.5,0.5c-0.5,0.4-1.1,0.6-1.6,1C36.1,57.9,36,58,35.8,58c-0.3,0.2-0.7,0.4-1.1,0.4
				C34.7,58.4,34.6,58.4,34.5,58.4z"/>
			<path class="st64" d="M47.1,43.6c-0.7,0.8-0.2,1.7-0.4,2.6c0.2,0.4-0.2,0.5-0.4,0.7c-0.3,0.2-0.6,0.5-0.8,0.7
				c-0.3-0.2-0.5-0.5-0.7-0.7c-0.6-1.3-2-1.5-2.9-2.3c0.9-0.4,1.8-0.7,2.6-1.5C46.1,41.3,46.2,41.4,47.1,43.6z"/>
			<path class="st65" d="M37.1,48.1c0.3-0.7,0.3-1.6-0.5-1.6c-0.7-0.1-1.6,0.4-1.9,1.2c-0.3,0.8-0.5,1.7-1.7,1.5
				c0.8-0.8,0.9-2,1.7-2.7c1.6-1.4,2.6-1.4,4,0.3c0.2,0.3,0.6,0.4,0.9,0.6c0.2,0.4,0,0.7-0.2,1c-0.6,0.4-0.5,2.3-1.9,0.9
				C37.5,48.8,37.5,48.3,37.1,48.1z"/>
			<path class="st66" d="M41.9,44.7c1.6,0,2.8,0.7,3.4,2.3c-0.1,0.3-0.2,0.5-0.4,0.6c-0.8,0.3-1.4-0.3-2.2-0.3
				c-0.4-0.2-0.8-0.6-1.3-0.2c-0.2,0.1-0.3,0.1-0.5,0.1c-0.2-0.1-0.3-0.2-0.4-0.3c0-0.1,0-0.2,0-0.2C40.5,45.5,41.1,45,41.9,44.7z"
				/>
			<path class="st67" d="M39.3,48.1c0.1-0.3,0.3-0.5,0.4-0.8c0.3-0.3,0.6-0.5,0.8-0.8c0,0,0,0,0,0c0.3,0.6,0.1,1.2,0.1,1.8
				c-0.1,1,0.3,1.6,1.3,1.8c0.7,0.1,1.3-0.1,1.9-0.4c0.2,0,0.3,0,0.4,0.2c0,0.2-0.1,0.5-0.1,0.7c-0.5,1.1-1.5,1.3-2.6,1.5
				C39.1,51.4,38.5,50.3,39.3,48.1z"/>
			<path class="st68" d="M46,35.1c0.5-1.8,1.6-2.9,3.3-3.3c0.5-0.3,1-0.4,1.1,0.4c-0.4,0.8-1.3,0.6-1.8,1.1
				c-0.1,0.1-0.2,0.2-0.4,0.4c-0.4,0.4-0.6,0.8-1.1,1.1C46.7,34.9,46.3,35,46,35.1z"/>
			<path class="st69" d="M47.1,34.8c0.3-0.5,0.4-1.1,1.1-1.1C48.2,34.4,47.8,34.7,47.1,34.8z"/>
			<path class="st70" d="M50.4,32.2c-0.3-0.4-0.7-0.3-1.1-0.4c-0.2-0.4-0.5-0.7-0.7-1.1c0.3-0.3,0.5-0.6,0.2-0.9
				c-1.3-1.3-0.9-2.4,0.2-3.5c0.1-0.2,0.2-0.2,0.4,0c0.8,2.4,2.3,4.4,4,6.2C52.3,32.5,51.3,32.7,50.4,32.2z"/>
			<path class="st71" d="M55.2,38.8c-1,2.3-2.4,4.5-2.9,7.1c-1-1-1-1-0.4-3.1c0.5-1.4,1-2.8,1.6-4.2c0.2-0.5,0.6-1.1,1.1-1.1
				C55,37.7,55.2,38.3,55.2,38.8z"/>
			<path class="st72" d="M33,60.2c0-0.1,0-0.3,0-0.4c0.4-0.4,0.7-0.8,1.1-1.1c0.5,0.3,0.7,0.9,0.9,1.4c0.1,0.2,0.1,0.3,0.1,0.5
				c-0.1,0.8,0.1,1.5,0.1,2.3c0,0.3,0,0.5-0.1,0.8c-0.1,0.2-0.3,0.4-0.5,0.5c-0.5,0-1.1,0.2-1.6-0.2c-0.4-1.1-0.4-2.2-0.4-3.3
				C32.8,60.5,32.9,60.3,33,60.2z"/>
			<path class="st73" d="M33.1,63.9c0.5,0,0.9-0.4,1.4,0c0.3,0.7,0.3,1.5,0.1,2.2c-0.2,0-0.5,0-0.7,0c-0.1-0.1-0.4-0.1-0.3-0.4
				C33.3,65.1,33.2,64.5,33.1,63.9z"/>
			<path class="st74" d="M28.3,61c0.1,0,0.2,0,0.3,0c0.7,0.2,1.6-0.4,2.2,0.4c-0.5,1.3-1.7,0.5-2.6,0.7C28.3,61.7,28.3,61.3,28.3,61
				z"/>
			<path class="st75" d="M29,61c0.1-1,0.9-0.7,1.5-0.7c0.2,0.3,0.6,0.1,0.7,0.4c-0.1,0.1-0.3,0.2-0.4,0.4C30.2,61.3,29.6,61.2,29,61
				z"/>
			<path class="st76" d="M33.5,65.7c0.1,0.1,0.2,0.3,0.3,0.4c-0.6,0.2-1.2,0.5-1.9,0.7C32.1,66.1,33,66.2,33.5,65.7z"/>
			<path class="st77" d="M31.2,60.6c-0.3,0-0.6-0.1-0.7-0.4c0.8,0,1.7,0,2.5,0c-0.1,0.1-0.2,0.3-0.3,0.4
				C32.2,60.6,31.7,60.6,31.2,60.6z"/>
			<path class="st78" d="M29,61c0.6,0,1.2,0,1.8,0c0,0.1,0,0.2,0,0.4c-0.7-0.1-1.6,0.3-2.2-0.4C28.8,61,28.9,61,29,61z"/>
			<path class="st79" d="M49.3,26.3l-0.2,0c0,0-0.2,0-0.2,0c-0.7-0.6-1-1.3-1.1-2.2C49.1,24.3,49.2,25.3,49.3,26.3z"/>
			<path class="st80" d="M33.4,57.7c-0.4-0.4-0.9-0.7-1.3-1.1c0.9-0.1,1.3,0.5,1.7,1.1C33.7,57.7,33.6,57.7,33.4,57.7z"/>
			<path class="st81" d="M34.9,60.2c-0.5-0.4-0.7-0.9-0.8-1.5c0.1-0.1,0.3-0.3,0.4-0.4c0,0,0,0.1,0,0.1
				C35.1,58.9,35.5,59.5,34.9,60.2z"/>
			<path class="st21" d="M91,71.3c0.9-0.7,1.7-1.5,2.6-2.2c-0.1,0.8,0.1,1.4,0.6,2c0.4,0.5,0.5,1.2,0.2,1.9
				c-0.2,0.5-0.8,1.1,0.4,1.6c0.5,0.2-0.1,1.8-0.6,2.4c-0.8,1.1-1,2.3-1.7,3.4c-0.5,0.8-0.8,2-2.3,1.9c-0.3,0-1,0.4-1.3,1.1
				c-0.6,1.4-1.3,2.7-3.4,2.5c-0.7-0.1-1.3,1.2-2.3,1.2C83.1,87,83,86.9,83,86.7c1.1-1.8,2.4-3.5,3.4-5.4c0.5-1,1.2-1.8,0.5-3
				c-0.2-0.4-0.3-0.7,0-1C88.6,75.6,89.1,72.9,91,71.3z"/>
			<path class="st21" d="M77,88.6c0.3-1.4,1.7-1.9,2.3-3.2c0.4-0.9,0.7-1.6-0.8-1.6c-0.2,0.1-0.3,0.1-0.4-0.1
				c-0.1-0.3,0.2-0.5,0.4-0.6c0.7-0.6,1.5-1.2,2.2-1.8c0.4,0.6,0.4,1.7,1.7,1.2c0.8-0.3,0.8,0.5,0.7,1c-0.1,1-0.7,1.8-1.2,2.6
				c-0.4,0.7-1.1,1.1-1.3,2c0,0.1,0,0.2,0,0.2C79.5,89.4,78.3,89.5,77,88.6z"/>
			<path class="st21" d="M83.2,86.8c0,0.1,0,0.3,0,0.4c-0.9,0.4-1.3,1.7-2.6,1.1c0,0,0,0,0,0C81.1,87,81.8,86.3,83.2,86.8z"/>
			<path class="st82" d="M83.2,86.8c-1.2-0.1-1.8,0.9-2.6,1.5c-1.3-0.3-0.4-0.8-0.1-1.2c1.1-1.2,2-2.6,2.2-4.3
				c-0.7-0.5-1,1.2-1.8,0.3c-0.5-0.6-0.6-1.1-0.4-1.8c-0.4-0.7,0.1-0.9,0.6-1.2c2.3-1.2,4-3.3,5.1-5.5c0.7-1.4,2.3-1,2.7-2.4
				c0.1-0.3,0.7-0.7,1.1-1.2c0.4-0.6,0.7-0.1,0.9,0.3c-1.1,2-1.8,4.2-3.5,5.9c-0.4,0.4-0.6,0.5,0.2,1c0.9,0.7,0,2.3-0.4,2.9
				C85.7,82.9,85.1,85.3,83.2,86.8z"/>
			<path class="st83" d="M84.3,64.6c-1.6-0.3-3.1,0.2-4.7,0c-0.6-0.1-1.4,0.2-1.9-0.3c-0.2-0.6,0.2-0.9,0.5-1.3
				c1.2-1.4,2.9-2.5,4.2-3.8c0.3-0.3,0.7-0.5,1.1-0.1c0.4,0.5,0.9,0.9,0.3,1.7c-0.7,1-0.1,1.8,0.8,2.3
				C84.6,63.7,84.4,64.1,84.3,64.6z"/>
			<path class="st84" d="M77.7,80.5c-0.6,0.6-1.3,0.4-2.2,0.8c0.4-0.9,0.9-1.1,1.5-1.1C77.1,80.5,77.4,80.5,77.7,80.5z"/>
			<path class="st85" d="M78.4,83.1c0,0.3-0.4,0.5,0,0.7c-0.3,0.4-0.5,1-1.1,0.4c0.7-0.5-0.1-1,0-1.5C77.7,82.9,78.1,83,78.4,83.1z"
				/>
			<path class="st86" d="M82.1,69.1c0.1-1-0.4-2,0.3-3C82.4,67.1,82.9,68.2,82.1,69.1z"/>
			<path class="st87" d="M83.6,59.1c-2.2,1.4-4.2,3.1-5.9,5.2c-0.6-0.1-0.7,0.5-1.1,0.7c-3.7,0.5-7.1,1.9-10.2,4
				c-1.4,1-2.5-0.1-3.8-0.3c-0.2-0.2-0.2-0.5-0.2-0.7c0.1-0.4,0.2-0.7,0.5-0.9c1.1-0.5,2.1-1.3,3-2.1c3.7-3.8,7.8-7.2,11.6-10.9
				c0.4-0.4,0.9-0.7,1.4-0.9c0.2-0.2,0.9,0.3,0.8-0.5c-0.6-0.9,0.4-0.7,0.7-1c0.2,0,0.4,0,0.7,0c0,0.1,0,0.2,0.1,0.3
				c0.2,0.9,0.5,0,0.8,0c0.1,1.4,2.1,2,1.5,3.7C83.9,56.9,83.8,58,83.6,59.1z"/>
			<path class="st88" d="M83.6,49.2c-0.1-0.2-0.3-0.5-0.4-0.7c-0.1-0.9,0.4-1.2,1.1-1.3c1.1-0.1,1.6,0.7,2.2,1.3
				c-0.8,1.1-0.6,2.4-0.5,3.9c-0.7-0.5-1.3-1.2-1.2-1.7C85.1,49.4,84.4,49.3,83.6,49.2z"/>
			<path class="st89" d="M86.6,48.4c-0.7-0.4-1.5-0.7-2.2-1.1c-0.1-1.1,0.9-1.3,1.5-1.8c0,0,0,0,0,0C87.7,46.1,86.2,47.5,86.6,48.4z
				"/>
			<path class="st90" d="M81.8,52.1c-0.2,0.4-0.3,0.9-0.9,1.3c-0.4-0.5,0.2-0.9,0.1-1.3C81.3,52.1,81.5,52.1,81.8,52.1z"/>
			<path class="st18" d="M62.6,68.7c0.2,0,0.4-0.1,0.5-0.1c2.1,0.9,3.5-0.5,5.2-1.3c2.6-1.1,5.1-3.1,8.3-2.3
				c-1.4,1.4-2.8,2.8-4.3,4.1c-0.8,0.7-0.6,1.1,0.3,1.5c-0.8,1.1-2.2,1-3.3,1.6c-0.8,0.5-1.7,0.8-1.6,2c0,0.2-0.1,0.5-0.2,0.7
				c-0.4,0.9-2,0.1-2.1,1.7c-0.1,1-1.5,1.2-2.5,1.5c-1.6,0.6-3.2,1.5-3.7,3.5c-0.2,0.7-0.5,1-1.1,0.7c-0.8-0.3-1.5,0-2.3,0.2
				c-1.4,0.3-2.8,0.4-3.9-0.7c-0.6-0.6-1.6-0.5-2.2-1.1c-0.1-0.1-0.1-0.3-0.1-0.5c0.5-0.6,1-1.1,1.5-1.6c0.5-1.4,1.7-2,3-2.4
				c3-0.3,4.4-1.6,4.6-4.1C59.5,70.4,60.8,69.2,62.6,68.7z"/>
			<path class="st20" d="M58.2,82c0.2,0,0.5,0.4,0.6-0.2c0.4-1.4,0.9-2.5,2.5-3.4c1.1-0.7,2.5-0.5,3.4-1.5c0.3-0.3,0.8-0.7,0.4-1.2
				c-0.2-0.3-0.8-0.4-0.3-0.8c0.3-0.2,0.6-0.2,1-0.1c0.9,0.3,1.8,0.2,1.4-1.1c-0.3-0.9,0.2-1.1,0.7-1.4c1.5-0.7,2.9-1.6,4.6-1.9
				c1.2-0.7,2.2-1.5,3.6-1.5c0.3,0.2,0.1,0.6,0.4,0.8c1.4,1.1-0.2,1.4-0.6,1.7c-0.7,0.5-2.1,0.1-1.5,1.8c0.2,0.5-0.8,0.4-1.2,0.6
				c-1.1,0.5-2.3,0.8-2.8,2.1c0.6,0.4,1.2-0.2,1.5,0.1c-0.9,3.2-3.7,4.7-6.5,6.6c1.3,0.5,2.1,0.6,3.1,0.1c-0.1,0.8-1.3,2.1,0.8,1.6
				c-0.4,0.6-0.8,0.7-1.2,0.9c-1.1,0.4-2.5,0.5-2.7,2c0,0.1-0.5,0.1-0.8,0.2c-1.4-1.2-0.2-2,0.6-2.6c1.1-0.8-0.2-0.7-0.3-1.1
				c-0.9-0.2-1.1,0.7-1.7,1.1c-2.8,1.6-5.8,1.5-8.8,1.8c-0.8-0.4-0.9-1.1-0.2-1.6C55.7,84.1,56.6,82.7,58.2,82z"/>
			<path class="st91" d="M72.3,81.1c-0.3,1,0.2,2.2-1,3c0.7-2.4-1.5-0.7-2-1.8C70.3,81.8,71.5,81.9,72.3,81.1z"/>
			<path class="st92" d="M76.6,69.8c-0.3-0.1-0.4-0.5-0.4-0.8c0.2-1.3,1.2-1,2.2-1.4C78,68.8,76.5,68.6,76.6,69.8z"/>
			<path class="st93" d="M54.5,86.4c3.1-0.7,6.3-0.4,9.2-1.8c0.1-0.2,0.3-0.1,0.4,0c-2,1.5-3.8,3.2-6,4.3c-1.1,0.6-1.8,1.7-3.3,1.7
				c-0.5,0-0.9,0.8-0.9,1.6c0,0.6-0.3,1.3-0.5,1.9c-0.4,0.5-0.7-0.9-1.1,0c-0.3,1-0.9,1.8-1.5,2.7c-0.3,0.3-0.5,0.8-0.9,0.8
				c-0.5-0.1-0.5-0.6-0.6-1c-0.2-0.9-0.6-1.7-0.7-2.6c-0.1-0.8-0.6-1-1.1-1.3c0-0.2,0-0.5,0-0.7c1.1-2.1,3-3.4,4.9-4.7
				c0.5-0.3,0-0.6,0.2-0.8C53.2,85.9,53.9,86.1,54.5,86.4z"/>
			<path class="st94" d="M52.2,94.2c-0.2-0.4-0.5-1,0.1-1.2c1.1-0.4,0.3,1.1,1,1.2C53,94.8,52.6,94.3,52.2,94.2z"/>
			<path class="st95" d="M64.1,84.6c-0.1,0-0.3,0-0.4,0c0.4-0.4,0.8-1,1.3-1.3c0.5-0.2,0.6,0.2,0.2,0.5
				C64.8,84.1,64.4,84.3,64.1,84.6z"/>
			<path class="st96" d="M34.5,66.2c-0.5-0.7-0.4-1.5-0.1-2.2c0.1-0.1,0.3-0.2,0.4-0.4c0.3-0.3,0.3-0.8,0.8-0.9c0.2,0,0.3,0,0.5,0.1
				c0.6,0.8,1.4,1.3,1.8,2.3c-0.1,0.7,0,1.1,0.9,1c0.7-0.1,1.7-0.3,1.5,1.1c-1.3,1.4-2.9,0.9-4.5,0.8C35.2,67.6,35.2,66.6,34.5,66.2
				z"/>
			<path class="st97" d="M39.7,73.9c-1.5-0.7-2.4-2.1-3.7-2.9c-0.8-0.9-0.5-1.7,0.1-2.5c0.2-0.3,0.4-0.2,0.7-0.1
				c0.2,1.9,1.1,3,3,3.4c0.6,0.1,1,0.4,1.2,1c0,0.6-0.4,1-0.8,1.3C40,74,39.9,74,39.7,73.9z"/>
			<path class="st98" d="M36.7,68.3c-0.2,0-0.4,0-0.6,0.1c0-0.1-0.1-0.3-0.1-0.4c0.9-0.2,1.8-0.5,2.7-0.4c0.7,0.1,1.3-0.2,1.8-0.7
				c0.1,0.1,0.2,0.1,0.2,0.2c0.6,0.8,0.9,1.5-0.5,1.8c-1,0-2,0.2-3-0.1C37,68.6,36.9,68.5,36.7,68.3z"/>
			<path class="st99" d="M36.7,74.2c-0.4,0.5-0.7,1-1.4,1.2c-0.3-0.1-0.8,0-0.4-0.6C35.4,74.2,36.1,74.3,36.7,74.2z"/>
			<path class="st100" d="M31.8,69c0,0.6-0.3,0.8-0.8,1C31,69.4,31.3,69.1,31.8,69z"/>
			<path class="st101" d="M34.3,72.9c0.3,0,0.5,0.1,0.4,0.3c-0.1,0.2-0.3,0.3-0.5,0.4c-0.2,0.1-0.4-0.1-0.3-0.3
				C34,73.2,34.2,73,34.3,72.9z"/>
			<path class="st102" d="M33.3,75.3c0.2-0.6,0.5-0.8,1-1C34.2,74.9,33.9,75.2,33.3,75.3z"/>
			<path class="st27" d="M37.1,84.2c-1.2,0-1.4,1.5-2.6,1.5c-1.4-1.5-1.3-3.4-1.8-5.2c0.2-0.4,0.5-0.7,0.7-1.1
				c0.8-0.4,1.3,0.1,1.6,0.8c0,0.6,0.2,1.2,0.7,1.7C36,82.8,36.9,83.3,37.1,84.2z"/>
			<path class="st22" d="M34.9,80.5c-0.3-0.6-0.7-1.1-1.5-1.1c0-0.1,0-0.2,0-0.4c0.4,0,0.9,0,1.2-0.3c1.7-1.6,3.4-3.2,5.1-4.9
				c0.1,0,0.2,0,0.4,0c0.9-0.7,2.3-0.4,3.1-1.3c1.9-0.7,3.6,0.5,5.4,0.6c0.2,0.1,0.3,0.2,0.4,0.3c0.1,0.4-0.1,0.7-0.5,0.9
				c-3.3,1.8-5.5,4.8-8.3,7.2c-1.2,1-0.9,2.1,0.7,2.6c1.2,0.4,2.4,0.9,3.7,1.1c1.8,0.5,3.8,0.1,5.5,1.3c-0.4,1.1-1.4,0.8-2.2,0.8
				c-1.5,0-2.9-0.3-4.4-0.4c-3.2-0.8-5.5-2.8-7.8-5C35.2,81.5,34.9,81.1,34.9,80.5z"/>
			<path class="st28" d="M80.3,43.3c0,0.8-0.6,1.2-1.1,1.6c-2.6,2.4-5.2,4.7-7.8,7.1c-0.1,0.4-0.5,0.4-0.8,0.5c-1.1,0-1,1.1-1.4,1.6
				c-1.4,1.1-2.3,2.8-4,3.6c-0.4,0.1-0.9,0-1.2,0.4c-0.5,0.7-1.2,1-1.9,0.9c-1.7-0.2-3.5,0.3-5.1-0.8c0.1-1.4,1.7-1.6,2.2-2.6
				c0.7,0,0.2-0.6,0.4-0.9c0.6-0.4,1.2-0.1,1.8-0.1c2,0.1,4-1.4,4.5-3.2c-0.1-0.4-0.6-0.8-0.4-1.3c2.4-2.3,4.8-4.5,7.3-6.8
				c0.6-0.6,1.3-1.1,1.2-2.1c0.1-0.2,0.2-0.2,0.4,0c1.6-0.2,1.8-1.9,3-2.6c0.5,0.6,0.1,1.2,0,1.8c-0.2,0.6-0.6,1-1.1,1.4
				c1.1-0.5,1.8,0.9,2.9,0.6C79.6,42.7,80,42.8,80.3,43.3z"/>
			<path class="st103" d="M41.6,51.8c0.9-0.2,1.7-0.7,2.5-1.1c0.3-0.1,0.5-0.2,0.8-0.3c0,0,0,0,0,0c0.3,1.2-0.9,2.1-0.6,3.5
				c1.5-0.5,2.4-1.9,3.7-2.5c0.6-0.2,0.9-0.4,1.5-0.4c0.7,0,1.4-0.8,2-1.4c0.3-0.4,0.6-0.8,1-1.1c0.4,0.5,0.5,1,0.5,1.5
				c-1,1.8-1.8,3.7-1.1,5.9c0.6,0.6,0.8,0.1,1-0.3c0.2-0.4,0-0.9,0.4-1.1c0.2-0.2,0.3-0.6,0.7-0.4c0.1,0.2,0.2,0.5,0.4,0.7
				c-0.3,0.8,0.5,0.5,0.7,0.8l0,0c0.4,0.9,0,1.9,0.7,2.7c0.2,1.8-1,2.5-2.3,3.2c-0.4-0.1-0.6-0.4-0.8-0.7c0-0.2,0-0.4,0-0.5
				c0.3-0.4,0.3-1,0.7-1.4c-0.5,0.3-0.8,0.9-1.5,1c-0.6,0.2-1.2-0.1-1.7-0.4c-0.9-0.6-1.8-0.6-2.8-0.1c-0.2,0.1-0.3,0.1-0.5,0.1
				c-0.4,0-0.8-0.1-1.3-0.3c-0.9-0.4-1.7-1-2.7-1.4c-0.6-0.3-1.2-0.6-1.8-0.9c-0.1-0.1-0.3-0.2-0.4-0.3c-0.8-0.4-1.8,0.1-2.5-0.7
				c0.4-0.5,0.8-1,1.2-1.6c-0.1-0.3,0-0.5,0.2-0.7c0.7-0.3,1.3-0.6,1.3-1.4C41.4,52,41.5,51.9,41.6,51.8z"/>
			<path class="st104" d="M58.5,49.5c-3.8,0-3.8-0.2-2.9-4.5c0.6-3.1,4.5-4.2,6.3-2.5c0.7,0.7,1.1,1.4,0.8,2.2
				c-0.6,1.3-0.6,2.3,0.6,3.2c0.4,0.3-0.1,0.4-0.4,0.5c-0.9,0.7-2.2,0.3-3.1,1C59.4,49.7,59,49.9,58.5,49.5z"/>
			<path class="st105" d="M57,58.4c1.7,0.1,3.4,0.2,5.1,0.3c0.8,0,1.3,0,1.6-1c0.2-0.8,0.9-0.1,1.4-0.1c0.2,0.7-0.4,1.2-0.8,1.5
				c-1.9,1.6-3.6,3.5-5.6,5.1c-0.3,0.2-0.6,0.3-1,0.3c-0.5,0-0.8-0.2-1.2-0.5c-0.3-0.4,0-1-0.3-1.4c-0.8-1.2-0.5-2.5-0.4-3.8
				c0-0.4,0.3-0.6,0.8-0.6C56.8,58.3,56.9,58.4,57,58.4z"/>
			<path class="st106" d="M59.6,49.1c1-0.9,2.1-0.8,3.3-0.7c0.9,0.6,1.7,1.2,2.6,1.8c0.3,0.4,0.5,0.7,0.8,1.1
				c-0.3,1.7-1.8,2-2.9,2.9c-0.3,0.1-0.5,0-0.8-0.1c-1.3-0.7-1.5-1.9-1.3-3.2c-0.1-0.8-1-0.6-1.4-1C59.6,49.7,59.4,49.5,59.6,49.1z"
				/>
			<path class="st107" d="M56.7,58.3c-0.9,1.5-0.4,3-0.1,4.5c-0.4,0.6-0.3,1.5-0.9,2c-1.1,0.9-2.2,1-3.4,0.2
				c-0.6-0.7-0.4-1.4,0.3-1.8c0.6-0.4,0.7-0.9,0.6-1.6c0-0.1,0.1-0.1,0.1-0.2c0.7-1,2.3-1.4,2.2-3c0.2-0.5,0.6-0.7,1.1-0.4
				C56.7,58.1,56.7,58.2,56.7,58.3z"/>
			<path class="st108" d="M74.4,41.4c-0.1,0-0.2,0-0.4,0c-0.3-1.6-2-2.3-2.6-3.7c0.7-0.2,1.4-0.2,1.8-1.2c0.3-0.9,1.3-1.6,2.1-2.2
				c0.2-0.1,0.3,0,0.5,0.1C74.5,36.6,73.8,38.9,74.4,41.4z"/>
			<path class="st109" d="M59.6,49.1c0.1,0.3,0.3,0.5,0.4,0.8c0,0.1,0,0.2,0,0.3c-0.6,1-1.4,1.8-1.3,3.1c-0.1,0.1-0.2,0.3-0.4,0.4
				c-0.5,0.3-1,0.8-1.6,0.5c-0.3-0.2-0.4-0.6-0.5-0.9c-0.3-0.8-0.1-1.6,0.6-2.1c0.3-0.2,0.7-0.5,1-0.8c0.3-0.2,0.5-0.5,0.8-0.7
				C58.9,49.4,59.2,49.2,59.6,49.1z"/>
			<path class="st110" d="M57.7,50.3c-0.2,0.2-0.5,0.5-0.7,0.7c-0.8,0.3-1.2,1.1-1.4,1.9c-0.8,0.1-1.4-0.1-1.8-0.9
				c-0.7-1.1-0.4-1.6,0.8-1.7C55.6,50.1,56.7,50.8,57.7,50.3z"/>
			<path class="st111" d="M42.7,46.9c0.9-0.7,1.4,0.7,2.2,0.4c0.3,0.2,0.2,0.5,0.3,0.7c-0.1,0.7-0.4,1.2-1,1.5
				c-1.8,0.2-2.1-0.1-2.2-2C42.1,47.3,42.4,47.1,42.7,46.9z"/>
			<path class="st112" d="M42.3,47.4c-0.1,1.4,0.4,2.2,1.9,2.2c0,0.1-0.1,0.2-0.1,0.4c-0.1,0-0.2,0-0.3,0c-0.6,0.3-1.3,0.6-2.1,0.5
				c-1.5-1.2-1.7-1.7-0.8-3.5l0.2,0C41.7,46.6,42,47,42.3,47.4z"/>
			<path class="st113" d="M75.5,34.4c-0.7,1.2-2,1.8-2.5,3.3c-0.3,1.1-1-0.5-1.6,0c0-0.2-0.1-0.6-0.1-0.6c1.6-0.5,2.3-2.2,3.7-3.1
				C75.5,33.9,75.6,34.1,75.5,34.4z"/>
			<path class="st114" d="M51.9,55.8c-0.4-1-0.7-2-1.1-3c1.4-0.5,1.1-2.2,2.2-2.9C52.4,51.8,51.9,53.8,51.9,55.8z"/>
			<path class="st114" d="M56.3,53.2c0.1,0.2,0.3,0.5,0.4,0.7c0.3,0.5,0.7,0,1.1,0.1c0.4,0.1,0.8,0.2,1.1,0.4
				c0.3,0.2,0.6,0.3,0.7,0.7c0.1,0.2,0.3,0.4,0.4,0.5c-0.3,0.1-0.5,0.1-0.8,0.2c-0.5-0.5-1.3-0.6-1.9-0.8c-0.9-0.2-1.6-0.7-1.4-1.8
				C56.1,53,56.2,53,56.3,53.2z"/>
			<path class="st115" d="M76.6,30.7c0.1-0.1,0.2-0.2,0.4-0.4c0.2,0.1,0.5,0.2,0.5,0.2c-0.3,1.2-0.1,2.6-1.2,3.5
				c-0.6-0.5,0.4-1,0-1.5C76.6,32,76.1,31.3,76.6,30.7z"/>
			<path class="st116" d="M56.3,53.2c-0.1,0-0.3,0-0.4,0c-0.1-0.1-0.2-0.2-0.4-0.4c-0.4-1.3,0.2-1.8,1.4-1.9
				C56.5,51.7,56.1,52.3,56.3,53.2z"/>
			<path class="st114" d="M56.7,58c-0.4,0.1-0.7,0.2-1.1,0.4c-0.6-0.9-0.3-2-0.4-2.9C55.8,56.3,55.5,57.5,56.7,58z"/>
			<path class="st117" d="M69.5,35.3c0.8,0.4,1.3,0.7,1.3,1.5C70,36.7,69.7,36.2,69.5,35.3z"/>
			<path class="st118" d="M76.2,32.6c0.7,0.5-0.1,1,0,1.5c-0.1,0.1-0.2,0.2-0.4,0.4c-0.1,0-0.2,0-0.4,0c-0.1-0.1-0.3-0.3-0.4-0.4
				C75.5,33.5,75.9,33.1,76.2,32.6z"/>
			<path class="st114" d="M54.1,54c-0.2,0.1-0.5,0.2-0.7,0.4c0-0.3-0.1-0.8,0.3-0.9C54,53.3,54,53.7,54.1,54z"/>
			<path class="st119" d="M44.9,50.3c0.2-0.4,0.4-0.7,0.9-0.9C45.9,50.2,45.3,50.2,44.9,50.3C44.9,50.3,44.9,50.3,44.9,50.3z"/>
			<path class="st120" d="M45.2,48c-0.1-0.2-0.2-0.5-0.3-0.7c0.1-0.1,0.3-0.3,0.4-0.4c0.3,0.2,0.3,0.4,0.2,0.7
				C45.4,47.8,45.3,47.9,45.2,48z"/>
			<path class="st27" d="M46.3,46.9c0.1-0.2,0.3-0.5,0.4-0.7c0.2,0,0.6-0.3,0.6,0C47.4,46.8,46.8,46.9,46.3,46.9z"/>
			<path class="st114" d="M55.2,55.4c-0.3,0.1-0.6,0.3-0.9,0c-0.2-0.3-0.1-0.5,0.2-0.7C54.7,54.9,55,55.2,55.2,55.4z"/>
			<path class="st121" d="M79.2,34.4c1-0.8-1.2-1.2-0.2-2c0.6-0.5,1.5-1,1.7-1.6c0.5-1.8,0.9-1.2,1.7-0.2c0.5,0.6,1.3,0.8,2,1.3
				c0.3,0.4,0.4,0.9,0.2,1.4c-0.6,0.8-1.3,1.3-1.9,2c-0.8,0.5-1.6,0.5-2.4,0.1C79.8,35,79.4,34.8,79.2,34.4z"/>
			<path class="st122" d="M84.3,33.3c0-0.5,0-1,0-1.5c0.3,0.1,0.5,0.2,0.8,0.4c0.4-0.3,0.7-0.3,1.1,0c-0.1,0.6-0.2,1.2-0.4,1.8
				c-0.4,0.6,0.8,0.6,0.4,1.1c-0.1,0.9-0.3,1.7-0.4,2.6c-0.4,0.4,0.1,1-0.3,1.5c-1.1,0.8-2,1.9-3.3,2.6c-0.7-0.9,0-1.5,0.5-2
				c1.7-1.5,2.2-3.2,1.3-5.3C83.8,33.9,84,33.6,84.3,33.3z"/>
			<path class="st123" d="M77.7,38.5c0.5-0.8-1.4-1.3-0.4-2.2c1.1-0.2,2.1-0.1,2.1,1.4c-0.1,0.3-0.4,0.6-0.7,0.8
				C78.4,38.5,78.1,38.7,77.7,38.5z"/>
			<path class="st124" d="M77.7,38.5c0.2-0.1,0.5-0.2,0.7-0.4c0.9,0.3,1.3,0.8,0.5,1.5c-0.5,0.5-1.1,1.2-2,1
				c0.1-0.6,0.2-1.2,0.4-1.8C77.5,38.7,77.6,38.6,77.7,38.5z"/>
			<path class="st125" d="M79.2,37.7c0.1-1.4-1.4-0.8-1.8-1.5c0.1-0.1,0.2-0.3,0.4-0.4c0.4-0.2,0.5-1,1.2-0.7
				c0.4,0.4,0.7,0.9,1.1,1.2c0.3,0.3,0.9,0.5,0.5,1C80.3,37.9,79.7,38.2,79.2,37.7z"/>
			<path class="st126" d="M78.8,35.2c-0.4,0.2-0.5,0.8-1.1,0.7c0.1-0.9,0.6-1.4,1.5-1.5c0.4,0,0.8-0.1,1.1,0.4
				C79.9,35.2,79.4,35.6,78.8,35.2z"/>
			<path class="st127" d="M86.2,32.2c-0.4,0-0.7,0-1.1,0c0-0.5,0-1.1,0.7-1.1C85.9,31.4,86,31.8,86.2,32.2z"/>
			<path class="st82" d="M43,86.4c1.8-0.2,3.5,0.4,5.3,0.4c0.6,0,1.2,0.2,1.7-0.3c1-0.7,1.8-0.7,2.6,0.4c0.3,0.1,0.7,0,0.2,0.5
				c-1.8,1.6-3.6,3.1-5.4,4.7c-0.9-0.3-2,1.1-2.7-0.6c-0.4-0.9-1.8-1.3-1.4-2.7c0.1-0.6-0.7-0.7-1-1.2C42.1,86.9,42.5,86.6,43,86.4z
				"/>
			<path class="st93" d="M43,86.4c-0.2,0.4-0.5,0.7-0.7,1.1c-0.2,0.1-0.5,0.2-0.7,0.4c-1.5-1.2-2.9-2.5-4.4-3.7
				c-1.1-0.3-1.3-1.4-1.8-2.2c-0.1-0.4,0-0.5,0.4-0.4c0.9,0,1.4,0.8,1.9,1.3C39.1,84.5,41.1,85.4,43,86.4z"/>
			<path class="st83" d="M58.5,63.9c2.2-2.1,4.6-4,6.6-6.3c1.2-1.2,2.5-2.4,3.7-3.7c0.7-0.5,0.9-1.3,1.5-1.8c0.4,0,0.7-0.1,1.1-0.1
				c0.8,0.1,1.5,0.1,2.3-0.1c0.4-0.1,1.5-1.4,1.3,0.4c0,0,0.4,0.2,0.6,0.1c1.2-0.3,2.1,0.4,3.1,0.8c-2.5,2.9-5.5,5.2-8.3,7.8
				c-2.1,1.9-3.9,4.2-6.3,5.9c-0.4,0.3-0.7,0.6-1.3,0.3c-0.3,0.1-0.5,0-0.7-0.2c-0.4-0.4-0.9-0.7-1.4-1c-0.7-0.6-1.8-0.3-2.3-1.2
				C58.4,64.6,58.4,64.3,58.5,63.9z"/>
			<path class="st128" d="M84.3,33.3c-0.7,0.7,0.2,1.4,0.4,1.9c0.7,2.2-0.3,3.6-1.7,4.9c-0.5,0.5-0.9,1-0.8,1.7
				c-0.1,0.1-0.2,0.2-0.4,0.4c-0.5,0.3-1.2,0.5-1.5,1.1c0,0,0,0,0,0c-0.4-0.1-0.7-0.3-1.1-0.4c-0.2-0.6,0.3-0.9,0.6-1.2
				c1-1.1,1.9-2.3,2.7-3.7c0.7-1.2,0.7-2.1,0-3.2C83,34.1,83.4,33.4,84.3,33.3z"/>
			<path class="st129" d="M85.8,45.5c-0.2,0.9-1.1,1.1-1.5,1.8c-0.5,0.2-0.9,0.6-1.1,1.1c-1.2-0.9-0.7-2.2-0.7-3.3
				c0.8,0.6,1.6,0.9,2.6,0.4C85.3,45.5,85.6,45.5,85.8,45.5z"/>
			<path class="st130" d="M85.1,45.5c0,0-0.1,0.1-0.1,0.1c-1.8,1.4-1.8,1.4-2.5-0.5C83.6,43.9,84.3,44.8,85.1,45.5z"/>
			<path class="st89" d="M84.9,42.4c-0.1,0.8-0.2,1.5-1.1,1.5c-0.1,0-0.4-0.2-0.4-0.3C83.5,42.8,84.4,42.9,84.9,42.4z"/>
			<path class="st131" d="M80.3,43.3c0.1-0.9,0.7-1.1,1.5-1.1C81.5,42.8,80.8,43,80.3,43.3z"/>
			<path class="st132" d="M80.3,51.8c-0.2,0.3-0.8,0.4-0.7,1c-0.3-0.1-0.8-0.3-0.6-0.8C79.2,51.5,79.8,51.8,80.3,51.8z"/>
			<path class="st133" d="M85.4,39.2c0.1-0.5-0.2-1.1,0.3-1.5c-0.2,0.6,0.7,1.4-0.3,1.8C85.5,39.5,85.4,39.3,85.4,39.2z"/>
			<path class="st62" d="M85.8,41.8c0.3,0.3,0.5,0.5,0.8,0.8c0,0.2-0.1,0.6-0.4,0.4C85.7,42.7,85.9,42.2,85.8,41.8z"/>
			<path class="st133" d="M86.2,35.2c0-0.4-1.1-0.5-0.4-1.1C86.3,34.3,87,34.5,86.2,35.2z"/>
			<path class="st134" d="M43.4,57.3c1,0.3,1.9,0.9,2.7,1.5c1.4,1.7-0.1,2.8-0.9,4.1c-0.3,0.3-0.6,0.6-1,0.9
				c-0.3,0.2-0.6,0.4-0.8,0.6c-0.9,0.7-1.8,1.4-2.9,1.8c-1.1,0.1-2.2,0.3-2.8-1c-0.7-0.6-1.5-1.3-1.8-2.3c0.1-0.4,0.5-0.6,0.7-0.8
				c0-0.2-0.1-0.3-0.3-0.4c-0.4-0.2-0.7-0.3-1-0.6c-0.2-0.3-0.2-0.7-0.3-1c-0.1-0.8-0.1-1.7,0.6-2.3c0.1,0,0.2,0,0.3,0
				c1.3-0.1,2.6-0.7,4-0.1c0.7,0.2,1.4,0.5,2.1,0.2C42.5,57.6,43,57.5,43.4,57.3z"/>
			<path class="st135" d="M41.6,51.8c0,0.1,0,0.3,0,0.4c-0.3,0.6-0.8,1.1-1.5,1.4c-0.1,0.2-0.2,0.4-0.4,0.6
				c-0.6,0.3-1.2,0.3-1.9,0.1c-0.4-0.1-0.7-0.3-0.7-0.7c0-0.1,0-0.2-0.1-0.4c-0.1-1.5-0.2-3,0.8-4.4c0.1,0.4,0.3,0.9,0.7,0.2
				c0.2-0.4,0.1-0.9,0.7-1C39.1,49.9,39.5,51.4,41.6,51.8z"/>
			<path class="st136" d="M43.4,57.3c-0.3,0.4-0.6,0.7-1.1,0.8c-0.7-0.1-1.5-0.2-2.2-0.1c-1.3-0.7-2.8,0.6-4.1-0.3
				c0.5-0.6,1.2-0.8,1.8-1.1c1.2-0.5,2.5-0.6,3.7,0C42.2,56.8,42.8,57,43.4,57.3z"/>
			<path class="st137" d="M37.8,48.9c-0.5,1.4-0.5,2.9-0.8,4.4c-1.1-1.7,0.2-3.4,0.1-5.2C37.6,48.1,37.9,48.4,37.8,48.9z"/>
			<path class="st35" d="M37.1,53.6c0.2,0.2,0.5,0.5,0.7,0.7c0,0.4-0.1,0.9-0.7,0.9c-0.4,0-0.4-0.4-0.5-0.7
				C36.5,54.1,36.3,53.7,37.1,53.6z"/>
			<path class="st138" d="M35.8,57.7c-0.1,0.9-0.7,1.6-0.5,2.5c-0.1,0.1-0.1,0.1-0.2,0.2c-0.1,0-0.1-0.1-0.2-0.1c0,0,0,0,0,0
				c-0.1-0.6-0.3-1.2-0.4-1.8C34.9,58.2,35.4,57.9,35.8,57.7z"/>
			<path class="st139" d="M41.6,56.5c-1.2,0-2.5,0-3.7,0c0.1-0.1,0.2-0.3,0.4-0.4c1.1-0.3,2.2-0.3,3.4,0
				C41.6,56.3,41.6,56.4,41.6,56.5z"/>
			<path class="st140" d="M41.6,56.2c-1.1,0-2.2,0-3.4,0c0.1-0.1,0.3-0.2,0.4-0.4C39.6,56,40.6,55.4,41.6,56.2z"/>
			<path class="st141" d="M40.9,46.9c0,1.2-0.3,2.5,0.9,3.4c0.1,0.1,0.2,0.1,0.2,0.2c0,0.1-0.1,0.1-0.1,0.1
				c-2.1-0.7-2.3-1.3-1.5-4.1C40.6,46.7,40.8,46.8,40.9,46.9z"/>
			<path class="st142" d="M42.3,47.4c-0.4-0.1-0.8-0.3-1.2-0.4c0.5-1.2,1-1,1.5,0C42.5,47.1,42.4,47.2,42.3,47.4z"/>
			<path class="st143" d="M41.9,50.6c0-0.1,0-0.2-0.1-0.3c0.7-0.1,1.3-0.2,2-0.3C43.4,50.7,42.7,50.7,41.9,50.6z"/>
			<path class="st144" d="M35.3,60.2c0.1,0.2,0.3,0.4,0.4,0.6c0.1,0.3,0.3,0.5,0.4,0.8c0,0.1,0,0.3,0,0.4c-0.1,0.3-0.3,0.5-0.5,0.7
				c-0.3,0.3-0.5,0.5-0.8,0.8c0-0.2,0-0.5,0-0.7c0.5-0.8-0.2-1.7,0.3-2.5L35.3,60.2z"/>
			<path class="st145" d="M35.2,60.3c0,0.9,0.4,1.8-0.3,2.5c0-0.9-0.4-1.7,0-2.6C35,60.2,35.1,60.3,35.2,60.3z"/>
			<path class="st146" d="M62.6,68.7c-1.2,1.1-2.7,2-3.7,3.3c-0.1,0.1-0.3,0.1-0.4,0.1c-0.6-0.5-0.6-1.3-1.3-1.7
				c-0.5-0.3-1.1-0.4-1.6-0.6c-1.3-0.6-1.3-1.6-0.7-2.7c0.1-0.3,0.7-0.4,0.7-0.8c0.1-0.2,0.3-0.3,0.6-0.4c0.2,0,0.3,0,0.5,0.1
				c1,0.9,2.4,1.1,3.3,2.1c0.4,0.4,0.8,0.1,1.1-0.1c0.1-0.1,0.3-0.2,0.4-0.3c0.3-0.1,0.6-0.3,0.9-0.3c0.2,0.1,0.5,0.2,0.2,0.5
				C62.6,68.2,62.6,68.5,62.6,68.7z"/>
			<path class="st147" d="M62.6,68c-0.1-0.1-0.2-0.2-0.3-0.4c-0.3-0.1-0.5-0.4-0.4-0.7c0.1-0.3,0.5-0.3,0.7-0.1
				c0.1,0.1,0.2,0.2,0.4,0.4C62.9,67.6,62.9,67.8,62.6,68z"/>
			<path class="st20" d="M57.4,70.2c1,0.2,0.8,1.2,1.1,1.8c-0.1,1.7-1.6,2.3-2.6,3.2c-0.5,0.5-1.2,0.8-1.8,1.2
				c-0.4,0.2-0.9,0.4-1.2,0.7c-0.3,0.2-1.7-0.2-0.5,1.1c0.4,0.4-0.8,0.3-1.2,0.4c-0.4,0.6-1.8,0.1-1.5,1.5c0,0.1,0,0.2,0,0.4
				c-1.4,2.2-3.3,3.8-5.5,5.2c-1.2-0.4-2.5-0.7-3.7-1.1c-1.8-0.7-2.1-1.8-0.7-3.1c2.3-2.2,4.7-4.3,6.9-6.6c0.7-0.7,1.9-0.3,2.3-1.3
				c1.2-0.8,2.5-1,3.8-1.2C54.5,72.1,56.2,71.6,57.4,70.2z"/>
			<path class="st22" d="M44.1,85.7c1.8-1.7,3.7-3.4,5.5-5.2c1.1,0.2,2.2,0.4,3.1,1.4c0.4,0.5,2.1,0.8,3.2,0.1
				c0.7-0.4,1.4-0.7,2.2,0c-0.9,1.2-1.9,2.2-3.1,3c-0.5,0.3-1.1,0.7-0.6,1.4c-0.6,0.1-1.3-0.2-1.8,0.4c-0.8-0.5-1.7-0.4-2.6-0.4
				C48,86.4,46.1,86,44.1,85.7z"/>
			<path class="st148" d="M54.1,76.5c1.2-1.7,3.3-2.6,4.4-4.4c0.1,0,0.2,0,0.4,0c0.5,1.5-1.4,4.3-3.1,4.4
				C55.2,76.5,54.6,76.5,54.1,76.5z"/>
			<path class="st149" d="M49.6,80.2c-0.3-0.2-0.9-0.3-0.9-0.8c0-0.5,0.6-0.6,0.9-0.7c0.5-0.1,0.9,0,1.4,0
				C51,79.6,50.5,80.1,49.6,80.2z"/>
			<path class="st150" d="M37.8,65.1c0.9,0.7,1.9,0.8,3,0.6c0.2,0.2,0.3,0.5,0.3,0.8c-0.1,0.3-0.3,0.5-0.6,0.4c0,0,0,0,0,0
				c-0.5-0.6-1.3-0.4-1.9-0.3c-0.5,0.1-0.7,0.1-1.1-0.4C36.9,65.5,37.7,65.5,37.8,65.1z"/>
			<path class="st151" d="M35.7,62.8c0-0.3,0-0.6,0.3-0.8c0.5-0.3,1-0.3,1.5,0c-0.3,0.6-1,0.5-1.5,0.8
				C35.9,62.8,35.8,62.8,35.7,62.8z"/>
			<path class="st152" d="M36.7,68.3c0.1,0,0.3,0,0.4,0c1.1,0.8,2.3,1,3.6,1.3c0.7,0.2,1.4,0.3,2,0.8c0.5,1.4-0.5,1.8-1.3,2.5
				c-0.2,0.1-0.4,0-0.5-0.1c-0.4-0.9-1.4-0.7-2.1-1C36.9,71.1,36.4,70.3,36.7,68.3z"/>
			<path class="st153" d="M40.8,72.8c0.1,0,0.2,0,0.4,0c0.8-0.3,1.5-0.9,2.2,0.1c-0.8,1.2-2.1,1.1-3.3,1
				C40,73.3,40.6,73.2,40.8,72.8z"/>
			<path class="st154" d="M42.7,70.6c-1.2-0.3-2.3-0.5-3.5-0.9c-0.8-0.2-1.8-0.3-2.1-1.4c1.1,0,2.2,0,3.3,0.1c0.5,0.3,1.1,0,1.6,0.4
				c0.5,0.3,1,0.4,1.5,0.6c0.3,0.1,0.7,0.2,1.1,0.2c0.2,0,0.3,0,0.4,0.1c0.4,0.2,0.8,0.5,1.2,0.7c0.3,0.2,0.6,0.3,0.6,0.8
				c-0.2,0.4-0.5,0.5-0.9,0.5C44.7,71.8,43.6,71.5,42.7,70.6z"/>
			<path class="st96" d="M41.9,69.1c-0.5-0.2-1-0.5-1.6-0.7c1.1-0.5-0.5-1,0.1-1.5c0.1-0.1,0.3-0.2,0.4-0.4c0.2-0.1,0.3-0.1,0.5,0
				C42.8,68,42.8,68.2,41.9,69.1z"/>
			<path class="st155" d="M35.6,81.6c-0.1,0.1-0.2,0.2-0.4,0.4c-0.4-0.4-1-0.8-0.4-1.5C35.2,80.9,35.4,81.3,35.6,81.6z"/>
			<path class="st156" d="M42.7,70.6c1.1,0.1,2.1,0.9,3.3,0.7c0.7,0.3,1.6,0,2.2,0.5c0.4,0.2,0.8,0.4,0.9,0.9
				c0.1,0.4-0.2,0.6-0.5,0.8c-1.8,0.2-3.4-1-5.1-0.7c-0.7-0.4-1.5,0-2.2-0.1C41.6,71.9,42.6,71.6,42.7,70.6z"/>
			<path class="st157" d="M48.6,73.5c0.1-0.2,0.3-0.5,0.4-0.7c0.9-1.2,2.3-0.7,3.4-1c0.6-0.2,1.2-0.1,1.7-0.4
				c0.1-0.1,0.3-0.2,0.4-0.2c0.4-0.3,1-0.1,1.3-0.7c0-0.1,0-0.3,0-0.4c0-0.2,0-0.4,0.2-0.5c0.5,0.3,1.1,0.2,1.5,0.7
				c-0.4,1.5-1.3,2.1-2.8,2.3c-1.9,0.2-3.7,1.1-5.7,1.1C48.8,73.5,48.7,73.5,48.6,73.5z"/>
			<path class="st158" d="M82.5,34.8c1.4,0.5,1.4,1.8,0.9,2.7c-1.1,2-2.4,4-4.2,5.4c-0.3,0.2-0.5,0.3-0.8,0.5c-0.6-1.4-2-0.6-3.1-1
				c0.5-0.8,1.4-0.9,1.7-1.7c0.5-0.4,1.1-0.8,1.6-1.2c0.9-0.6,0.2-1-0.1-1.4c0.2-0.1,0.5-0.3,0.7-0.4c0.4,0,0.8-0.1,1.2-0.5
				c-0.6-0.6-1.7-0.9-1.5-2.1c0.5-0.1,1-0.3,1.5-0.4C81,35.3,81.8,35.3,82.5,34.8z"/>
			<path class="st159" d="M59.6,55.1c-0.3-0.1-0.6-0.1-0.7-0.4c-0.1-0.2-0.1-0.4,0.1-0.5c0.5-0.3,1.1-0.3,1.7-0.3c0.3,0,0.6,0,0.8,0
				c0.6-0.1,1.2,0.6,1.8,0.1c1-0.9,2-1.7,3-2.6c0.7,0.7,0.1,1-0.3,1.5C64.3,54.9,62.2,55.7,59.6,55.1z"/>
			<path class="st160" d="M70.3,52.1c0.4,1.3-0.9,1.3-1.5,1.8C69.5,53.5,68.7,51.8,70.3,52.1z"/>
			<path class="st161" d="M53,60.2c0,0.1,0,0.2,0,0.3c-0.1,1.3-1.4,1.1-2.1,1.6c-0.2,0-0.3,0-0.5-0.1c-0.8-1.2-1.9-2.1-2.9-3.1
				c0.9-1.1,2-0.9,3-0.2c0.6,0.4,1.1,0.7,1.8,0.7C52.6,59.6,52.9,59.8,53,60.2z"/>
			<path class="st162" d="M47.4,59.1c1.5,0.5,2.5,1.5,3,3c-0.2,0.5-0.7,0.6-1.1,0.8c-1.7,0.7-1.9,0.6-2.5-1.2
				c0.1-0.9-0.6-1.8,0.3-2.6C47.2,59.1,47.3,59.1,47.4,59.1z"/>
			<path class="st163" d="M47.1,59.1c-0.4,0.9,0.3,1.8,0,2.6c0.3,0.7,0.3,1.4-0.1,2.1c-0.1,0.1-0.3,0.2-0.5,0.3
				c-0.4,0-0.7-0.1-1-0.3c-0.3-0.3-0.8-0.4-0.6-1c0.7-1.3,2-2.3,1.3-4C46.5,58.8,46.8,58.7,47.1,59.1z"/>
			<path class="st164" d="M50.8,62.1c0.4-1,1.7-0.6,2.2-1.5c0.1,0.3,0.3,0.5,0.4,0.8c0,0,0,0,0,0c-0.3,0.8-0.8,1.4-1.6,1.7
				C51.1,63,50.7,62.9,50.8,62.1z"/>
			<path class="st165" d="M53,60.2c-0.3-0.2-0.5-0.5-0.8-0.7c0.6-0.6,1.3-1.2,2.3-1.4C53.7,58.6,54,59.9,53,60.2z"/>
			<path class="st166" d="M40.1,53.6c0.3-0.7,0.7-1.2,1.5-1.4C41.8,53.4,41.3,53.9,40.1,53.6z"/>
			<path class="st167" d="M62.6,66.9c-0.7,0-0.5,0.3-0.3,0.7c-0.2,0.3-0.4,0.4-0.8,0.4c-0.2-0.2-0.4-0.2-0.6-0.2
				c0.2,0.1,0.4,0.1,0.6,0.2c-0.7,1-1.4,1.4-2.3,0.1c-0.7-0.9-2.3-0.7-2.8-1.9c-0.3-0.5-0.1-0.8,0.4-0.9c0.7,0.1,0.7-0.6,1.1-0.9
				c0.3-0.1,0.5-0.2,0.8-0.4c0.1,0.3,0.2,0.5,0.4,0.8c0.4,1.2,0.4,1.2,2.2,1.1C61.6,66.1,62.3,66.2,62.6,66.9z"/>
			<path class="st168" d="M57,65.4c-0.5,0-0.7,0.3-0.7,0.8c-0.1,0-0.2,0-0.4,0c-0.7-0.5-0.7-1.1-0.4-1.8c0.6-0.3,0-1.5,1.1-1.5
				c0.5,0.3,0,0.8,0.1,1.1C57,64.3,57.3,64.8,57,65.4z"/>
			<path class="st169" d="M57,65.4c-0.2-0.5-0.4-0.9-0.4-1.5c0.4,0.1,0.7,0.3,1.1,0.4C57.7,64.8,58,65.5,57,65.4z"/>
			<path class="st170" d="M61.5,54.3c-0.2,0-0.4,0-0.6,0.1c-0.3-0.2-0.6-0.5-0.8-0.8c-0.5-1.2-0.9-2.4,0.7-3.1
				c0.4-0.1,0.8,0,1.2,0.3c-0.3,1.2-0.2,2.4,0.7,3.3C62.3,54.3,61.8,54,61.5,54.3z"/>
			<path class="st171" d="M61.8,50.6c-0.4,0-0.7,0-1.1,0c-0.3-0.2-0.9,0-0.7-0.6L60,49.9C60.7,50,61.5,49.6,61.8,50.6z"/>
			<path class="st172" d="M61.5,54.3c0.3-0.4,0.7-0.3,1.1-0.3c0.2,0,0.5,0,0.7,0C62.8,54.6,62.1,54.3,61.5,54.3z"/>
			<path class="st173" d="M55.5,64.3c0.1,0.6,0.3,1.2,0.4,1.8c-0.1,0.1-0.2,0.2-0.3,0.4c-1.1,0.4-2.2,0.1-3.2-0.4
				c-0.3-0.2-0.6-0.5-0.7-0.9c0-0.2,0-0.4,0.1-0.5c0.1-0.1,0.3-0.2,0.5-0.1C53.4,65.1,54.6,65.5,55.5,64.3z"/>
			<path class="st174" d="M52.2,64.7c-0.1,0-0.2,0-0.3,0c-0.4-0.2-0.5-0.7-0.6-1.1c0-0.4,0.2-0.6,0.5-0.8c0.4-0.6,0.9-1.1,1.5-1.5
				c0.5,0.9,1.2,1.8-0.5,2.1C52.2,63.6,52.3,64.2,52.2,64.7z"/>
			<path class="st175" d="M60,50c0.2,0.2,0.5,0.4,0.7,0.6c-1.3,0.9-0.6,2-0.4,3c-0.1,1-0.9,0.4-1.3,0.5c-0.4-0.1-0.7-0.4-0.6-0.9
				C57.8,51.5,58.8,50.7,60,50z"/>
			<path class="st176" d="M58.4,53.2c0.2,0.2,0.3,0.5,0.5,0.7c0.1,0.1,0.1,0.2,0.1,0.2c0,0.1-0.1,0.1-0.1,0.1c0,0.1,0,0.3,0,0.4
				c-0.4,0.1-0.8-0.1-1.1-0.3c-0.2-0.5,0.1-0.8,0.4-1.1C58.3,53.2,58.4,53.2,58.4,53.2z"/>
			<path class="st177" d="M58.2,53.2c-0.1,0.4-0.3,0.7-0.4,1.1c-0.4,0-0.8,0.1-1-0.4C57.4,53.9,57.5,53.1,58.2,53.2z"/>
			<path class="st178" d="M61.1,65.8c-0.6,0.4-1.2,0.9-1.9,0.4c-0.4-0.3-1-0.8-0.3-1.5C59.3,65.7,60.6,65,61.1,65.8z"/>
			<path class="st179" d="M73.4,54.4c-0.6,0.7-1.3,0.7-2.2,1C71.6,54,72.5,54.4,73.4,54.4z"/>
			<path class="st180" d="M41.1,66.5l-0.2,0c0,0-0.2,0-0.2,0c0-0.3,0-0.5,0-0.8c0.9-0.6,1.7-1.2,2.6-1.8c0.8-0.1,0.7,0.5,0.8,0.9
				c0,0.4,0,0.8-0.2,1.1c-0.1,0.2-0.2,0.3-0.3,0.4c-0.4,0.2-0.7,0.5-1.1,0.6C42,67,41.6,66.9,41.1,66.5z"/>
			<path class="st181" d="M40.1,58c0.8-0.5,1.5-0.6,2.2,0.1C41.6,58.6,40.8,58.4,40.1,58z"/>
			<path class="st180" d="M44.9,62.8c0.2,0.2,0.5,0.5,0.7,0.7c0,0.8-0.4,1.1-1.2,0.9c-0.4-0.2-0.5-0.6-0.3-1
				C44.3,63.3,44.6,63,44.9,62.8z"/>
			<path class="st182" d="M44.1,63.5c0.1,0.3,0.1,0.6,0.4,0.8c0.2,0.3,0.2,0.5,0,0.8c-0.3,0.2-0.5,0.2-0.8-0.1
				c0-0.4,0.1-0.9-0.4-1.1C43.6,63.8,43.8,63.6,44.1,63.5z"/>
			<path class="st183" d="M37.5,62c-0.5,0-1,0-1.5,0c0-0.1,0-0.2,0.1-0.3c0.1-0.3,0.5-0.2,0.7-0.4C37.2,61.3,37.5,61.5,37.5,62z"/>
			<path class="st184" d="M36.7,61.4c-0.1,0.3-0.4,0.3-0.7,0.4c-0.4-0.2-0.4-0.5-0.3-0.9C36.1,61,36.4,61.2,36.7,61.4z"/>
			<path class="st185" d="M55.9,69.5c0,0.2,0,0.4,0,0.7c-0.5,0.3-1,0.3-1.5,0.5c-3.1,0.8-3.6,0.5-5.5-2.3c0-0.7,0.6-0.8,1.1-0.9
				c0.2,0,0.3,0,0.5,0.1c0.4,0.9,1.3,0.5,1.9,0.9c0.4,0.2,0.9,0.4,1.1-0.3c0-0.4-0.3-0.7-0.2-1.2c0.2-0.2,0.4-0.3,0.7-0.4
				c0.5,0,0.9,0,1.3,0.4C55.1,67.9,54.1,69.1,55.9,69.5z"/>
			<path class="st186" d="M55.2,66.9c-0.5,0-1,0-1.5,0c-0.5-0.3-1,0.2-1.4-0.2c-0.2-0.2-0.3-0.4-0.2-0.7c0-0.1,0.1-0.1,0.1-0.2
				c1.1,0.3,2.3,0.5,3.4,0.8C55.9,67,55.4,66.8,55.2,66.9z"/>
			<path class="st187" d="M48.9,68.3c0.6,0.5,1.5,0.8,1.6,1.9c0,0.6,0.6,0.3,0.9,0.3c1.5,0.2,3-0.7,4.5-0.4c0,0,0,0.1,0,0.1
				c-0.1,1-1.1,0.5-1.6,0.9c-1.4,0.4-2.9,0.1-4.3,0.8c-0.6,0.2-1.1,0.2-1.7,0c-0.6-0.2-1.3-0.3-1.7-1c-0.3-0.1-0.7,0-0.8-0.4
				c-0.4-0.5-0.4-1.1-0.2-1.6c0.2-0.5,0.6-0.6,1-0.9c0.3-0.1,0.6-0.3,1-0.3C48.2,67.8,48.6,67.9,48.9,68.3z"/>
			<path class="st188" d="M41.1,66.5c0.6-0.1,1,0.1,1.5,0.4c0.4,0.7,0.3,1.5,0.9,2.2c0.1,0.2,0.1,0.5-0.1,0.7
				c-0.5-0.2-1-0.4-1.5-0.6C42.9,67.8,41.2,67.4,41.1,66.5z"/>
			<path class="st189" d="M46,68.7c0,0.6-0.1,1.2-0.1,1.8c-0.5,0-0.8-0.2-1.1-0.7c-0.4-0.7,0-1.1,0.6-1.3
				C45.7,68.5,45.9,68.6,46,68.7z"/>
			<path class="st190" d="M45.6,68.7c-0.5,0.2-0.7,0.6-0.7,1.1c-0.1,0-0.2-0.1-0.3-0.1c-0.2-0.1-0.3-0.4-0.4-0.6
				c-0.1-0.6-0.3-1.2,0.3-1.6c0.2-0.1,0.3-0.1,0.5,0C45.4,67.8,45.8,68.1,45.6,68.7z"/>
			<path class="st191" d="M46.7,71c0.5,0.2,1,0.5,1.5,0.7c0.1,0.1,0.1,0.2,0.1,0.2c0,0.1-0.1,0.1-0.1,0.1c-0.8-0.1-1.6-0.3-2.2-0.7
				C46.2,71.2,46.4,71.1,46.7,71z"/>
			<path class="st192" d="M44.5,69.1c0,0.2,0,0.4,0,0.6c-0.4,0.5-0.7-0.2-1.1-0.1c0-0.2,0-0.4,0-0.6c0.1-0.1,0.3-0.2,0.4-0.3
				C44.1,68.8,44.3,68.9,44.5,69.1z"/>
			<path class="st193" d="M48.2,72.1c0-0.1,0-0.2,0-0.4c0.6,0,1.2-0.1,1.8-0.1c0.1,0,0.2,0,0.2,0c0.5,0,1.1,0.3,1.4-0.5
				c0.9-0.1,1.7-0.1,2.6,0c0.1,0.1,0.1,0.1,0.2,0.2c0,0.1,0,0.2-0.1,0.3c-0.5,0.5-1.3-0.1-1.7,0.5c-1.2,0.5-2.5,0.1-3.7,0.7
				C48.7,72.6,48.4,72.3,48.2,72.1z"/>
			<path class="st194" d="M54.5,71c0.3-0.7,1.1-0.4,1.5-0.8c0.6,0.1,1,0.3,0.3,0.8c-0.5,0.4-1.2,0.3-1.8,0.3c0,0,0,0,0,0
				c-0.1-0.1-0.1-0.2-0.1-0.2C54.4,71.1,54.4,71,54.5,71z"/>
			<path class="st195" d="M52.6,72.1c0.4-0.7,1.1-0.4,1.7-0.5C53.9,72.2,53.2,72.1,52.6,72.1z"/>
			<path class="st196" d="M58.9,54.3c0-0.1,0-0.2,0-0.3c0.5,0,1.1,0.2,1.4-0.4c0.1,0.2,0.3,0.5,0.4,0.7
				C60.2,54.3,59.6,54.3,58.9,54.3z"/>
			<path class="st197" d="M51.9,62.8c-0.1,0.2-0.2,0.5-0.4,0.7c-0.8,0.7,0.1,1,0.3,1.5c0.1,0.2,0.2,0.5,0.4,0.7c0,0,0,0,0,0
				c-0.2,0.2-0.4,0.3-0.7,0.3c-0.6,0-1.2-0.3-1.7-0.4c-0.7-0.1,0.2,0.1,0,0.2c0,0.2,0,0.3,0,0.5c-0.2,0.4-0.5,0.5-0.9,0.4
				c-0.5-0.1-0.8-0.4-1-0.8c-0.1-0.6,0.1-1.3-0.7-1.6c-0.2-0.1-0.4-0.2-0.6-0.4c0.2-0.7,0.5-1.4,0.4-2.2c0.3,1.1,0.9,1.4,2,0.8
				c0.4-0.2,0.9-0.3,1.4-0.4c0.1,0,0.2,0,0.4,0C51,62.6,51.3,62.8,51.9,62.8z"/>
			<path class="st198" d="M44.5,65c0-0.2,0-0.5,0-0.7c0.6,0.1,0.7-0.5,1.1-0.8c0.3,0,0.6,0.1,0.8,0.4c0.3,0.3,0.2,0.6-0.1,0.9
				c-0.4,0.3-0.8,0.7-1.3,0.7C44.7,65.5,44.5,65.3,44.5,65z"/>
			<path class="st199" d="M46,64.7c0.3-0.2,0.4-0.4,0.4-0.7c0.1,0,0.2,0,0.4,0c0.2,0,0.5,0,0.7,0c0.5,0.8,0.2,1.3-0.6,1.6
				C46.4,65.5,45.9,65.4,46,64.7z"/>
			<path class="st200" d="M61.5,68c-0.4-0.1-0.8,0.3-1.3,0C60.7,67.3,61.1,67.6,61.5,68C61.5,68,61.5,68,61.5,68z"/>
			<path class="st201" d="M51.8,65c-0.5-0.3-1-0.4-1.6-0.4c0.4-0.6,0.7-1,1.3-1.1c0.4,0.3,0.4,0.7,0.4,1.1
				C51.9,64.8,51.9,64.9,51.8,65z"/>
			<path class="st202" d="M43.8,69c-0.1,0-0.3,0.1-0.4,0.1c-1.2-0.4-0.8-1.4-0.7-2.2c0-0.5,0.2-0.7,0.7-0.7c0.3,0.3,0.6,0.6,0.6,1
				C43.8,67.8,44.3,68.5,43.8,69z"/>
			<path class="st203" d="M44.5,65c0.1,0.1,0.3,0.3,0.4,0.4c0.1,0.1,0.2,0.2,0.3,0.4c0.2,0.5,0.2,1-0.4,1.2c-0.6,0-0.9-0.3-1-0.9
				c0-0.4,0-0.7,0-1.1C44,65,44.2,65,44.5,65z"/>
			<path class="st204" d="M43.8,66.1c0.4,0.3,0.7,0.5,1.1,0.8c0.3-0.2,0.6-0.3,0.7,0.1c0.1,0.4-0.2,0.5-0.5,0.6c-0.1,0-0.2,0-0.3,0
				c-0.1,0-0.2,0-0.4,0c-0.4,0.2-0.6,0-0.7-0.4c-0.1-0.4-0.3-0.7-0.4-1.1C43.5,66.1,43.7,66.1,43.8,66.1z"/>
			<path class="st205" d="M51.5,65.8c0.2,0,0.5,0,0.7-0.1c0,0.3,0,0.5,0,0.8c0.3,0.3,0.9,0.2,1.1,0.7c0.4,0.1,0.6,0.4,0.7,0.7
				c-0.6,0.4-1.4,0.2-1.8,0.7c-0.6-0.4-2,0.4-1.9-1.1c-0.3-0.3-0.3-0.6-0.2-0.9c0.1-0.3,0.4-0.5,0.7-0.6
				C51.1,65.9,51.3,65.9,51.5,65.8z"/>
			<path class="st206" d="M48.2,65.8c0.1,0.4,0.4,0.6,0.7,0.7c0.2,0.5,1.3,0.2,1.1,1.1c-0.4,0.2-0.8,0.4-1.2,0.7
				c-0.3-0.1-0.7-0.2-1-0.4c-0.4-0.3-0.6-0.7-0.6-1.2C47.4,66.3,47.4,65.7,48.2,65.8z"/>
			<path class="st157" d="M52.2,68.7c0.1-1.6,1.2-0.6,1.8-0.7C53.9,69.2,53.3,69.5,52.2,68.7z"/>
			<path class="st207" d="M50.1,67.6c-0.2-0.5-1.2-0.3-1.1-1.1c0.3,0,0.6-0.1,0.8-0.4c0.4-0.2,0.6,0.1,0.8,0.4c0,0.4,0,0.7-0.1,1.1
				C50.3,67.6,50.2,67.6,50.1,67.6z"/>
			<path class="st157" d="M53.4,67.2c-0.4-0.2-0.7-0.5-1.1-0.7c0.5,0.1,1.1-0.2,1.5,0.4C53.6,67,53.5,67.1,53.4,67.2z"/>
			<path class="st208" d="M47.5,66.9c0.1,0.4,0.2,0.7,0.4,1.1c-0.2,0.1-0.5,0.2-0.7,0.4c-0.5-0.1-1.1-0.2-1.3-0.9
				c0.1-0.8,0.5-0.9,1.2-0.9C47.2,66.6,47.3,66.7,47.5,66.9z"/>
			<path class="st195" d="M54.5,71c0,0.1,0,0.2-0.1,0.3c-1,0.1-2-0.3-2.9,0.4c-0.5,0.3-0.9,0.2-1.4,0.1c0,0-0.1-0.2-0.1-0.2
				C51.4,70.7,53,71,54.5,71z"/>
			<path class="st209" d="M46,67.6c0.4,0.2,0.7,0.5,1.1,0.7c-0.4,0.1-0.7,0.3-1.1,0.4c-0.1,0-0.3,0-0.4,0c-0.2-0.4-0.5-0.7-0.7-1.1
				c0,0,0,0,0,0C45.2,67.4,45.6,67.4,46,67.6z"/>
			<path class="st210" d="M43.8,67.2c0.2,0.1,0.5,0.2,0.7,0.4c-0.4,0.5,0,1,0,1.5c-0.2,0-0.5-0.1-0.7-0.1
				C44,68.4,43.1,67.8,43.8,67.2z"/>
			<path class="st211" d="M50.1,71.8c0.5,0,0.9-0.1,1.4-0.1C51.1,72.4,50.6,72,50.1,71.8z"/>
			<path class="st212" d="M47.5,66.9c-0.2,0-0.3,0-0.5,0c-0.3-0.2-0.8-0.2-0.8-0.7c0-0.4,0.2-0.6,0.6-0.7c0.7-0.3,0.8-0.8,0.7-1.5
				c1.1,0.3,1.2,0.9,0.7,1.8C47.9,66.1,47.7,66.5,47.5,66.9z"/>
			<path class="st207" d="M51.5,65.8c-0.1,0.1-0.3,0.3-0.4,0.4c-0.6,0.3-1-0.2-1.4-0.4c-0.2-0.1-0.6-0.2-0.3-0.3
				C50.1,65.2,50.9,65.4,51.5,65.8z"/>
			<path class="st213" d="M49.7,65.8c0.5,0.1,1,0.3,1.4,0.4c-0.2,0.1-0.4,0.2-0.7,0.3c-0.3-0.1-0.5-0.3-0.8-0.4
				C49.7,66,49.7,65.9,49.7,65.8z"/>
			<path class="st214" d="M46.7,65.4c-0.1,0.3-0.3,0.5-0.4,0.8c-0.6,0.3-1-0.1-1.4-0.4c0-0.1,0-0.2,0-0.4c0.4-0.2,0.7-0.5,1.1-0.7
				C46.2,64.9,46.5,65.2,46.7,65.4z"/>
			<path class="st215" d="M44.9,65.8c0.5-0.1,1,0.1,1.5,0.4c0.2,0.2,0.5,0.5,0.7,0.7c-0.5,0-1,0-1,0.7c-0.4,0-0.8,0-1.1,0
				c-0.2-0.2,1.3-0.5,0-0.7C45.1,66.5,45.1,66.1,44.9,65.8z"/>
		</g>
	</g>
</g>
</svg>
