<?xml version="1.0" encoding="utf-8"?>
<!-- Generator: Adobe Illustrator 24.0.3, SVG Export Plug-In . SVG Version: 6.00 Build 0)  -->
<svg version="1.1" id="Layer_1" xmlns="http://www.w3.org/2000/svg" xmlns:xlink="http://www.w3.org/1999/xlink" x="0px" y="0px"
	 viewBox="0 0 128 128" style="enable-background:new 0 0 128 128;" xml:space="preserve">
<style type="text/css">
	.st0{fill:url(#SVGID_1_);}
	.st1{opacity:0.2;}
	.st2{fill:#FFFFFF;}
</style>
<linearGradient id="SVGID_1_" gradientUnits="userSpaceOnUse" x1="20.1417" y1="109.8583" x2="107.8583" y2="22.1417" gradientTransform="matrix(1 0 0 -1 0 130)">
	<stop  offset="0" style="stop-color:#DDDDDD"/>
	<stop  offset="1" style="stop-color:#BCBCBC"/>
</linearGradient>
<path class="st0" d="M64,126L64,126C29.7,126,2,98.3,2,64v0C2,29.7,29.7,2,64,2h0c34.3,0,62,27.8,62,62v0C126,98.3,98.3,126,64,126z
	"/>
<g>
	<g class="st1">
		<polygon points="61.5,89.6 66.5,70.6 78.4,66.2 81.4,55 81.3,54.8 69.6,59.1 78,27.2 54,27.2 42.9,68.8 33.7,72.2 30.6,83.7 
			39.9,80.3 33.3,104.8 97.3,104.8 101.4,89.6 		"/>
	</g>
	<g>
		<polygon class="st2" points="59.5,87.6 64.5,68.6 76.4,64.2 79.4,53 79.3,52.8 67.6,57.1 76,25.2 52,25.2 40.9,66.8 31.7,70.2 
			28.6,81.7 37.9,78.3 31.3,102.8 95.3,102.8 99.4,87.6 		"/>
	</g>
</g>
</svg>
