<?xml version="1.0" encoding="utf-8"?>
<!-- Generator: Adobe Illustrator 24.0.3, SVG Export Plug-In . SVG Version: 6.00 Build 0)  -->
<svg version="1.1" id="Layer_1" xmlns="http://www.w3.org/2000/svg" xmlns:xlink="http://www.w3.org/1999/xlink" x="0px" y="0px"
	 viewBox="0 0 409 409" style="enable-background:new 0 0 409 409;" xml:space="preserve">
<style type="text/css">
	.st0{fill:#FFFFFF;}
</style>
<g>
	<g>
		<path class="st0" d="M263.5,239.8c-13.1,0-23.7,10.7-23.7,23.7c0,13.1,10.7,23.7,23.7,23.7c13.1,0,23.7-10.7,23.7-23.7
			C287.3,250.5,276.6,239.8,263.5,239.8z"/>
	</g>
</g>
<g>
	<g>
		<path class="st0" d="M145.2,121.5c-13.1,0-23.7,10.7-23.7,23.7c0,13.1,10.7,23.7,23.7,23.7s23.7-10.7,23.7-23.7
			S158.3,121.5,145.2,121.5z"/>
	</g>
</g>
<g>
	<g>
		<path class="st0" d="M204.5,4.5c-110.3,0-200,89.7-200,200s89.7,200,200,200s200-89.7,200-200S314.8,4.5,204.5,4.5z M146.5,98.3
			c26.6,0,48.2,21.6,48.2,48.2s-21.6,48.2-48.2,48.2s-48.2-21.6-48.2-48.2C98.3,120,119.9,98.3,146.5,98.3z M131.8,294.9
			c-2.4,2.4-5.6,3.7-8.8,3.7c-3.2,0-6.4-1.2-8.8-3.7c-4.9-4.9-4.9-12.8,0-17.7l163-163c4.9-4.9,12.8-4.9,17.7,0
			c4.9,4.9,4.9,12.8,0,17.7L131.8,294.9z M262.2,310.5c-26.6,0-48.2-21.6-48.2-48.2s21.6-48.2,48.2-48.2s48.2,21.6,48.2,48.2
			C310.5,288.9,288.8,310.5,262.2,310.5z"/>
	</g>
</g>
</svg>
