<?xml version="1.0" encoding="utf-8"?>
<!-- Generator: Adobe Illustrator 24.0.3, SVG Export Plug-In . SVG Version: 6.00 Build 0)  -->
<svg version="1.1" id="圖層_1" xmlns="http://www.w3.org/2000/svg" xmlns:xlink="http://www.w3.org/1999/xlink" x="0px" y="0px"
	 viewBox="0 0 291.4 623.4" style="enable-background:new 0 0 291.4 623.4;" xml:space="preserve">
<style type="text/css">
	.st0{fill:url(#SVGID_1_);}
	.st1{fill:url(#SVGID_2_);}
	.st2{fill:#FFFFFF;}
	.st3{fill:url(#SVGID_3_);}
	.st4{fill:url(#SVGID_4_);}
	.st5{fill:none;stroke:#CAB380;stroke-width:1.7536;stroke-linecap:round;stroke-linejoin:round;}
	.st6{fill:none;stroke:#CAB380;stroke-width:1.7536;stroke-linecap:round;stroke-linejoin:round;stroke-dasharray:0.4384,5.2608;}
	.st7{fill:none;stroke:url(#SVGID_5_);stroke-width:2.609;}
	.st8{fill:none;stroke:url(#SVGID_6_);stroke-width:2.609;}
	.st9{fill:#CAB380;}
	.st10{enable-background:new    ;}
	.st11{fill:#858585;}
	.st12{fill:#1F273A;}
	.st13{fill:none;stroke:url(#SVGID_7_);stroke-width:1.7954;}
	.st14{fill:none;stroke:url(#SVGID_8_);stroke-width:1.7954;}
	.st15{fill:none;stroke:#CAB380;stroke-width:1.2067;stroke-linecap:round;stroke-linejoin:round;stroke-dasharray:0.3441,4.1289;}
	
		.st16{fill:none;stroke:url(#SVGID_9_);stroke-width:1.2067;stroke-linecap:round;stroke-linejoin:round;stroke-dasharray:0.3441,4.1289;}
	
		.st17{fill:none;stroke:url(#SVGID_10_);stroke-width:1.2067;stroke-linecap:round;stroke-linejoin:round;stroke-dasharray:0.3441,4.1289;}
	
		.st18{fill:none;stroke:url(#SVGID_11_);stroke-width:1.2067;stroke-linecap:round;stroke-linejoin:round;stroke-dasharray:0.3441,4.1289;}
	
		.st19{fill:none;stroke:url(#SVGID_12_);stroke-width:1.2067;stroke-linecap:round;stroke-linejoin:round;stroke-dasharray:0.3441,4.1289;}
	
		.st20{fill:none;stroke:url(#SVGID_13_);stroke-width:1.2067;stroke-linecap:round;stroke-linejoin:round;stroke-dasharray:0.3441,4.1289;}
	
		.st21{fill:none;stroke:url(#SVGID_14_);stroke-width:1.2067;stroke-linecap:round;stroke-linejoin:round;stroke-dasharray:0.3441,4.1289;}
	.st22{fill:#302847;}
	.st23{clip-path:url(#SVGID_16_);}
	.st24{fill:#824D47;fill-opacity:0;}
	.st25{opacity:6.666667e-02;fill:#824D47;enable-background:new    ;}
	.st26{opacity:0.1333;fill:#824D47;enable-background:new    ;}
	.st27{opacity:0.2;fill:#824D47;enable-background:new    ;}
	.st28{opacity:0.2667;fill:#824D47;enable-background:new    ;}
	.st29{opacity:0.3333;fill:#824D47;enable-background:new    ;}
	.st30{opacity:0.4;fill:#824D47;enable-background:new    ;}
	.st31{opacity:0.4667;fill:#824D47;enable-background:new    ;}
	.st32{opacity:0.5333;fill:#824D47;enable-background:new    ;}
	.st33{opacity:0.6;fill:#824D47;enable-background:new    ;}
	.st34{opacity:0.6667;fill:#824D47;enable-background:new    ;}
	.st35{opacity:0.7333;fill:#824D47;enable-background:new    ;}
	.st36{opacity:0.8;fill:#824D47;enable-background:new    ;}
	.st37{opacity:0.8667;fill:#824D47;enable-background:new    ;}
	.st38{opacity:0.9333;fill:#824D47;enable-background:new    ;}
	.st39{fill:#824D47;}
	.st40{clip-path:url(#SVGID_20_);}
	.st41{clip-path:url(#SVGID_24_);}
	.st42{clip-path:url(#SVGID_28_);}
	.st43{clip-path:url(#SVGID_32_);}
	.st44{clip-path:url(#SVGID_36_);}
	.st45{clip-path:url(#SVGID_40_);}
	.st46{clip-path:url(#SVGID_44_);}
	.st47{clip-path:url(#SVGID_48_);}
	.st48{clip-path:url(#SVGID_52_);}
	.st49{clip-path:url(#SVGID_56_);}
	.st50{clip-path:url(#SVGID_60_);}
</style>
<symbol  id="鍒鼨懧鎀" viewBox="-53.8 -35.2 107.6 70.4">
	
		<linearGradient id="SVGID_1_" gradientUnits="userSpaceOnUse" x1="-161.2" y1="-76.9" x2="-53.7" y2="-76.9" gradientTransform="matrix(1 0 0 1 107.5 70.4)">
		<stop  offset="4.838970e-02" style="stop-color:#997047"/>
		<stop  offset="0.1875" style="stop-color:#E3D46A"/>
		<stop  offset="0.3801" style="stop-color:#9C6547"/>
		<stop  offset="0.7386" style="stop-color:#F2DFA9"/>
		<stop  offset="0.8892" style="stop-color:#CB8347"/>
		<stop  offset="1" style="stop-color:#D5B447"/>
	</linearGradient>
	<path class="st0" d="M53.7-4.9V9.5l-8.9-0.1C35.1,17.1,18.7,22.2,0,22.2c-19.3,0-36.2-5.4-45.7-13.6l-7.9-0.1V-4.6
		c-0.1-0.6-0.1-1.3-0.1-1.9c0-15.8,24.1-28.7,53.8-28.7S53.8-22.4,53.8-6.5C53.8-6,53.7-5.4,53.7-4.9z"/>
	
		<linearGradient id="SVGID_2_" gradientUnits="userSpaceOnUse" x1="-161.3" y1="-63.9" x2="-53.7" y2="-63.9" gradientTransform="matrix(1 0 0 1 107.5 70.4)">
		<stop  offset="1.267540e-02" style="stop-color:#D8A147"/>
		<stop  offset="0.7291" style="stop-color:#F6E582"/>
		<stop  offset="1" style="stop-color:#FFFFFB"/>
	</linearGradient>
	<ellipse class="st1" cx="0" cy="6.5" rx="53.8" ry="28.7"/>
	<path class="st2" d="M0-22.2c-29.1,0-52.7,12.3-53.7,27.7c0-0.3,0-0.7,0-1c0-15.8,24.1-28.7,53.8-28.7S53.8-11.4,53.8,4.5
		c0,0.3,0,0.7,0,1C52.7-9.9,29.1-22.2,0-22.2z"/>
	
		<linearGradient id="SVGID_3_" gradientUnits="userSpaceOnUse" x1="-151.5" y1="-61.9" x2="-63.5" y2="-61.9" gradientTransform="matrix(1 0 0 1 107.5 70.4)">
		<stop  offset="1.267540e-02" style="stop-color:#FFFFD8"/>
		<stop  offset="0.3697" style="stop-color:#B48747"/>
		<stop  offset="0.7291" style="stop-color:#FFFFE8"/>
		<stop  offset="1" style="stop-color:#BC8D47"/>
	</linearGradient>
	<ellipse class="st3" cx="0" cy="8.5" rx="44" ry="23.5"/>
	
		<linearGradient id="SVGID_4_" gradientUnits="userSpaceOnUse" x1="-148.9917" y1="-61.9" x2="-66.4993" y2="-61.9" gradientTransform="matrix(1 0 0 1 107.5 70.4)">
		<stop  offset="1.267540e-02" style="stop-color:#D8A147"/>
		<stop  offset="0.7291" style="stop-color:#F6E582"/>
		<stop  offset="1" style="stop-color:#FFFFFB"/>
	</linearGradient>
	<ellipse class="st4" cx="-0.2" cy="8.5" rx="41.2" ry="21.3"/>
</symbol>
<g>
	<g>
		<line class="st5" x1="-701.6" y1="133.9" x2="-701.8" y2="133.9"/>
		<line class="st6" x1="-620.2" y1="133.9" x2="-731.9" y2="133.9"/>
		<line class="st5" x1="-733.7" y1="133.9" x2="-733.9" y2="133.9"/>
	</g>
</g>
<g>
	
		<linearGradient id="SVGID_5_" gradientUnits="userSpaceOnUse" x1="-770.3978" y1="-3999.9148" x2="-770.3978" y2="-4361.124" gradientTransform="matrix(1 0 0 1 0 4448.0195)">
		<stop  offset="0" style="stop-color:#CAB380;stop-opacity:0"/>
		<stop  offset="0.5558" style="stop-color:#CAB380"/>
		<stop  offset="1" style="stop-color:#CAB380;stop-opacity:0"/>
	</linearGradient>
	<path class="st7" d="M-860.7,88.2c99.1,0,179.3,80.3,179.3,179.3s-80.3,179.3-179.3,179.3"/>
	
		<linearGradient id="SVGID_6_" gradientUnits="userSpaceOnUse" x1="-951.0023" y1="-4361.0239" x2="-951.0023" y2="-3999.8149" gradientTransform="matrix(1 0 0 1 0 4448.0195)">
		<stop  offset="0" style="stop-color:#CAB380;stop-opacity:0"/>
		<stop  offset="0.5558" style="stop-color:#CAB380"/>
		<stop  offset="1" style="stop-color:#CAB380;stop-opacity:0"/>
	</linearGradient>
	<path class="st8" d="M-860.7,446.9c-99.1,0-179.3-80.3-179.3-179.3s80.3-179.3,179.3-179.3"/>
</g>
<g>
	<circle class="st2" cx="-743.1" cy="133.9" r="7.9"/>
	<path class="st9" d="M-743.1,127.3c3.7,0,6.6,3,6.6,6.6c0,3.7-3,6.6-6.6,6.6s-6.6-3-6.6-6.6C-749.8,130.2-746.8,127.3-743.1,127.3
		 M-743.1,124.6c-5.1,0-9.2,4.2-9.2,9.2c0,5.1,4.2,9.2,9.2,9.2c5.1,0,9.2-4.2,9.2-9.2C-733.9,128.8-738,124.6-743.1,124.6
		L-743.1,124.6z"/>
</g>
<g>
	<g>
		<line class="st5" x1="-701.6" y1="404.2" x2="-701.8" y2="404.2"/>
		<line class="st6" x1="-620.2" y1="404.2" x2="-731.9" y2="404.2"/>
		<line class="st5" x1="-733.7" y1="404.2" x2="-733.9" y2="404.2"/>
	</g>
</g>
<g>
	<path class="st2" d="M-743.1,412.1c-4.4,0-7.9-3.6-7.9-7.9s3.6-7.9,7.9-7.9c4.3,0,7.9,3.6,7.9,7.9S-738.8,412.1-743.1,412.1z"/>
	<path class="st9" d="M-743.1,397.5c3.7,0,6.6,3,6.6,6.6c0,3.7-3,6.6-6.6,6.6s-6.6-3-6.6-6.6C-749.8,400.5-746.8,397.5-743.1,397.5
		 M-743.1,394.9c-5.1,0-9.2,4.2-9.2,9.2s4.2,9.2,9.2,9.2c5.1,0,9.2-4.2,9.2-9.2S-738,394.9-743.1,394.9L-743.1,394.9z"/>
</g>
<g>
	
		<text transform="matrix(1 0 0 1 -610.6034 200.1935)" class="st11" style="font-family:'NotoSansTC-Medium-B5pc-H'; font-size:28.3116px;">無須手續費</text>
</g>
<text transform="matrix(1 0 0 1 -610.4237 150.3399)" class="st12" style="font-family:'NotoSansTC-Bold-B5pc-H'; font-size:39.5367px;">0%申購手續費</text>
<g>
	
		<text transform="matrix(1 0 0 1 -610.5136 471.795)" class="st11" style="font-family:'NotoSansTC-Medium-B5pc-H'; font-size:28.3116px;">約滿到期管理費</text>
</g>
<text transform="matrix(1 0 0 1 -610.3349 421.9405)" class="st12" style="font-family:'NotoSansTC-Bold-B5pc-H'; font-size:39.5367px;">0~1%管理費</text>
<text transform="matrix(1 0 0 1 -930.9726 333.2511)" class="st12" style="font-family:'NotoSansTC-Bold-B5pc-H'; font-size:47.6382px;">淨   值</text>
<g class="st10">
	<g>
		<g>
			<path class="st2" d="M120.5,544.8c-0.8-0.8-2.5-1.8-3.8-2.4l1-1.5c1.3,0.5,3,1.5,3.9,2.2L120.5,544.8z M117.2,553.4
				c1.1-1.7,2.7-4.5,3.8-6.9l1.4,1.4c-1.1,2.3-2.4,4.9-3.6,6.9L117.2,553.4z M121.6,538.8c-0.8-0.8-2.5-1.9-3.8-2.6l1.1-1.5
				c1.3,0.6,3,1.6,3.8,2.4L121.6,538.8z M137.4,546.5h-1.7v3.4h-5.2v2.8c0,1.1-0.2,1.6-0.9,1.9c-0.7,0.3-1.9,0.3-3.6,0.3
				c-0.1-0.5-0.3-1.3-0.6-1.9c1.2,0,2.4,0,2.7,0c0.4,0,0.5-0.1,0.5-0.4v-2.8h-4.9v-1.7h4.9v-1.7h-6.1v-1.8h6.1V543h-4.8v-1.7h1.2
				c-0.2-0.8-0.7-1.9-1.2-2.7l1.5-0.6c0.6,0.8,1.1,1.9,1.4,2.7l-1.4,0.6h10.6v3.3h1.7v1.9H137.4z M135.8,536
				c-3.3,0.9-8.1,1.5-12.3,1.8c-0.1-0.5-0.3-1.2-0.5-1.6c4-0.3,8.7-0.9,11.3-1.7L135.8,536z M129.1,541.1c-0.1-0.8-0.6-2.1-1.1-3
				l1.5-0.5c0.5,0.9,1,2.1,1.2,3L129.1,541.1z M130.5,544.7h3.4V543h-3.4V544.7z M133.9,546.5h-3.4v1.7h3.4V546.5z M132.2,540.5
				c0.6-0.9,1.3-2.3,1.7-3.4l1.9,0.6c-0.6,1.2-1.4,2.5-2,3.4L132.2,540.5z"/>
			<path class="st2" d="M161.1,535.1c-0.6,1.7-1.4,3.4-2.3,4.9v15h-1.9v-11.8c-0.5,0.8-1.1,1.4-1.6,2.1c-0.2-0.5-0.7-1.6-1.1-2.1
				c2-2.1,3.9-5.3,5-8.6L161.1,535.1z M174.8,552.7v1.8h-14.9v-1.8h2.1v-12.4h3.8c0.1-0.5,0.2-1.2,0.4-1.8h-5.3v-1.8h5.5
				c0.1-0.8,0.2-1.5,0.2-2.1l2.2,0.1c-0.1,0.6-0.2,1.4-0.4,2.1h5.7v1.8H168c-0.1,0.6-0.3,1.3-0.4,1.8h5.3v12.4L174.8,552.7
				L174.8,552.7z M163.9,541.9v1.6h7.2v-1.6H163.9z M171.1,544.9h-7.2v1.6h7.2V544.9z M163.9,548v1.6h7.2V548H163.9z M163.9,552.7
				h7.2v-1.6h-7.2V552.7z"/>
		</g>
	</g>
</g>
<g>
	<g>
		<line class="st5" x1="-639.7" y1="267.8" x2="-639.9" y2="267.8"/>
		<line class="st6" x1="-583.7" y1="267.8" x2="-670" y2="267.8"/>
		<line class="st5" x1="-671.8" y1="267.8" x2="-672" y2="267.8"/>
	</g>
</g>
<g>
	<path class="st2" d="M-681.3,275.8c-4.4,0-7.9-3.6-7.9-7.9c0-4.4,3.6-7.9,7.9-7.9s7.9,3.6,7.9,7.9S-676.9,275.8-681.3,275.8z"/>
	<path class="st9" d="M-681.3,261.2c3.7,0,6.6,3,6.6,6.6c0,3.7-3,6.6-6.6,6.6s-6.6-3-6.6-6.6S-685,261.2-681.3,261.2 M-681.3,258.6
		c-5.1,0-9.2,4.2-9.2,9.2c0,5.1,4.2,9.2,9.2,9.2c5.1,0,9.2-4.2,9.2-9.2C-672,262.7-676.2,258.6-681.3,258.6L-681.3,258.6z"/>
</g>
<g>
	
		<text transform="matrix(1 0 0 1 -574.7714 333.2511)" class="st11" style="font-family:'NotoSansTC-Medium-B5pc-H'; font-size:28.3116px;">產生獲利時收取</text>
</g>
<g>
	<g class="st10">
		<path class="st11" d="M59.5,70.7c-0.7,0.9-1.5,1.7-2.3,2.3c-0.1-0.2-0.5-0.7-0.8-0.9c1.5-1.1,3-2.9,3.9-4.7l1.1,0.3
			c-0.3,0.6-0.7,1.3-1.1,1.9h11.8v1.1H59.5z M72.7,78.3v1.1h-16v-1.1h2.8V75h-2.2v-1.1h2.2v-2.1h1.1v2.1h2v-2.1h1v2.1h2.2v-2.1H67
			v2.1h2.1v-2.1h1.1v2.1h2.1V75h-2.1v3.2H72.7z M57.1,83.7c0.6-0.9,1.3-2.3,1.8-3.5l1.1,0.3c-0.5,1.2-1.1,2.7-1.8,3.6L57.1,83.7z
			 M60.6,78.3h2V75h-2V78.3z M63,80.6c0.2,1.1,0.4,2.4,0.5,3.2L62.3,84c0-0.8-0.2-2.2-0.4-3.3L63,80.6z M63.7,75v3.2h2.2V75H63.7z
			 M66.8,80.4c0.5,1,1,2.4,1.2,3.3l-1.2,0.3c-0.2-0.8-0.7-2.2-1.1-3.3L66.8,80.4z M67,75v3.2h2.1V75H67z M70.5,80.1
			c0.7,1.1,1.5,2.5,1.9,3.4l-1.2,0.5c-0.3-0.9-1.1-2.4-1.8-3.5L70.5,80.1z"/>
		<path class="st11" d="M81.1,78.4c-1.3,2.1-3.4,4.1-5.7,5.3c-0.2-0.3-0.5-0.7-0.9-1c2.1-1,4.3-2.8,5.4-4.8L81.1,78.4z M80.4,68.3
			c-1.3,1.5-3.2,2.9-4.9,3.9c-0.2-0.3-0.6-0.7-0.9-0.9c1.6-0.8,3.5-2.2,4.6-3.5L80.4,68.3z M80.7,73.4c-1.2,1.6-3.2,3.2-4.9,4.2
			c-0.2-0.3-0.6-0.7-0.9-0.9c1.7-0.8,3.6-2.3,4.7-3.7L80.7,73.4z M84.9,81.8c-1.1,0.9-3,1.8-4.6,2.4c-0.2-0.2-0.5-0.6-0.8-0.9
			c1.6-0.5,3.4-1.4,4.3-2.2L84.9,81.8z M84.9,71.3c0.1-0.5,0.3-1.2,0.4-1.8h-4.3v-1.1h10.2v1.1h-4.5c-0.2,0.6-0.4,1.2-0.6,1.8h4.4
			v9.4h-8.7v-9.4H84.9z M89.3,72.2h-6.4v1.9h6.4V72.2z M89.3,75h-6.4v1.9h6.4V75z M89.3,77.8h-6.4v1.9h6.4V77.8z M87.8,81.2
			c1.2,0.6,2.8,1.6,3.7,2.3l-1,0.7c-0.8-0.7-2.4-1.7-3.6-2.3L87.8,81.2z"/>
		<path class="st11" d="M109.3,78.1h-7.5v4.2c0,0.9-0.3,1.3-0.9,1.5c-0.7,0.2-1.8,0.2-3.7,0.2c-0.1-0.3-0.3-0.9-0.5-1.2
			c1.6,0,3,0,3.4,0c0.4,0,0.6-0.1,0.6-0.5v-4.2H93v-1.2h7.5v-3.1h-6.3v-1.2h6.3v-2.9c-2,0.2-4.1,0.3-6,0.4c0-0.3-0.2-0.8-0.3-1.1
			c4.3-0.2,9.7-0.7,12.4-1.6l0.9,1c-1.5,0.5-3.5,0.8-5.7,1.1v3h6.5v1.2h-6.5v3.1h7.5V78.1z"/>
		<path class="st11" d="M112.9,79.3c-0.2,1.7-0.6,3.5-1,4.7c-0.2-0.1-0.7-0.3-1-0.3c0.5-1.2,0.8-3,0.9-4.5L112.9,79.3z M116.1,78.6
			c-0.1-0.3-0.1-0.7-0.2-1.1c-3.6,0.5-4.1,0.7-4.4,0.8c-0.1-0.2-0.3-0.8-0.4-1.1c0.3-0.1,0.7-0.5,1.3-1.2c0.3-0.3,0.9-1.1,1.5-2.2
			c-1.9,0.2-2.2,0.3-2.5,0.4c-0.1-0.2-0.2-0.8-0.4-1c0.3-0.1,0.6-0.5,0.9-1c0.4-0.5,1.6-2.7,2.3-4.6l1.1,0.4c-0.8,1.8-1.7,3.6-2.6,5
			l1.9-0.2c0.5-0.8,0.9-1.6,1.3-2.5l1,0.5c-1.1,2.2-2.5,4.3-3.9,6l2.8-0.4c-0.2-0.7-0.4-1.3-0.6-1.9l0.9-0.2
			c0.5,1.3,0.9,2.9,1.1,3.8L116.1,78.6z M114.5,79c0.2,1.3,0.4,3,0.5,4.2l-0.9,0.2c0-1.1-0.2-2.9-0.5-4.2L114.5,79z M116,78.6
			c0.4,1.1,0.8,2.5,1,3.4l-0.9,0.3c-0.2-0.9-0.6-2.4-1-3.4L116,78.6z M121.4,82.3c-1.4,0.7-3.1,1.4-4.3,1.9
			c-0.1-0.3-0.3-0.6-0.5-0.9c1.2-0.4,3-1.2,3.9-1.7L121.4,82.3z M121.6,69.4h-4.7v-0.9h4.7v-1h1.2v1h4.5v0.9h-4.5v1h3.8v0.8h-8.9
			v-0.8h3.9V69.4z M117.1,72.1h10.1v3.3h-10.1V72.1z M123.7,81.5c1.4,0.5,2.9,1.2,3.8,1.6l-0.5,0.9c-1-0.5-2.5-1.2-3.8-1.7
			L123.7,81.5h-6.1v-5.3h8.9v5.3H123.7z M118.1,74.5h2.2V73h-2.2V74.5z M118.7,77.8h6.7V77h-6.7V77.8z M118.7,79.3h6.7v-0.8h-6.7
			V79.3z M118.7,80.8h6.7v-0.9h-6.7V80.8z M123.3,74.5V73h-2v1.6H123.3z M126.1,73h-1.8v1.6h1.8V73z"/>
		<path class="st11" d="M136,82c-1.5,0.8-3.8,1.6-5.6,2.1c-0.2-0.2-0.6-0.7-0.9-0.9c1.8-0.4,4-1,5.4-1.7L136,82z M140.2,81.4
			c2,0.5,4.1,1.3,5.4,1.8l-0.9,0.8c-1.2-0.6-3.3-1.3-5.4-1.9l0.7-0.6h-8.1v-5.8c-0.5,0.1-1.1,0.3-1.7,0.4c-0.1-0.3-0.4-0.7-0.6-0.9
			c2.3-0.5,3.6-1.1,4.4-1.8h-3.1c0.2-0.8,0.3-1.9,0.5-2.8h3.7v-1.1h-4.5v-0.8h4.5v-1h1.1v1h3v-1h1.1v1h4.1v2.8h-4.1v1.1h5.2
			c0,0,0,0.3,0,0.4c-0.1,0.9-0.2,1.5-0.5,1.7c-0.2,0.2-0.5,0.3-0.8,0.3h-0.5v6.6H140.2z M132.3,71.3c-0.1,0.4-0.1,0.8-0.2,1.1h2.5
			c0.2-0.4,0.3-0.7,0.3-1.1H132.3z M142.3,75.4H133v1.2h9.3V75.4z M142.3,77.4H133v1.2h9.3V77.4z M133,80.6h9.3v-1.2H133V80.6z
			 M135.5,73.3c-0.3,0.5-0.8,0.9-1.4,1.3h8.4c0-0.2-0.1-0.4-0.2-0.6c0.6,0.1,1.1,0.1,1.3,0.1c0.2,0,0.3,0,0.4-0.1
			c0.1-0.1,0.2-0.3,0.2-0.7h-4v1.3H139v-1.3H135.5z M139,71.3h-3c0,0.4-0.1,0.8-0.2,1.1h3.2V71.3z M136.1,70.5h3v-1.1h-3V70.5z
			 M140.2,69.4v1.1h3v-1.1H140.2z"/>
	</g>
</g>
<g>
	<g class="st10">
		<path class="st11" d="M58.7,280.5c-0.3,1.5-0.8,3.2-1.3,4.4c-0.2-0.1-0.7-0.3-1-0.4c0.5-1.1,0.9-2.7,1.2-4.2L58.7,280.5z
			 M62.9,279.3c-0.1-0.3-0.1-0.6-0.2-1c-4.8,0.7-5.4,0.9-5.8,1.1c-0.1-0.2-0.3-0.8-0.4-1.2c0.4-0.1,0.9-0.5,1.5-1.1
			c0.3-0.3,1.1-1.2,1.9-2.3c-2.4,0.3-2.8,0.4-3.1,0.5c-0.1-0.3-0.3-0.8-0.4-1.1c0.3-0.1,0.7-0.5,1.1-1c0.5-0.5,2-2.6,2.9-4.6
			l1.1,0.5c-1,1.7-2.2,3.5-3.4,4.9l2.5-0.2c0.5-0.7,1-1.5,1.5-2.2l1.1,0.7c-1.4,2.1-3,4.1-4.6,5.7l3.7-0.5c-0.2-0.6-0.4-1.2-0.6-1.8
			l1-0.2c0.5,1.2,1.1,2.8,1.3,3.7L62.9,279.3z M60.8,280.1c0.3,1.3,0.5,2.9,0.6,4l-1,0.3c-0.1-1.1-0.3-2.7-0.5-4L60.8,280.1z
			 M62.9,279.7c0.5,1.1,1,2.6,1.2,3.5l-1,0.3c-0.2-0.9-0.7-2.4-1.1-3.5L62.9,279.7z M72.4,272.7c-0.3,8.2-0.5,10.9-1.2,11.8
			c-0.4,0.5-0.8,0.6-1.4,0.7c-0.6,0.1-1.6,0-2.6,0c0-0.4-0.2-0.9-0.4-1.2c1.1,0.1,2.2,0.1,2.6,0.1c0.3,0,0.5,0,0.7-0.3
			c0.5-0.6,0.8-3.3,1-10.5h-5.4c-0.5,1-1,1.9-1.5,2.7c-0.2-0.2-0.7-0.5-1-0.7c1.3-1.6,2.3-4.1,2.9-6.5l1.2,0.2
			c-0.3,1.1-0.6,2.1-1,3.1h6.1V272.7z M68.5,280.3c-0.6-1.1-1.9-2.8-3.2-4l0.9-0.6c1.2,1.2,2.6,2.8,3.2,4L68.5,280.3z"/>
		<path class="st11" d="M77.6,276.4c-0.6-0.6-1.9-1.3-3-1.8l0.7-0.9c1.1,0.4,2.4,1.1,3,1.7L77.6,276.4z M75,284.3
			c0.7-1.4,1.8-3.8,2.5-5.8l1,0.6c-0.7,1.9-1.6,4.1-2.4,5.8L75,284.3z M76.1,268.8c1,0.5,2.3,1.3,2.9,1.9l-0.7,1
			c-0.6-0.6-1.8-1.5-2.9-2L76.1,268.8z M85.4,274.2v1.4h5.1v8.4c0,0.6-0.1,0.9-0.5,1c-0.4,0.1-1.1,0.2-2.3,0.2
			c0-0.3-0.2-0.7-0.3-0.9c0.8,0,1.5,0,1.8,0c0.2,0,0.3-0.1,0.3-0.3v-7.4h-4v8.4h-1.1v-2.8c-0.2,0.1-0.4,0.4-0.5,0.5
			c-0.5-0.5-0.9-1.3-1.2-2.3c-0.3,1-0.7,1.8-1.4,2.4c-0.1-0.2-0.4-0.4-0.6-0.5c0.9-0.7,1.3-1.9,1.5-3.1h0.3c0-0.2-0.1-0.5-0.1-0.7
			h-1.1v-0.9h1.7c0.1,2,0.6,3.6,1.4,4.4v-5.5h-3.8v8.6h-1.1v-9.6h4.9v-1.4h-2.6v-2.7H79v-1.1h2.8v-1.8h1.1v1.8H87v-1.8h1.2v1.8h3
			v1.1h-3v2.7H85.4z M82.9,273.1H87v-1.6h-4.1V273.1z M87.8,277.7c0.1,2.1,0.7,3.7,1.6,4.4c-0.2,0.1-0.5,0.4-0.6,0.6
			c-0.6-0.5-1-1.3-1.3-2.3c-0.3,0.9-0.7,1.8-1.5,2.3c-0.1-0.2-0.4-0.4-0.6-0.5c0.9-0.7,1.4-1.8,1.5-2.9h0.3c0-0.2-0.1-0.5-0.1-0.7
			h-1.1v-0.9H87.8z"/>
		<path class="st11" d="M98.6,282.2c1.3-0.2,2.6-0.5,3.9-0.7l0.1,1.1c-3.2,0.6-6.7,1.3-9.1,1.7l-0.3-1.1c1.1-0.2,2.6-0.5,4.2-0.7
			v-3.2h-3.6v-1.1h3.6v-2h1.2v2h3.7v1.1h-3.7V282.2z M93.4,269.9h9.3v1.1h-4.9c-0.7,1.3-1.4,2.5-2.2,3.6l4.9-0.4
			c-0.5-0.7-1-1.3-1.4-1.9l0.9-0.5c1,1.2,2.2,2.9,2.8,3.9l-0.9,0.6c-0.2-0.3-0.4-0.7-0.7-1.2c-5.8,0.6-6.4,0.7-6.8,0.8
			c-0.1-0.3-0.3-0.8-0.4-1.1c0.3-0.1,0.6-0.4,0.9-0.8c0.3-0.4,1.1-1.6,1.7-2.9h-3V269.9z M104.9,281.1h-1.1v-10.9h1.1V281.1z
			 M108.5,268.9v14.3c0,0.8-0.2,1.2-0.7,1.4c-0.5,0.2-1.5,0.2-2.8,0.2c-0.1-0.3-0.3-0.9-0.5-1.2c1.1,0,2.1,0,2.4,0
			c0.3,0,0.4-0.1,0.4-0.4v-14.3H108.5z"/>
		<path class="st11" d="M119.9,280.8H111v-1.1h1.8v-7.5h-1.5v-1.1h1.5v-2.2h1.1v2.2h3.5v-2.2h1.1v2.2h1.3v1.1h-1.3v7.5h1.4V280.8z
			 M114.7,281.5c-0.6,1.4-1.7,2.8-2.7,3.7c-0.2-0.2-0.7-0.5-1-0.7c1-0.8,2-2.1,2.5-3.3L114.7,281.5z M113.9,272.2v1.7h3.5v-1.7
			H113.9z M113.9,276.8h3.5v-1.9h-3.5V276.8z M113.9,279.7h3.5v-1.9h-3.5V279.7z M117.1,281.3c0.7,0.8,1.5,1.9,1.9,2.7l-1,0.6
			c-0.3-0.7-1.1-1.9-1.8-2.8L117.1,281.3z M127,283.6c0,0.8-0.2,1.1-0.7,1.3c-0.5,0.2-1.3,0.2-2.7,0.2c-0.1-0.3-0.2-0.9-0.4-1.2
			c1,0,1.9,0,2.2,0c0.3,0,0.4-0.1,0.4-0.4v-4.5h-4c-0.2,2.2-0.6,4.5-1.7,6.3c-0.2-0.2-0.7-0.6-1-0.7c1.5-2.4,1.7-5.9,1.7-8.5v-6.6
			h6.2V283.6z M125.9,278v-3.2H122v1.3c0,0.6,0,1.2,0,1.8H125.9z M122,270.7v3h3.9v-3H122z"/>
		<path class="st11" d="M132.1,271c-0.6,0.9-1.2,1.7-1.9,2.4c-0.2-0.2-0.6-0.6-0.9-0.8c1.1-1,2.2-2.5,2.8-4l1.1,0.3
			c-0.2,0.4-0.3,0.8-0.5,1.2h4.8v1h-3.6c0.6,0.5,1.3,1.2,1.6,1.7l-0.8,0.7c-0.4-0.5-1.1-1.2-1.7-1.8l0.7-0.5H132.1z M137.6,272.3
			c0.3,0.4,0.5,1,0.7,1.4h6.7v3h-1.2v-2h-12.2v2h-1.2v-3h6.7c-0.1-0.4-0.4-0.8-0.6-1.2L137.6,272.3z M133.6,280.8h10.1v4.4h-1.2
			v-0.6h-8.9v0.6h-1.2v-9.3h10.4v3.6h-9.2V280.8z M133.6,276.8v1.7h8v-1.7H133.6z M133.6,281.8v1.9h8.9v-1.9H133.6z M145.8,270v1
			h-6.3c-0.4,0.6-0.8,1.1-1.3,1.5c-0.2-0.2-0.6-0.6-0.9-0.7c1-0.8,1.8-2,2.3-3.2l1.1,0.3c-0.2,0.4-0.3,0.8-0.6,1.2H145.8z
			 M142.9,273.5c-0.4-0.5-1.3-1.3-1.9-1.9l0.8-0.6c0.7,0.5,1.5,1.3,1.9,1.8L142.9,273.5z"/>
		<path class="st11" d="M153.3,281.4c-1.9,0.7-4,1.4-5.6,1.9l-0.3-1.2c0.7-0.2,1.5-0.5,2.5-0.8v-5h-2.1v-1.1h2.1V271h-2.3v-1.1h5.6
			v1.1H151v4.1h1.9v1.1H151v4.7c0.7-0.2,1.4-0.5,2-0.7L153.3,281.4z M164.2,283.5v1.1h-11.8v-1.1h5.6v-2.6h-4.2v-1.1h4.2v-2.2h-4
			v-8.1h9.2v8.1h-4v2.2h4.3v1.1h-4.3v2.6H164.2z M155.2,273h2.9v-2.4h-2.9V273z M155.2,276.5h2.9V274h-2.9V276.5z M162.2,270.6h-3
			v2.4h3V270.6z M162.2,274h-3v2.5h3V274z"/>
		<path class="st11" d="M172.4,283.1c-1.5,0.8-3.8,1.6-5.6,2.1c-0.2-0.2-0.6-0.7-0.9-0.9c1.8-0.4,4-1,5.4-1.7L172.4,283.1z
			 M176.6,282.6c2,0.5,4.1,1.3,5.4,1.8l-0.9,0.8c-1.2-0.6-3.3-1.3-5.4-1.9l0.7-0.6h-8.1v-5.8c-0.5,0.1-1.1,0.3-1.7,0.4
			c-0.1-0.3-0.4-0.7-0.6-0.9c2.3-0.5,3.6-1.1,4.4-1.8h-3.1c0.2-0.8,0.3-1.9,0.5-2.8h3.7v-1.1h-4.5v-0.8h4.5v-1h1.1v1h3v-1h1.1v1h4.1
			v2.8h-4.1v1.1h5.2c0,0,0,0.3,0,0.4c-0.1,0.9-0.2,1.5-0.5,1.7c-0.2,0.2-0.5,0.3-0.8,0.3H180v6.6H176.6z M168.7,272.4
			c-0.1,0.4-0.1,0.8-0.2,1.1h2.5c0.2-0.4,0.3-0.7,0.3-1.1H168.7z M178.8,276.5h-9.3v1.2h9.3V276.5z M178.8,278.5h-9.3v1.2h9.3V278.5
			z M169.4,281.7h9.3v-1.2h-9.3V281.7z M171.9,274.4c-0.3,0.5-0.8,0.9-1.4,1.3h8.4c0-0.2-0.1-0.4-0.2-0.6c0.6,0.1,1.1,0.1,1.3,0.1
			c0.2,0,0.3,0,0.4-0.1c0.1-0.1,0.2-0.3,0.2-0.7h-4v1.3h-1.1v-1.3H171.9z M175.5,272.4h-3c0,0.4-0.1,0.8-0.2,1.1h3.2V272.4z
			 M172.5,271.6h3v-1.1h-3V271.6z M176.6,270.5v1.1h3v-1.1H176.6z"/>
	</g>
</g>
<g>
	<g class="st10">
		<path class="st11" d="M59.1,175.1v2.9c0,2-0.3,4.7-1.9,6.6c-0.2-0.2-0.6-0.6-0.9-0.8c1.5-1.7,1.7-4,1.7-5.8v-3.9h2.3
			c-0.2-0.2-0.4-0.5-0.6-0.6c1.5-0.3,3.2-0.7,4.8-1.1c-1.4-0.4-2.9-0.8-4.2-1.1l0.8-0.6H58v-1h6.8c-0.3-0.5-0.7-1-1-1.4l0.9-0.5
			c0.5,0.5,1.1,1.3,1.4,1.9h6.1v1h-2.8L70,171c-0.8,0.4-1.8,0.9-2.9,1.3c1.4,0.4,2.6,0.8,3.6,1.2l-0.7,0.6h2.6v1H59.1z M73,182.8v1
			H59.4v-1h6v-2h-4.3v-1h4.3v-1.7h-3.9c-0.5,0.9-1.1,1.6-1.7,2.2c-0.1-0.2-0.5-0.8-0.7-1c1-1,1.9-2.4,2.4-3.9l1.1,0.3
			c-0.2,0.5-0.4,0.9-0.6,1.3h3.4v-1.6h1.2v1.6h5v1h-5v1.7h4.6v1h-4.6v2H73z M69.7,174.1c-1.1-0.4-2.5-0.9-4-1.3
			c-1.7,0.5-3.4,1-5,1.3H69.7z M61.1,170.6c1.5,0.4,3.1,0.8,4.8,1.3c1.2-0.4,2.3-0.9,3.1-1.3H61.1z"/>
		<path class="st11" d="M91,182.7v1.2H74.9v-1.2h7.5v-4.8h-5.5v-1.2h5.5v-4.1h-4.4c-0.6,1.2-1.2,2.2-1.9,3c-0.2-0.2-0.8-0.6-1.1-0.7
			c1.5-1.6,2.7-4.1,3.4-6.7l1.2,0.3c-0.3,1-0.6,2-1,3h3.9v-3.6h1.3v3.6h6.6v1.2h-6.6v4.1h5.9v1.2h-5.9v4.8H91z"/>
		<path class="st11" d="M98.2,168.8c-0.4,0.8-1,1.7-1.7,2.5c1,2,1.2,4.1,1.2,6.3c0,2.6-0.2,4.9-0.9,5.9c-0.2,0.3-0.6,0.5-1,0.6
			c-0.6,0.1-1.3,0.1-2.1,0.1c0-0.4-0.2-0.9-0.4-1.2c0.9,0.1,1.5,0.1,2,0c0.3,0,0.4-0.1,0.6-0.3c0.5-0.6,0.6-2.7,0.6-5.1
			c0-0.4,0-0.8,0-1.2c-0.9,1.4-2,2.8-3.1,3.7c-0.1-0.3-0.5-0.8-0.7-1.1c1.3-0.9,2.8-2.7,3.6-4.4c-0.1-0.8-0.3-1.6-0.7-2.4
			c-0.8,0.8-1.6,1.6-2.3,2.2c-0.2-0.3-0.5-0.8-0.7-1.1c0.8-0.5,1.7-1.3,2.5-2.1c-0.5-0.7-1.1-1.5-1.9-2.2l0.8-0.7
			c0.7,0.6,1.3,1.3,1.8,2c0.5-0.7,1.1-1.4,1.4-2.1L98.2,168.8z M108.5,179.8c-0.8,1.1-2.1,2-3.5,2.7c1.4,0.4,3,0.7,4.6,0.9
			c-0.2,0.2-0.5,0.7-0.7,1c-1.9-0.3-3.7-0.7-5.4-1.3c-1.7,0.6-3.6,1.1-5.4,1.4c-0.1-0.3-0.4-0.8-0.6-1c1.6-0.2,3.2-0.5,4.6-0.9
			c-1.1-0.6-2.1-1.2-2.8-2l0.5-0.2h-1.2v-0.9h8.9l0.2-0.1L108.5,179.8z M99.5,174.1c-0.3,0.4-0.6,0.7-0.9,1
			c-0.2-0.2-0.6-0.6-0.8-0.7c1-0.9,1.9-2.1,2.5-3.4l1,0.3c-0.2,0.4-0.4,0.7-0.6,1.1h3c-0.3-0.4-0.7-0.8-1-1.1l0.9-0.5
			c0.5,0.5,1.1,1.2,1.4,1.6h3.7v0.8h-4v0.9h3.6v0.7h-3.6v1h3.6v0.8h-3.6v1h4.2v0.8h-8.3v0.5h-1.1V174.1z M101.6,170.2h-3.1v-0.9h3.1
			v-1.4h1.1v3.5h-1.1V170.2z M103.6,173.2h-3v0.9h3V173.2z M103.6,174.9h-3v1h3V174.9z M103.6,176.6h-3v1h3V176.6z M100.6,180.3
			c0.7,0.7,1.8,1.3,3,1.7c1.2-0.5,2.2-1,3-1.7H100.6z M105.8,171.4h-1.1v-3.6h1.1v1.3h3.6v0.9h-3.6V171.4z"/>
		<path class="st11" d="M116.4,173.3h3.8v1.1h-3.8v0.5c0.9,0.8,3,3,3.6,3.6l-0.7,1c-0.6-0.7-1.9-2.2-2.9-3.2v8.1h-1.2v-8.1
			c-1,2.1-2.3,4.3-3.6,5.6c-0.1-0.3-0.4-0.8-0.7-1.1c1.5-1.4,3.1-4,4-6.3h-3.6v-1.1h3.9v-3.2c-1.2,0.2-2.4,0.4-3.6,0.6
			c-0.1-0.3-0.2-0.7-0.4-1c2.7-0.4,5.9-1,7.6-1.7l0.9,0.9c-0.9,0.4-2.1,0.7-3.3,1V173.3z M122.9,180h-1.2v-10h1.2V180z M126.8,168
			v14.7c0,0.9-0.3,1.2-0.8,1.4c-0.6,0.2-1.5,0.2-3.2,0.2c-0.1-0.3-0.3-0.9-0.5-1.2c1.3,0,2.4,0,2.8,0c0.3,0,0.5-0.1,0.5-0.5V168
			H126.8z"/>
		<path class="st11" d="M135,180.9h-4v1.4h-1.1v-13.3h5.1V180.9z M131.1,170.2v4.2h2.8v-4.2H131.1z M133.9,179.8v-4.3h-2.8v4.3
			H133.9z M141.1,171.2v2.5h4v1.1h-1.6v2.1h2.2v1.1h-2.2v5.1c0,0.7-0.2,1.1-0.7,1.3c-0.5,0.2-1.4,0.2-2.9,0.2
			c-0.1-0.3-0.2-0.8-0.4-1.1c1.1,0,2.2,0,2.5,0c0.3,0,0.4-0.1,0.4-0.4v-5h-6.9v-1.1h6.9v-2.1h-6.2v-1.1h3.8v-2.5h-4.6v-1.1h4.6v-2.2
			h1.2v2.2h4.6v1.1H141.1z M137.6,178.6c0.9,0.9,1.9,2.3,2.4,3.1l-1,0.7c-0.4-0.9-1.4-2.2-2.3-3.2L137.6,178.6z"/>
		<path class="st11" d="M152.6,168.1h1.2v16.3h-1.2v-5.1c-3.4,1.3-3.9,1.5-4.2,1.8c-0.1-0.3-0.3-0.8-0.5-1.1
			c0.3-0.1,0.6-0.5,0.6-1.2v-8.9h1.2v9.3l2.9-1V168.1z M162.6,172.6c-0.5,2.9-1.3,5.3-2.4,7.2c1.1,1.6,2.4,2.8,4,3.6
			c-0.3,0.2-0.7,0.7-0.8,1c-1.5-0.8-2.8-2.1-3.8-3.6c-1.1,1.5-2.5,2.7-4.3,3.7c-0.1-0.3-0.5-0.8-0.8-1c1.9-0.9,3.3-2.1,4.4-3.7
			c-0.9-1.6-1.7-3.4-2.3-5.4c-0.5,1-1,1.8-1.5,2.6c-0.2-0.3-0.6-0.8-0.9-1c1.5-1.9,2.5-4.8,3.1-8l1.2,0.2c-0.2,1.1-0.5,2.3-0.8,3.4
			h6.4v1.1H162.6z M157.1,172.8c0.5,2.1,1.3,4.2,2.3,5.9c0.9-1.7,1.5-3.7,1.9-6.1h-4.2L157.1,172.8z"/>
		<path class="st11" d="M173.3,170.1v14.2h-1.2V181c-2.3,0.4-4.7,0.7-6.4,1l-0.2-1.2c0.5-0.1,1.1-0.1,1.8-0.2v-10.5h-1.4V169h8.8
			v1.1H173.3z M172.1,170.1h-3.7v2.5h3.7V170.1z M172.1,173.8h-3.7v2.7h3.7V173.8z M168.4,180.5c1.2-0.2,2.4-0.4,3.7-0.6v-2.4h-3.7
			V180.5z M181.8,170.6c-0.5,3.9-1.5,6.9-3,9.2c1,1.5,2.3,2.7,3.8,3.5c-0.3,0.2-0.7,0.7-0.9,1c-1.5-0.8-2.7-2-3.7-3.4
			c-1.1,1.4-2.4,2.5-3.8,3.3c-0.2-0.3-0.5-0.8-0.8-1c1.5-0.8,2.8-1.9,3.9-3.4c-1.3-2.2-2.1-4.8-2.8-7.9l1.1-0.2c0.5,2.6,1.2,5,2.3,7
			c1.1-1.9,2-4.2,2.4-7.1h-6.3v-1.2h6.6l0.2,0L181.8,170.6z"/>
	</g>
</g>
<text transform="matrix(1 0 0 1 -574.5922 283.3976)" class="st12" style="font-family:'NotoSansTC-Bold-B5pc-H'; font-size:39.5367px;">0~30%績效費</text>
<g class="st10">
	<path class="st12" d="M57.5,240.9c0-7.1,2.6-10.5,6.6-10.5c4,0,6.6,3.5,6.6,10.5c0,7.1-2.6,10.7-6.6,10.7
		C60.1,251.5,57.5,248,57.5,240.9z M67.7,240.9c0-5.9-1.5-8-3.6-8c-2.1,0-3.6,2.1-3.6,8c0,5.9,1.5,8.1,3.6,8.1
		C66.2,249,67.7,246.8,67.7,240.9z"/>
	<path class="st12" d="M77.2,240.8c-0.9,0-1.7,0.6-2.4,1.9l-1.7-1.2c1.2-2.1,2.7-2.9,4.1-2.9c2.5,0,3.7,2.6,5.5,2.6
		c0.9,0,1.6-0.6,2.3-1.9l1.7,1.3c-1.3,2.1-2.7,2.9-4.1,2.9C80.1,243.3,78.9,240.8,77.2,240.8z"/>
	<path class="st12" d="M90.2,248.5h4.5v-14.2H91v-2c1.9-0.4,3.3-0.8,4.4-1.6h2.4v17.8h4v2.6H90.2V248.5z"/>
	<path class="st12" d="M104.7,236.8c0-4.1,1.9-6.4,4.8-6.4c2.9,0,4.8,2.3,4.8,6.4c0,4.1-1.9,6.5-4.8,6.5
		C106.6,243.3,104.7,240.9,104.7,236.8z M111.9,236.8c0-3.2-1-4.6-2.5-4.6c-1.4,0-2.4,1.4-2.4,4.6c0,3.1,1,4.6,2.4,4.6
		C110.9,241.4,111.9,239.9,111.9,236.8z M121.3,230.3h2l-11.2,21.2h-2L121.3,230.3z M119.1,245.1c0-4.1,1.9-6.4,4.8-6.4
		c2.8,0,4.8,2.3,4.8,6.4c0,4.1-1.9,6.5-4.8,6.5C121.1,251.5,119.1,249.2,119.1,245.1z M126.4,245.1c0-3.2-1-4.6-2.4-4.6
		c-1.4,0-2.5,1.4-2.5,4.6c0,3.1,1,4.6,2.5,4.6C125.4,249.7,126.4,248.2,126.4,245.1z"/>
	<path class="st12" d="M135.5,231.8c-0.9,1.4-1.9,2.6-2.9,3.5c-0.4-0.4-1.2-1.3-1.7-1.7c1.7-1.4,3.2-3.7,4.1-5.9l2.3,0.7
		c-0.2,0.5-0.4,0.9-0.7,1.4h6.6v2h-4.7c0.8,0.7,1.6,1.5,2.1,2.1l-1.7,1.4c-0.5-0.7-1.6-1.9-2.5-2.6l1-0.9H135.5z M144,233.4
		c0.4,0.6,0.9,1.4,1.1,2.1h10v4.7h-2.6v-2.7h-17.8v2.7h-2.5v-4.7h10.2c-0.2-0.6-0.5-1.1-0.8-1.6L144,233.4z M138.1,246.4h15.2v6.9
		h-2.6v-0.8h-12.6v0.9h-2.6V239h16.3v5.8h-13.7V246.4z M138.1,240.9v1.9h11.2v-1.9H138.1z M138.1,248.4v2.2h12.6v-2.2H138.1z
		 M156.1,229.7v2h-5.4c0.9,0.7,2,1.6,2.5,2.3l-1.7,1.5c-0.6-0.7-1.9-1.9-3-2.8l1.2-1h-2.9c-0.6,0.9-1.3,1.6-2,2.2
		c-0.4-0.4-1.4-1.2-1.9-1.6c1.5-1.2,2.7-2.9,3.4-4.7l2.4,0.6c-0.2,0.5-0.4,1-0.7,1.5H156.1z"/>
	<path class="st12" d="M167.8,247.7c-3,1.1-6.2,2.1-8.7,2.9l-0.6-2.6c1-0.3,2.2-0.6,3.6-1v-7h-3v-2.4h3V232h-3.3v-2.4h8.8v2.4h-3.1
		v5.5h2.6v2.4h-2.6v6.3c0.9-0.3,1.9-0.6,2.9-0.9L167.8,247.7z M184.2,250.1v2.4h-17.7v-2.4h8v-3.3h-6v-2.3h6v-2.9h-5.8v-12.5H183
		v12.5h-5.8v2.9h6.2v2.3h-6.2v3.3H184.2z M171.1,234.3h3.6v-3h-3.6V234.3z M171.1,239.4h3.6v-3.1h-3.6V239.4z M180.5,231.3H177v3
		h3.6V231.3z M180.5,236.4H177v3.1h3.6V236.4z"/>
	<path class="st12" d="M204.3,249.2c2.6,0.8,5.3,1.8,7,2.5l-1.9,1.6c-1.8-0.9-4.9-2.1-8-3.1l1.1-1h-7.4l2,0.9
		c-2.2,1.3-5.7,2.6-8.5,3.3c-0.4-0.5-1.3-1.4-1.9-1.9c2.7-0.5,5.9-1.3,7.8-2.3h-4.3v-8.5c-0.7,0.2-1.4,0.4-2.3,0.5
		c-0.2-0.6-0.8-1.6-1.2-2c3.4-0.5,5.4-1.3,6.5-2.3h-4.6c0.3-1.3,0.6-3.2,0.8-4.7h5.4v-1.4h-6.6v-1.6h6.6v-1.4h2.3v1.4h3.8v-1.4h2.4
		v1.4h6v4.6h-6v1.5h7.8c0,0,0,0.5-0.1,0.7c-0.2,1.6-0.3,2.4-0.7,2.9c-0.4,0.4-0.9,0.5-1.4,0.6c-0.2,0-0.4,0-0.6,0v9.7H204.3z
		 M191.5,233.8c-0.1,0.5-0.2,1-0.2,1.5h3.2c0.2-0.5,0.3-0.9,0.3-1.5H191.5z M205.7,240.3h-13v1.4h13V240.3z M205.7,243.3h-13v1.4h13
		V243.3z M192.8,247.7h13v-1.5h-13V247.7z M196.4,236.9c-0.4,0.7-0.9,1.3-1.7,1.8h6.2v-1.8H196.4z M201,233.8h-3.8
		c0,0.5-0.1,1-0.2,1.5h3.9V233.8z M197.2,232.2h3.8v-1.4h-3.8V232.2z M203.4,230.9v1.4h3.7v-1.4H203.4z M203.4,236.9v1.8h2.9
		c-0.1-0.3-0.2-0.6-0.3-0.9c0.8,0.1,1.4,0.1,1.7,0.1c0.3,0,0.5,0,0.6-0.2c0.1-0.1,0.2-0.4,0.3-0.9H203.4z"/>
</g>
<g class="st10">
	<path class="st12" d="M57.5,140.4c0-7.1,2.6-10.5,6.6-10.5c4,0,6.6,3.5,6.6,10.5c0,7.1-2.6,10.7-6.6,10.7
		C60.1,151,57.5,147.5,57.5,140.4z M67.7,140.4c0-5.9-1.5-8-3.6-8c-2.1,0-3.6,2.1-3.6,8c0,5.9,1.5,8.1,3.6,8.1
		C66.2,148.5,67.7,146.3,67.7,140.4z"/>
	<path class="st12" d="M77.2,140.2c-0.9,0-1.7,0.6-2.4,1.9l-1.7-1.2c1.2-2.1,2.7-2.9,4.1-2.9c2.5,0,3.7,2.6,5.5,2.6
		c0.9,0,1.6-0.6,2.3-1.9l1.7,1.3c-1.3,2.1-2.7,2.9-4.1,2.9C80.1,142.8,78.9,140.2,77.2,140.2z"/>
	<path class="st12" d="M88.6,148.2l1.6-2.1c1.2,1.2,2.7,2.2,4.8,2.2c2.3,0,3.9-1.3,3.9-3.4c0-2.3-1.4-3.7-6.1-3.7v-2.4
		c4,0,5.4-1.5,5.4-3.6c0-1.8-1.2-2.9-3.1-3c-1.6,0-2.9,0.8-4.1,1.9l-1.7-2c1.6-1.4,3.5-2.5,5.9-2.5c3.7,0,6.2,1.9,6.2,5.3
		c0,2.4-1.4,4-3.5,4.8v0.1c2.4,0.6,4.2,2.4,4.2,5.1c0,3.7-3.1,5.9-6.8,5.9C92.1,151,90,149.7,88.6,148.2z"/>
	<path class="st12" d="M105,140.4c0-7.1,2.6-10.5,6.6-10.5c4,0,6.6,3.5,6.6,10.5c0,7.1-2.6,10.7-6.6,10.7
		C107.5,151,105,147.5,105,140.4z M115.1,140.4c0-5.9-1.5-8-3.6-8c-2.1,0-3.6,2.1-3.6,8c0,5.9,1.5,8.1,3.6,8.1
		C113.7,148.5,115.1,146.3,115.1,140.4z"/>
	<path class="st12" d="M120.5,136.3c0-4.1,1.9-6.4,4.8-6.4c2.9,0,4.8,2.3,4.8,6.4c0,4.1-1.9,6.5-4.8,6.5
		C122.4,142.8,120.5,140.4,120.5,136.3z M127.7,136.3c0-3.2-1-4.6-2.5-4.6c-1.4,0-2.4,1.4-2.4,4.6c0,3.1,1,4.6,2.4,4.6
		C126.7,140.9,127.7,139.4,127.7,136.3z M137.1,129.8h2L127.9,151h-2L137.1,129.8z M135,144.6c0-4.1,1.9-6.4,4.8-6.4
		c2.8,0,4.8,2.3,4.8,6.4c0,4.1-1.9,6.5-4.8,6.5C136.9,151,135,148.7,135,144.6z M142.2,144.6c0-3.2-1-4.6-2.4-4.6
		c-1.4,0-2.5,1.4-2.5,4.6c0,3.1,1,4.6,2.5,4.6C141.2,149.2,142.2,147.7,142.2,144.6z"/>
	<path class="st12" d="M154.6,144.4c-0.1-0.4-0.2-1-0.3-1.5c-5.4,0.8-6.3,1-6.9,1.3c-0.1-0.5-0.5-1.6-0.7-2.2c0.6-0.1,1.2-0.8,2-1.9
		c0.4-0.4,1.2-1.5,2.1-2.8c-2.5,0.3-3.1,0.4-3.5,0.6c-0.1-0.5-0.5-1.6-0.7-2.2c0.5-0.1,0.9-0.7,1.5-1.5c0.6-0.8,2.4-4,3.4-6.9
		l2.2,0.9c-1.1,2.5-2.5,5-3.9,7.1l2.4-0.2c0.7-1.2,1.4-2.5,2-3.7l2.1,1.2c-1.7,3.1-3.7,6.2-5.9,8.7l3.5-0.4
		c-0.2-0.8-0.4-1.7-0.7-2.5l1.8-0.4c0.6,1.9,1.3,4.4,1.5,5.8L154.6,144.4z M149.7,145.6c-0.2,2.6-0.7,5.3-1.3,7.1
		c-0.4-0.2-1.3-0.5-1.9-0.7c0.6-1.8,1-4.4,1.3-6.8L149.7,145.6z M152.4,145c0.3,2.1,0.6,4.7,0.7,6.4l-1.8,0.3c0-1.7-0.3-4.4-0.6-6.4
		L152.4,145z M155,144.4c0.6,1.5,1.2,3.5,1.4,4.8l-1.7,0.6c-0.2-1.3-0.9-3.4-1.4-4.9L155,144.4z M163.1,150c-2,1-4.7,2.1-6.6,2.8
		c-0.4-0.5-1.1-1.2-1.6-1.7c1.9-0.7,4.6-1.8,6.1-2.7L163.1,150z M162.7,130.8h-6.1v-1.8h6.1v-1.7h2.5v1.7h5.7v1.8h-5.7v1.3h5.1v1.7
		h-5.1v1.3h6.7v1.9h-16.3v-1.9h7.1v-1.3h-5.5v-1.7h5.5V130.8z M157.4,148.3v-10.2h13v10.2H157.4z M159.7,141.1h8.2v-1.4h-8.2V141.1z
		 M159.7,143.9h8.2v-1.4h-8.2V143.9z M159.7,146.7h8.2v-1.4h-8.2V146.7z M166.8,148.4c1.9,1,4,2.2,5.4,3.1l-2.2,1.3
		c-1.2-0.9-3.1-2.2-4.9-3.2L166.8,148.4z"/>
	<path class="st12" d="M180.1,134.7c-1.1,2.4-2.7,5.2-4.1,7c-0.4-0.4-1.2-1.2-1.8-1.6c1.4-1.6,2.8-3.9,3.6-6L180.1,134.7z
		 M184.4,150.1c-0.6-1.1-1.5-2.4-2.6-3.9c-1.5,2.5-3.4,4.5-5.7,6c-0.3-0.5-1.2-1.5-1.8-1.9c2.4-1.5,4.4-3.6,5.9-6.1
		c-1.1-1.2-2.1-2.4-3.1-3.4l1.9-1.4c0.7,0.7,1.6,1.6,2.4,2.4c0.4-1.1,0.8-2.2,1.1-3.5l2.4,0.4c-0.5,1.8-1.1,3.5-1.8,5
		c1.4,1.6,2.7,3.3,3.4,4.6L184.4,150.1z M187.7,133.6h-12.8v-2.3h5.7c-0.3-0.9-1.1-2.2-1.7-3.2l2.2-0.8c0.8,1,1.6,2.4,2,3.3
		l-1.7,0.7h6.3V133.6z M198.2,134.7c-0.7,4.4-1.7,8.1-3.4,11c1.4,2.2,3.2,3.9,5.3,5.1c-0.6,0.5-1.4,1.4-1.8,2.1
		c-2-1.2-3.6-2.9-5-4.9c-1.6,2.1-3.6,3.7-6.2,5.1c-0.3-0.5-1.2-1.5-1.7-1.9c2.9-1.3,5-3.1,6.6-5.4c-0.9-1.8-1.7-3.7-2.3-5.9
		c-0.4,0.8-0.9,1.5-1.4,2.2c-0.3-0.5-1.2-1.6-1.7-2c0.2-0.3,0.4-0.6,0.6-0.9l-1.7,1c-0.5-1.4-1.9-3.6-3.1-5.1l1.9-1
		c1.2,1.4,2.6,3.4,3.2,4.7c1.7-3,2.9-7,3.5-11.3l2.4,0.4c-0.3,1.6-0.6,3.1-0.9,4.6h7.2v2.4H198.2z M191.8,134.7
		c-0.2,0.6-0.4,1.2-0.6,1.8c0.5,2.4,1.3,4.7,2.2,6.7c1.1-2.4,1.9-5.2,2.3-8.5H191.8z"/>
	<path class="st12" d="M220.2,148.7c2.6,0.8,5.3,1.8,7,2.5l-1.9,1.6c-1.8-0.9-4.9-2.1-8-3.1l1.1-1h-7.4l2,0.9
		c-2.2,1.3-5.7,2.6-8.5,3.3c-0.4-0.5-1.3-1.4-1.9-1.9c2.7-0.5,5.9-1.3,7.8-2.3h-4.3v-8.5c-0.7,0.2-1.4,0.4-2.3,0.5
		c-0.2-0.6-0.8-1.6-1.2-2c3.4-0.5,5.4-1.3,6.5-2.3h-4.6c0.3-1.3,0.6-3.2,0.8-4.7h5.4v-1.4h-6.6v-1.6h6.6v-1.4h2.3v1.4h3.8v-1.4h2.4
		v1.4h6v4.6h-6v1.5h7.8c0,0,0,0.5-0.1,0.7c-0.2,1.6-0.3,2.4-0.7,2.9c-0.4,0.4-0.9,0.5-1.4,0.6c-0.2,0-0.4,0-0.6,0v9.7H220.2z
		 M207.3,133.3c-0.1,0.5-0.2,1-0.2,1.5h3.2c0.2-0.5,0.3-0.9,0.3-1.5H207.3z M221.5,139.8h-13v1.4h13V139.8z M221.5,142.7h-13v1.4h13
		V142.7z M208.6,147.2h13v-1.5h-13V147.2z M212.2,136.4c-0.4,0.7-0.9,1.3-1.7,1.8h6.2v-1.8H212.2z M216.8,133.3H213
		c0,0.5-0.1,1-0.2,1.5h3.9V133.3z M213,131.7h3.8v-1.4H213V131.7z M219.2,130.4v1.4h3.7v-1.4H219.2z M219.2,136.4v1.8h2.9
		c-0.1-0.3-0.2-0.6-0.3-0.9c0.8,0.1,1.4,0.1,1.7,0.1c0.3,0,0.5,0,0.6-0.2c0.1-0.1,0.2-0.4,0.3-0.9H219.2z"/>
</g>
<g>
	<g>
		<g>
			<path class="st12" d="M-822.9,234.7c-0.1-2.3-2.3-4.1-6.7-5.4c-3.4-1-7.6-1.6-12.2-1.7v-17.5c0-0.3-0.1-0.6-0.2-0.8
				c-0.5-2-2.7-3.6-6.6-4.8c-3.7-1.1-8.5-1.7-13.6-1.7s-9.8,0.6-13.5,1.7c-3,0.9-6.5,2.6-6.5,5.6c0,0.2,0,0.4,0,0.5l0.2,7.5
				c-10.7-2-21,5-23,15.6c-0.2,1.2-0.3,2.4-0.3,3.7c0,10.8,8.8,19.7,19.7,19.7c4.5,0,8.9-1.5,12.4-4.4c3.1,0.7,6.7,1.1,10.5,1.2
				c0.8,4.6,10.7,6.6,19.9,6.6c5.1,0,9.8-0.6,13.5-1.8c3-0.9,6.5-2.6,6.5-5.6v-18C-822.9,235-822.9,234.8-822.9,234.7z
				 M-845.2,219.2c0,0.2-0.8,1.3-4.4,2.4c-3.3,1-8,1.6-12.7,1.6c-4.1,0-8-0.4-11.2-1.2h-0.1c-1.6-1.2-3.3-2.2-5.1-2.9l-0.1-4.6
				c1.1,0.6,2.3,1,3.5,1.4c3.6,1,8.2,1.6,13,1.6c5.1,0,9.9-0.6,13.6-1.7c1.2-0.4,2.4-0.8,3.6-1.4v4.3
				C-845.2,218.7-845.2,218.9-845.2,219.2z M-874.7,207.7c3.3-1,7.8-1.6,12.5-1.6s9.3,0.6,12.7,1.6c3.6,1.1,4.4,2.2,4.4,2.4
				s-0.8,1.4-4.4,2.4c-3.3,1-7.9,1.6-12.6,1.6c-4.5,0-8.8-0.5-12.1-1.5c-3.5-1-4.5-2.1-4.6-2.5l0,0
				C-878.9,209.8-878.2,208.7-874.7,207.7z M-874.7,249.5c-6.7,6.1-17.1,5.6-23.1-1.1c-6.1-6.7-5.6-17.1,1.1-23.1
				c3-2.7,6.9-4.3,11-4.3c1.6,0,3.3,0.2,4.8,0.7c5.7,1.8,10,6.5,11.2,12.3c0.2,1.1,0.3,2.2,0.3,3.3
				C-869.3,242-871.2,246.4-874.7,249.5z M-870.5,249.9c1.3-1.6,2.4-3.5,3.2-5.4c1.4,0.1,2.8,0.2,4.4,0.2v0.3l0.1,5.6
				C-865.4,250.5-868,250.3-870.5,249.9z M-866.1,235.5c1,0.1,2,0.1,3,0.1l0.1,5.8c-1.2,0-2.3-0.1-3.4-0.1c0.2-1.3,0.4-2.6,0.4-3.8
				C-866,236.8-866,236.1-866.1,235.5z M-862.1,232.3c0,0-0.1,0-0.2,0c-1.6,0-3.1-0.1-4.5-0.2c-0.6-2.2-1.6-4.3-2.9-6.1
				c2.5,0.3,4.9,0.5,7.4,0.5c5.1,0,9.9-0.6,13.6-1.7c1.2-0.4,2.4-0.8,3.5-1.4v4.3C-852.1,227.9-859.4,229.3-862.1,232.3z
				 M-859.9,234.9L-859.9,234.9c0.2-0.5,1.3-1.6,4.7-2.5c3.2-0.9,7.3-1.4,11.7-1.4h0.3c4.7,0,9.3,0.5,12.7,1.6
				c3.5,1.1,4.3,2.1,4.3,2.4l0,0c0,0.2-0.8,1.4-4.5,2.5c-3.4,1-7.8,1.5-12.5,1.5c-4.5,0-8.8-0.5-12.1-1.5
				C-858.8,236.5-859.8,235.3-859.9,234.9L-859.9,234.9z M-830.4,255.6c-3.3,1-7.8,1.6-12.5,1.6s-9.2-0.6-12.5-1.6
				c-3.5-1.1-4.2-2.2-4.2-2.4l0,0l-0.1-4.8c1.3,0.6,2.7,1.1,4.1,1.5c3.5,0.9,7.8,1.4,12.3,1.4c5.1,0,9.9-0.6,13.6-1.7
				c1.2-0.4,2.3-0.8,3.5-1.4v4.9l0,0C-826.2,253.3-826.9,254.5-830.4,255.6z M-826.1,243.5L-826.1,243.5c0,0.2-0.1,0.4-0.1,0.5
				c0,0.2-0.8,1.3-4.3,2.4c-3.4,1-7.9,1.6-12.6,1.6c-9.1,0-15.2-2.1-16.5-3.6V243l-0.1-3.8c1.2,0.6,2.3,1,3.6,1.4
				c3.6,1,8.2,1.6,13,1.6c5,0,9.8-0.6,13.4-1.7c1.2-0.3,2.4-0.8,3.6-1.4L-826.1,243.5L-826.1,243.5z"/>
		</g>
	</g>
	<path class="st9" d="M-874.7,249.5c-6.7,6.1-17.1,5.6-23.1-1.1c-6.1-6.7-5.6-17.1,1.1-23.1c3-2.7,6.9-4.3,11-4.3
		c1.6,0,3.3,0.2,4.8,0.7c5.7,1.8,10,6.5,11.2,12.3c0.2,1.1,0.3,2.2,0.3,3.3C-869.3,242-871.2,246.4-874.7,249.5z"/>
	<g>
		<g>
			<path class="st12" d="M-879.7,239.7c-0.8-2.7-3.2-4.5-6-4.5c-1.6,0-2.9-1.3-2.9-2.9c0-1.6,1.3-2.9,2.9-2.9c1.6,0,2.9,1.3,2.9,2.9
				c0,0.9,0.7,1.6,1.6,1.6c0.9,0,1.6-0.7,1.6-1.6c0-2.8-1.8-5.2-4.5-6v-0.7c0-0.9-0.7-1.6-1.6-1.6s-1.6,0.7-1.6,1.6v0.7
				c-3.3,0.9-5.3,4.3-4.4,7.6c0.7,2.7,3.2,4.6,6,4.6c1.6,0,2.9,1.3,2.9,2.9s-1.3,2.9-2.9,2.9c-1.6,0-2.9-1.3-2.9-2.9
				c0-0.9-0.7-1.6-1.6-1.6s-1.6,0.7-1.6,1.6c0,2.8,1.9,5.3,4.6,6v1.4c0,0.9,0.7,1.6,1.6,1.6s1.6-0.7,1.6-1.6v-1.4
				C-880.7,246.4-878.8,243-879.7,239.7z"/>
		</g>
	</g>
</g>
<g class="st10">
	<path class="st12" d="M-612.1,7.7c-1.7-1.7-5.3-3.9-8.1-5.1l2.7-4.3c2.8,1.1,6.4,3.1,8.3,4.7L-612.1,7.7z M-618.9,24.8
		c2.3-3.5,5.6-9.3,8.2-14.8l3.8,3.8c-2.3,5-5,10.2-7.6,14.8L-618.9,24.8z M-609.7-5.2c-1.6-1.7-5.1-4-7.9-5.4l2.8-4.1
		c2.8,1.1,6.4,3.2,8.2,5L-609.7-5.2z M-575.1,11.3h-3.3v7.2h-11.1v4.8c0,2.8-0.5,4.1-2.3,4.9s-4.3,0.9-7.9,0.9
		c-0.2-1.5-0.9-3.6-1.6-5.1c2.3,0.1,4.8,0.1,5.6,0c0.8,0,1-0.2,1-0.9v-4.7h-10.1v-4.5h10.1v-2.7h-12.5V6.4h12.5V3.9h-9.7v-4.5h2.1
		c-0.6-1.6-1.6-3.6-2.7-5.2l3.9-1.7c1.3,1.7,2.6,4,3.1,5.6l-2.7,1.3h22.3v7h3.3L-575.1,11.3L-575.1,11.3z M-578.2-11.2
		c-7.4,2-17.7,3.2-26.6,3.8c-0.1-1.2-0.8-3.2-1.3-4.3c8.6-0.6,18.4-1.8,24.2-3.5L-578.2-11.2z M-593.1-0.6c-0.3-1.8-1.4-4.5-2.5-6.5
		l4.1-1.3c1.1,2,2.2,4.5,2.7,6.3L-593.1-0.6z M-589.5,6.5h6.2V4h-6.2V6.5z M-583.3,11.3h-6.2V14h6.2V11.3z M-586.8-2.1
		c1.3-1.9,2.9-5,3.7-7.1l5.2,1.4c-1.5,2.7-3,5.3-4.3,7.1L-586.8-2.1z"/>
	<path class="st12" d="M-516.5-13.4c-1.2,3.5-2.8,7-4.6,10.4v32.2h-5.2V5.4c-0.9,1.1-1.8,2.2-2.6,3.2c-0.5-1.4-2-4.5-3-5.9
		c4.1-4.3,8-11.1,10.3-17.8L-516.5-13.4z M-487.1,23.5v4.8h-32.1v-4.8h4.1V-2.9h8.2c0.2-1,0.4-2.1,0.6-3.2h-10.8V-11h11.5
		c0.1-1.5,0.3-2.9,0.4-4.2l6,0.2c-0.2,1.3-0.5,2.7-0.7,4h11.7v4.9h-12.7c-0.3,1.2-0.5,2.2-0.8,3.2h11v26.4H-487.1z M-510,1.3v2.6
		h14.1V1.3H-510z M-495.9,7.8H-510v2.6h14.1V7.8z M-510,14.2v2.7h14.1v-2.7H-510z M-510,23.5h14.1v-2.7H-510V23.5z"/>
</g>
<g>
	<g>
		<g>
			<path class="st12" d="M-512.9-73.5c-0.1-2.3-2.3-4.1-6.7-5.4c-3.4-1-7.6-1.6-12.2-1.7v-17.5c0-0.3-0.1-0.6-0.2-0.8
				c-0.5-2-2.7-3.6-6.6-4.8c-3.7-1.1-8.5-1.7-13.6-1.7s-9.8,0.6-13.5,1.7c-3,0.9-6.5,2.6-6.5,5.6c0,0.2,0,0.4,0,0.5l0.2,7.5
				c-10.7-2-21,5-23,15.6c-0.2,1.2-0.3,2.4-0.3,3.7c0,10.8,8.8,19.7,19.7,19.7c4.5,0,8.9-1.5,12.4-4.4c3.1,0.7,6.7,1.1,10.5,1.2
				c0.8,4.6,10.7,6.6,19.9,6.6c5.1,0,9.8-0.6,13.5-1.8c3-0.9,6.5-2.6,6.5-5.6v-18C-512.8-73.2-512.8-73.4-512.9-73.5z M-535.2-89
				c0,0.2-0.8,1.3-4.4,2.4c-3.3,1-8,1.6-12.7,1.6c-4.1,0-8-0.4-11.2-1.2h-0.1c-1.6-1.2-3.3-2.2-5.1-2.9l-0.1-4.6
				c1.1,0.6,2.3,1,3.5,1.4c3.6,1,8.2,1.6,13,1.6c5.1,0,9.9-0.6,13.6-1.7c1.2-0.4,2.4-0.8,3.6-1.4v4.3
				C-535.2-89.5-535.2-89.3-535.2-89z M-564.7-100.5c3.3-1,7.8-1.6,12.5-1.6s9.3,0.6,12.7,1.6c3.6,1.1,4.4,2.2,4.4,2.4
				s-0.8,1.4-4.4,2.4c-3.3,1-7.9,1.6-12.6,1.6c-4.5,0-8.8-0.5-12.1-1.5c-3.5-1-4.5-2.1-4.6-2.5l0,0
				C-568.9-98.4-568.1-99.5-564.7-100.5z M-564.6-58.7c-6.7,6.1-17.1,5.6-23.1-1.1c-6.1-6.7-5.6-17.1,1.1-23.1c3-2.7,6.9-4.3,11-4.3
				c1.6,0,3.3,0.2,4.8,0.7c5.7,1.8,10,6.5,11.2,12.3c0.2,1.1,0.3,2.2,0.3,3.3C-559.2-66.2-561.2-61.8-564.6-58.7z M-560.4-58.3
				c1.3-1.6,2.4-3.5,3.2-5.4c1.4,0.1,2.8,0.2,4.4,0.2v0.3l0.1,5.6C-555.4-57.7-557.9-57.9-560.4-58.3z M-556.1-72.7
				c1,0.1,2,0.1,3,0.1l0.1,5.8c-1.2,0-2.3-0.1-3.4-0.1c0.2-1.3,0.4-2.6,0.4-3.8C-556-71.4-556-72.1-556.1-72.7z M-552-75.9
				c0,0-0.1,0-0.2,0c-1.6,0-3.1-0.1-4.5-0.2c-0.6-2.2-1.6-4.3-2.9-6.1c2.5,0.3,4.9,0.5,7.4,0.5c5.1,0,9.9-0.6,13.6-1.7
				c1.2-0.4,2.4-0.8,3.5-1.4v4.3C-542.1-80.3-549.3-78.9-552-75.9z M-549.8-73.3L-549.8-73.3c0.2-0.5,1.3-1.6,4.7-2.5
				c3.2-0.9,7.3-1.4,11.7-1.4h0.3c4.7,0,9.3,0.5,12.7,1.6c3.5,1.1,4.3,2.1,4.3,2.4l0,0c0,0.2-0.8,1.4-4.5,2.5
				c-3.4,1-7.8,1.5-12.5,1.5c-4.5,0-8.8-0.5-12.1-1.5C-548.7-71.7-549.7-72.9-549.8-73.3L-549.8-73.3z M-520.3-52.6
				c-3.3,1-7.8,1.6-12.5,1.6s-9.2-0.6-12.5-1.6c-3.5-1.1-4.2-2.2-4.2-2.4l0,0l-0.1-4.8c1.3,0.6,2.7,1.1,4.1,1.5
				c3.5,0.9,7.8,1.4,12.3,1.4c5.1,0,9.9-0.6,13.6-1.7c1.2-0.4,2.3-0.8,3.5-1.4v4.9l0,0C-516.1-54.9-516.9-53.7-520.3-52.6z
				 M-516.1-64.7L-516.1-64.7c0,0.2-0.1,0.4-0.1,0.5c0,0.2-0.8,1.3-4.3,2.4c-3.4,1-7.9,1.6-12.6,1.6c-9.1,0-15.2-2.1-16.5-3.6v-1.4
				l-0.1-3.8c1.2,0.6,2.3,1,3.6,1.4c3.6,1,8.2,1.6,13,1.6c5,0,9.8-0.6,13.4-1.7c1.2-0.3,2.4-0.8,3.6-1.4L-516.1-64.7L-516.1-64.7z"
				/>
		</g>
	</g>
	<path class="st9" d="M-564.6-58.7c-6.7,6.1-17.1,5.6-23.1-1.1c-6.1-6.7-5.6-17.1,1.1-23.1c3-2.7,6.9-4.3,11-4.3
		c1.6,0,3.3,0.2,4.8,0.7c5.7,1.8,10,6.5,11.2,12.3c0.2,1.1,0.3,2.2,0.3,3.3C-559.2-66.2-561.2-61.8-564.6-58.7z"/>
	<g>
		<g>
			<path class="st12" d="M-569.7-68.5c-0.8-2.7-3.2-4.5-6-4.5c-1.6,0-2.9-1.3-2.9-2.9s1.3-2.9,2.9-2.9c1.6,0,2.9,1.3,2.9,2.9
				c0,0.9,0.7,1.6,1.6,1.6c0.9,0,1.6-0.7,1.6-1.6c0-2.8-1.8-5.2-4.5-6v-0.7c0-0.9-0.7-1.6-1.6-1.6c-0.9,0-1.6,0.7-1.6,1.6v0.7
				c-3.3,0.9-5.3,4.3-4.4,7.6c0.7,2.7,3.2,4.6,6,4.6c1.6,0,2.9,1.3,2.9,2.9s-1.3,2.9-2.9,2.9c-1.6,0-2.9-1.3-2.9-2.9
				c0-0.9-0.7-1.6-1.6-1.6c-0.9,0-1.6,0.7-1.6,1.6c0,2.8,1.9,5.3,4.6,6v1.4c0,0.9,0.7,1.6,1.6,1.6c0.9,0,1.6-0.7,1.6-1.6v-1.4
				C-570.6-61.8-568.7-65.2-569.7-68.5z"/>
		</g>
	</g>
</g>
<g>
	<g>
		<line class="st5" x1="788.8" y1="-56.1" x2="788.6" y2="-56.1"/>
		<line class="st6" x1="870.2" y1="-56.1" x2="758.5" y2="-56.1"/>
		<line class="st5" x1="756.7" y1="-56.1" x2="756.5" y2="-56.1"/>
	</g>
</g>
<g>
	
		<linearGradient id="SVGID_7_" gradientUnits="userSpaceOnUse" x1="357.4792" y1="-3401.552" x2="357.4792" y2="-3650.1472" gradientTransform="matrix(6.123234e-17 -1 1 6.123234e-17 3671.5496 765.8304)">
		<stop  offset="0" style="stop-color:#CAB380;stop-opacity:0"/>
		<stop  offset="0.5558" style="stop-color:#CAB380"/>
		<stop  offset="1" style="stop-color:#CAB380;stop-opacity:0"/>
	</linearGradient>
	<path class="st13" d="M22.3,470.5c0-68.2,55.3-123.4,123.4-123.4s123.4,55.3,123.4,123.4"/>
	
		<linearGradient id="SVGID_8_" gradientUnits="userSpaceOnUse" x1="233.1815" y1="-3650.0474" x2="233.1815" y2="-3401.4519" gradientTransform="matrix(6.123234e-17 -1 1 6.123234e-17 3671.5496 765.8304)">
		<stop  offset="0" style="stop-color:#CAB380;stop-opacity:0"/>
		<stop  offset="0.5558" style="stop-color:#CAB380"/>
		<stop  offset="1" style="stop-color:#CAB380;stop-opacity:0"/>
	</linearGradient>
	<path class="st14" d="M269.2,470.5c0,68.2-55.3,123.4-123.4,123.4S22.4,538.6,22.4,470.5"/>
</g>
<g>
	<circle class="st2" cx="747.3" cy="-56.1" r="7.9"/>
	<path class="st9" d="M747.3-62.7c3.7,0,6.6,3,6.6,6.6c0,3.7-3,6.6-6.6,6.6s-6.6-3-6.6-6.6C740.6-59.8,743.6-62.7,747.3-62.7
		 M747.3-65.4c-5.1,0-9.2,4.2-9.2,9.2c0,5.1,4.2,9.2,9.2,9.2c5.1,0,9.2-4.2,9.2-9.2S752.4-65.4,747.3-65.4L747.3-65.4z"/>
</g>
<g>
	<g>
		<line class="st15" x1="145.7" y1="318.4" x2="145.7" y2="318.5"/>
		<line class="st15" x1="145.7" y1="307.9" x2="145.7" y2="339.2"/>
		<line class="st15" x1="145.7" y1="340.5" x2="145.7" y2="340.6"/>
	</g>
</g>
<g>
	<g>
		
			<linearGradient id="SVGID_9_" gradientUnits="userSpaceOnUse" x1="146" y1="420.6169" x2="146" y2="421.9613" gradientTransform="matrix(1 0 0 -1 0 621.5276)">
			<stop  offset="0" style="stop-color:#FFFFFF;stop-opacity:0"/>
			<stop  offset="0.5" style="stop-color:#CAB380"/>
			<stop  offset="1" style="stop-color:#FFFFFF;stop-opacity:0"/>
		</linearGradient>
		<line class="st16" x1="146" y1="200.2" x2="146" y2="200.3"/>
		
			<linearGradient id="SVGID_10_" gradientUnits="userSpaceOnUse" x1="146" y1="399.9242" x2="146" y2="432.4309" gradientTransform="matrix(1 0 0 -1 0 621.5276)">
			<stop  offset="0" style="stop-color:#FFFFFF;stop-opacity:0"/>
			<stop  offset="0.5" style="stop-color:#CAB380"/>
			<stop  offset="1" style="stop-color:#FFFFFF;stop-opacity:0"/>
		</linearGradient>
		<line class="st17" x1="146" y1="189.7" x2="146" y2="221"/>
		
			<linearGradient id="SVGID_11_" gradientUnits="userSpaceOnUse" x1="146" y1="398.5273" x2="146" y2="399.8717" gradientTransform="matrix(1 0 0 -1 0 621.5276)">
			<stop  offset="0" style="stop-color:#FFFFFF;stop-opacity:0"/>
			<stop  offset="0.5" style="stop-color:#CAB380"/>
			<stop  offset="1" style="stop-color:#FFFFFF;stop-opacity:0"/>
		</linearGradient>
		<line class="st18" x1="146" y1="222.3" x2="146" y2="222.4"/>
	</g>
</g>
<g>
	<g>
		
			<linearGradient id="SVGID_12_" gradientUnits="userSpaceOnUse" x1="146" y1="521.1382" x2="146" y2="522.4825" gradientTransform="matrix(1 0 0 -1 0 621.5276)">
			<stop  offset="0" style="stop-color:#FFFFFF;stop-opacity:0"/>
			<stop  offset="0.5" style="stop-color:#CAB380"/>
			<stop  offset="1" style="stop-color:#FFFFFF;stop-opacity:0"/>
		</linearGradient>
		<line class="st19" x1="146" y1="99.6" x2="146" y2="99.8"/>
		
			<linearGradient id="SVGID_13_" gradientUnits="userSpaceOnUse" x1="146" y1="500.4242" x2="146" y2="532.9309" gradientTransform="matrix(1 0 0 -1 0 621.5276)">
			<stop  offset="0" style="stop-color:#FFFFFF;stop-opacity:0"/>
			<stop  offset="0.5" style="stop-color:#CAB380"/>
			<stop  offset="1" style="stop-color:#FFFFFF;stop-opacity:0"/>
		</linearGradient>
		<line class="st20" x1="146" y1="89.2" x2="146" y2="120.5"/>
		
			<linearGradient id="SVGID_14_" gradientUnits="userSpaceOnUse" x1="146" y1="499.0486" x2="146" y2="500.393" gradientTransform="matrix(1 0 0 -1 0 621.5276)">
			<stop  offset="0" style="stop-color:#FFFFFF;stop-opacity:0"/>
			<stop  offset="0.5" style="stop-color:#CAB380"/>
			<stop  offset="1" style="stop-color:#FFFFFF;stop-opacity:0"/>
		</linearGradient>
		<line class="st21" x1="146" y1="121.7" x2="146" y2="121.9"/>
	</g>
</g>
<g>
	<path class="st2" d="M151.3,346.9c0,3-2.5,5.4-5.4,5.4s-5.4-2.5-5.4-5.4c0-3,2.5-5.4,5.4-5.4S151.3,344,151.3,346.9z"/>
	<path class="st9" d="M141.2,346.9c0-2.5,2.1-4.5,4.5-4.5c2.5,0,4.5,2.1,4.5,4.5c0,2.5-2.1,4.5-4.5,4.5
		C143.3,351.5,141.2,349.5,141.2,346.9 M139.4,346.9c0,3.5,2.9,6.3,6.3,6.3c3.4,0,6.3-2.9,6.3-6.3c0-3.5-2.9-6.3-6.3-6.3
		C142.3,340.6,139.4,343.4,139.4,346.9L139.4,346.9z"/>
</g>
<g>
	<g>
		<line class="st5" x1="850.7" y1="77.8" x2="850.5" y2="77.8"/>
		<line class="st6" x1="906.7" y1="77.8" x2="820.4" y2="77.8"/>
		<line class="st5" x1="818.6" y1="77.8" x2="818.4" y2="77.8"/>
	</g>
</g>
<g>
	<path class="st2" d="M809.1,85.8c-4.4,0-7.9-3.6-7.9-7.9c0-4.4,3.6-7.9,7.9-7.9s7.9,3.6,7.9,7.9S813.5,85.8,809.1,85.8z"/>
	<path class="st9" d="M809.1,71.2c3.7,0,6.6,3,6.6,6.6c0,3.7-3,6.6-6.6,6.6s-6.6-3-6.6-6.6S805.4,71.2,809.1,71.2 M809.1,68.6
		c-5.1,0-9.2,4.2-9.2,9.2c0,5.1,4.2,9.2,9.2,9.2c5.1,0,9.2-4.2,9.2-9.2C818.4,72.7,814.2,68.6,809.1,68.6L809.1,68.6z"/>
</g>
<g>
	<path class="st22" d="M47.2-119.8c0,0.7-0.6,1.3-1.3,1.3s-1.3-0.6-1.3-1.3s0.6-1.3,1.3-1.3S47.2-120.5,47.2-119.8z"/>
	<path class="st22" d="M35.7-119.8c0,0.7-0.6,1.3-1.3,1.3s-1.3-0.6-1.3-1.3s0.6-1.3,1.3-1.3S35.7-120.5,35.7-119.8z"/>
	<path class="st22" d="M24.2-119.8c0,0.7-0.6,1.3-1.3,1.3s-1.3-0.6-1.3-1.3s0.6-1.3,1.3-1.3S24.2-120.5,24.2-119.8z"/>
	<path class="st22" d="M12.7-119.8c0,0.7-0.6,1.3-1.3,1.3s-1.3-0.6-1.3-1.3s0.6-1.3,1.3-1.3S12.7-120.5,12.7-119.8z"/>
	<path class="st22" d="M1.2-119.8c0,0.7-0.6,1.3-1.3,1.3s-1.3-0.6-1.3-1.3s0.6-1.3,1.3-1.3S1.2-120.5,1.2-119.8z"/>
	<path class="st22" d="M-10.3-119.8c0,0.7-0.6,1.3-1.3,1.3s-1.3-0.6-1.3-1.3s0.6-1.3,1.3-1.3S-10.3-120.5-10.3-119.8z"/>
	<path class="st22" d="M-21.8-119.8c0,0.7-0.6,1.3-1.3,1.3s-1.3-0.6-1.3-1.3s0.6-1.3,1.3-1.3S-21.8-120.5-21.8-119.8z"/>
	<path class="st22" d="M-33.3-119.8c0,0.7-0.6,1.3-1.3,1.3s-1.3-0.6-1.3-1.3s0.6-1.3,1.3-1.3S-33.3-120.5-33.3-119.8z"/>
	<path class="st22" d="M-44.8-119.8c0,0.7-0.6,1.3-1.3,1.3s-1.3-0.6-1.3-1.3s0.6-1.3,1.3-1.3S-44.8-120.5-44.8-119.8z"/>
	<path class="st22" d="M-56.3-119.8c0,0.7-0.6,1.3-1.3,1.3s-1.3-0.6-1.3-1.3s0.6-1.3,1.3-1.3S-56.3-120.5-56.3-119.8z"/>
	<g>
		<g>
			<defs>
				<rect id="SVGID_15_" x="-32.8" y="-128" width="82.8" height="54.1"/>
			</defs>
			<clipPath id="SVGID_16_">
				<use xlink:href="#SVGID_15_"  style="overflow:visible;"/>
			</clipPath>
			<g transform="matrix(1 0 0 1 0 7.629395e-06)" class="st23">
				<g>
					<defs>
						<rect id="SVGID_17_" x="-32.9" y="-128" width="82.9" height="54.2"/>
					</defs>
					<clipPath id="SVGID_18_">
						<use xlink:href="#SVGID_17_"  style="overflow:visible;"/>
					</clipPath>
					<g style="clip-path:url(#SVGID_18_);">
						
							<use xlink:href="#鍒鼨懧鎀"  width="107.6" height="70.4" x="-53.8" y="-35.2" transform="matrix(0.7702 0 0 -0.7702 8.5612 -100.9265)" style="overflow:visible;"/>
					</g>
				</g>
			</g>
		</g>
	</g>
	<g>
		<ellipse class="st24" cx="8.4" cy="-104.6" rx="41.3" ry="22"/>
		<ellipse class="st25" cx="8.4" cy="-104.6" rx="40.2" ry="21.4"/>
		<ellipse class="st26" cx="8.4" cy="-104.6" rx="39" ry="20.8"/>
		<ellipse class="st27" cx="8.4" cy="-104.6" rx="37.9" ry="20.2"/>
		<ellipse class="st28" cx="8.4" cy="-104.6" rx="36.8" ry="19.6"/>
		<ellipse class="st29" cx="8.4" cy="-104.6" rx="35.6" ry="19"/>
		<ellipse class="st30" cx="8.4" cy="-104.6" rx="34.5" ry="18.4"/>
		<ellipse class="st31" cx="8.4" cy="-104.6" rx="33.4" ry="17.8"/>
		<ellipse class="st32" cx="8.4" cy="-104.6" rx="32.2" ry="17.2"/>
		<ellipse class="st33" cx="8.4" cy="-104.6" rx="31.1" ry="16.6"/>
		<ellipse class="st34" cx="8.4" cy="-104.6" rx="30" ry="16"/>
		<ellipse class="st35" cx="8.4" cy="-104.6" rx="28.8" ry="15.4"/>
		<ellipse class="st36" cx="8.4" cy="-104.6" rx="27.7" ry="14.8"/>
		<ellipse class="st37" cx="8.4" cy="-104.6" rx="26.6" ry="14.2"/>
		<ellipse class="st38" cx="8.4" cy="-104.6" rx="25.4" ry="13.6"/>
		<ellipse class="st39" cx="8.4" cy="-104.6" rx="24.3" ry="13"/>
	</g>
	<g>
		<g>
			<defs>
				<rect id="SVGID_19_" x="-34.1" y="-142.2" width="82.8" height="54.1"/>
			</defs>
			<clipPath id="SVGID_20_">
				<use xlink:href="#SVGID_19_"  style="overflow:visible;"/>
			</clipPath>
			<g transform="matrix(1 0 0 1 4.768372e-07 0)" class="st40">
				<g>
					<defs>
						<rect id="SVGID_21_" x="-34.2" y="-142.3" width="82.9" height="54.2"/>
					</defs>
					<clipPath id="SVGID_22_">
						<use xlink:href="#SVGID_21_"  style="overflow:visible;"/>
					</clipPath>
					<g transform="matrix(1 0 0 1 -4.768372e-07 -7.629395e-06)" style="clip-path:url(#SVGID_22_);">
						
							<use xlink:href="#鍒鼨懧鎀"  width="107.6" height="70.4" x="-53.8" y="-35.2" transform="matrix(0.7702 0 0 -0.7702 7.2201 -115.1419)" style="overflow:visible;"/>
					</g>
				</g>
			</g>
		</g>
	</g>
	<g>
		<ellipse class="st24" cx="6.3" cy="-119.4" rx="41.3" ry="22"/>
		<ellipse class="st25" cx="6.3" cy="-119.4" rx="40.2" ry="21.4"/>
		<ellipse class="st26" cx="6.3" cy="-119.4" rx="39" ry="20.8"/>
		<ellipse class="st27" cx="6.3" cy="-119.4" rx="37.9" ry="20.2"/>
		<ellipse class="st28" cx="6.3" cy="-119.4" rx="36.8" ry="19.6"/>
		<ellipse class="st29" cx="6.3" cy="-119.4" rx="35.6" ry="19"/>
		<ellipse class="st30" cx="6.3" cy="-119.4" rx="34.5" ry="18.4"/>
		<ellipse class="st31" cx="6.3" cy="-119.4" rx="33.4" ry="17.8"/>
		<ellipse class="st32" cx="6.3" cy="-119.4" rx="32.2" ry="17.2"/>
		<ellipse class="st33" cx="6.3" cy="-119.4" rx="31.1" ry="16.6"/>
		<ellipse class="st34" cx="6.3" cy="-119.4" rx="30" ry="16"/>
		<ellipse class="st35" cx="6.3" cy="-119.4" rx="28.8" ry="15.4"/>
		<ellipse class="st36" cx="6.3" cy="-119.4" rx="27.7" ry="14.8"/>
		<ellipse class="st37" cx="6.3" cy="-119.4" rx="26.6" ry="14.2"/>
		<ellipse class="st38" cx="6.3" cy="-119.4" rx="25.4" ry="13.6"/>
		<ellipse class="st39" cx="6.3" cy="-119.4" rx="24.3" ry="13"/>
	</g>
	<g>
		<g>
			<defs>
				<rect id="SVGID_23_" x="-30.5" y="-155" width="82.8" height="54.1"/>
			</defs>
			<clipPath id="SVGID_24_">
				<use xlink:href="#SVGID_23_"  style="overflow:visible;"/>
			</clipPath>
			<g class="st41">
				<g>
					<defs>
						<rect id="SVGID_25_" x="-30.6" y="-155.1" width="82.9" height="54.2"/>
					</defs>
					<clipPath id="SVGID_26_">
						<use xlink:href="#SVGID_25_"  style="overflow:visible;"/>
					</clipPath>
					<g style="clip-path:url(#SVGID_26_);">
						
							<use xlink:href="#鍒鼨懧鎀"  width="107.6" height="70.4" x="-53.8" y="-35.2" transform="matrix(0.7702 0 0 -0.7702 10.8717 -128.0114)" style="overflow:visible;"/>
					</g>
				</g>
			</g>
		</g>
	</g>
	<g>
		<g>
			<defs>
				<rect id="SVGID_27_" x="-128.4" y="-133.5" width="82.8" height="54.1"/>
			</defs>
			<clipPath id="SVGID_28_">
				<use xlink:href="#SVGID_27_"  style="overflow:visible;"/>
			</clipPath>
			<g class="st42">
				<g>
					<defs>
						<rect id="SVGID_29_" x="-128.5" y="-133.6" width="82.9" height="54.2"/>
					</defs>
					<clipPath id="SVGID_30_">
						<use xlink:href="#SVGID_29_"  style="overflow:visible;"/>
					</clipPath>
					<g style="clip-path:url(#SVGID_30_);">
						
							<use xlink:href="#鍒鼨懧鎀"  width="107.6" height="70.4" x="-53.8" y="-35.2" transform="matrix(0.7702 0 0 -0.7702 -87.0742 -106.5036)" style="overflow:visible;"/>
					</g>
				</g>
			</g>
		</g>
	</g>
	<g>
		<ellipse class="st24" cx="-87.9" cy="-111.2" rx="41.3" ry="22"/>
		<ellipse class="st25" cx="-87.9" cy="-111.2" rx="40.2" ry="21.4"/>
		<ellipse class="st26" cx="-87.9" cy="-111.2" rx="39" ry="20.8"/>
		<ellipse class="st27" cx="-87.9" cy="-111.2" rx="37.9" ry="20.2"/>
		<ellipse class="st28" cx="-87.9" cy="-111.2" rx="36.8" ry="19.6"/>
		<ellipse class="st29" cx="-87.9" cy="-111.2" rx="35.6" ry="19"/>
		<ellipse class="st30" cx="-87.9" cy="-111.2" rx="34.5" ry="18.4"/>
		<ellipse class="st31" cx="-87.9" cy="-111.2" rx="33.4" ry="17.8"/>
		<ellipse class="st32" cx="-87.9" cy="-111.2" rx="32.2" ry="17.2"/>
		<ellipse class="st33" cx="-87.9" cy="-111.2" rx="31.1" ry="16.6"/>
		<ellipse class="st34" cx="-87.9" cy="-111.2" rx="30" ry="16"/>
		<ellipse class="st35" cx="-87.9" cy="-111.2" rx="28.8" ry="15.4"/>
		<ellipse class="st36" cx="-87.9" cy="-111.2" rx="27.7" ry="14.8"/>
		<ellipse class="st37" cx="-87.9" cy="-111.2" rx="26.6" ry="14.2"/>
		<ellipse class="st38" cx="-87.9" cy="-111.2" rx="25.4" ry="13.6"/>
		<ellipse class="st39" cx="-87.9" cy="-111.2" rx="24.3" ry="13"/>
	</g>
	<g>
		<g>
			<defs>
				<rect id="SVGID_31_" x="-133.4" y="-147.7" width="82.8" height="54.1"/>
			</defs>
			<clipPath id="SVGID_32_">
				<use xlink:href="#SVGID_31_"  style="overflow:visible;"/>
			</clipPath>
			<g transform="matrix(1 0 0 1 0 7.629395e-06)" class="st43">
				<g>
					<defs>
						<rect id="SVGID_33_" x="-133.5" y="-147.8" width="82.9" height="54.2"/>
					</defs>
					<clipPath id="SVGID_34_">
						<use xlink:href="#SVGID_33_"  style="overflow:visible;"/>
					</clipPath>
					<g style="clip-path:url(#SVGID_34_);">
						
							<use xlink:href="#鍒鼨懧鎀"  width="107.6" height="70.4" x="-53.8" y="-35.2" transform="matrix(0.7702 0 0 -0.7702 -92.0449 -120.7063)" style="overflow:visible;"/>
					</g>
				</g>
			</g>
		</g>
	</g>
	<g>
		<ellipse class="st24" cx="10.7" cy="-132.4" rx="41.3" ry="22"/>
		<ellipse class="st25" cx="10.7" cy="-132.4" rx="40.2" ry="21.4"/>
		<ellipse class="st26" cx="10.7" cy="-132.4" rx="39" ry="20.8"/>
		<ellipse class="st27" cx="10.7" cy="-132.4" rx="37.9" ry="20.2"/>
		<ellipse class="st28" cx="10.7" cy="-132.4" rx="36.8" ry="19.6"/>
		<ellipse class="st29" cx="10.7" cy="-132.4" rx="35.6" ry="19"/>
		<ellipse class="st30" cx="10.7" cy="-132.4" rx="34.5" ry="18.4"/>
		<ellipse class="st31" cx="10.7" cy="-132.4" rx="33.4" ry="17.8"/>
		<ellipse class="st32" cx="10.7" cy="-132.4" rx="32.2" ry="17.2"/>
		<ellipse class="st33" cx="10.7" cy="-132.4" rx="31.1" ry="16.6"/>
		<ellipse class="st34" cx="10.7" cy="-132.4" rx="30" ry="16"/>
		<ellipse class="st35" cx="10.7" cy="-132.4" rx="28.8" ry="15.4"/>
		<ellipse class="st36" cx="10.7" cy="-132.4" rx="27.7" ry="14.8"/>
		<ellipse class="st37" cx="10.7" cy="-132.4" rx="26.6" ry="14.2"/>
		<ellipse class="st38" cx="10.7" cy="-132.4" rx="25.4" ry="13.6"/>
		<ellipse class="st39" cx="10.7" cy="-132.4" rx="24.3" ry="13"/>
	</g>
	<g>
		<g>
			<defs>
				<rect id="SVGID_35_" x="-35.1" y="-168.2" width="82.8" height="54.1"/>
			</defs>
			<clipPath id="SVGID_36_">
				<use xlink:href="#SVGID_35_"  style="overflow:visible;"/>
			</clipPath>
			<g class="st44">
				<g>
					<defs>
						<rect id="SVGID_37_" x="-35.2" y="-168.3" width="82.9" height="54.2"/>
					</defs>
					<clipPath id="SVGID_38_">
						<use xlink:href="#SVGID_37_"  style="overflow:visible;"/>
					</clipPath>
					<g style="clip-path:url(#SVGID_38_);">
						
							<use xlink:href="#鍒鼨懧鎀"  width="107.6" height="70.4" x="-53.8" y="-35.2" transform="matrix(0.7702 0 0 -0.7702 6.2506 -141.153)" style="overflow:visible;"/>
					</g>
				</g>
			</g>
		</g>
	</g>
	<g>
		<g>
			<defs>
				<rect id="SVGID_39_" x="-85.8" y="-101.8" width="82.8" height="54.1"/>
			</defs>
			<clipPath id="SVGID_40_">
				<use xlink:href="#SVGID_39_"  style="overflow:visible;"/>
			</clipPath>
			<g class="st45">
				<g>
					<defs>
						<rect id="SVGID_41_" x="-85.9" y="-101.9" width="82.9" height="54.2"/>
					</defs>
					<clipPath id="SVGID_42_">
						<use xlink:href="#SVGID_41_"  style="overflow:visible;"/>
					</clipPath>
					<g style="clip-path:url(#SVGID_42_);">
						
							<use xlink:href="#鍒鼨懧鎀"  width="107.6" height="70.4" x="-53.8" y="-35.2" transform="matrix(0.7702 0 0 -0.7702 -44.4523 -74.811)" style="overflow:visible;"/>
					</g>
				</g>
			</g>
		</g>
	</g>
	<g>
		<ellipse class="st24" cx="-44.6" cy="-79.8" rx="41.3" ry="22"/>
		<ellipse class="st25" cx="-44.6" cy="-79.8" rx="40.2" ry="21.4"/>
		<ellipse class="st26" cx="-44.6" cy="-79.8" rx="39" ry="20.8"/>
		<ellipse class="st27" cx="-44.6" cy="-79.8" rx="37.9" ry="20.2"/>
		<ellipse class="st28" cx="-44.6" cy="-79.8" rx="36.8" ry="19.6"/>
		<ellipse class="st29" cx="-44.6" cy="-79.8" rx="35.6" ry="19"/>
		<ellipse class="st30" cx="-44.6" cy="-79.8" rx="34.5" ry="18.4"/>
		<ellipse class="st31" cx="-44.6" cy="-79.8" rx="33.4" ry="17.8"/>
		<ellipse class="st32" cx="-44.6" cy="-79.8" rx="32.2" ry="17.2"/>
		<ellipse class="st33" cx="-44.6" cy="-79.8" rx="31.1" ry="16.6"/>
		<ellipse class="st34" cx="-44.6" cy="-79.8" rx="30" ry="16"/>
		<ellipse class="st35" cx="-44.6" cy="-79.8" rx="28.8" ry="15.4"/>
		<ellipse class="st36" cx="-44.6" cy="-79.8" rx="27.7" ry="14.8"/>
		<ellipse class="st37" cx="-44.6" cy="-79.8" rx="26.6" ry="14.2"/>
		<ellipse class="st38" cx="-44.6" cy="-79.8" rx="25.4" ry="13.6"/>
		<ellipse class="st39" cx="-44.6" cy="-79.8" rx="24.3" ry="13"/>
	</g>
	<g>
		<g>
			<defs>
				<rect id="SVGID_43_" x="-87.7" y="-115.1" width="82.8" height="54.1"/>
			</defs>
			<clipPath id="SVGID_44_">
				<use xlink:href="#SVGID_43_"  style="overflow:visible;"/>
			</clipPath>
			<g class="st46">
				<g>
					<defs>
						<rect id="SVGID_45_" x="-87.7" y="-115.2" width="82.9" height="54.2"/>
					</defs>
					<clipPath id="SVGID_46_">
						<use xlink:href="#SVGID_45_"  style="overflow:visible;"/>
					</clipPath>
					<g style="clip-path:url(#SVGID_46_);">
						
							<use xlink:href="#鍒鼨懧鎀"  width="107.6" height="70.4" x="-53.8" y="-35.2" transform="matrix(0.7702 0 0 -0.7702 -46.3103 -88.057)" style="overflow:visible;"/>
					</g>
				</g>
			</g>
		</g>
	</g>
	<g>
		<ellipse class="st24" cx="-48.1" cy="-92.7" rx="41.3" ry="22"/>
		<ellipse class="st25" cx="-48.1" cy="-92.7" rx="40.2" ry="21.4"/>
		<ellipse class="st26" cx="-48.1" cy="-92.7" rx="39" ry="20.8"/>
		<ellipse class="st27" cx="-48.1" cy="-92.7" rx="37.9" ry="20.2"/>
		<ellipse class="st28" cx="-48.1" cy="-92.7" rx="36.8" ry="19.6"/>
		<ellipse class="st29" cx="-48.1" cy="-92.7" rx="35.6" ry="19"/>
		<ellipse class="st30" cx="-48.1" cy="-92.7" rx="34.5" ry="18.4"/>
		<ellipse class="st31" cx="-48.1" cy="-92.7" rx="33.4" ry="17.8"/>
		<ellipse class="st32" cx="-48.1" cy="-92.7" rx="32.2" ry="17.2"/>
		<ellipse class="st33" cx="-48.1" cy="-92.7" rx="31.1" ry="16.6"/>
		<ellipse class="st34" cx="-48.1" cy="-92.7" rx="30" ry="16"/>
		<ellipse class="st35" cx="-48.1" cy="-92.7" rx="28.8" ry="15.4"/>
		<ellipse class="st36" cx="-48.1" cy="-92.7" rx="27.7" ry="14.8"/>
		<ellipse class="st37" cx="-48.1" cy="-92.7" rx="26.6" ry="14.2"/>
		<ellipse class="st38" cx="-48.1" cy="-92.7" rx="25.4" ry="13.6"/>
		<ellipse class="st39" cx="-48.1" cy="-92.7" rx="24.3" ry="13"/>
	</g>
	<g>
		<g>
			<defs>
				<rect id="SVGID_47_" x="-83.4" y="-130.6" width="82.8" height="54.1"/>
			</defs>
			<clipPath id="SVGID_48_">
				<use xlink:href="#SVGID_47_"  style="overflow:visible;"/>
			</clipPath>
			<g transform="matrix(1 0 0 1 0 7.629395e-06)" class="st47">
				<g>
					<defs>
						<rect id="SVGID_49_" x="-83.4" y="-130.7" width="82.9" height="54.2"/>
					</defs>
					<clipPath id="SVGID_50_">
						<use xlink:href="#SVGID_49_"  style="overflow:visible;"/>
					</clipPath>
					<g style="clip-path:url(#SVGID_50_);">
						
							<use xlink:href="#鍒鼨懧鎀"  width="107.6" height="70.4" x="-53.8" y="-35.2" transform="matrix(0.7702 0 0 -0.7702 -42.0099 -103.6147)" style="overflow:visible;"/>
					</g>
				</g>
			</g>
		</g>
	</g>
	<g>
		<ellipse class="st24" cx="6" cy="-145.4" rx="41.3" ry="22"/>
		<ellipse class="st25" cx="6" cy="-145.4" rx="40.2" ry="21.4"/>
		<ellipse class="st26" cx="6" cy="-145.4" rx="39" ry="20.8"/>
		<ellipse class="st27" cx="6" cy="-145.4" rx="37.9" ry="20.2"/>
		<ellipse class="st28" cx="6" cy="-145.4" rx="36.8" ry="19.6"/>
		<ellipse class="st29" cx="6" cy="-145.4" rx="35.6" ry="19"/>
		<ellipse class="st30" cx="6" cy="-145.4" rx="34.5" ry="18.4"/>
		<ellipse class="st31" cx="6" cy="-145.4" rx="33.4" ry="17.8"/>
		<ellipse class="st32" cx="6" cy="-145.4" rx="32.2" ry="17.2"/>
		<ellipse class="st33" cx="6" cy="-145.4" rx="31.1" ry="16.6"/>
		<ellipse class="st34" cx="6" cy="-145.4" rx="30" ry="16"/>
		<ellipse class="st35" cx="6" cy="-145.4" rx="28.8" ry="15.4"/>
		<ellipse class="st36" cx="6" cy="-145.4" rx="27.7" ry="14.8"/>
		<ellipse class="st37" cx="6" cy="-145.4" rx="26.6" ry="14.2"/>
		<ellipse class="st38" cx="6" cy="-145.4" rx="25.4" ry="13.6"/>
		<ellipse class="st39" cx="6" cy="-145.4" rx="24.3" ry="13"/>
	</g>
	<g>
		<g>
			<defs>
				<rect id="SVGID_51_" x="-28.2" y="-184" width="82.8" height="54.1"/>
			</defs>
			<clipPath id="SVGID_52_">
				<use xlink:href="#SVGID_51_"  style="overflow:visible;"/>
			</clipPath>
			<g class="st48">
				<g>
					<defs>
						<rect id="SVGID_53_" x="-28.3" y="-184" width="82.9" height="54.2"/>
					</defs>
					<clipPath id="SVGID_54_">
						<use xlink:href="#SVGID_53_"  style="overflow:visible;"/>
					</clipPath>
					<g style="clip-path:url(#SVGID_54_);">
						
							<use xlink:href="#鍒鼨懧鎀"  width="107.6" height="70.4" x="-53.8" y="-35.2" transform="matrix(0.7702 0 0 -0.7702 13.1534 -156.9198)" style="overflow:visible;"/>
					</g>
				</g>
			</g>
		</g>
	</g>
	<g>
		<ellipse class="st24" cx="12.6" cy="-162.4" rx="41.3" ry="22"/>
		<ellipse class="st25" cx="12.6" cy="-162.4" rx="40.2" ry="21.4"/>
		<ellipse class="st26" cx="12.6" cy="-162.4" rx="39" ry="20.8"/>
		<ellipse class="st27" cx="12.6" cy="-162.4" rx="37.9" ry="20.2"/>
		<ellipse class="st28" cx="12.6" cy="-162.4" rx="36.8" ry="19.6"/>
		<ellipse class="st29" cx="12.6" cy="-162.4" rx="35.6" ry="19"/>
		<ellipse class="st30" cx="12.6" cy="-162.4" rx="34.5" ry="18.4"/>
		<ellipse class="st31" cx="12.6" cy="-162.4" rx="33.4" ry="17.8"/>
		<ellipse class="st32" cx="12.6" cy="-162.4" rx="32.2" ry="17.2"/>
		<ellipse class="st33" cx="12.6" cy="-162.4" rx="31.1" ry="16.6"/>
		<ellipse class="st34" cx="12.6" cy="-162.4" rx="30" ry="16"/>
		<ellipse class="st35" cx="12.6" cy="-162.4" rx="28.8" ry="15.4"/>
		<ellipse class="st36" cx="12.6" cy="-162.4" rx="27.7" ry="14.8"/>
		<ellipse class="st37" cx="12.6" cy="-162.4" rx="26.6" ry="14.2"/>
		<ellipse class="st38" cx="12.6" cy="-162.4" rx="25.4" ry="13.6"/>
		<ellipse class="st39" cx="12.6" cy="-162.4" rx="24.3" ry="13"/>
	</g>
	<g>
		<g>
			<defs>
				<rect id="SVGID_55_" x="-33.5" y="-197.5" width="82.8" height="54.1"/>
			</defs>
			<clipPath id="SVGID_56_">
				<use xlink:href="#SVGID_55_"  style="overflow:visible;"/>
			</clipPath>
			<g transform="matrix(1 0 0 1 -4.768372e-07 0)" class="st49">
				<g>
					<defs>
						<rect id="SVGID_57_" x="-33.5" y="-197.6" width="82.9" height="54.2"/>
					</defs>
					<clipPath id="SVGID_58_">
						<use xlink:href="#SVGID_57_"  style="overflow:visible;"/>
					</clipPath>
					<g style="clip-path:url(#SVGID_58_);">
						
							<use xlink:href="#鍒鼨懧鎀"  width="107.6" height="70.4" x="-53.8" y="-35.2" transform="matrix(0.7702 0 0 -0.7702 7.9058 -170.5155)" style="overflow:visible;"/>
					</g>
				</g>
			</g>
		</g>
	</g>
	<g>
		<ellipse class="st24" cx="-48.3" cy="-109.4" rx="41.3" ry="22"/>
		<ellipse class="st25" cx="-48.3" cy="-109.4" rx="40.2" ry="21.4"/>
		<ellipse class="st26" cx="-48.3" cy="-109.4" rx="39" ry="20.8"/>
		<ellipse class="st27" cx="-48.3" cy="-109.4" rx="37.9" ry="20.2"/>
		<ellipse class="st28" cx="-48.3" cy="-109.4" rx="36.8" ry="19.6"/>
		<ellipse class="st29" cx="-48.3" cy="-109.4" rx="35.6" ry="19"/>
		<ellipse class="st30" cx="-48.3" cy="-109.4" rx="34.5" ry="18.4"/>
		<ellipse class="st31" cx="-48.3" cy="-109.4" rx="33.4" ry="17.8"/>
		<ellipse class="st32" cx="-48.3" cy="-109.4" rx="32.2" ry="17.2"/>
		<ellipse class="st33" cx="-48.3" cy="-109.4" rx="31.1" ry="16.6"/>
		<ellipse class="st34" cx="-48.3" cy="-109.4" rx="30" ry="16"/>
		<ellipse class="st35" cx="-48.3" cy="-109.4" rx="28.8" ry="15.4"/>
		<ellipse class="st36" cx="-48.3" cy="-109.4" rx="27.7" ry="14.8"/>
		<ellipse class="st37" cx="-48.3" cy="-109.4" rx="26.6" ry="14.2"/>
		<ellipse class="st38" cx="-48.3" cy="-109.4" rx="25.4" ry="13.6"/>
		<ellipse class="st39" cx="-48.3" cy="-109.4" rx="24.3" ry="13"/>
	</g>
	<g>
		<g>
			<defs>
				<rect id="SVGID_59_" x="-85.9" y="-145.7" width="82.8" height="54.1"/>
			</defs>
			<clipPath id="SVGID_60_">
				<use xlink:href="#SVGID_59_"  style="overflow:visible;"/>
			</clipPath>
			<g transform="matrix(1 0 0 1 0 -7.629395e-06)" class="st50">
				<g>
					<defs>
						<rect id="SVGID_61_" x="-86" y="-145.8" width="82.9" height="54.2"/>
					</defs>
					<clipPath id="SVGID_62_">
						<use xlink:href="#SVGID_61_"  style="overflow:visible;"/>
					</clipPath>
					<g style="clip-path:url(#SVGID_62_);">
						
							<use xlink:href="#鍒鼨懧鎀"  width="107.6" height="70.4" x="-53.8" y="-35.2" transform="matrix(0.7702 0 0 -0.7702 -44.5737 -118.6907)" style="overflow:visible;"/>
					</g>
				</g>
			</g>
		</g>
	</g>
</g>
<g class="st10">
	<path class="st12" d="M56.9,40.1c0-7.1,2.6-10.5,6.6-10.5c4,0,6.6,3.5,6.6,10.5c0,7.1-2.6,10.7-6.6,10.7
		C59.5,50.8,56.9,47.2,56.9,40.1z M67.1,40.1c0-5.9-1.5-8-3.6-8c-2.1,0-3.6,2.1-3.6,8c0,5.9,1.5,8.1,3.6,8.1
		C65.6,48.3,67.1,46,67.1,40.1z"/>
	<path class="st12" d="M72.4,36c0-4.1,1.9-6.4,4.8-6.4c2.9,0,4.8,2.3,4.8,6.4c0,4.1-1.9,6.5-4.8,6.5C74.3,42.5,72.4,40.2,72.4,36z
		 M79.6,36c0-3.2-1-4.6-2.5-4.6c-1.4,0-2.4,1.4-2.4,4.6c0,3.1,1,4.6,2.4,4.6C78.6,40.7,79.6,39.2,79.6,36z M89,29.6h2L79.8,50.8h-2
		L89,29.6z M86.9,44.3c0-4.1,1.9-6.4,4.8-6.4c2.8,0,4.8,2.3,4.8,6.4c0,4.1-1.9,6.5-4.8,6.5C88.8,50.8,86.9,48.4,86.9,44.3z
		 M94.1,44.3c0-3.2-1-4.6-2.4-4.6c-1.4,0-2.5,1.4-2.5,4.6c0,3.1,1,4.6,2.5,4.6C93.1,48.9,94.1,47.5,94.1,44.3z"/>
	<path class="st12" d="M122.3,30.8v15.8h-2.7v-1.4h-7v7.4h-2.7v-7.4h-6.9v1.5h-2.6v-16h9.4v-3.6h2.7v3.6H122.3z M103.1,33.3v3.5h6.9
		v-3.5H103.1z M109.9,42.8v-3.7h-6.9v3.7H109.9z M112.6,33.3v3.5h7v-3.5H112.6z M119.6,42.8v-3.7h-7v3.7H119.6z"/>
	<path class="st12" d="M131.2,46.6c-0.7,2.3-1.9,4.6-3.1,6c-0.4-0.4-1.4-1-1.9-1.3c1.2-1.3,2.3-3.2,2.8-5.2L131.2,46.6z M135.6,45.7
		h-8.1V28.2h8.1V45.7z M133.3,30.3h-3.5v3.1h3.5V30.3z M133.3,35.3h-3.5v3.1h3.5V35.3z M133.3,40.4h-3.5v3.2h3.5V40.4z M134.2,46
		c0.9,1.4,1.9,3.2,2.3,4.4l-2,1c-0.4-1.2-1.4-3.1-2.2-4.5L134.2,46z M151.8,48.1h-1.5v2c0,1.1-0.2,1.7-1.1,2.1
		c-0.8,0.4-2.1,0.4-4,0.4c-0.1-0.6-0.4-1.5-0.7-2.1c1.3,0.1,2.6,0.1,2.9,0c0.4,0,0.5-0.1,0.5-0.4v-2h-8v4.5h-2.3v-4.5H136v-1.9h1.6
		v-7h5.1v-1.3h-6.6V36h3.7v-1.5h-2.5v-1.8h2.5v-1.4h-3.2v-1.9h3.2v-2.2h2.3v2.2h3.6v-2.2h2.3v2.2h3.2v1.9H148v1.4h2.7v1.8H148V36
		h3.8v1.9H145v1.3h5.3v7h1.5V48.1z M139.9,41.1v1.6h2.8v-1.6H139.9z M139.9,46.2h2.8v-1.8h-2.8V46.2z M142.1,32.7h3.6v-1.4h-3.6
		V32.7z M142.1,36h3.6v-1.5h-3.6V36z M145,41.1v1.6h2.9v-1.6H145z M147.9,46.2v-1.8H145v1.8H147.9z"/>
	<path class="st12" d="M179.4,43.8h-11.1v5.4c0,1.7-0.5,2.4-1.6,2.8c-1.1,0.4-3,0.5-5.9,0.4c-0.2-0.7-0.7-1.9-1.1-2.6
		c2.2,0.1,4.4,0.1,5.1,0.1c0.6,0,0.8-0.2,0.8-0.8v-5.4h-11.2v-2.5h11.2v-3.9h-9.3v-2.5h9.3v-3.8c-3,0.2-6,0.4-8.8,0.6
		c0-0.6-0.4-1.7-0.6-2.2c6.5-0.3,14.4-1,18.7-2.3l1.9,2.1c-2.4,0.7-5.4,1.2-8.5,1.6v4.1h9.5v2.5h-9.5v3.9h11.1V43.8z"/>
	<path class="st12" d="M185,45.3c-0.3,2.6-0.8,5.3-1.4,7.1c-0.4-0.2-1.4-0.5-1.9-0.7c0.6-1.8,1-4.4,1.3-6.8L185,45.3z M189.5,44.2
		c-0.1-0.4-0.2-0.9-0.3-1.5c-5.2,0.8-6,1-6.6,1.3c-0.1-0.5-0.4-1.6-0.7-2.1c0.6-0.2,1.2-0.8,2-1.9c0.4-0.4,1.1-1.5,1.9-2.9
		c-2.4,0.3-3,0.4-3.4,0.6c-0.1-0.5-0.5-1.5-0.7-2.1c0.5-0.1,0.9-0.7,1.4-1.5c0.6-0.8,2.2-4,3.2-7l2.2,0.9c-1,2.5-2.3,5.1-3.7,7.1
		l2.3-0.2c0.6-1.2,1.3-2.5,1.9-3.7l2,1.2c-1.6,3.1-3.6,6.2-5.6,8.8l3.4-0.4c-0.2-0.8-0.5-1.7-0.7-2.4l1.8-0.5
		c0.6,1.9,1.3,4.4,1.5,5.8L189.5,44.2z M187.5,44.9c0.4,2,0.6,4.6,0.7,6.4l-1.9,0.4c0-1.7-0.3-4.4-0.6-6.4L187.5,44.9z M189.9,44.2
		c0.5,1.6,1.2,3.7,1.4,5.1l-1.7,0.6c-0.2-1.4-0.8-3.5-1.4-5.1L189.9,44.2z M201.8,48.6c2,0.7,4.1,1.5,5.4,2.1l-1.1,1.8
		c-1.5-0.7-3.8-1.7-5.9-2.5l0.8-1.4h-4.5l1.5,1.4c-2.1,1-4.8,2-6.7,2.7c-0.2-0.5-0.6-1.3-1-1.8c1.7-0.6,4.1-1.6,5.6-2.3H192v-8.2
		h13.8v8.2H201.8z M197.8,30.2H191v-1.7h6.8v-1.4h2.5v1.4h6.5v1.7h-6.5v1.2h5.5v1.7h-13.8v-1.7h5.7V30.2z M191.1,34.1h15.6v5.3
		h-15.6V34.1z M193.3,37.7h2.6v-2h-2.6V37.7z M194.3,42.9h9.1v-1h-9.1V42.9z M194.3,45h9.1v-1h-9.1V45z M194.3,47.2h9.1v-1.1h-9.1
		V47.2z M200.3,37.7v-2h-2.4v2H200.3z M204.5,35.7h-2.2v2h2.2V35.7z"/>
	<path class="st12" d="M227.6,48.5c2.6,0.8,5.3,1.8,7,2.5l-1.9,1.6c-1.8-0.9-4.9-2.1-8-3.1l1.1-1h-7.4l2,0.9
		c-2.2,1.3-5.7,2.6-8.5,3.3c-0.4-0.5-1.3-1.4-1.9-1.9c2.7-0.5,5.9-1.3,7.8-2.3h-4.3V40c-0.7,0.2-1.4,0.4-2.3,0.5
		c-0.2-0.6-0.8-1.6-1.2-2c3.4-0.5,5.4-1.3,6.5-2.3H212c0.3-1.3,0.6-3.2,0.7-4.7h5.4v-1.4h-6.5v-1.6h6.5v-1.4h2.3v1.4h3.8v-1.4h2.4
		v1.4h6v4.6h-6v1.5h7.8c0,0,0,0.5-0.1,0.7c-0.2,1.6-0.3,2.4-0.7,2.9c-0.4,0.4-0.9,0.5-1.4,0.6c-0.2,0-0.4,0-0.6,0v9.7H227.6z
		 M214.8,33.1c-0.1,0.5-0.2,1-0.2,1.5h3.2c0.2-0.5,0.3-0.9,0.3-1.5H214.8z M229,39.6h-13V41h13V39.6z M229,42.5h-13V44h13V42.5z
		 M216,46.9h13v-1.5h-13V46.9z M219.7,36.2c-0.4,0.7-0.9,1.3-1.7,1.8h6.2v-1.8H219.7z M224.2,33.1h-3.8c0,0.5-0.1,1-0.2,1.5h3.9
		V33.1z M220.4,31.5h3.8v-1.4h-3.8V31.5z M226.6,30.1v1.4h3.7v-1.4H226.6z M226.6,36.2V38h2.9c-0.1-0.3-0.2-0.6-0.3-0.9
		c0.7,0.1,1.4,0.1,1.7,0.1c0.3,0,0.5,0,0.6-0.2c0.1-0.1,0.2-0.4,0.3-0.9H226.6z"/>
</g>
<g class="st10">
	<path class="st12" d="M109,541.4c-1.1-1.1-3.4-2.5-5.2-3.3l1.7-2.7c1.8,0.7,4.1,2,5.3,3L109,541.4z M104.6,552.4
		c1.5-2.3,3.6-6,5.2-9.5l2.4,2.4c-1.5,3.2-3.2,6.5-4.9,9.5L104.6,552.4z M110.5,533.2c-1-1.1-3.3-2.6-5.1-3.4l1.8-2.6
		c1.8,0.7,4.1,2,5.2,3.2L110.5,533.2z M132.5,543.7h-2.1v4.6h-7.1v3.1c0,1.8-0.3,2.6-1.5,3.1c-1.1,0.5-2.8,0.5-5.1,0.5
		c-0.1-0.9-0.5-2.3-1-3.2c1.5,0.1,3.1,0.1,3.6,0c0.5,0,0.6-0.1,0.6-0.5v-3h-6.5v-2.9h6.5v-1.7h-8v-3.1h8V539h-6.2v-2.9h1.3
		c-0.4-1-1-2.3-1.7-3.3l2.5-1.1c0.8,1.1,1.6,2.5,2,3.6l-1.7,0.8h14.3v4.5h2.1V543.7z M130.6,529.4c-4.7,1.3-11.3,2.1-17,2.4
		c-0.1-0.8-0.5-2-0.9-2.8c5.5-0.4,11.7-1.2,15.4-2.2L130.6,529.4z M121,536.1c-0.2-1.2-0.9-2.9-1.6-4.2l2.6-0.9
		c0.7,1.2,1.4,2.9,1.7,4L121,536.1z M123.4,540.7h4V539h-4V540.7z M127.3,543.7h-4v1.7h4V543.7z M125.1,535.2
		c0.8-1.2,1.8-3.2,2.4-4.6l3.3,0.9c-1,1.7-1.9,3.4-2.8,4.5L125.1,535.2z"/>
	<path class="st12" d="M165,527.9c-0.8,2.2-1.8,4.5-2.9,6.6v20.6h-3.3V540c-0.5,0.7-1.1,1.4-1.7,2c-0.3-0.9-1.3-2.9-1.9-3.8
		c2.6-2.8,5.1-7.1,6.6-11.4L165,527.9z M183.8,551.6v3h-20.5v-3h2.6v-16.9h5.3c0.1-0.6,0.2-1.3,0.4-2.1h-6.9v-3.1h7.3
		c0.1-1,0.2-1.9,0.2-2.7l3.8,0.1c-0.1,0.9-0.3,1.7-0.5,2.6h7.5v3.1H175c-0.2,0.8-0.3,1.4-0.5,2.1h7v16.9H183.8z M169.1,537.3v1.7h9
		v-1.7H169.1z M178.2,541.5h-9v1.7h9V541.5z M169.1,545.6v1.7h9v-1.7H169.1z M169.1,551.6h9v-1.7h-9V551.6z"/>
</g>
<g id="shutterstock_x5F_1767227042.psd">
	
		<image style="overflow:visible;" width="1890" height="1260" id="shutterstock_x5F_1767227042" xlink:href="7F0A95D041DAEB56.png"  transform="matrix(0.1347 0 0 0.1347 20.5239 359.8051)">
	</image>
</g>
</svg>
