<?xml version="1.0" encoding="utf-8"?>
<!-- Generator: Adobe Illustrator 24.3.0, SVG Export Plug-In . SVG Version: 6.00 Build 0)  -->
<svg version="1.1" id="圖層_1" xmlns="http://www.w3.org/2000/svg" xmlns:xlink="http://www.w3.org/1999/xlink" x="0px" y="0px"
	 viewBox="0 0 560 350" style="enable-background:new 0 0 560 350;" xml:space="preserve">
<style type="text/css">
	.st0{opacity:0.1;}
	.st1{fill:#2D2D2D;}
	.st2{fill:#FFFFFF;}
	.st3{fill:#E9EAF8;}
	.st4{fill:none;stroke:#747ED1;stroke-width:2;stroke-miterlimit:10;}
	.st5{fill:none;stroke:#747ED1;stroke-miterlimit:10;}
	.st6{fill:#FAE6E7;}
	.st7{fill:#FEF3E4;}
	.st8{fill:#E4F1F6;}
	.st9{fill:none;stroke:#E2626B;stroke-width:2;stroke-linecap:round;stroke-linejoin:round;stroke-miterlimit:10;}
	.st10{fill:none;stroke:#E2626B;stroke-linecap:round;stroke-linejoin:round;stroke-miterlimit:10;}
	.st11{fill:#E2626B;}
	.st12{fill:none;stroke:#FABB61;stroke-width:2;stroke-linecap:round;stroke-linejoin:round;stroke-miterlimit:10;}
	.st13{fill:none;stroke:#54A8C7;stroke-width:2;stroke-miterlimit:10;}
	.st14{fill:none;stroke:#54A8C7;stroke-miterlimit:10;}
	.st15{fill:none;stroke:#54A8C7;stroke-width:1.5;stroke-miterlimit:10;}
	.st16{fill:#747ED1;}
	.st17{enable-background:new    ;}
	.st18{fill:#60697B;}
	.st19{fill:#343F52;}
</style>
<g>
	<g class="st0">
		<g>
			<path class="st1" d="M262.9-227.6H13c-4.6,0-8.4-3.8-8.4-8.4v-92c0-4.6,3.8-8.4,8.4-8.4h249.9c4.6,0,8.4,3.8,8.4,8.4v92
				C271.3-231.4,267.5-227.6,262.9-227.6z"/>
		</g>
	</g>
	<g class="st0">
		<g>
			<path class="st1" d="M262.9-88.4H13c-4.6,0-8.4-3.8-8.4-8.4v-92c0-4.6,3.8-8.4,8.4-8.4h249.9c4.6,0,8.4,3.8,8.4,8.4v92
				C271.3-92.2,267.5-88.4,262.9-88.4z"/>
		</g>
	</g>
	<g class="st0">
		<g>
			<path class="st1" d="M551.3-227.6H301.4c-4.6,0-8.4-3.8-8.4-8.4v-92c0-4.6,3.8-8.4,8.4-8.4h249.9c4.6,0,8.4,3.8,8.4,8.4v92
				C559.7-231.4,555.9-227.6,551.3-227.6z"/>
		</g>
	</g>
	<g class="st0">
		<g>
			<path class="st1" d="M551.3-65.4H301.4c-4.6,0-8.4-3.8-8.4-8.4v-92c0-4.6,3.8-8.4,8.4-8.4h249.9c4.6,0,8.4,3.8,8.4,8.4v92
				C559.7-69.2,555.9-65.4,551.3-65.4z"/>
		</g>
	</g>
	<g>
		<g>
			<path class="st2" d="M260.9-229.6H11c-4.6,0-8.4-3.8-8.4-8.4v-92c0-4.6,3.8-8.4,8.4-8.4h249.9c4.6,0,8.4,3.8,8.4,8.4v92
				C269.3-233.4,265.5-229.6,260.9-229.6z"/>
		</g>
	</g>
	<g>
		<g>
			<path class="st2" d="M260.9-90.4H11c-4.6,0-8.4-3.8-8.4-8.4v-92c0-4.6,3.8-8.4,8.4-8.4h249.9c4.6,0,8.4,3.8,8.4,8.4v92
				C269.3-94.2,265.5-90.4,260.9-90.4z"/>
		</g>
	</g>
	<g>
		<g>
			<path class="st2" d="M549.3-229.6H299.4c-4.6,0-8.4-3.8-8.4-8.4v-92c0-4.6,3.8-8.4,8.4-8.4h249.9c4.6,0,8.4,3.8,8.4,8.4v92
				C557.7-233.4,553.9-229.6,549.3-229.6z"/>
		</g>
	</g>
	<g>
		<g>
			<path class="st2" d="M549.3-67.4H299.4c-4.6,0-8.4-3.8-8.4-8.4v-92c0-4.6,3.8-8.4,8.4-8.4h249.9c4.6,0,8.4,3.8,8.4,8.4v92
				C557.7-71.2,553.9-67.4,549.3-67.4z"/>
		</g>
	</g>
	<circle class="st3" cx="55.2" cy="-286.8" r="27"/>
	<g>
		<polyline class="st4" points="57.3,-288.3 57.3,-296.1 45.2,-296.1 45.2,-284 52.5,-284 		"/>
		<polyline class="st4" points="50.8,-285.9 50.8,-278.7 62.9,-278.7 62.9,-290.9 55,-290.9 		"/>
		<polyline class="st5" points="53.3,-290.9 50.8,-290.9 50.8,-288.3 		"/>
		<polyline class="st5" points="58.2,-285.7 58.2,-283.2 55.6,-283.2 		"/>
	</g>
	<circle class="st6" cx="345.1" cy="-286.8" r="27"/>
	<circle class="st7" cx="55.2" cy="-145.7" r="27"/>
	<circle class="st8" cx="345.1" cy="-121.2" r="27"/>
	<g>
		<path class="st9" d="M349.2-290.1h3.5c1,0,1.8,0.8,1.8,1.8v7.9c0,1-0.8,1.8-1.8,1.8h-15.5c-1,0-1.8-0.8-1.8-1.8v-7.9
			c0-1,0.8-1.8,1.8-1.8h3.7"/>
		<circle class="st10" cx="345" cy="-284.5" r="2"/>
		<rect x="338.1" y="-285" class="st11" width="1.9" height="1.9"/>
		<rect x="349.9" y="-285" class="st11" width="1.9" height="1.9"/>
		<polyline class="st10" points="346.2,-291.5 345,-290.4 343.9,-291.5 		"/>
		<line class="st10" x1="345" y1="-291.6" x2="345" y2="-295.3"/>
	</g>
	<g>
		<polygon class="st12" points="47.7,-155.3 54.9,-155.3 53.8,-150.4 58.9,-150.4 49.3,-137.6 51,-145.5 44,-145.5 		"/>
		<path class="st12" d="M58.4-137.6l0.5-5.9c0-0.7,0.6-1.3,1.4-1.3h1.5c0.7,0,1.3,0.6,1.4,1.3l0.4,5.9"/>
		<line class="st12" x1="58.7" y1="-141.2" x2="63.2" y2="-141.2"/>
	</g>
	<g>
		<path class="st13" d="M351.8-114h-14c-1.1,0-1.9-0.9-1.9-1.9v-8.5c0-1.1,0.9-1.9,1.9-1.9h14c1.1,0,1.9,0.9,1.9,1.9v8.5
			C353.7-114.9,352.9-114,351.8-114z"/>
		<polyline class="st13" points="336.4,-122.2 339.4,-122.2 340.7,-120.9 348.4,-120.9 349.8,-122.1 352.8,-122.1 		"/>
		<line class="st14" x1="341.3" y1="-123.7" x2="341.3" y2="-119"/>
		<line class="st14" x1="348.6" y1="-123.7" x2="348.6" y2="-119"/>
		<path class="st15" d="M348-126.6l-0.6-3.4c-0.1-0.6-0.6-1.1-1.3-1.1h-2.4c-0.6,0-1.2,0.5-1.3,1.1l-0.5,3.3"/>
	</g>
	
		<text transform="matrix(1 0 0 1 99.5395 -295.6875)" class="st18" style="font-family:'NotoSansCJKtc-Regular-B5pc-H'; font-size:14.2955px;">加密貨幣質押，</text>
	<text transform="matrix(1 0 0 1 98.0492 -255.6152)" class="st19" style="font-family:'Arial-BoldMT'; font-size:40.0209px;">5%</text>
	
		<text transform="matrix(1 0 0 1 99.5395 -154.5977)" class="st18" style="font-family:'NotoSansCJKtc-Regular-B5pc-H'; font-size:14.2955px;">程式自動化交易，</text>
	<text transform="matrix(1 0 0 1 98.0492 -114.5244)" class="st19" style="font-family:'Arial-BoldMT'; font-size:40.0209px;">4%</text>
	
		<text transform="matrix(1 0 0 1 391.0434 -129.9492)" class="st18" style="font-family:'NotoSansCJKtc-Regular-B5pc-H'; font-size:14.2955px;">加密貨幣存底，</text>
	<text transform="matrix(1 0 0 1 389.5531 -89.8779)" class="st19" style="font-family:'Arial-BoldMT'; font-size:40.0209px;">5%</text>
	
		<text transform="matrix(1 0 0 1 389.8275 -295.6875)" class="st18" style="font-family:'NotoSansCJKtc-Regular-B5pc-H'; font-size:14.2955px;">GameFi投資，</text>
	<text transform="matrix(1 0 0 1 388.3373 -255.6152)" class="st19" style="font-family:'Arial-BoldMT'; font-size:40.0209px;">6%</text>
	<circle class="st16" cx="279.9" cy="-203.5" r="51.6"/>
	<text transform="matrix(1 0 0 1 239.0512 -189.5195)" class="st2" style="font-family:'Arial-BoldMT'; font-size:40.0209px;">20%</text>
	
		<text transform="matrix(1 0 0 1 199.5297 -38.79)" class="st19" style="font-family:'NotoSansCJKtc-Bold-B5pc-H'; font-size:14.2955px;">BEEWiN獨創BWC風險池</text>
</g>
<g>
	<g class="st0">
		<g>
			<path class="st1" d="M262.9,141.6H13c-4.6,0-8.4-3.8-8.4-8.4v-92c0-4.6,3.8-8.4,8.4-8.4h249.9c4.6,0,8.4,3.8,8.4,8.4v92
				C271.3,137.8,267.5,141.6,262.9,141.6z"/>
		</g>
	</g>
	<g class="st0">
		<g>
			<path class="st1" d="M262.9,280.8H13c-4.6,0-8.4-3.8-8.4-8.4v-92c0-4.6,3.8-8.4,8.4-8.4h249.9c4.6,0,8.4,3.8,8.4,8.4v92
				C271.3,277,267.5,280.8,262.9,280.8z"/>
		</g>
	</g>
	<g class="st0">
		<g>
			<path class="st1" d="M551.3,141.6H301.4c-4.6,0-8.4-3.8-8.4-8.4v-92c0-4.6,3.8-8.4,8.4-8.4h249.9c4.6,0,8.4,3.8,8.4,8.4v92
				C559.7,137.8,555.9,141.6,551.3,141.6z"/>
		</g>
	</g>
	<g class="st0">
		<g>
			<path class="st1" d="M551.3,303.8H301.4c-4.6,0-8.4-3.8-8.4-8.4v-92c0-4.6,3.8-8.4,8.4-8.4h249.9c4.6,0,8.4,3.8,8.4,8.4v92
				C559.7,300,555.9,303.8,551.3,303.8z"/>
		</g>
	</g>
	<g>
		<g>
			<path class="st2" d="M260.9,139.6H11c-4.6,0-8.4-3.8-8.4-8.4v-92c0-4.6,3.8-8.4,8.4-8.4h249.9c4.6,0,8.4,3.8,8.4,8.4v92
				C269.3,135.8,265.5,139.6,260.9,139.6z"/>
		</g>
	</g>
	<g>
		<g>
			<path class="st2" d="M260.9,278.8H11c-4.6,0-8.4-3.8-8.4-8.4v-92c0-4.6,3.8-8.4,8.4-8.4h249.9c4.6,0,8.4,3.8,8.4,8.4v92
				C269.3,275,265.5,278.8,260.9,278.8z"/>
		</g>
	</g>
	<g>
		<g>
			<path class="st2" d="M549.3,139.6H299.4c-4.6,0-8.4-3.8-8.4-8.4v-92c0-4.6,3.8-8.4,8.4-8.4h249.9c4.6,0,8.4,3.8,8.4,8.4v92
				C557.7,135.8,553.9,139.6,549.3,139.6z"/>
		</g>
	</g>
	<g>
		<g>
			<path class="st2" d="M549.3,301.8H299.4c-4.6,0-8.4-3.8-8.4-8.4v-92c0-4.6,3.8-8.4,8.4-8.4h249.9c4.6,0,8.4,3.8,8.4,8.4v92
				C557.7,298,553.9,301.8,549.3,301.8z"/>
		</g>
	</g>
	<circle class="st3" cx="55.2" cy="82.4" r="27"/>
	<g>
		<polyline class="st4" points="57.3,80.9 57.3,73.1 45.2,73.1 45.2,85.2 52.5,85.2 		"/>
		<polyline class="st4" points="50.8,83.3 50.8,90.5 62.9,90.5 62.9,78.3 55,78.3 		"/>
		<polyline class="st5" points="53.3,78.3 50.8,78.3 50.8,80.9 		"/>
		<polyline class="st5" points="58.2,83.5 58.2,86 55.6,86 		"/>
	</g>
	<circle class="st6" cx="345.1" cy="82.4" r="27"/>
	<circle class="st7" cx="55.2" cy="223.5" r="27"/>
	<circle class="st8" cx="345.1" cy="248" r="27"/>
	<g>
		<path class="st9" d="M349.2,79.1h3.5c1,0,1.8,0.8,1.8,1.8v7.9c0,1-0.8,1.8-1.8,1.8h-15.5c-1,0-1.8-0.8-1.8-1.8v-7.9
			c0-1,0.8-1.8,1.8-1.8h3.7"/>
		<circle class="st10" cx="345" cy="84.7" r="2"/>
		<rect x="338.1" y="84.2" class="st11" width="1.9" height="1.9"/>
		<rect x="349.9" y="84.2" class="st11" width="1.9" height="1.9"/>
		<polyline class="st10" points="346.2,77.7 345,78.8 343.9,77.7 		"/>
		<line class="st10" x1="345" y1="77.6" x2="345" y2="73.9"/>
	</g>
	<g>
		<polygon class="st12" points="47.7,213.9 54.9,213.9 53.8,218.8 58.9,218.8 49.3,231.6 51,223.7 44,223.7 		"/>
		<path class="st12" d="M58.4,231.6l0.5-5.9c0-0.7,0.6-1.3,1.4-1.3h1.5c0.7,0,1.3,0.6,1.4,1.3l0.4,5.9"/>
		<line class="st12" x1="58.7" y1="228" x2="63.2" y2="228"/>
	</g>
	<g>
		<path class="st13" d="M351.8,255.2h-14c-1.1,0-1.9-0.9-1.9-1.9v-8.5c0-1.1,0.9-1.9,1.9-1.9h14c1.1,0,1.9,0.9,1.9,1.9v8.5
			C353.7,254.3,352.9,255.2,351.8,255.2z"/>
		<polyline class="st13" points="336.4,247 339.4,247 340.7,248.3 348.4,248.3 349.8,247.1 352.8,247.1 		"/>
		<line class="st14" x1="341.3" y1="245.5" x2="341.3" y2="250.2"/>
		<line class="st14" x1="348.6" y1="245.5" x2="348.6" y2="250.2"/>
		<path class="st15" d="M348,242.6l-0.6-3.4c-0.1-0.6-0.6-1.1-1.3-1.1h-2.4c-0.6,0-1.2,0.5-1.3,1.1l-0.5,3.3"/>
	</g>
	<g class="st17">
		<path class="st18" d="M106.6,64.7c-0.3,6.2-0.5,8.3-1,9c-0.3,0.4-0.6,0.5-1,0.5c-0.4,0.1-1,0.1-1.6,0c0-0.3-0.1-0.8-0.3-1.1
			c0.6,0.1,1.1,0.1,1.4,0.1c0.2,0,0.4-0.1,0.5-0.2c0.4-0.5,0.7-2.4,0.9-7.8h-2c-0.2,3.6-0.7,7.1-2.5,9.4c-0.2-0.2-0.6-0.6-0.8-0.7
			c1.7-2,2.1-5.3,2.3-8.6h-2v-1h2c0-0.9,0-1.7,0-2.6h1.1c0,0.8,0,1.7,0,2.6h3.1V64.7z M112.6,63.3v11h-1.1v-0.9h-2.8v1h-1V63.3
			H112.6z M111.5,72.3v-8h-2.8v8H111.5z"/>
		<path class="st18" d="M120.1,69.5c-0.9,0-1.4-0.1-1.6-0.4c-1.1,0.5-2.3,0.9-3.4,1.2c-0.1-0.2-0.4-0.7-0.6-0.9
			c1.3-0.3,2.6-0.7,3.8-1.2v0v-2.7h1v2.3c1.8-0.9,3.4-2,4.5-3.3l0.9,0.4c-1.2,1.5-3,2.7-5,3.7c0.1,0,0.3,0,0.6,0h2.9
			c0.7,0,0.8-0.2,0.9-1.6c0.2,0.2,0.6,0.3,0.9,0.4c-0.1,1.7-0.4,2.1-1.7,2.1H120.1z M117.3,66c-0.5,0.9-1.1,2-1.9,2.7l-0.9-0.5
			c0.8-0.6,1.5-1.7,1.9-2.5L117.3,66z M116,65.6h-1v-2.8h5.5c-0.1-0.4-0.2-0.8-0.4-1.2l1-0.2c0.2,0.4,0.4,1,0.5,1.4h5.4v2.8h-1.1
			v-1.8H116V65.6z M124.8,70.6h1v4h-1V74h-8.7v-3.3h1V73h3.2v-3h1.1v3h3.4V70.6z M121.3,66.1c-0.5-0.5-1.6-1.2-2.5-1.6l0.6-0.6
			c0.9,0.4,1.9,1,2.5,1.5L121.3,66.1z M125,65.7c0.9,0.8,1.9,1.9,2.4,2.6l-0.8,0.6c-0.4-0.8-1.5-1.9-2.4-2.7L125,65.7z"/>
		<path class="st18" d="M131.4,64.1c-0.6,0.4-1.2,0.8-1.8,1.1c-0.2-0.2-0.6-0.6-0.8-0.7c1.6-0.7,3.2-1.8,4.2-2.9l1,0.4
			c-0.4,0.5-1,1-1.5,1.5v2.9h-1V64.1z M134.1,72.9c-1.2,0.7-3,1.3-4.4,1.7c-0.2-0.2-0.6-0.6-0.8-0.8c1.5-0.3,3.2-0.8,4.2-1.4
			L134.1,72.9z M130.7,66.6h9.3v5.7h-9.3V66.6z M131.8,68.3h7.2v-1h-7.2V68.3z M131.8,69.9h7.2v-1h-7.2V69.9z M131.8,71.6h7.2v-1
			h-7.2V71.6z M136.8,66c-1.3,0-1.6-0.4-1.6-1.5v-2.9h1.1v1.2h4.6v0.9h-4.6v0.9c0,0.5,0.1,0.6,0.6,0.6h3.2c0.4,0,1.1,0,1.4-0.1
			c0,0.3,0.1,0.6,0.1,0.9c-0.3,0.1-0.9,0.1-1.5,0.1H136.8z M137.3,72.4c1.5,0.5,3.2,1.1,4.2,1.6l-0.9,0.6c-0.9-0.5-2.4-1.1-4-1.6
			L137.3,72.4z"/>
		<path class="st18" d="M155.2,63.9c-0.3,1.1-0.9,2-1.6,2.7c0.7,0.7,1.6,1.2,2.5,1.5c-0.2,0.2-0.5,0.5-0.6,0.7
			c-1-0.4-1.8-0.9-2.6-1.6c-0.7,0.6-1.6,1.1-2.5,1.4c-0.1-0.2-0.4-0.6-0.5-0.8c0.9-0.3,1.8-0.7,2.5-1.3c-0.5-0.6-0.9-1.2-1.2-2
			c-0.3,0.3-0.5,0.6-0.8,0.9c-0.1-0.2-0.4-0.5-0.7-0.6v3.7h-0.8v-3.8h-1.8v4.1h-0.7v-4.1h-1.8v4.2h-0.8v-4.9h2.5v-2.4h0.9v2.4h2.5
			v0.8c0.9-0.8,1.6-1.9,2-3.2l0.9,0.2c-0.1,0.4-0.3,0.9-0.5,1.3h3.9v0.8H155.2z M144.8,63.8c-0.2-0.4-0.6-1.1-1-1.6l0.7-0.3
			c0.4,0.5,0.8,1.1,1,1.6L144.8,63.8z M154.7,72.8c0,0.5-0.1,0.8-0.6,1c-0.5,0.2-1.2,0.2-2.4,0.2c-0.1-0.3-0.2-0.6-0.4-0.9
			c0.9,0,1.7,0,2,0c0.2,0,0.3-0.1,0.3-0.3v-2.2h-3.6v4.1h-1v-4.1h-3.3v3.4h-1v-4.3h4.3v-0.9h1v0.9h4.6V72.8z M145.9,65.3
			c-0.1,0.8-0.4,1.7-0.7,2.3c-0.1-0.1-0.4-0.2-0.6-0.3c0.3-0.6,0.5-1.4,0.6-2.2L145.9,65.3z M148,65.2c0.3,0.7,0.5,1.6,0.6,2.2
			l-0.6,0.2c-0.1-0.6-0.3-1.5-0.6-2.2L148,65.2z M149.7,62.2c-0.4,0.6-0.9,1.3-1.2,1.7l-0.6-0.3c0.3-0.5,0.8-1.2,1-1.7L149.7,62.2z
			 M151.7,63.9c0.3,0.8,0.7,1.5,1.2,2.1c0.5-0.6,0.9-1.3,1.2-2.1H151.7z"/>
		<path class="st18" d="M159.4,64.5c-0.2,0.8-0.5,1.5-1.3,2.2c-0.1-0.2-0.5-0.6-0.7-0.7c1-0.8,1.2-1.8,1.2-2.6v-1.2
			c1.5-0.1,3.2-0.3,4.2-0.6l0.7,0.6c-1,0.3-2.5,0.5-3.9,0.6v0.5c0,0.1,0,0.2,0,0.3h4.2v0.8h-1.6v1.7h-1v-1.7H159.4z M162.6,72.9
			c-1.2,0.7-3,1.4-4.5,1.8c-0.1-0.2-0.4-0.7-0.5-0.9c1.4-0.3,3.1-0.8,4.2-1.3L162.6,72.9z M159.4,66.5h8.9v5.8h-8.9V66.5z
			 M160.4,68.2h6.8v-1h-6.8V68.2z M160.4,69.9h6.8v-1h-6.8V69.9z M160.4,71.6h6.8v-1h-6.8V71.6z M170.2,63.7v0.8H168v1.8h-1v-1.8
			h-1.9c-0.1,0.7-0.4,1.4-1,1.9c-0.2-0.2-0.6-0.4-0.8-0.5c0.8-0.8,1-1.8,1-2.6v-1.1c1.6-0.1,3.4-0.3,4.4-0.6l0.7,0.6
			c-1.1,0.3-2.8,0.5-4.2,0.6v0.4c0,0.1,0,0.3,0,0.4H170.2z M165.7,72.4c1.6,0.4,3.3,1,4.4,1.4l-0.5,0.8c-1-0.5-2.7-1.1-4.3-1.5
			L165.7,72.4z"/>
		<path class="st18" d="M176.2,68.8c-0.6,0.2-1.1,0.3-1.7,0.5v4c0,0.6-0.1,0.8-0.5,1c-0.4,0.2-0.9,0.2-1.8,0.2c0-0.3-0.2-0.7-0.3-1
			c0.6,0,1.2,0,1.3,0c0.2,0,0.3-0.1,0.3-0.3v-3.7l-1.6,0.5l-0.3-1c0.5-0.1,1.2-0.3,1.9-0.5v-3.1h-1.8v-1h1.8v-2.9h1v2.9h1.6v1h-1.6
			v2.9c0.5-0.1,1-0.3,1.5-0.4L176.2,68.8z M184.3,62.4v8h-1.1v-0.8H181v4.9h-1v-4.9h-2.2v0.8h-1v-8.1H184.3z M177.8,63.4v2.1h2.2
			v-2.1H177.8z M180,68.7v-2.2h-2.2v2.2H180z M183.2,63.4H181v2.1h2.2V63.4z M183.2,68.7v-2.2H181v2.2H183.2z"/>
		<path class="st18" d="M187.4,70.1c1.1-0.5,1.7-1.1,1.8-2.1c-0.1,0-0.2,0-0.2,0c-0.6,0-1.1-0.3-1.1-1c0-0.7,0.5-1,1.1-1
			c0.8,0,1.2,0.6,1.2,1.6c0,1.5-1,2.7-2.5,3.2L187.4,70.1z"/>
	</g>
	<g class="st17">
		<path class="st19" d="M99.8,106.2l5.5-0.6c0.2,1.2,0.6,2.2,1.4,2.9c0.8,0.7,1.7,1.1,2.7,1.1c1.1,0,2.1-0.5,2.9-1.4
			c0.8-0.9,1.2-2.3,1.2-4.2c0-1.8-0.4-3.1-1.2-4c-0.8-0.9-1.8-1.3-3.1-1.3c-1.6,0-3,0.7-4.2,2.1l-4.5-0.6l2.8-14.9h14.5v5.1h-10.4
			l-0.9,4.9c1.2-0.6,2.5-0.9,3.8-0.9c2.4,0,4.5,0.9,6.2,2.7c1.7,1.8,2.5,4.1,2.5,6.9c0,2.4-0.7,4.5-2.1,6.3
			c-1.9,2.5-4.4,3.8-7.8,3.8c-2.6,0-4.8-0.7-6.5-2.1S100.2,108.6,99.8,106.2z"/>
		<path class="st19" d="M123,92c0-2.6,0.6-4.5,1.7-5.7c1.1-1.2,2.7-1.9,4.6-1.9c2,0,3.6,0.6,4.7,1.8c1.1,1.2,1.7,3.1,1.7,5.7
			c0,2.6-0.6,4.5-1.7,5.7c-1.1,1.2-2.7,1.9-4.6,1.9c-2,0-3.6-0.6-4.7-1.8C123.6,96.5,123,94.6,123,92z M127.3,92
			c0,1.9,0.2,3.1,0.6,3.8c0.3,0.5,0.8,0.7,1.3,0.7c0.6,0,1-0.2,1.4-0.7c0.4-0.6,0.6-1.9,0.6-3.8c0-1.9-0.2-3.1-0.6-3.7
			c-0.3-0.5-0.8-0.7-1.4-0.7c-0.6,0-1,0.2-1.3,0.7C127.5,88.9,127.3,90.1,127.3,92z M133.5,114.7h-4.1l15.3-30.2h3.9L133.5,114.7z
			 M142.3,107.2c0-2.6,0.6-4.5,1.7-5.7c1.1-1.2,2.7-1.9,4.6-1.9c2,0,3.5,0.6,4.6,1.9c1.1,1.2,1.7,3.1,1.7,5.7c0,2.6-0.6,4.5-1.7,5.7
			c-1.1,1.2-2.7,1.9-4.6,1.9c-2,0-3.6-0.6-4.7-1.9C142.9,111.6,142.3,109.7,142.3,107.2z M146.6,107.1c0,1.9,0.2,3.1,0.6,3.7
			c0.3,0.5,0.8,0.7,1.3,0.7c0.6,0,1-0.2,1.3-0.7c0.4-0.6,0.6-1.9,0.6-3.8c0-1.9-0.2-3.1-0.6-3.8c-0.3-0.5-0.8-0.7-1.4-0.7
			c-0.6,0-1,0.2-1.3,0.7C146.8,104,146.6,105.3,146.6,107.1z"/>
	</g>
	<g class="st17">
		<path class="st18" d="M104.5,211.2c-0.2-0.4-0.7-1.3-1.1-2v6.4h-1v-6.4c-0.5,1.5-1.2,3-1.9,3.9c-0.1-0.3-0.4-0.8-0.5-1
			c0.8-1,1.7-2.8,2.2-4.5h-2v-1h2.2v-2.3c-0.6,0.1-1.2,0.2-1.7,0.3c0-0.2-0.2-0.6-0.3-0.9c1.4-0.2,3.1-0.7,4-1.1l0.6,0.9
			c-0.5,0.2-1,0.4-1.6,0.5v2.5h1.8v1h-1.8v0.4c0.4,0.4,1.5,1.9,1.7,2.3L104.5,211.2z M113.2,214.4v1H105v-1h3.6v-1.9h-2.9v-0.9h2.9
			v-1.7c-0.8,0.1-1.6,0.2-2.4,0.2c0-0.2-0.2-0.6-0.3-0.8c2-0.1,4.4-0.4,5.7-0.8l0.7,0.8c-0.7,0.2-1.6,0.4-2.6,0.5v1.8h2.9v0.9h-2.9
			v1.9H113.2z M112.4,207.9h-6.5v-4.5h6.5V207.9z M111.3,204.3h-4.4v2.7h4.4V204.3z"/>
		<path class="st18" d="M123.1,206.3c0.4,4.8,1.5,8.3,2.9,8.3c0.4,0,0.6-0.8,0.6-2.7c0.2,0.2,0.6,0.5,0.9,0.6
			c-0.2,2.5-0.6,3.2-1.7,3.2c-2.3,0-3.5-4.1-3.9-9.4h-7.4v-1h7.3c0-0.8-0.1-1.7-0.1-2.6h1.1c0,0.9,0,1.7,0.1,2.6h4.2v1H123.1z
			 M118.8,213.4c1-0.2,2-0.4,3.1-0.6l0.1,0.9c-2.4,0.6-5,1.2-6.8,1.6l-0.3-1c0.8-0.2,1.8-0.4,3-0.6v-4.1h-2.5v-1h6.3v1h-2.7V213.4z
			 M126,205.1c-0.4-0.5-1.3-1.3-2-1.8l0.7-0.6c0.7,0.5,1.6,1.2,2.1,1.7L126,205.1z"/>
		<path class="st18" d="M140.3,204.6v11.1h-1.1v-0.7h-7.6v0.8h-1.1v-11.1h3.6c0.2-0.6,0.4-1.4,0.6-2l1.2,0.2
			c-0.2,0.6-0.5,1.3-0.7,1.8H140.3z M131.6,205.6v2.1h7.6v-2.1H131.6z M131.6,208.7v2.1h7.6v-2.1H131.6z M139.2,213.9v-2.1h-7.6v2.1
			H139.2z"/>
		<path class="st18" d="M155.8,206c0,0,0,0.4,0,0.5c-0.2,6-0.3,8-0.8,8.6c-0.2,0.4-0.5,0.5-1,0.5c-0.4,0.1-1.1,0-1.7,0
			c0-0.3-0.1-0.7-0.3-1c0.7,0.1,1.3,0.1,1.6,0.1c0.2,0,0.4,0,0.5-0.2c0.3-0.4,0.5-2.3,0.6-7.5h-2c-0.2,3.8-0.8,6.9-3.3,8.8
			c-0.2-0.2-0.5-0.6-0.8-0.8c0.2-0.2,0.4-0.3,0.6-0.5c-2.2,0.3-4.4,0.5-6,0.7l-0.2-0.9c0.9-0.1,1.9-0.2,3.1-0.3v-1.2h-2.7v-0.8h2.7
			V211h-2.7v-4.2h2.7v-0.9h-3.1v-0.8h3.1v-0.9c-0.9,0.1-1.8,0.1-2.7,0.2c0-0.2-0.1-0.6-0.3-0.8c2.1-0.1,4.7-0.4,6.2-0.7l0.5,0.8
			c-0.8,0.2-1.7,0.3-2.8,0.4v1h3v0.8h-3v0.9h2.8v4.2h-2.8v0.9h2.8v0.8h-2.8v1.1c0.9-0.1,1.9-0.2,2.9-0.3v0.1c1.2-1.7,1.6-4,1.7-6.7
			h-1.7v-1h1.7c0-1,0-2,0-3.1h1c0,1.1,0,2.1,0,3.1H155.8z M144.4,208.6h1.8v-1h-1.8V208.6z M146.2,210.3v-1h-1.8v1H146.2z
			 M147.1,207.5v1h1.9v-1H147.1z M149,209.3h-1.9v1h1.9V209.3z"/>
		<path class="st18" d="M162.2,203c-0.4,0.9-0.9,1.8-1.4,2.7v10h-1v-8.5c-0.6,0.8-1.3,1.6-1.9,2.2c-0.1-0.3-0.4-0.8-0.6-1.1
			c1.6-1.3,3.1-3.5,4-5.7L162.2,203z M168.2,214.2c0.8,0,0.9-0.6,1-3.1c0.3,0.2,0.7,0.4,1,0.5c-0.2,2.6-0.5,3.6-2,3.6h-2.7
			c-1.4,0-1.9-0.4-1.9-1.9v-10.4h1v3.9h5.1v1h-5.1v5.5c0,0.8,0.2,0.9,0.9,0.9H168.2z"/>
		<path class="st18" d="M181.4,208.8c-0.6,1.5-1.4,2.7-2.4,3.6c1.5,1.1,3.4,1.9,5.6,2.2c-0.2,0.2-0.5,0.7-0.7,1
			c-2.4-0.5-4.3-1.3-5.8-2.5c-1.6,1.2-3.5,2-5.8,2.6c-0.1-0.3-0.4-0.7-0.6-1c2.3-0.5,4.2-1.2,5.7-2.4c-1-1-1.7-2.1-2.3-3.5l0.9-0.3
			c0.5,1.2,1.2,2.3,2.1,3.2c0.9-0.9,1.6-1.9,2.1-3.2L181.4,208.8z M184.3,205.7H172v-1h5.9c-0.2-0.5-0.6-1.2-0.9-1.8l1-0.3
			c0.4,0.6,0.9,1.4,1.1,1.8l-0.6,0.3h5.9V205.7z M176.6,206.5c-1,1.2-2.5,2.5-3.7,3.3c-0.2-0.2-0.6-0.6-0.8-0.8
			c1.3-0.7,2.7-1.8,3.5-2.9L176.6,206.5z M180.7,206.1c1.3,0.9,2.9,2.2,3.7,3.1l-0.9,0.7c-0.7-0.9-2.3-2.3-3.6-3.2L180.7,206.1z"/>
		<path class="st18" d="M198.1,210c0,0,0,0.3,0,0.5c-0.3,3.2-0.6,4.4-1,4.9c-0.3,0.3-0.5,0.4-1,0.4c-0.4,0-1,0-1.8,0
			c0-0.3-0.1-0.7-0.3-0.9c0.7,0.1,1.3,0.1,1.6,0.1c0.2,0,0.4,0,0.5-0.2c0.3-0.3,0.6-1.3,0.8-3.8h-1.7c-0.8,2-2,3.7-3.3,4.9
			c-0.2-0.2-0.6-0.5-0.9-0.7c1.3-1,2.4-2.5,3.1-4.2h-1.9c-1,1.8-2.7,3.4-4.3,4.5c-0.2-0.2-0.6-0.6-0.8-0.8c1.5-0.9,3-2.2,3.9-3.7h-2
			c-0.7,0.7-1.5,1.4-2.3,1.9c-0.2-0.2-0.6-0.6-0.8-0.7c1.4-0.8,2.8-2,3.7-3.3H188v-5.5h9.1v5.5h-6.3c-0.2,0.4-0.6,0.8-0.9,1.2H198.1
			z M189,205.6h7v-1.4h-7V205.6z M189,207.9h7v-1.4h-7V207.9z"/>
		<path class="st18" d="M201.7,211.2c1.1-0.5,1.7-1.1,1.8-2.1c-0.1,0-0.2,0-0.2,0c-0.6,0-1.1-0.3-1.1-1c0-0.7,0.5-1,1.1-1
			c0.8,0,1.2,0.6,1.2,1.6c0,1.5-1,2.7-2.5,3.2L201.7,211.2z"/>
	</g>
	<g class="st17">
		<path class="st19" d="M110.5,254.7v-5.8H98.8v-4.8l12.4-18.2h4.6v18.2h3.6v4.8h-3.6v5.8H110.5z M110.5,244.1v-9.8l-6.6,9.8H110.5z
			"/>
		<path class="st19" d="M123,233.1c0-2.6,0.6-4.5,1.7-5.7c1.1-1.2,2.7-1.9,4.6-1.9c2,0,3.6,0.6,4.7,1.8c1.1,1.2,1.7,3.1,1.7,5.7
			c0,2.6-0.6,4.5-1.7,5.7c-1.1,1.2-2.7,1.9-4.6,1.9c-2,0-3.6-0.6-4.7-1.8C123.6,237.6,123,235.7,123,233.1z M127.3,233.1
			c0,1.9,0.2,3.1,0.6,3.8c0.3,0.5,0.8,0.7,1.3,0.7c0.6,0,1-0.2,1.4-0.7c0.4-0.6,0.6-1.9,0.6-3.8c0-1.9-0.2-3.1-0.6-3.7
			c-0.3-0.5-0.8-0.7-1.4-0.7c-0.6,0-1,0.2-1.3,0.7C127.5,230,127.3,231.2,127.3,233.1z M133.5,255.8h-4.1l15.3-30.2h3.9L133.5,255.8
			z M142.3,248.2c0-2.6,0.6-4.5,1.7-5.7c1.1-1.2,2.7-1.9,4.6-1.9c2,0,3.5,0.6,4.6,1.9c1.1,1.2,1.7,3.1,1.7,5.7
			c0,2.6-0.6,4.5-1.7,5.7c-1.1,1.2-2.7,1.9-4.6,1.9c-2,0-3.6-0.6-4.7-1.9C142.9,252.7,142.3,250.8,142.3,248.2z M146.6,248.2
			c0,1.9,0.2,3.1,0.6,3.7c0.3,0.5,0.8,0.7,1.3,0.7c0.6,0,1-0.2,1.3-0.7c0.4-0.6,0.6-1.9,0.6-3.8c0-1.9-0.2-3.1-0.6-3.8
			c-0.3-0.5-0.8-0.7-1.4-0.7c-0.6,0-1,0.2-1.3,0.7C146.8,245.1,146.6,246.4,146.6,248.2z"/>
	</g>
	<g class="st17">
		<path class="st18" d="M398.1,230.4c-0.3,6.2-0.5,8.3-1,9c-0.3,0.4-0.6,0.5-1,0.5c-0.4,0.1-1,0.1-1.6,0c0-0.3-0.1-0.8-0.3-1.1
			c0.6,0.1,1.1,0.1,1.4,0.1c0.2,0,0.4-0.1,0.5-0.2c0.4-0.5,0.7-2.4,0.9-7.8h-2c-0.2,3.6-0.7,7.1-2.5,9.4c-0.2-0.2-0.6-0.6-0.8-0.7
			c1.7-2,2.1-5.3,2.3-8.6h-2v-1h2c0-0.9,0-1.7,0-2.6h1.1c0,0.8,0,1.7,0,2.6h3.1V230.4z M404.1,229.1v11H403v-0.9h-2.8v1h-1v-11.1
			H404.1z M403,238.1v-8h-2.8v8H403z"/>
		<path class="st18" d="M411.6,235.2c-0.9,0-1.4-0.1-1.6-0.4c-1.1,0.5-2.3,0.9-3.4,1.2c-0.1-0.2-0.4-0.7-0.6-0.9
			c1.3-0.3,2.6-0.7,3.8-1.2v0v-2.7h1v2.3c1.8-0.9,3.4-2,4.5-3.3l0.9,0.4c-1.2,1.5-3,2.7-5,3.7c0.1,0,0.3,0,0.6,0h2.9
			c0.7,0,0.8-0.2,0.9-1.6c0.2,0.2,0.6,0.3,0.9,0.4c-0.1,1.7-0.4,2.1-1.7,2.1H411.6z M408.8,231.8c-0.5,0.9-1.1,2-1.9,2.7l-0.9-0.5
			c0.8-0.6,1.5-1.7,1.9-2.5L408.8,231.8z M407.5,231.3h-1v-2.8h5.5c-0.1-0.4-0.2-0.8-0.4-1.2l1-0.2c0.2,0.4,0.4,1,0.5,1.4h5.4v2.8
			h-1.1v-1.8h-9.9V231.3z M416.3,236.3h1v4h-1v-0.6h-8.7v-3.3h1v2.3h3.2v-3h1.1v3h3.4V236.3z M412.8,231.9c-0.5-0.5-1.6-1.2-2.5-1.6
			l0.6-0.6c0.9,0.4,1.9,1,2.5,1.5L412.8,231.9z M416.5,231.4c0.9,0.8,1.9,1.9,2.4,2.6l-0.8,0.6c-0.4-0.8-1.5-1.9-2.4-2.7
			L416.5,231.4z"/>
		<path class="st18" d="M422.9,229.8c-0.6,0.4-1.2,0.8-1.8,1.1c-0.2-0.2-0.6-0.6-0.8-0.7c1.6-0.7,3.2-1.8,4.2-2.9l1,0.4
			c-0.4,0.5-1,1-1.5,1.5v2.9h-1V229.8z M425.6,238.7c-1.2,0.7-3,1.3-4.4,1.7c-0.2-0.2-0.6-0.6-0.8-0.8c1.5-0.3,3.2-0.8,4.2-1.4
			L425.6,238.7z M422.2,232.3h9.3v5.7h-9.3V232.3z M423.3,234h7.2v-1h-7.2V234z M423.3,235.7h7.2v-1h-7.2V235.7z M423.3,237.4h7.2
			v-1h-7.2V237.4z M428.3,231.7c-1.3,0-1.6-0.4-1.6-1.5v-2.9h1.1v1.2h4.6v0.9h-4.6v0.9c0,0.5,0.1,0.6,0.6,0.6h3.2
			c0.4,0,1.1,0,1.4-0.1c0,0.3,0.1,0.6,0.1,0.9c-0.3,0.1-0.9,0.1-1.5,0.1H428.3z M428.8,238.2c1.5,0.5,3.2,1.1,4.2,1.6l-0.9,0.6
			c-0.9-0.5-2.4-1.1-4-1.6L428.8,238.2z"/>
		<path class="st18" d="M446.7,229.6c-0.3,1.1-0.9,2-1.6,2.7c0.7,0.7,1.6,1.2,2.5,1.5c-0.2,0.2-0.5,0.5-0.6,0.7
			c-1-0.4-1.8-0.9-2.6-1.6c-0.7,0.6-1.6,1.1-2.5,1.4c-0.1-0.2-0.4-0.6-0.5-0.8c0.9-0.3,1.8-0.7,2.5-1.3c-0.5-0.6-0.9-1.2-1.2-2
			c-0.3,0.3-0.5,0.6-0.8,0.9c-0.1-0.2-0.4-0.5-0.7-0.6v3.7h-0.8v-3.8h-1.8v4.1h-0.7v-4.1h-1.8v4.2h-0.8v-4.9h2.5v-2.4h0.9v2.4h2.5
			v0.8c0.9-0.8,1.6-1.9,2-3.2l0.9,0.2c-0.1,0.4-0.3,0.9-0.5,1.3h3.9v0.8H446.7z M436.3,229.6c-0.2-0.4-0.6-1.1-1-1.6l0.7-0.3
			c0.4,0.5,0.8,1.1,1,1.6L436.3,229.6z M446.2,238.5c0,0.5-0.1,0.8-0.6,1c-0.5,0.2-1.2,0.2-2.4,0.2c-0.1-0.3-0.2-0.6-0.4-0.9
			c0.9,0,1.7,0,2,0c0.2,0,0.3-0.1,0.3-0.3v-2.2h-3.6v4.1h-1v-4.1h-3.3v3.4h-1v-4.3h4.3v-0.9h1v0.9h4.6V238.5z M437.4,231
			c-0.1,0.8-0.4,1.7-0.7,2.3c-0.1-0.1-0.4-0.2-0.6-0.3c0.3-0.6,0.5-1.4,0.6-2.2L437.4,231z M439.5,230.9c0.3,0.7,0.5,1.6,0.6,2.2
			l-0.6,0.2c-0.1-0.6-0.3-1.5-0.6-2.2L439.5,230.9z M441.2,227.9c-0.4,0.6-0.9,1.3-1.2,1.7l-0.6-0.3c0.3-0.5,0.8-1.2,1-1.7
			L441.2,227.9z M443.2,229.6c0.3,0.8,0.7,1.5,1.2,2.1c0.5-0.6,0.9-1.3,1.2-2.1H443.2z"/>
		<path class="st18" d="M453.9,230.2c-0.5,1.1-1.1,2.2-1.8,3.2v6.9h-1v-5.7c-0.5,0.5-1.1,1.1-1.7,1.5c-0.1-0.3-0.4-0.7-0.5-1
			c1.7-1.2,3-3,4-5h-3.5v-1h3.9c0.2-0.6,0.5-1.2,0.6-1.9l1.1,0.3c-0.2,0.5-0.3,1.1-0.6,1.6h7.3v1H453.9z M461.9,236.4H458v2.6
			c0,0.6-0.1,0.9-0.6,1.1c-0.5,0.2-1.3,0.2-2.5,0.2c-0.1-0.3-0.2-0.7-0.3-1c0.9,0,1.8,0,2,0c0.3,0,0.3-0.1,0.3-0.3v-2.6H453v-1h3.9
			v-1.2c0.7-0.4,1.5-1,2.1-1.5h-4.8v-1h5.8l0.2-0.1l0.7,0.5c-0.8,0.8-1.9,1.7-2.9,2.4v0.8h3.8V236.4z"/>
		<path class="st18" d="M465.3,229.7v3.1c0,2.2-0.2,5.4-1.4,7.6c-0.2-0.2-0.7-0.5-0.9-0.6c1.2-2,1.3-4.9,1.3-7v-4.1h5.6
			c-0.2-0.4-0.4-0.8-0.6-1.2l1-0.3c0.3,0.4,0.6,1,0.8,1.5h5v1H465.3z M472.4,235.1c0.5,2.4,1.5,4.1,2.3,4.1c0.3,0,0.4-0.6,0.5-2
			c0.2,0.2,0.6,0.4,0.9,0.5c-0.2,2-0.5,2.5-1.4,2.5c-1.5,0-2.7-2.1-3.3-5.1H468v2.5l2.7-0.6c0,0.3,0,0.7,0,0.9
			c-3.1,0.8-3.5,0.9-3.8,1.1c-0.1-0.3-0.3-0.7-0.4-0.9c0.2-0.1,0.4-0.3,0.4-0.8v-6.1c2.6-0.1,5.6-0.4,7.3-0.7l0.8,0.8
			c-0.9,0.2-1.9,0.3-3.1,0.5c0,0.9,0.1,1.7,0.2,2.5h3.5v1H472.4z M471.2,234.1c-0.1-0.8-0.2-1.5-0.2-2.4c-1,0.1-2,0.2-3,0.2v2.2
			H471.2z M468.9,239h3.7v0.9h-3.7V239z"/>
		<path class="st18" d="M478.9,235.8c1.1-0.5,1.7-1.1,1.8-2.1c-0.1,0-0.2,0-0.2,0c-0.6,0-1.1-0.3-1.1-1c0-0.7,0.5-1,1.1-1
			c0.8,0,1.2,0.6,1.2,1.6c0,1.5-1,2.7-2.5,3.2L478.9,235.8z"/>
	</g>
	<g class="st17">
		<path class="st19" d="M391.3,272l5.5-0.6c0.2,1.2,0.6,2.2,1.4,2.9c0.8,0.7,1.7,1.1,2.7,1.1c1.1,0,2.1-0.5,2.9-1.4
			c0.8-0.9,1.2-2.3,1.2-4.2c0-1.8-0.4-3.1-1.2-4c-0.8-0.9-1.8-1.3-3.1-1.3c-1.6,0-3,0.7-4.2,2.1L392,266l2.8-14.9h14.5v5.1H399
			l-0.9,4.9c1.2-0.6,2.5-0.9,3.8-0.9c2.4,0,4.5,0.9,6.2,2.7c1.7,1.8,2.5,4.1,2.5,6.9c0,2.4-0.7,4.5-2.1,6.3
			c-1.9,2.5-4.4,3.8-7.8,3.8c-2.6,0-4.8-0.7-6.5-2.1C392.7,276.3,391.7,274.4,391.3,272z"/>
		<path class="st19" d="M414.5,257.8c0-2.6,0.6-4.5,1.7-5.7c1.1-1.2,2.7-1.9,4.6-1.9c2,0,3.6,0.6,4.7,1.8c1.1,1.2,1.7,3.1,1.7,5.7
			c0,2.6-0.6,4.5-1.7,5.7c-1.1,1.2-2.7,1.9-4.6,1.9c-2,0-3.6-0.6-4.7-1.8C415.1,262.2,414.5,260.3,414.5,257.8z M418.8,257.7
			c0,1.9,0.2,3.1,0.6,3.8c0.3,0.5,0.8,0.7,1.3,0.7c0.6,0,1-0.2,1.4-0.7c0.4-0.6,0.6-1.9,0.6-3.8c0-1.9-0.2-3.1-0.6-3.7
			c-0.3-0.5-0.8-0.7-1.4-0.7c-0.6,0-1,0.2-1.3,0.7C419,254.6,418.8,255.8,418.8,257.7z M425,280.4h-4.1l15.3-30.2h3.9L425,280.4z
			 M433.8,272.9c0-2.6,0.6-4.5,1.7-5.7c1.1-1.2,2.7-1.9,4.6-1.9c2,0,3.5,0.6,4.6,1.9c1.1,1.2,1.7,3.1,1.7,5.7c0,2.6-0.6,4.5-1.7,5.7
			c-1.1,1.2-2.7,1.9-4.6,1.9c-2,0-3.6-0.6-4.7-1.9C434.4,277.4,433.8,275.5,433.8,272.9z M438.1,272.9c0,1.9,0.2,3.1,0.6,3.7
			c0.3,0.5,0.8,0.7,1.3,0.7c0.6,0,1-0.2,1.3-0.7c0.4-0.6,0.6-1.9,0.6-3.8c0-1.9-0.2-3.1-0.6-3.8c-0.3-0.5-0.8-0.7-1.4-0.7
			c-0.6,0-1,0.2-1.3,0.7C438.3,269.8,438.1,271,438.1,272.9z"/>
	</g>
	<g class="st17">
		<path class="st18" d="M390.7,68.3c0-3.4,2-5.4,4.8-5.4c1.5,0,2.4,0.7,3,1.3l-0.7,0.9c-0.5-0.6-1.2-1-2.3-1c-2.1,0-3.5,1.6-3.5,4.2
			c0,2.6,1.2,4.3,3.5,4.3c0.8,0,1.5-0.2,1.9-0.6v-2.7h-2.2v-1.1h3.4v4.4c-0.7,0.7-1.8,1.2-3.2,1.2C392.6,73.7,390.7,71.7,390.7,68.3
			z"/>
		<path class="st18" d="M400.5,71.5c0-1.7,1.5-2.5,4.8-2.9c0-1-0.3-2-1.6-2c-0.9,0-1.7,0.4-2.3,0.8l-0.5-0.9c0.7-0.5,1.8-1,3.1-1
			c1.9,0,2.7,1.3,2.7,3.2v4.8h-1.1l-0.1-0.9h0c-0.7,0.6-1.6,1.1-2.6,1.1C401.5,73.7,400.5,72.9,400.5,71.5z M405.3,71.6v-2.2
			c-2.6,0.3-3.5,1-3.5,2c0,0.9,0.6,1.2,1.4,1.2C403.9,72.7,404.5,72.3,405.3,71.6z"/>
		<path class="st18" d="M409.1,65.8h1.1l0.1,1.1h0c0.7-0.7,1.5-1.3,2.4-1.3c1.2,0,1.8,0.6,2.1,1.5c0.8-0.9,1.6-1.5,2.6-1.5
			c1.6,0,2.4,1.1,2.4,3v4.9h-1.3v-4.7c0-1.5-0.5-2.1-1.4-2.1c-0.6,0-1.2,0.4-2,1.2v5.6h-1.3v-4.7c0-1.5-0.5-2.1-1.4-2.1
			c-0.6,0-1.2,0.4-2,1.2v5.6h-1.3V65.8z"/>
		<path class="st18" d="M421.7,69.6c0-2.5,1.7-4.1,3.5-4.1c2,0,3.1,1.4,3.1,3.6c0,0.3,0,0.6-0.1,0.7H423c0.1,1.7,1.1,2.7,2.6,2.7
			c0.8,0,1.4-0.2,1.9-0.6l0.5,0.9c-0.7,0.4-1.5,0.8-2.6,0.8C423.4,73.7,421.7,72.2,421.7,69.6z M427.2,69c0-1.6-0.7-2.4-1.9-2.4
			c-1.1,0-2.1,0.9-2.2,2.4H427.2z"/>
		<path class="st18" d="M430.3,63h6v1.1h-4.7v3.5h4v1.1h-4v4.7h-1.3V63z"/>
		<path class="st18" d="M437.9,63.3c0-0.5,0.4-0.8,0.9-0.8s0.9,0.3,0.9,0.8c0,0.5-0.4,0.8-0.9,0.8S437.9,63.8,437.9,63.3z
			 M438.1,65.8h1.3v7.8h-1.3V65.8z"/>
		<path class="st18" d="M444.4,69.2v4c0,0.6-0.2,0.9-0.5,1c-0.4,0.2-1,0.2-1.9,0.2c0-0.3-0.2-0.7-0.3-1c0.7,0,1.3,0,1.5,0
			c0.2,0,0.3-0.1,0.3-0.3v-3.7l-1.8,0.5l-0.3-1c0.6-0.1,1.3-0.3,2.1-0.6v-3.1h-1.9v-1h1.9v-2.9h1v2.9h1.8v1h-1.8v2.8l1.3-0.4l0.1,1
			L444.4,69.2z M453.4,68.1c-0.6,1.7-1.6,3.1-2.8,4.1c1.1,0.7,2.4,1.2,3.8,1.5c-0.2,0.2-0.5,0.7-0.7,1c-1.5-0.4-2.9-1-4-1.8
			c-1.2,0.8-2.7,1.4-4.2,1.8c-0.1-0.3-0.3-0.7-0.5-1c1.4-0.3,2.7-0.8,3.9-1.5c-1-0.9-1.8-2-2.3-3.3l0.1-0.1h-0.6v-1h6.4l0.2,0
			L453.4,68.1z M448.5,63.7c0,1.3-0.4,2.8-2.1,3.8c-0.1-0.2-0.5-0.6-0.7-0.8c1.6-0.9,1.8-2,1.8-3.1v-1.6h4.5v3.3
			c0,0.4,0,0.5,0.3,0.5h1.1c0.2,0,0.5,0,0.7-0.1c0,0.3,0,0.7,0.1,0.9c-0.2,0.1-0.5,0.1-0.8,0.1h-1.2c-1,0-1.2-0.4-1.2-1.5v-2.3h-2.5
			V63.7z M447.5,68.8c0.5,1,1.3,2,2.2,2.7c0.9-0.7,1.7-1.6,2.2-2.7H447.5z"/>
		<path class="st18" d="M459.8,65.5h-4.1v-0.9h4.1V65.5z M461,72.9c-1.1,0.7-2.9,1.4-4.4,1.7c-0.2-0.2-0.5-0.6-0.8-0.8
			c1.5-0.3,3.2-0.8,4.2-1.4L461,72.9z M459.5,63.2h-3.4v-0.8h3.4V63.2z M457.6,66.6h9.3v5.7h-9.3V66.6z M458.7,68.3h7.2v-1h-7.2
			V68.3z M458.7,69.9h7.2v-1h-7.2V69.9z M458.7,71.6h7.2v-1h-7.2V71.6z M462.1,63.3c-0.3,0.5-0.7,1-1.1,1.4
			c-0.2-0.2-0.6-0.4-0.8-0.5c0.7-0.7,1.3-1.7,1.6-2.7l1,0.2c-0.1,0.3-0.2,0.5-0.3,0.8h4.8l0.2,0l0.7,0.2c-0.4,0.7-0.8,1.6-1.2,2.1
			l-0.8-0.3c0.2-0.3,0.5-0.7,0.7-1.1h-2.3v0.2c0,0.1,0,0.3,0,0.5c0.8,0.9,2.3,1.4,4.2,1.6c-0.2,0.2-0.5,0.6-0.6,0.8
			c-1.6-0.2-3-0.8-3.9-1.7c-0.5,0.7-1.6,1.4-4.1,1.7c-0.1-0.2-0.4-0.6-0.6-0.8c3.7-0.5,4-1.5,4-2.2v-0.1H462.1z M464.2,72.4
			c1.5,0.5,3.2,1.1,4.2,1.5l-0.9,0.6c-0.9-0.5-2.5-1.1-4-1.6L464.2,72.4z"/>
		<path class="st18" d="M471.4,70.1c1.1-0.5,1.7-1.1,1.8-2.1c-0.1,0-0.2,0-0.2,0c-0.6,0-1.1-0.3-1.1-1c0-0.7,0.5-1,1.1-1
			c0.8,0,1.2,0.6,1.2,1.6c0,1.5-1,2.7-2.5,3.2L471.4,70.1z"/>
	</g>
	<g class="st17">
		<path class="st19" d="M408.6,92l-5.3,0.6c-0.1-1.1-0.5-1.9-1-2.4c-0.5-0.5-1.3-0.8-2.1-0.8c-1.2,0-2.1,0.5-2.9,1.6
			s-1.3,3.2-1.5,6.5c1.4-1.6,3.1-2.4,5.1-2.4c2.3,0,4.3,0.9,5.9,2.6c1.6,1.7,2.5,4,2.5,6.8c0,2.9-0.9,5.3-2.6,7.1s-3.9,2.7-6.6,2.7
			c-2.9,0-5.3-1.1-7.1-3.4c-1.9-2.2-2.8-5.9-2.8-11c0-5.2,1-9,2.9-11.4c1.9-2.3,4.5-3.5,7.6-3.5c2.2,0,4,0.6,5.4,1.8
			C407.3,87.9,408.2,89.6,408.6,92z M396.2,103.9c0,1.8,0.4,3.2,1.2,4.1c0.8,1,1.8,1.5,2.8,1.5c1,0,1.9-0.4,2.5-1.2
			c0.7-0.8,1-2.1,1-3.9c0-1.9-0.4-3.2-1.1-4.1S401.1,99,400,99c-1.1,0-1.9,0.4-2.7,1.2S396.2,102.3,396.2,103.9z"/>
		<path class="st19" d="M413.3,92c0-2.6,0.6-4.5,1.7-5.7c1.1-1.2,2.7-1.9,4.6-1.9c2,0,3.6,0.6,4.7,1.8c1.1,1.2,1.7,3.1,1.7,5.7
			c0,2.6-0.6,4.5-1.7,5.7c-1.1,1.2-2.7,1.9-4.6,1.9c-2,0-3.6-0.6-4.7-1.8C413.9,96.5,413.3,94.6,413.3,92z M417.6,92
			c0,1.9,0.2,3.1,0.6,3.8c0.3,0.5,0.8,0.7,1.3,0.7c0.6,0,1-0.2,1.4-0.7c0.4-0.6,0.6-1.9,0.6-3.8c0-1.9-0.2-3.1-0.6-3.7
			c-0.3-0.5-0.8-0.7-1.4-0.7c-0.6,0-1,0.2-1.3,0.7C417.8,88.9,417.6,90.1,417.6,92z M423.7,114.7h-4.1l15.3-30.2h3.9L423.7,114.7z
			 M432.6,107.2c0-2.6,0.6-4.5,1.7-5.7c1.1-1.2,2.7-1.9,4.6-1.9c2,0,3.5,0.6,4.6,1.9c1.1,1.2,1.7,3.1,1.7,5.7c0,2.6-0.6,4.5-1.7,5.7
			c-1.1,1.2-2.7,1.9-4.6,1.9c-2,0-3.6-0.6-4.7-1.9C433.2,111.6,432.6,109.7,432.6,107.2z M436.9,107.1c0,1.9,0.2,3.1,0.6,3.7
			c0.3,0.5,0.8,0.7,1.3,0.7c0.6,0,1-0.2,1.3-0.7c0.4-0.6,0.6-1.9,0.6-3.8c0-1.9-0.2-3.1-0.6-3.8c-0.3-0.5-0.8-0.7-1.4-0.7
			c-0.6,0-1,0.2-1.3,0.7C437.1,104,436.9,105.3,436.9,107.1z"/>
	</g>
	<circle class="st16" cx="279.9" cy="165.7" r="51.6"/>
	<g class="st17">
		<path class="st2" d="M259.3,174.6v5.1H240c0.2-1.9,0.8-3.8,1.9-5.5c1-1.7,3.1-4,6.2-6.9c2.5-2.3,4-3.9,4.6-4.7
			c0.8-1.1,1.1-2.3,1.1-3.4c0-1.2-0.3-2.2-1-2.8c-0.7-0.7-1.6-1-2.7-1c-1.1,0-2.1,0.3-2.7,1c-0.7,0.7-1.1,1.8-1.2,3.4l-5.5-0.5
			c0.3-3,1.3-5.2,3.1-6.5c1.7-1.3,3.9-2,6.4-2c2.8,0,5,0.8,6.7,2.3c1.6,1.5,2.4,3.4,2.4,5.7c0,1.3-0.2,2.5-0.7,3.7s-1.2,2.4-2.2,3.7
			c-0.7,0.8-1.9,2.1-3.6,3.7c-1.7,1.6-2.8,2.6-3.3,3.2c-0.5,0.5-0.8,1-1.1,1.5H259.3z"/>
		<path class="st2" d="M273.3,150.9c2.8,0,4.9,1,6.5,3c1.9,2.3,2.8,6.2,2.8,11.7c0,5.4-0.9,9.3-2.8,11.7c-1.6,2-3.7,2.9-6.5,2.9
			c-2.8,0-5-1.1-6.7-3.2c-1.7-2.1-2.6-6-2.6-11.5c0-5.4,0.9-9.3,2.8-11.6C268.3,151.9,270.5,150.9,273.3,150.9z M273.3,155.5
			c-0.7,0-1.3,0.2-1.8,0.6c-0.5,0.4-0.9,1.2-1.2,2.3c-0.4,1.4-0.6,3.8-0.6,7.2c0,3.4,0.2,5.7,0.5,6.9c0.3,1.3,0.8,2.1,1.3,2.5
			c0.5,0.4,1.1,0.6,1.8,0.6c0.7,0,1.3-0.2,1.8-0.6c0.5-0.4,0.9-1.2,1.2-2.3c0.4-1.4,0.6-3.8,0.6-7.2c0-3.4-0.2-5.7-0.5-6.9
			c-0.3-1.3-0.8-2.1-1.3-2.5C274.5,155.7,273.9,155.5,273.3,155.5z"/>
		<path class="st2" d="M287.2,158.1c0-2.6,0.6-4.5,1.7-5.7c1.1-1.2,2.7-1.9,4.6-1.9c2,0,3.6,0.6,4.7,1.8c1.1,1.2,1.7,3.1,1.7,5.7
			c0,2.6-0.6,4.5-1.7,5.7c-1.1,1.2-2.7,1.9-4.6,1.9c-2,0-3.6-0.6-4.7-1.8C287.8,162.6,287.2,160.7,287.2,158.1z M291.5,158.1
			c0,1.9,0.2,3.1,0.6,3.8c0.3,0.5,0.8,0.7,1.3,0.7c0.6,0,1-0.2,1.4-0.7c0.4-0.6,0.6-1.9,0.6-3.8c0-1.9-0.2-3.1-0.6-3.7
			c-0.3-0.5-0.8-0.7-1.4-0.7c-0.6,0-1,0.2-1.3,0.7C291.7,155,291.5,156.2,291.5,158.1z M297.7,180.8h-4.1l15.3-30.2h3.9L297.7,180.8
			z M306.6,173.3c0-2.6,0.6-4.5,1.7-5.7c1.1-1.2,2.7-1.9,4.6-1.9c2,0,3.5,0.6,4.6,1.9c1.1,1.2,1.7,3.1,1.7,5.7
			c0,2.6-0.6,4.5-1.7,5.7c-1.1,1.2-2.7,1.9-4.6,1.9c-2,0-3.6-0.6-4.7-1.9C307.1,177.7,306.6,175.8,306.6,173.3z M310.8,173.2
			c0,1.9,0.2,3.1,0.6,3.7c0.3,0.5,0.8,0.7,1.3,0.7c0.6,0,1-0.2,1.3-0.7c0.4-0.6,0.6-1.9,0.6-3.8c0-1.9-0.2-3.1-0.6-3.8
			c-0.3-0.5-0.8-0.7-1.4-0.7s-1,0.2-1.3,0.7C311,170.1,310.8,171.4,310.8,173.2z"/>
	</g>
	<g class="st17">
		<path class="st19" d="M200.8,319.8h3.5c2.2,0,3.8,0.6,3.8,2.6c0,1-0.5,2-1.4,2.3v0.1c1.1,0.3,2,1.1,2,2.5c0,2.1-1.8,3.1-4.1,3.1
			h-3.8V319.8z M204.2,324.1c1.3,0,1.9-0.5,1.9-1.4c0-0.9-0.6-1.3-1.9-1.3h-1.3v2.7H204.2z M204.4,328.8c1.4,0,2.2-0.5,2.2-1.6
			c0-1-0.8-1.5-2.2-1.5h-1.5v3.1H204.4z"/>
		<path class="st19" d="M210.6,319.8h6.5v1.8h-4.4v2.4h3.7v1.8h-3.7v2.8h4.5v1.8h-6.6V319.8z"/>
		<path class="st19" d="M219.4,319.8h6.5v1.8h-4.4v2.4h3.7v1.8h-3.7v2.8h4.5v1.8h-6.6V319.8z"/>
		<path class="st19" d="M227.1,319.8h2.2l0.8,5.2c0.2,1.1,0.3,2.2,0.5,3.4h0.1c0.2-1.1,0.4-2.3,0.7-3.4l1.2-5.2h1.8l1.2,5.2
			c0.2,1.1,0.4,2.2,0.7,3.4h0.1c0.2-1.1,0.3-2.3,0.5-3.4l0.8-5.2h2l-2,10.6h-2.6l-1.2-5.2c-0.2-0.8-0.3-1.6-0.5-2.4h-0.1
			c-0.1,0.8-0.3,1.6-0.5,2.4l-1.2,5.2h-2.6L227.1,319.8z"/>
		<path class="st19" d="M240.9,320c0-0.7,0.5-1.1,1.3-1.1c0.7,0,1.2,0.5,1.2,1.1c0,0.7-0.5,1.1-1.2,1.1
			C241.4,321.1,240.9,320.6,240.9,320z M241.1,322.4h2.1v8h-2.1V322.4z"/>
		<path class="st19" d="M245.6,319.8h2.2l3.1,5.6l1.1,2.3h0.1c-0.1-1.1-0.3-2.5-0.3-3.7v-4.2h2v10.6h-2.1l-3.1-5.7l-1.1-2.3h-0.1
			c0.1,1.1,0.3,2.5,0.3,3.7v4.2h-2V319.8z"/>
		<path class="st19" d="M268.6,323.1c0,0,0,0.5,0,0.7c-0.1,4.8-0.2,6.6-0.6,7.1c-0.3,0.4-0.6,0.5-0.9,0.6c-0.3,0.1-0.8,0.1-1.4,0.1
			c0-0.3-0.1-0.6-0.2-0.9l-0.2,0.1c0-0.2-0.1-0.3-0.1-0.5c-1.8,0.2-3.7,0.4-5.1,0.6l-0.2-1.4c0.7,0,1.7-0.1,2.7-0.2v-0.9h-2.2v-2.6
			c-0.2-0.2-0.6-0.5-0.9-0.7c0,0.4,0,0.7,0,1.1c0,2-0.1,4-0.8,4.9c-0.2,0.3-0.5,0.5-0.9,0.6c-0.5,0.1-1.1,0.1-1.7,0.1
			c0-0.5-0.1-1.1-0.4-1.6c0.6,0,1,0,1.3,0c0.2,0,0.3-0.1,0.4-0.2c0.3-0.3,0.4-1.7,0.4-3.3c-0.5,0.7-1.1,1.3-1.6,1.7
			c-0.3-0.4-0.7-1-1.1-1.3c0.9-0.6,2-1.8,2.6-2.9c-0.1-0.5-0.1-1-0.3-1.4c-0.4,0.4-0.8,0.7-1.1,1c-0.3-0.3-0.8-0.8-1.1-1.1
			c0.6-0.4,1.1-0.9,1.6-1.5c-0.4-0.6-0.8-1.2-1.4-1.8l1.2-0.9c0.5,0.4,0.9,0.9,1.2,1.4c0.3-0.4,0.5-0.9,0.7-1.3l1.5,0.7
			c-0.4,0.7-0.8,1.4-1.4,2.1c0.4,1,0.6,2.1,0.7,3.2c0.6-0.6,1.2-1.3,1.6-2h-0.9v-3.6h8.1v3.6h-5.4c-0.1,0.2-0.2,0.5-0.4,0.7H268.6z
			 M265.6,328.3c0.3,0.6,0.6,1.3,0.7,1.9c0.1,0,0.1-0.1,0.2-0.2c0.2-0.3,0.3-1.7,0.4-5.5h-5.4c-0.3,0.3-0.5,0.6-0.8,0.9h1.8v-0.7
			h1.3v0.7h2.2v2.9H265.6z M261.6,321.2h0.9v-1.1h-0.9V321.2z M262.6,327.3v-0.8h-0.9v0.8H262.6z M263.7,321.2h0.9v-1.1h-0.9V321.2z
			 M263.9,327.3h0.9v-0.8h-0.9V327.3z M264.7,329.1c-0.1-0.2-0.2-0.3-0.2-0.5l0.8-0.3h-1.4v0.8L264.7,329.1z M265.8,321.2h0.9v-1.1
			h-0.9V321.2z"/>
		<path class="st19" d="M272.7,322.3v-0.6c-0.5,0.4-1,0.7-1.5,1h6v4.5h-5c0,0.1,0,0.3-0.1,0.4h5.4v3.8h-1.5v-0.4h-2.6v0.4H272v-3
			c-0.2,0.9-0.5,1.8-0.9,2.5c-0.3-0.2-1.1-0.5-1.5-0.7c1.1-1.8,1.2-4.4,1.2-6V323l-0.3,0.2c-0.2-0.4-0.6-1.3-0.9-1.6
			c1.7-0.7,3.3-1.9,4.2-3.2l1.6,0.6c-0.1,0.1-0.2,0.2-0.3,0.4c1.1,0.6,2.2,1.3,2.9,1.8l-0.9,1.4c-0.4-0.3-0.9-0.7-1.6-1.1v0.9H272.7
			z M275.7,326.1v-0.6h-3.3c0,0.2,0,0.4,0,0.6H275.7z M272.5,324v0.5v0.1h3.2V324H272.5z M275.6,321.3c-0.5-0.3-0.9-0.6-1.4-0.9
			c-0.3,0.3-0.6,0.6-0.9,0.9H275.6z M273.5,328.9v1h2.6v-1H273.5z M280,327.8h-1.6v-8h1.6V327.8z M282.6,318.3v11.3
			c0,0.9-0.2,1.4-0.7,1.6c-0.5,0.3-1.3,0.3-2.5,0.3c-0.1-0.5-0.3-1.2-0.5-1.7c0.7,0,1.5,0,1.7,0c0.2,0,0.3-0.1,0.3-0.3v-11.3H282.6z
			"/>
		<path class="st19" d="M284.9,319.8h3.5c2.2,0,3.8,0.6,3.8,2.6c0,1-0.5,2-1.4,2.3v0.1c1.1,0.3,2,1.1,2,2.5c0,2.1-1.8,3.1-4.1,3.1
			h-3.8V319.8z M288.2,324.1c1.3,0,1.9-0.5,1.9-1.4c0-0.9-0.6-1.3-1.9-1.3H287v2.7H288.2z M288.5,328.8c1.4,0,2.2-0.5,2.2-1.6
			c0-1-0.8-1.5-2.2-1.5H287v3.1H288.5z"/>
		<path class="st19" d="M293.5,319.8h2.2l0.8,5.2c0.2,1.1,0.3,2.2,0.5,3.4h0.1c0.2-1.1,0.4-2.3,0.7-3.4l1.2-5.2h1.8l1.2,5.2
			c0.2,1.1,0.4,2.2,0.7,3.4h0.1c0.2-1.1,0.3-2.3,0.5-3.4l0.8-5.2h2l-2,10.6h-2.6l-1.2-5.2c-0.2-0.8-0.3-1.6-0.5-2.4h-0.1
			c-0.1,0.8-0.3,1.6-0.5,2.4l-1.2,5.2h-2.6L293.5,319.8z"/>
		<path class="st19" d="M307,325.2c0-3.5,2.2-5.5,4.9-5.5c1.3,0,2.4,0.6,3.1,1.4l-1.1,1.3c-0.5-0.5-1.1-0.9-1.9-0.9
			c-1.6,0-2.8,1.4-2.8,3.6c0,2.3,1.1,3.7,2.8,3.7c0.9,0,1.6-0.4,2.2-1l1.1,1.3c-0.9,1-2,1.6-3.4,1.6
			C309.2,330.6,307,328.7,307,325.2z"/>
		<path class="st19" d="M327.9,318.9c-0.1,5.6-0.1,10.9,0.6,10.9c0.1,0,0.2-0.9,0.2-2c0.3,0.5,0.6,1,0.9,1.4
			c-0.2,1.7-0.5,2.5-1.4,2.5c-2.1,0-2.1-5.1-2.1-11.2h-7v3.4c0,2.4-0.2,5.7-1.8,7.8c-0.3-0.3-1-0.8-1.4-0.9c1.4-1.9,1.6-4.8,1.6-6.9
			v-5H327.9z M325.3,327.6c0.6,1,1.1,2.3,1.3,3.2l-1.4,0.5c-0.1-0.3-0.1-0.6-0.2-1c-2.1,0.2-4.2,0.4-5.8,0.5l-0.1-1.5
			c0.8,0,1.8-0.1,2.9-0.2v-1.5h-2.2v-4.1h2.2v-1h-2.3v-1.3h6.1v1.3h-2.3v1h2.3v4.1h-2.3v1.4l1.1-0.1c-0.1-0.3-0.3-0.6-0.5-0.9
			L325.3,327.6z M321.9,326.3v-1.6H321v1.6H321.9z M323.4,324.7v1.6h0.9v-1.6H323.4z"/>
		<path class="st19" d="M336.9,321.9c-0.4,0.3-0.9,0.6-1.4,0.9c-0.2-0.3-0.7-0.8-1-1.1c-0.2,0.5-0.3,1-0.4,1.5
			c0.7,1.1,0.9,2.1,0.9,2.9c0,0.9-0.2,1.6-0.6,1.9c-0.2,0.2-0.5,0.3-0.8,0.3c-0.2,0-0.5,0-0.8,0c0-0.4-0.1-1-0.3-1.5
			c0.2,0,0.4,0,0.5,0c0.1,0,0.2,0,0.3-0.1c0.2-0.1,0.2-0.4,0.2-0.9c0-0.7-0.1-1.6-0.8-2.6c0.2-0.9,0.5-2,0.7-3h-1v11.2h-1.4v-12.8
			h2.9l0.2-0.1l1.1,0.6c-0.2,0.7-0.4,1.4-0.6,2.2c1.6-0.8,3.1-2.2,3.9-3.5l1.6,0.6c-0.1,0.1-0.2,0.3-0.3,0.4c1.1,0.9,2.6,1.7,4,2.2
			c-0.2,0.4-0.5,1.2-0.6,1.6c-0.7-0.3-1.4-0.7-2-1.1v0.9h-4.2V321.9z M337.8,327.6c-0.1,0.3-0.2,0.6-0.3,0.8c0.5,0.3,1.1,0.7,1.4,1
			l-0.9,1.1c-0.2-0.3-0.7-0.7-1.1-1c-0.6,0.9-1.2,1.6-2,2.1c-0.2-0.3-0.8-0.8-1.1-1.1c1.3-0.7,2.2-1.9,2.6-3.4L337.8,327.6z
			 M335.2,323.5h3.4v3.6h-3.4V323.5z M336.4,326h1v-1.3h-1V326z M340.6,321.5c-0.6-0.4-1.2-0.8-1.7-1.3c-0.4,0.5-0.9,0.9-1.4,1.3
			H340.6z M341.8,327.4c-0.1,0.4-0.2,0.8-0.3,1.2c0.8,0.6,1.7,1.2,2.2,1.7l-1,1.1c-0.4-0.4-1.1-1-1.8-1.5c-0.4,0.7-1,1.3-1.6,1.8
			c-0.2-0.3-0.8-0.9-1.1-1.1c1.1-0.7,1.8-1.9,2.1-3.4L341.8,327.4z M339.3,323.5h3.5v3.6h-3.5V323.5z M340.5,326h1v-1.3h-1V326z"/>
		<path class="st19" d="M347.1,325c-0.5-0.4-1.6-1-2.4-1.4l0.9-1.3c0.7,0.3,1.9,0.9,2.4,1.2L347.1,325z M345.2,330.3
			c0.7-1.1,1.7-2.8,2.5-4.5l1.3,1.1c-0.7,1.5-1.5,3.1-2.3,4.5L345.2,330.3z M348,321.2c-0.5-0.4-1.7-1-2.4-1.5l0.9-1.2
			c0.8,0.4,1.9,0.9,2.5,1.3L348,321.2z M355.5,330c0.8,0,1-0.3,1.1-2c0.4,0.3,1.1,0.5,1.5,0.6c-0.2,2.1-0.7,2.8-2.5,2.8h-3.2
			c-2,0-2.6-0.5-2.6-2.5v-4l-1.1,0.4l-0.7-1.5l1.7-0.7v-3.4h1.6v2.7l1.4-0.6v-3.7h1.5v3.1l2-0.8l0,0h0l1.3,0.4l-0.1,0.3
			c-0.1,2-0.3,4.7-0.6,6.5l-1.4-0.4c0.2-1.2,0.3-3.1,0.3-4.9l-1.6,0.7v5.1h-1.5v-4.5l-1.4,0.6v4.6c0,0.9,0.1,1,1.1,1H355.5z"/>
	</g>
</g>
</svg>
