<?xml version="1.0" encoding="utf-8"?>
<!-- Generator: Adobe Illustrator 24.3.0, SVG Export Plug-In . SVG Version: 6.00 Build 0)  -->
<svg version="1.1" id="圖層_1" xmlns="http://www.w3.org/2000/svg" xmlns:xlink="http://www.w3.org/1999/xlink" x="0px" y="0px"
	 viewBox="0 0 243.3 242.9" style="enable-background:new 0 0 243.3 242.9;" xml:space="preserve">
<style type="text/css">
	.st0{fill:#00004F;}
	.st1{fill:#747ED1;}
	.st2{fill:#343F52;}
	.st3{fill:#E6E8F7;}
	.st4{fill:#CAB380;}
	.st5{fill:#FFFFFF;}
	.st6{enable-background:new    ;}
</style>
<g>
	<g>
		<g>
			<g>
				<g>
					<path class="st0" d="M121.9-158.6L76.4-271.2c14.9-6,29.4-8.8,45.5-8.8V-158.6z"/>
				</g>
			</g>
			<g>
				<g>
					<path class="st1" d="M121.9-158.6l-103-64.3c14.2-22.7,32.6-38.2,57.5-48.2L121.9-158.6z"/>
				</g>
			</g>
			<g>
				<g>
					<path class="st2" d="M121.9-158.6l-93,78.1c-34.5-41.1-38.4-96.9-10-142.4L121.9-158.6z"/>
				</g>
			</g>
			<g>
				<g>
					<path class="st3" d="M121.9-158.6l103,64.3C189.3-37.4,114.4-20.1,57.5-55.6c-11.4-7.1-20.1-14.6-28.7-24.9L121.9-158.6z"/>
				</g>
			</g>
			<g>
				<g>
					<path class="st4" d="M121.9-158.6V-280c67.1,0,121.4,54.4,121.4,121.4c0,24.1-5.7,43.9-18.5,64.3L121.9-158.6z"/>
				</g>
			</g>
		</g>
	</g>
	<circle class="st5" cx="124.5" cy="-157.5" r="63"/>
	<g>
		
			<text transform="matrix(1 0 0 1 104.6326 -171.7667)" class="st2" style="font-family:'TaipeiSansTCBeta-Light'; font-size:14.4393px;">總 額</text>
		<text transform="matrix(1 0 0 1 81.6429 -140.2755)" class="st2" style="font-family:'Ebrima-Bold'; font-size:33.0827px;">100%</text>
	</g>
	<text transform="matrix(1 0 0 1 181.5985 -195.6633)" class="st2" style="font-family:'Ebrima-Bold'; font-size:20.5073px;">34%</text>
	<text transform="matrix(1 0 0 1 113.0023 -63.8507)" class="st2" style="font-family:'Ebrima-Bold'; font-size:20.5073px;">30%</text>
	<text transform="matrix(1 0 0 1 15.0023 -142.8507)" class="st5" style="font-family:'Ebrima-Bold'; font-size:20.5073px;">20%</text>
	<text transform="matrix(1 0 0 1 45.0023 -218.8507)" class="st5" style="font-family:'Ebrima-Bold'; font-size:20.5073px;">10%</text>
	<text transform="matrix(1 0 0 1 91.0023 -241.8507)" class="st5" style="font-family:'Ebrima-Bold'; font-size:20.5073px;">6%</text>
</g>
<g>
	<g>
		<g>
			<g>
				<g>
					<path class="st0" d="M121.9,121.4L76.4,8.8c14.9-6,29.4-8.8,45.5-8.8V121.4z"/>
				</g>
			</g>
			<g>
				<g>
					<path class="st1" d="M121.9,121.4l-103-64.3C33.1,34.4,51.5,18.9,76.4,8.9L121.9,121.4z"/>
				</g>
			</g>
			<g>
				<g>
					<path class="st2" d="M121.9,121.4l-93,78.1c-34.5-41.1-38.4-96.9-10-142.4L121.9,121.4z"/>
				</g>
			</g>
			<g>
				<g>
					<path class="st3" d="M121.9,121.4l103,64.3c-35.6,56.9-110.5,74.2-167.4,38.7c-11.4-7.1-20.1-14.6-28.7-24.9L121.9,121.4z"/>
				</g>
			</g>
			<g>
				<g>
					<path class="st4" d="M121.9,121.4V0C189,0,243.3,54.4,243.3,121.4c0,24.1-5.7,43.9-18.5,64.3L121.9,121.4z"/>
				</g>
			</g>
		</g>
	</g>
	<circle class="st5" cx="124.5" cy="122.5" r="63"/>
	<g>
		<g class="st6">
			<path class="st2" d="M109.4,103l-1.3,0.1v6.2h-0.6v-6.1c-0.8,0-1.6,0.1-2.4,0.1l-0.1-0.6l1,0c0.2-0.2,0.5-0.7,1-1.4
				c-0.5-0.7-1.1-1.4-1.9-2.1l0.4-0.4c0.2,0.2,0.4,0.4,0.5,0.5c0.5-0.9,1-1.8,1.4-2.9l0.6,0.3c-0.6,1.2-1.1,2.2-1.6,3
				c0.4,0.4,0.7,0.8,0.9,1.1c0.6-0.9,1.1-1.8,1.6-2.8l0.6,0.3c-1.1,1.9-2.1,3.4-2.9,4.5l2.4-0.1c-0.1-0.3-0.4-0.8-0.7-1.4l0.6-0.2
				c0.6,1.1,1.1,2.1,1.3,2.9c0,0,0,0,0,0.1l-0.6,0.2C109.7,103.8,109.6,103.4,109.4,103z M106.1,104.3l0.6,0.1
				c-0.2,1.5-0.6,2.7-1,3.7c-0.1-0.1-0.3-0.2-0.6-0.3C105.6,107,105.9,105.9,106.1,104.3z M108.8,104.4l0.5-0.2
				c0.4,1,0.6,1.8,0.7,2.6l-0.6,0.2C109.4,106.2,109.2,105.3,108.8,104.4z M110.4,108.9l-0.6-0.3c0.7-0.6,1.1-1.6,1.3-3l0.6,0.1
				C111.4,107.3,111,108.3,110.4,108.9z M117.8,97.6v6.1h-6.9v-6.1h2.7c0.3-0.7,0.5-1.1,0.5-1.4l0.7,0.2c-0.2,0.4-0.4,0.8-0.6,1.2
				H117.8z M117.1,103.1v-4.9h-5.7v4.9H117.1z M116.5,102l-0.4,0.4c-0.4-0.3-0.7-0.6-1-0.8c-0.6,0.6-1.4,1.1-2.4,1.5
				c-0.1-0.2-0.2-0.3-0.4-0.4c0.8-0.3,1.6-0.7,2.3-1.4c-0.5-0.3-0.9-0.6-1.3-0.7c-0.3,0.4-0.7,0.7-1.1,0.9c-0.1-0.2-0.3-0.3-0.4-0.4
				c0.4-0.3,0.7-0.6,1-0.8c-0.3-0.2-0.6-0.3-0.9-0.4l0.4-0.4c0.2,0.1,0.5,0.2,0.8,0.4c0.4-0.5,0.7-1,0.9-1.4l0.6,0.1
				c-0.1,0.1-0.2,0.3-0.3,0.6h1.7l0.1,0l0.4,0.2c-0.2,0.7-0.6,1.3-1.1,1.9C115.8,101.4,116.1,101.7,116.5,102z M113.7,108.7h1.7
				c0.2,0,0.3-0.1,0.4-0.3c0.1-0.2,0.1-0.5,0.1-1.1c0.2,0.1,0.4,0.2,0.6,0.3c0,0.8-0.2,1.3-0.4,1.5c-0.2,0.1-0.4,0.2-0.6,0.2h-1.9
				c-0.6,0-0.9-0.1-1-0.3c-0.1-0.2-0.1-0.4-0.1-0.6v-3h0.6v3c0,0.2,0.1,0.3,0.2,0.3C113.4,108.7,113.5,108.7,113.7,108.7z
				 M112.7,104.2l0.4-0.4c1,0.5,1.7,1,2.3,1.6c0,0,0.1,0.1,0.1,0.1l-0.5,0.4c-0.5-0.5-1.2-1.1-2.2-1.6
				C112.8,104.3,112.8,104.2,112.7,104.2z M115.8,99.6H114c0,0-0.2,0.2-0.4,0.5c0.3,0.1,0.7,0.4,1.3,0.8
				C115.3,100.5,115.6,100,115.8,99.6z M116.3,105.6l0.5-0.3c0.8,1,1.3,1.9,1.6,2.9c0,0.1,0.1,0.2,0.1,0.3l-0.6,0.3
				c-0.2-0.9-0.7-1.8-1.4-2.8C116.5,105.8,116.4,105.7,116.3,105.6z"/>
			<path class="st2" d="M124.4,104.7h3.6v3.7h-3.5v0.7H124v-4.1c-0.4,0.2-0.7,0.4-0.9,0.5c-0.1-0.2-0.2-0.4-0.4-0.5
				c1.2-0.5,2.3-1.3,3.3-2.3c-0.5-0.4-1-0.8-1.6-1.2c-0.4,0.4-0.7,0.7-1.1,1c-0.2-0.2-0.4-0.3-0.5-0.4c1.1-0.8,1.9-1.8,2.5-3.1
				c0-0.1,0.1-0.2,0.1-0.3l0.6,0.1c0,0.1-0.2,0.4-0.5,1h2.2l0.1,0l0.4,0.2c-0.3,0.9-0.8,1.8-1.4,2.5c0.9,0.7,1.6,1.3,2.3,1.9
				l-0.4,0.5c-0.6-0.6-1.3-1.3-2.2-2C125.8,103.6,125.2,104.2,124.4,104.7z M123.8,98.2v1.3h-0.6v-1.9h2.5v-1.4h0.6v1.4h2.5v1.9
				h-0.6v-1.3H123.8z M127.4,105.2h-2.8v2.5h2.8V105.2z M127.4,100.4h-2.2c-0.1,0.2-0.3,0.4-0.5,0.6c0.8,0.5,1.3,0.9,1.6,1.2
				C126.8,101.6,127.2,101,127.4,100.4z M131,107.1l0.7,0.3c-0.7,0.7-1.6,1.3-2.7,1.8c-0.1,0-0.2,0.1-0.3,0.1
				c-0.2-0.2-0.3-0.4-0.5-0.5c1.1-0.4,1.9-0.9,2.6-1.5C130.9,107.2,131,107.2,131,107.1z M129.8,99.2h1.9c0.1-0.5,0.2-1,0.4-1.6
				h-2.9V97h6.6v0.6h-3c-0.1,0.5-0.3,1.1-0.5,1.6h3v7.4h-5.6V99.2z M134.8,101.5v-1.7h-4.3v1.7H134.8z M134.8,103.8v-1.7h-4.3v1.7
				H134.8z M134.8,106.1v-1.7h-4.3v1.7H134.8z M133.2,107.5l0.5-0.4c1.1,0.6,1.9,1.3,2.5,1.8l-0.6,0.4
				C135.1,108.8,134.3,108.2,133.2,107.5C133.2,107.5,133.2,107.5,133.2,107.5z"/>
		</g>
		<g class="st6">
			<path class="st2" d="M95.1,116.1v23.7H90v-17.9c-0.3,0.2-0.6,0.5-1,0.7s-0.8,0.4-1.2,0.6s-0.9,0.3-1.3,0.5
				c-0.5,0.1-0.9,0.2-1.4,0.3v-4.3c1.3-0.4,2.6-0.9,3.7-1.5c1.2-0.6,2.2-1.3,3.2-2H95.1z"/>
			<path class="st2" d="M110.1,140.2c-5.5,0-8.3-3.9-8.3-11.6c0-4,0.7-7.1,2.2-9.2c1.5-2.1,3.7-3.2,6.5-3.2c5.4,0,8.1,3.9,8.1,11.8
				c0,3.9-0.7,6.9-2.2,9C114.9,139.1,112.8,140.2,110.1,140.2z M110.3,120.1c-2.2,0-3.3,2.8-3.3,8.3c0,5.2,1.1,7.8,3.2,7.8
				c2.1,0,3.2-2.7,3.2-8.1S112.4,120.1,110.3,120.1z"/>
			<path class="st2" d="M129.1,140.2c-5.5,0-8.3-3.9-8.3-11.6c0-4,0.7-7.1,2.2-9.2c1.5-2.1,3.7-3.2,6.5-3.2c5.4,0,8.1,3.9,8.1,11.8
				c0,3.9-0.7,6.9-2.2,9C133.9,139.1,131.8,140.2,129.1,140.2z M129.3,120.1c-2.2,0-3.3,2.8-3.3,8.3c0,5.2,1.1,7.8,3.2,7.8
				c2.1,0,3.2-2.7,3.2-8.1S131.4,120.1,129.3,120.1z"/>
			<path class="st2" d="M145.7,128.3c-1.6,0-3-0.5-4-1.6s-1.5-2.5-1.5-4.2c0-1.9,0.5-3.5,1.6-4.6s2.5-1.7,4.3-1.7
				c1.7,0,3.1,0.5,4,1.5c1,1,1.4,2.5,1.4,4.3c0,1.9-0.5,3.4-1.6,4.5C148.9,127.8,147.4,128.3,145.7,128.3z M162.6,116.6l-15.1,23.2
				h-3.9l15.1-23.2H162.6z M146,119.1c-1.6,0-2.4,1.1-2.4,3.3c0,2.1,0.7,3.1,2.2,3.1c1.5,0,2.3-1.1,2.3-3.2
				C148.2,120.2,147.4,119.1,146,119.1z M160.1,140.1c-1.6,0-3-0.5-4-1.6c-1-1-1.5-2.4-1.5-4.2c0-1.9,0.5-3.5,1.6-4.6
				c1.1-1.1,2.5-1.7,4.3-1.7c1.7,0,3.1,0.5,4,1.5c1,1,1.4,2.4,1.4,4.3c0,1.9-0.5,3.4-1.6,4.6S161.9,140.1,160.1,140.1z M160.3,130.9
				c-1.6,0-2.3,1.1-2.3,3.3c0,2.1,0.8,3.1,2.3,3.1c1.5,0,2.3-1.1,2.3-3.2c0-1-0.2-1.8-0.6-2.3C161.6,131.1,161,130.9,160.3,130.9z"
				/>
		</g>
	</g>
	<g class="st6">
		<path class="st2" d="M182.8,83.9v-2.8c1,0.7,2.1,1.1,3.4,1.1c0.8,0,1.4-0.2,1.9-0.5c0.5-0.3,0.7-0.8,0.7-1.5
			c0-0.6-0.3-1.1-0.8-1.5c-0.6-0.3-1.3-0.5-2.3-0.5h-1.3v-2.4h1.2c1.9,0,2.8-0.6,2.8-1.9c0-1.2-0.7-1.8-2.2-1.8
			c-1,0-1.9,0.3-2.8,0.9v-2.6c1-0.5,2.2-0.8,3.5-0.8c1.5,0,2.6,0.3,3.4,1c0.8,0.7,1.2,1.5,1.2,2.6c0,1.9-1,3.1-2.9,3.5v0
			c1,0.1,1.8,0.5,2.4,1.1c0.6,0.6,0.9,1.4,0.9,2.2c0,1.3-0.5,2.4-1.5,3.2c-1,0.8-2.3,1.2-4.1,1.2C184.9,84.6,183.7,84.4,182.8,83.9z
			"/>
		<path class="st2" d="M202.9,70v9.1h1.7v2.4h-1.7v2.9H200v-2.9h-6.3V79c0.6-0.6,1.1-1.3,1.7-2c0.6-0.7,1.2-1.5,1.7-2.3
			c0.6-0.8,1.1-1.6,1.5-2.4c0.5-0.8,0.9-1.5,1.2-2.3H202.9z M196.6,79.1h3.4v-5c-0.2,0.4-0.5,0.9-0.8,1.3c-0.3,0.4-0.6,0.9-0.9,1.3
			c-0.3,0.4-0.6,0.8-0.9,1.3C197.2,78.3,196.9,78.7,196.6,79.1z"/>
		<path class="st2" d="M209.5,77.3c-1,0-1.8-0.3-2.5-1s-0.9-1.5-0.9-2.6c0-1.2,0.3-2.1,1-2.8s1.5-1.1,2.7-1.1c1.1,0,1.9,0.3,2.5,1
			c0.6,0.6,0.9,1.5,0.9,2.7c0,1.2-0.3,2.1-1,2.8S210.6,77.3,209.5,77.3z M220,70l-9.4,14.4h-2.4l9.3-14.4H220z M209.7,71.6
			c-1,0-1.5,0.7-1.5,2c0,1.3,0.5,1.9,1.4,1.9c0.9,0,1.4-0.7,1.4-2C211,72.2,210.6,71.6,209.7,71.6z M218.4,84.6c-1,0-1.8-0.3-2.5-1
			c-0.6-0.6-0.9-1.5-0.9-2.6c0-1.2,0.3-2.1,1-2.8s1.6-1.1,2.7-1.1c1.1,0,1.9,0.3,2.5,0.9c0.6,0.6,0.9,1.5,0.9,2.7
			c0,1.2-0.3,2.1-1,2.8C220.4,84.2,219.5,84.6,218.4,84.6z M218.6,78.9c-1,0-1.5,0.7-1.5,2c0,1.3,0.5,1.9,1.4,1.9
			c0.9,0,1.4-0.7,1.4-2c0-0.6-0.1-1.1-0.4-1.4C219.3,79,219,78.9,218.6,78.9z"/>
	</g>
	<g class="st6">
		<path class="st2" d="M114.2,215.7V213c1,0.7,2.1,1.1,3.4,1.1c0.8,0,1.4-0.2,1.9-0.5c0.5-0.3,0.7-0.8,0.7-1.5
			c0-0.6-0.3-1.1-0.8-1.5c-0.6-0.3-1.3-0.5-2.3-0.5h-1.3v-2.4h1.2c1.9,0,2.8-0.6,2.8-1.9c0-1.2-0.7-1.8-2.2-1.8
			c-1,0-1.9,0.3-2.8,0.9v-2.6c1-0.5,2.2-0.8,3.5-0.8c1.5,0,2.6,0.3,3.4,1c0.8,0.7,1.2,1.5,1.2,2.6c0,1.9-1,3.1-2.9,3.5v0
			c1,0.1,1.8,0.5,2.4,1.1c0.6,0.6,0.9,1.4,0.9,2.2c0,1.3-0.5,2.4-1.5,3.2c-1,0.8-2.3,1.2-4.1,1.2
			C116.3,216.4,115.1,216.2,114.2,215.7z"/>
		<path class="st2" d="M130.6,216.4c-3.4,0-5.1-2.4-5.1-7.2c0-2.5,0.5-4.4,1.4-5.7c0.9-1.3,2.3-2,4-2c3.3,0,5,2.4,5,7.3
			c0,2.4-0.5,4.3-1.4,5.6S132.3,216.4,130.6,216.4z M130.8,204c-1.4,0-2.1,1.7-2.1,5.2c0,3.2,0.7,4.9,2,4.9c1.3,0,2-1.7,2-5
			S132,204,130.8,204z"/>
		<path class="st2" d="M140.9,209.1c-1,0-1.8-0.3-2.5-1s-0.9-1.5-0.9-2.6c0-1.2,0.3-2.1,1-2.8s1.6-1.1,2.7-1.1c1.1,0,1.9,0.3,2.5,1
			c0.6,0.6,0.9,1.5,0.9,2.7c0,1.2-0.3,2.1-1,2.8C142.9,208.8,142,209.1,140.9,209.1z M151.4,201.8l-9.4,14.4h-2.4l9.3-14.4H151.4z
			 M141.1,203.4c-1,0-1.5,0.7-1.5,2c0,1.3,0.5,1.9,1.4,1.9c0.9,0,1.4-0.7,1.4-2C142.4,204,142,203.4,141.1,203.4z M149.8,216.4
			c-1,0-1.8-0.3-2.5-1c-0.6-0.6-0.9-1.5-0.9-2.6c0-1.2,0.3-2.1,1-2.8s1.5-1.1,2.7-1.1c1.1,0,1.9,0.3,2.5,0.9
			c0.6,0.6,0.9,1.5,0.9,2.7c0,1.2-0.3,2.1-1,2.8C151.8,216,150.9,216.4,149.8,216.4z M150,210.7c-1,0-1.5,0.7-1.5,2
			c0,1.3,0.5,1.9,1.4,1.9c0.9,0,1.4-0.7,1.4-2c0-0.6-0.1-1.1-0.4-1.4C150.7,210.8,150.4,210.7,150,210.7z"/>
	</g>
	<g class="st6">
		<path class="st5" d="M19.3,134.6h6.1v2.6h-9.6v-1.1c0-0.7,0.1-1.4,0.4-2c0.2-0.6,0.6-1.1,0.9-1.6s0.8-0.9,1.2-1.2
			c0.4-0.4,0.9-0.7,1.3-1c0.4-0.3,0.8-0.6,1.1-0.9c0.3-0.3,0.6-0.5,0.8-0.8c0.2-0.3,0.4-0.5,0.5-0.8c0.1-0.3,0.2-0.6,0.2-0.9
			c0-0.6-0.2-1.1-0.5-1.4s-0.9-0.5-1.6-0.5c-1.2,0-2.4,0.5-3.5,1.5v-2.8c1.2-0.8,2.7-1.2,4.2-1.2c0.7,0,1.4,0.1,2,0.3
			c0.6,0.2,1.1,0.5,1.5,0.8c0.4,0.4,0.7,0.8,0.9,1.3s0.3,1.1,0.3,1.7c0,0.7-0.1,1.2-0.3,1.8c-0.2,0.5-0.5,1-0.8,1.4
			c-0.3,0.4-0.7,0.8-1.2,1.2c-0.4,0.4-0.9,0.7-1.4,1c-0.3,0.2-0.6,0.5-0.9,0.7s-0.6,0.4-0.8,0.7c-0.2,0.2-0.4,0.4-0.5,0.6
			C19.4,134.2,19.3,134.4,19.3,134.6z"/>
		<path class="st5" d="M32.6,137.4c-3.4,0-5.1-2.4-5.1-7.2c0-2.5,0.5-4.4,1.4-5.7c0.9-1.3,2.3-2,4-2c3.3,0,5,2.4,5,7.3
			c0,2.4-0.5,4.3-1.4,5.6S34.3,137.4,32.6,137.4z M32.8,125c-1.4,0-2.1,1.7-2.1,5.2c0,3.2,0.7,4.9,2,4.9c1.3,0,2-1.7,2-5
			S34,125,32.8,125z"/>
		<path class="st5" d="M42.9,130.1c-1,0-1.8-0.3-2.5-1s-0.9-1.5-0.9-2.6c0-1.2,0.3-2.1,1-2.8s1.6-1.1,2.7-1.1c1.1,0,1.9,0.3,2.5,1
			c0.6,0.6,0.9,1.5,0.9,2.7c0,1.2-0.3,2.1-1,2.8C44.9,129.8,44,130.1,42.9,130.1z M53.4,122.8L44,137.2h-2.4l9.3-14.4H53.4z
			 M43.1,124.4c-1,0-1.5,0.7-1.5,2c0,1.3,0.5,1.9,1.4,1.9c0.9,0,1.4-0.7,1.4-2C44.4,125,44,124.4,43.1,124.4z M51.8,137.4
			c-1,0-1.8-0.3-2.5-1c-0.6-0.6-0.9-1.5-0.9-2.6c0-1.2,0.3-2.1,1-2.8s1.6-1.1,2.7-1.1c1.1,0,1.9,0.3,2.5,0.9
			c0.6,0.6,0.9,1.5,0.9,2.7c0,1.2-0.3,2.1-1,2.8C53.8,137,52.9,137.4,51.8,137.4z M52,131.7c-1,0-1.5,0.7-1.5,2
			c0,1.3,0.5,1.9,1.4,1.9c0.9,0,1.4-0.7,1.4-2c0-0.6-0.1-1.1-0.4-1.4C52.7,131.8,52.4,131.7,52,131.7z"/>
	</g>
	<g class="st6">
		<path class="st5" d="M53.3,46.5v14.7h-3.2V50.1c-0.2,0.2-0.4,0.3-0.6,0.4c-0.2,0.1-0.5,0.3-0.8,0.4c-0.3,0.1-0.5,0.2-0.8,0.3
			c-0.3,0.1-0.6,0.1-0.9,0.2v-2.7c0.8-0.2,1.6-0.5,2.3-0.9c0.7-0.4,1.4-0.8,2-1.2H53.3z"/>
		<path class="st5" d="M62.6,61.4c-3.4,0-5.1-2.4-5.1-7.2c0-2.5,0.5-4.4,1.4-5.7c0.9-1.3,2.3-2,4-2c3.3,0,5,2.4,5,7.3
			c0,2.4-0.5,4.3-1.4,5.6S64.3,61.4,62.6,61.4z M62.8,49c-1.4,0-2.1,1.7-2.1,5.2c0,3.2,0.7,4.9,2,4.9c1.3,0,2-1.7,2-5S64,49,62.8,49
			z"/>
		<path class="st5" d="M72.9,54.1c-1,0-1.8-0.3-2.5-1s-0.9-1.5-0.9-2.6c0-1.2,0.3-2.1,1-2.8s1.6-1.1,2.7-1.1c1.1,0,1.9,0.3,2.5,1
			c0.6,0.6,0.9,1.5,0.9,2.7c0,1.2-0.3,2.1-1,2.8C74.9,53.8,74,54.1,72.9,54.1z M83.4,46.8L74,61.2h-2.4l9.3-14.4H83.4z M73.1,48.4
			c-1,0-1.5,0.7-1.5,2c0,1.3,0.5,1.9,1.4,1.9c0.9,0,1.4-0.7,1.4-2C74.4,49,74,48.4,73.1,48.4z M81.8,61.4c-1,0-1.8-0.3-2.5-1
			c-0.6-0.6-0.9-1.5-0.9-2.6c0-1.2,0.3-2.1,1-2.8s1.6-1.1,2.7-1.1c1.1,0,1.9,0.3,2.5,0.9c0.6,0.6,0.9,1.5,0.9,2.7
			c0,1.2-0.3,2.1-1,2.8C83.8,61,82.9,61.4,81.8,61.4z M82,55.7c-1,0-1.5,0.7-1.5,2c0,1.3,0.5,1.9,1.4,1.9c0.9,0,1.4-0.7,1.4-2
			c0-0.6-0.1-1.1-0.4-1.4C82.7,55.8,82.4,55.7,82,55.7z"/>
	</g>
	<g class="st6">
		<path class="st5" d="M102.1,33.4c0,0.7-0.1,1.4-0.4,2s-0.6,1.1-1,1.6c-0.4,0.5-1,0.8-1.6,1.1s-1.3,0.4-2,0.4
			c-0.8,0-1.5-0.1-2.2-0.5c-0.6-0.3-1.2-0.7-1.6-1.3c-0.4-0.6-0.8-1.3-1-2.1c-0.2-0.8-0.4-1.8-0.4-2.8c0-1.2,0.2-2.4,0.5-3.4
			c0.3-1,0.7-1.9,1.3-2.6c0.6-0.7,1.2-1.3,2-1.7c0.8-0.4,1.7-0.6,2.7-0.6c1.1,0,2,0.1,2.6,0.4v2.6c-0.7-0.4-1.5-0.6-2.4-0.6
			c-0.5,0-1,0.1-1.5,0.3s-0.8,0.5-1.1,0.9c-0.3,0.4-0.6,0.8-0.7,1.4c-0.2,0.5-0.3,1.1-0.3,1.8h0.1c0.7-0.9,1.7-1.4,3-1.4
			c0.6,0,1.1,0.1,1.6,0.3c0.5,0.2,0.9,0.5,1.2,0.9s0.6,0.9,0.8,1.4C102,32.1,102.1,32.7,102.1,33.4z M99,33.6c0-1.5-0.6-2.3-1.9-2.3
			c-0.3,0-0.5,0.1-0.8,0.2c-0.2,0.1-0.4,0.3-0.6,0.5c-0.2,0.2-0.3,0.4-0.4,0.7c-0.1,0.3-0.1,0.6-0.1,0.9c0,0.4,0,0.7,0.1,1
			c0.1,0.3,0.2,0.6,0.4,0.8c0.2,0.2,0.4,0.4,0.6,0.5c0.2,0.1,0.5,0.2,0.8,0.2s0.5-0.1,0.8-0.2c0.2-0.1,0.4-0.3,0.6-0.5
			s0.3-0.5,0.4-0.8C99,34.3,99,34,99,33.6z"/>
		<path class="st5" d="M107.1,31.1c-1,0-1.8-0.3-2.5-1s-0.9-1.5-0.9-2.6c0-1.2,0.3-2.1,1-2.8s1.6-1.1,2.7-1.1c1.1,0,1.9,0.3,2.5,1
			c0.6,0.6,0.9,1.5,0.9,2.7c0,1.2-0.3,2.1-1,2.8C109.1,30.8,108.2,31.1,107.1,31.1z M117.6,23.8l-9.4,14.4h-2.4l9.3-14.4H117.6z
			 M107.3,25.4c-1,0-1.5,0.7-1.5,2c0,1.3,0.5,1.9,1.4,1.9c0.9,0,1.4-0.7,1.4-2C108.6,26,108.2,25.4,107.3,25.4z M116,38.4
			c-1,0-1.8-0.3-2.5-1c-0.6-0.6-0.9-1.5-0.9-2.6c0-1.2,0.3-2.1,1-2.8s1.6-1.1,2.7-1.1c1.1,0,1.9,0.3,2.5,0.9
			c0.6,0.6,0.9,1.5,0.9,2.7c0,1.2-0.3,2.1-1,2.8C118,38,117.1,38.4,116,38.4z M116.2,32.7c-1,0-1.5,0.7-1.5,2c0,1.3,0.5,1.9,1.4,1.9
			c0.9,0,1.4-0.7,1.4-2c0-0.6-0.1-1.1-0.4-1.4C116.9,32.8,116.6,32.7,116.2,32.7z"/>
	</g>
</g>
</svg>
