<?xml version="1.0" encoding="utf-8"?>
<!-- Generator: Adobe Illustrator 24.0.3, SVG Export Plug-In . SVG Version: 6.00 Build 0)  -->
<svg version="1.1" id="圖層_1" xmlns="http://www.w3.org/2000/svg" xmlns:xlink="http://www.w3.org/1999/xlink" x="0px" y="0px"
	 viewBox="0 0 1600 733.9" style="enable-background:new 0 0 1600 733.9;" xml:space="preserve">
<style type="text/css">
	.st0{fill:#FFFFFF;}
	.st1{enable-background:new    ;}
	.st2{fill:#3E3E3E;}
	.st3{fill:#A0A0A0;}
	.st4{fill:#231815;}
	.st5{fill:none;stroke:#B4B4B4;stroke-miterlimit:10;}
	.st6{fill:none;stroke:#DCDCDC;stroke-width:0.5;stroke-miterlimit:10;}
	.st7{fill:#CAB380;}
	.st8{fill:#1E3684;}
</style>
<g>
	
		<image style="overflow:visible;opacity:0.25;" width="1526" height="704" xlink:href="CD3A03953C4097E2.png"  transform="matrix(1 0 0 1 37 13.9)">
	</image>
	<g>
		<path class="st0" d="M1508.2,696H91.8c-18.2,0-32.9-14.7-32.9-32.9V68.2c0-18.2,14.7-32.9,32.9-32.9h1416.4
			c18.2,0,32.9,14.7,32.9,32.9V663C1541.1,681.3,1526.4,696,1508.2,696z"/>
	</g>
</g>
<g class="st1">
	<path class="st2" d="M128,160.3h6.2c7.3,0,11.5,4,11.5,11.8c0,7.7-4.2,12-11.3,12H128V160.3z M133.9,180.9c5.1,0,7.8-3,7.8-8.9
		s-2.7-8.7-7.8-8.7h-2.2V181h2.2V180.9z"/>
	<path class="st2" d="M148.9,175.2c0-5.8,3.9-9.4,8.1-9.4c4.7,0,7.2,3.4,7.2,8.4c0,0.7-0.1,1.5-0.2,1.9h-11.5
		c0.3,3.4,2.4,5.4,5.5,5.4c1.6,0,2.9-0.5,4.2-1.3l1.3,2.4c-1.6,1.1-3.7,1.9-6,1.9C152.8,184.4,148.9,181,148.9,175.2z M161.1,173.6
		c0-3.1-1.4-4.8-4-4.8c-2.2,0-4.2,1.7-4.6,4.8H161.1z"/>
	<path class="st2" d="M168.9,164c0-3.6,1.6-6.2,5.6-6.2c1.2,0,2.3,0.3,3.1,0.6l-0.7,2.8c-0.6-0.3-1.3-0.5-1.9-0.5
		c-1.6,0-2.4,1-2.4,3.2v2.3h3.6v3h-3.6V184h-3.7v-14.8h-2.4v-2.8l2.4-0.2L168.9,164L168.9,164z M179.6,160.7c0-1.3,1-2.2,2.4-2.2
		s2.4,0.9,2.4,2.2s-1,2.2-2.4,2.2S179.6,162,179.6,160.7z M180.1,166.3h3.7V184h-3.7V166.3z"/>
	<path class="st2" d="M201.1,171.8c-1.2-1.2-3.8-2.6-5.9-3.5l1.6-2.3c2.1,0.8,4.7,2.2,6,3.3L201.1,171.8z M204.2,175.9
		c-1.7,3.4-3.8,7.2-5.8,10.3l-2.5-2c1.7-2.5,4.2-6.6,6.1-10.2L204.2,175.9z M202.1,163.5c-1.1-1.2-3.5-2.9-5.5-3.9l1.7-2.2
		c2,1,4.5,2.5,5.6,3.7L202.1,163.5z M207,172.2h2.7v3.3c0,3.5-0.5,7.8-4.6,11c-0.5-0.6-1.5-1.6-2.1-2c3.6-2.7,4-6.3,4-9.1L207,172.2
		L207,172.2z M222.2,172.2c-0.4-0.6-0.9-1.4-1.5-2.2c-12.6,0.8-14.1,1-15.1,1.4c-0.2-0.6-0.6-2-1-2.8c0.7-0.2,1.5-0.9,2.4-2
		c0.5-0.5,1.3-1.5,2.2-2.8h-4.8V161h6.7c0.8-1.3,1.6-2.7,2.3-4l2.9,1.2c-0.5,1-1.2,1.9-1.7,2.9h9.8v2.7h-11.7
		c-1.2,1.6-2.4,3.1-3.6,4.5l9.8-0.6c-0.7-0.8-1.4-1.7-2-2.5l2.3-1.3c1.8,2.1,4.3,5.1,5.5,6.8L222.2,172.2z M212.5,172.4h2.6v12.7
		h-2.6V172.4z M223,183.5c0.4,0,1.1-0.1,1.5-0.2c0,0.7,0.1,1.7,0.2,2.3c-0.4,0.2-1.1,0.2-1.6,0.2h-1.9c-2.5,0-3-1.1-3-3.6v-10h2.8
		v10.1c0,0.9,0.1,1.3,0.5,1.3h1.5V183.5z"/>
	<path class="st2" d="M256.4,164.3c0,0,0,1,0,1.4c-0.4,13.3-0.6,17.9-1.7,19.3c-0.6,1-1.3,1.2-2.3,1.4c-1,0.1-2.5,0.1-4,0
		c-0.1-0.8-0.4-2-0.8-2.8c1.5,0.1,2.8,0.1,3.4,0.1c0.5,0,0.8-0.1,1.2-0.5c0.7-0.9,1-5,1.3-16.1h-3.8c-0.4,8.6-1.9,15.4-7.4,19.7
		c-0.5-0.7-1.5-1.7-2.2-2.2c0.2-0.1,0.4-0.3,0.6-0.5c-4.6,0.5-9.3,1-12.7,1.4l-0.4-2.5c1.9-0.1,4.2-0.3,6.7-0.5V180h-5.9v-2.2h5.9
		V176h-5.8v-9.7h5.8v-1.7h-6.6v-2.2h6.6v-1.8c-2,0.2-3.9,0.3-5.7,0.3c-0.1-0.6-0.4-1.6-0.7-2.2c4.8-0.3,10.5-0.8,13.8-1.6l1.4,2.3
		c-1.7,0.4-3.8,0.7-6.1,0.9v2.1h6.5v1.9h3.4c0-2.2,0-4.5,0-6.9h2.9c0,2.4,0,4.7-0.1,6.9H256.4z M230.9,170.3h3.3v-2h-3.3V170.3z
		 M234.2,174.1v-2h-3.3v2H234.2z M237,182.1c2-0.2,4.1-0.4,6.1-0.6c2.6-3.6,3.5-8.5,3.7-14.4h-3.4v-2.4H237v1.7h6v9.7h-6v1.6h6.1
		v2.2H237V182.1z M240.4,170.3v-2H237v2H240.4z M237,172.1v2h3.5v-2H237z"/>
	<path class="st2" d="M259.3,171.4c0.8-2.2,1.4-5.7,1.6-8.3l2.2,0.3c-0.2,2.6-0.7,6.4-1.5,8.8L259.3,171.4z M289.1,182.6v2.8h-19.8
		v-2.8h9v-7.3h-6.6v-2.8h6.6v-6.1H274c-0.6,1.8-1.3,3.5-2.1,4.8c-0.6-0.4-1.9-1.1-2.7-1.4c0.4-0.6,0.8-1.4,1.2-2.2l-1.8,0.9
		c-0.3-1.3-1.1-3.4-1.9-5.1v23.1h-3v-29.6h3v6l1.9-0.8c0.8,1.5,1.7,3.5,2.1,4.8c1-2.5,1.7-5.6,2.1-8.6l2.9,0.5
		c-0.2,1.6-0.6,3.2-1,4.7h3.4V157h3v6.5h7v2.8h-7v6.1h6.3v2.8h-6.3v7.3h8V182.6z"/>
	<path class="st2" d="M301.9,167.7v1.7h12.8v2h-12.8v1.7h12.8v2.1h-12.8v1.8h19v2.5h-7.3c1.9,1.7,4.3,4,5.5,5.6l-2.7,1.5
		c-0.4-0.5-1-1.2-1.6-1.9c-15.7,0.8-17.6,0.8-18.8,1.2l0,0v-0.1c-0.2-0.6-0.6-1.9-0.9-2.6c0.6-0.1,1.3-0.5,2-1
		c0.5-0.3,1.8-1.3,3.1-2.5h-7.5v-2.5h6V168c-1.5,1.1-3.2,2.1-5.1,2.9c-0.4-0.6-1.2-1.7-1.9-2.2c3.8-1.6,6.8-3.8,9-6.2h-8V160h10
		c0.7-1,1.3-2,1.7-3l3.1,0.5c-0.4,0.8-0.8,1.6-1.4,2.4h14.5v2.5h-8c2.5,2.4,5.9,4.6,9,5.8c-0.6,0.6-1.5,1.6-2,2.3
		c-1.7-0.8-3.6-2-5.3-3.3v0.5H301.9z M312.7,182.5c-0.6-0.6-1.3-1.3-1.9-1.9l1.9-1h-8.5c-1.3,1.2-2.7,2.4-4.1,3.4L312.7,182.5z
		 M304.5,162.5c-0.8,1-1.7,2-2.7,2.9h10.5c-1-0.9-2-1.9-2.8-2.9H304.5z"/>
	<path class="st2" d="M334.2,166.5h6.3v2.8h-6.3v1c1.6,1.4,5,4.7,5.9,5.6l-1.7,2.5c-0.9-1.1-2.7-3.1-4.2-4.7v12.9h-3v-12.8
		c-1.6,3.4-3.5,6.6-5.6,8.6c-0.3-0.9-1.1-2.1-1.6-2.9c2.5-2.3,5.1-6.4,6.6-10.1h-5.9v-2.8h6.5v-4.8c-2,0.4-3.9,0.7-5.8,0.9
		c-0.2-0.7-0.6-1.7-0.9-2.3c4.7-0.7,10.1-1.8,13.1-3.2l2.2,2.3c-1.6,0.6-3.5,1.2-5.6,1.7V166.5z M345.6,178.5h-3v-17.8h3V178.5z
		 M352.4,157.4v25.3c0,1.9-0.5,2.8-1.6,3.3c-1.2,0.5-3.1,0.6-6,0.6c-0.1-0.8-0.6-2.3-1.1-3.1c2.2,0.1,4.2,0.1,4.8,0.1
		c0.6,0,0.8-0.2,0.8-0.8v-25.3h3.1V157.4z"/>
	<path class="st2" d="M234.5,255.1c-1.2,2.4-3,4.9-4.8,6.5c-0.5-0.5-1.7-1.4-2.4-1.8c1.7-1.4,3.4-3.5,4.3-5.5L234.5,255.1z
		 M243.2,253.8h-15.7v-2.6h3v-12.6h-2.6V236h2.6v-3.7h2.7v3.7h5v-3.7h2.8v3.7h2.3v2.6H241v12.6h2.2V253.8z M233.2,238.6v2.4h5v-2.4
		H233.2z M233.2,246.1h5v-2.7h-5V246.1z M233.2,251.2h5v-2.8h-5V251.2z M238.6,254.2c1.3,1.5,2.8,3.4,3.5,4.7l-2.4,1.5
		c-0.6-1.3-2.1-3.4-3.4-4.9L238.6,254.2z M256,258c0,1.6-0.4,2.5-1.4,2.9c-1,0.5-2.5,0.6-4.9,0.5c-0.1-0.8-0.5-2.1-0.9-2.8
		c1.5,0.1,3.1,0,3.5,0c0.5,0,0.7-0.2,0.7-0.7v-7.2h-5.9c-0.4,3.8-1.1,7.9-3,10.9c-0.5-0.5-1.7-1.4-2.4-1.7
		c2.5-4.2,2.8-10.3,2.8-14.9v-11.6H256V258z M253.1,248.1v-4.7h-5.7v1.7c0,0.9,0,2-0.1,3H253.1z M247.5,236.2v4.5h5.7v-4.5H247.5z"
		/>
	<path class="st2" d="M271.3,234.3c-0.9,2.6-2,5.8-3,8.3c2.1,2.6,2.6,4.9,2.6,6.9c0,1.9-0.4,3.2-1.3,3.9c-0.5,0.4-1,0.5-1.7,0.6
		c-0.6,0.1-1.4,0.1-2.1,0.1c0-0.7-0.3-1.9-0.7-2.6c0.7,0,1.2,0.1,1.7,0c0.4,0,0.7-0.1,0.9-0.3c0.5-0.4,0.6-1.2,0.6-2.1
		c0-1.6-0.5-3.8-2.6-6.2c0.8-2.1,1.6-4.8,2.2-7h-4v25.5h-2.6v-28.2h7.6l0.4-0.1L271.3,234.3z M288.8,250.5c-1.5,1.3-3.5,2.5-5.1,3.5
		c1.5,2.1,3.4,3.8,5.8,4.8c-0.6,0.6-1.6,1.8-2,2.5c-4.9-2.5-7.7-7.4-9.3-13.7h-2.6v9.9l5.2-1.2c0,0.8,0,2,0.2,2.7
		c-6.5,1.7-7.6,2.1-8.2,2.5c-0.2-0.7-0.9-1.9-1.3-2.4c0.5-0.3,1.3-1.1,1.3-2.5v-23.4h14.3v14.3H281c0.5,1.5,1,2.9,1.6,4.3
		c1.5-1.1,3.3-2.4,4.4-3.5L288.8,250.5z M275.6,235.9v3.3h8.5v-3.3H275.6z M275.6,245h8.5v-3.4h-8.5V245z"/>
	<path class="st2" d="M301.9,242.7v1.7h12.8v2h-12.8v1.7h12.8v2.1h-12.8v1.8h19v2.5h-7.3c1.9,1.7,4.3,4,5.5,5.6l-2.7,1.5
		c-0.4-0.5-1-1.2-1.6-1.9c-15.7,0.8-17.6,0.8-18.8,1.2l0,0v-0.1c-0.2-0.6-0.6-1.9-0.9-2.6c0.6-0.1,1.3-0.5,2-1
		c0.5-0.3,1.8-1.3,3.1-2.5h-7.5v-2.5h6V243c-1.5,1.1-3.2,2.1-5.1,2.9c-0.4-0.6-1.2-1.7-1.9-2.2c3.8-1.6,6.8-3.8,9-6.2h-8V235h10
		c0.7-1,1.3-2,1.7-3l3.1,0.5c-0.4,0.8-0.8,1.6-1.4,2.4h14.5v2.5h-8c2.5,2.4,5.9,4.6,9,5.8c-0.6,0.6-1.5,1.6-2,2.3
		c-1.7-0.8-3.6-2-5.3-3.3v0.5L301.9,242.7L301.9,242.7z M312.7,257.5c-0.6-0.6-1.3-1.3-1.9-1.9l1.9-1h-8.5c-1.3,1.2-2.7,2.4-4.1,3.4
		L312.7,257.5z M304.5,237.5c-0.8,1-1.7,2-2.7,2.9h10.5c-1-0.9-2-1.9-2.8-2.9H304.5z"/>
	<path class="st2" d="M334.2,241.5h6.3v2.8h-6.3v1c1.6,1.4,5,4.7,5.9,5.6l-1.7,2.5c-0.9-1.1-2.7-3.1-4.2-4.7v12.9h-3v-12.8
		c-1.6,3.4-3.5,6.6-5.6,8.6c-0.3-0.9-1.1-2.1-1.6-2.9c2.5-2.3,5.1-6.4,6.6-10.1h-5.9v-2.8h6.5v-4.8c-2,0.4-3.9,0.7-5.8,0.9
		c-0.2-0.7-0.6-1.7-0.9-2.3c4.7-0.7,10.1-1.8,13.1-3.2l2.2,2.3c-1.6,0.6-3.5,1.2-5.6,1.7V241.5z M345.6,253.5h-3v-17.8h3V253.5z
		 M352.4,232.4v25.3c0,1.9-0.5,2.8-1.6,3.3c-1.2,0.5-3.1,0.6-6,0.6c-0.1-0.8-0.6-2.3-1.1-3.1c2.2,0.1,4.2,0.1,4.8,0.1
		c0.6,0,0.8-0.2,0.8-0.8v-25.3L352.4,232.4L352.4,232.4z"/>
	<path class="st2" d="M205.4,307.9c-0.9,2.3-2,4.6-3.3,6.7v21.8h-2.9V319c-0.9,1.2-1.9,2.4-2.8,3.4c-0.3-0.7-1.1-2.3-1.7-3
		c3.1-3,6.1-7.6,7.9-12.4L205.4,307.9z M211.1,327.2c-1.4,2.7-3.5,5.8-5.2,7.9c-0.5-0.5-1.6-1.3-2.3-1.7c1.7-1.8,3.6-4.6,4.8-7
		L211.1,327.2z M215.9,325.1v11.5h-3v-11.5H204v-2.7h8.9V319h-6.6v-10.5H223V319h-7v3.4h8.8v2.7H215.9z M209.1,316.3H220v-5.2h-10.9
		V316.3z M219.7,326.3c2,2.2,4.1,5.1,5.2,7l-2.4,1.5c-1-2-3.2-5-5-7.3L219.7,326.3z"/>
	<path class="st2" d="M238.4,314.7h-10.9v-2.4h5.5c-0.5-1.2-1.5-3-2.5-4.4l2.1-1.3c0.9,1.3,2,3,2.5,4.1l-2.1,1.5h5.4V314.7z
		 M237.6,334.7H231v1.5h-2.4v-10.9h8.9v9.4H237.6z M237.4,319h-8.7v-2.4h8.7V319z M228.7,320.9h8.7v2.3h-8.7V320.9z M231,327.7v4.6
		h4.2v-4.6H231z M243.6,317.1c-1.1,1.6-2.4,2.8-3.8,3.8c-0.4-0.6-1.3-1.6-1.8-2c1.3-0.8,2.4-2,3.5-3.4c-0.8-0.7-1.9-1.5-2.8-2.1
		l1.6-1.9c0.8,0.5,1.8,1.1,2.6,1.7c0.4-0.9,0.8-1.8,1.2-2.8h-4.3V308h5.3l0.5-0.1l1.7,0.6c-0.6,2.8-1.5,5.3-2.8,7.4h6.6
		c-1.5-2.4-2.5-5.2-3.3-8.3l2.5-0.5c0.2,0.8,0.5,1.6,0.7,2.4c0.8-0.7,1.6-1.4,2.2-2l1.8,1.6c-0.9,0.9-2.1,1.8-3.1,2.4
		c0.3,0.6,0.5,1.1,0.8,1.6c0.9-0.6,1.9-1.4,2.5-2l1.7,1.6c-1,0.8-2.1,1.5-3.1,2.1c1,1.4,2.2,2.5,3.6,3.4c-0.6,0.5-1.6,1.5-2,2.2
		c-1.5-1-2.7-2.3-3.8-3.8v1.5h-8.1v-1H243.6z M253.5,328.8c-0.7,1.5-1.6,3.2-2.4,4.5h5.6v2.4h-18.2v-2.4h5.3c-0.2-1.2-0.9-3-1.7-4.4
		l2.6-0.7c0.9,1.4,1.7,3.3,1.9,4.5l-2.3,0.6h4.1c0.7-1.5,1.7-3.7,2.1-5.3L253.5,328.8z M241.3,320.2H254v7.8h-12.7V320.2z
		 M243.8,325.7h7.5v-3.2h-7.5V325.7z"/>
	<path class="st2" d="M276,319.2v3.9h10.8v2.7H276v7.2h12.4v2.7h-27.7V333h12.1v-7.2h-10.6v-2.7h10.6v-3.9h-6.7v-1.7
		c-1.5,0.8-3.1,1.5-4.7,2.1c-0.4-0.9-1.3-2-2-2.8c6-1.8,11.8-5.4,14.9-10.1l2.8,1.3c-0.3,0.4-0.5,0.8-0.8,1.2
		c3.2,3.2,8.6,6.2,13.4,7.7c-0.7,0.6-1.6,1.8-2.1,2.6c-1.6-0.6-3.2-1.3-4.8-2.2v2L276,319.2L276,319.2z M267.1,326.1
		c1.2,1.7,2.5,4.1,3,5.6l-2.6,1.1c-0.5-1.5-1.7-3.9-2.9-5.7L267.1,326.1z M281.4,316.4c-2.5-1.5-4.9-3.3-6.8-5.2
		c-1.9,2-4.1,3.8-6.5,5.2H281.4z M278.5,331.9c1.1-1.5,2.5-4,3.1-5.8l2.9,1.1c-1.2,2-2.6,4.2-3.7,5.7L278.5,331.9z"/>
	<path class="st2" d="M319.3,315.6c-0.8,5-2,9-3.9,12.4c1.7,2.5,3.8,4.6,6.6,5.8c-0.6,0.6-1.6,1.7-2,2.6c-2.6-1.4-4.6-3.3-6.3-5.7
		c-1.9,2.4-4.3,4.3-7.3,5.9c-0.3-0.7-1.1-2-1.7-2.6c3.2-1.5,5.6-3.5,7.4-6c-1.2-2.3-2.1-5-2.8-7.9c-0.6,1.3-1.3,2.4-2.1,3.4
		c-0.4-0.5-1.4-1.5-2.1-2.2c-0.2,9.3-0.4,12.7-1.2,13.7c-0.5,0.7-1.1,1-2,1.2c-0.8,0.1-2.1,0.1-3.5,0.1c-0.1-0.8-0.4-2-0.8-2.7
		c1.2,0.1,2.2,0.1,2.7,0.1s0.7-0.1,0.9-0.5c0.5-0.7,0.7-3.6,0.9-11.9h-3.7c0,5.3-0.6,10.7-4.8,15.2c-0.5-0.6-1.5-1.5-2.2-2
		c3.7-4.1,4.2-8.9,4.2-13.3v-6.5h-3.5V312h14.1v2.8h-7.8v3.8h6.6c0,0,0,0.9,0,1.3v1c2.5-3.3,4.2-8.5,5.1-13.9l3.1,0.5
		c-0.4,1.8-0.8,3.7-1.2,5.4h9.7v2.8L319.3,315.6L319.3,315.6z M298.8,311.9c-0.3-1.2-1-3-1.5-4.4l2.6-0.7c0.6,1.4,1.4,3.1,1.6,4.3
		L298.8,311.9z M311,315.8c0.6,3.4,1.5,6.4,2.7,9.1c1.3-2.7,2.1-5.7,2.6-9.4H311L311,315.8z"/>
	<path class="st2" d="M330.2,313c-1.3,0.9-2.7,1.7-4,2.4c-0.5-0.6-1.5-1.6-2.2-2.2c3.5-1.5,7.1-3.9,9.3-6.5l2.7,1
		c-0.8,1.1-1.9,2.1-3,3v6.7h-2.9V313H330.2z M336.8,332.7c-2.6,1.6-6.6,3.1-9.9,4c-0.5-0.6-1.6-1.7-2.3-2.2c3.3-0.6,7.2-1.8,9.4-3
		L336.8,332.7z M328.8,318.4h21.1v13h-21.1V318.4z M331.7,322.1h15.2v-1.8h-15.2V322.1z M331.7,325.7h15.2v-1.8h-15.2V325.7z
		 M331.7,329.4h15.2v-1.9h-15.2V329.4z M339.3,310.7c-0.5-1.2-0.9-2.4-1-3.8h2.8c0.2,1.3,0.6,2.5,1.2,3.6l6.4-0.4
		c-1.3-0.6-3.3-1.4-5-1.8l1.4-1.5c1.8,0.4,4.3,1.2,5.6,1.9l-1.2,1.4l3.5-0.2l0.2,2.3l-9.1,0.6c1.8,1.8,4,2.8,6,2.8
		c0.9,0,1.1-0.6,1.2-2.3c0.6,0.5,1.5,0.9,2.3,1.1c-0.4,3.2-1.4,3.9-3.6,3.9c-3.4,0-7-2-9.3-5.2l-6.1,0.4l-0.2-2.3L339.3,310.7z
		 M343.8,331.5c3.5,1.2,7.3,2.6,9.6,3.7l-3.5,1.4c-1.9-1-5.3-2.5-8.6-3.6L343.8,331.5z"/>
	<path class="st2" d="M303.6,389c-1.1,2.4-2.4,4.8-4,6.9v15.6h-3v-12c-1.1,1.1-2.2,2-3.5,2.9c-0.3-0.8-1-2.1-1.5-2.8
		c3.7-2.5,6.6-6.4,8.6-10.6h-7.6v-2.9h8.8c0.5-1.4,1-2.8,1.4-4.2l3.1,0.7c-0.4,1.1-0.8,2.3-1.2,3.5h16v2.9H303.6z M321.5,403.1h-8.1
		v5.2c0,1.6-0.3,2.5-1.5,2.9c-1.2,0.5-3,0.5-5.6,0.5c-0.1-0.8-0.5-2-0.9-2.9c1.9,0.1,3.8,0.1,4.3,0.1c0.6,0,0.7-0.2,0.7-0.6v-5.1
		h-8.6v-2.8h8.6v-2.5c1.3-0.8,2.8-1.9,4-3h-9.9v-2.7h12.7l0.6-0.2l1.9,1.5c-1.7,1.8-4,3.8-6.3,5.2v1.6h8.1L321.5,403.1L321.5,403.1z
		"/>
	<path class="st2" d="M335.6,408c0,1.4-0.3,2.3-1.1,2.7c-0.8,0.5-2.1,0.5-4.1,0.5c-0.1-0.7-0.4-2.1-0.8-2.8c1.2,0,2.4,0,2.7,0
		c0.4,0,0.5-0.2,0.5-0.6v-7.7l-3.3,2l-0.9-2.1c-0.2,4-0.8,8.3-2.2,11.5c-0.5-0.5-1.8-1.1-2.5-1.4c2-4.5,2.1-10.9,2.1-15.6v-11.6h9.4
		V408H335.6z M328.9,394.6c0,1.5,0,3.1-0.1,4.8c1.1-0.5,2.6-1.1,4.1-1.7V394l-1.2,1c-0.6-0.9-1.7-2.2-2.8-3.3V394.6z M328.9,385.8
		v4.5l1-0.7c1,0.9,2.2,2.1,3,3v-6.8H328.9z M352.8,396.6c-1.1,4-3.1,7.1-5.6,9.5c1.9,1.3,4.2,2.3,6.7,2.9c-0.7,0.6-1.5,1.8-1.9,2.6
		c-2.7-0.8-5.1-2-7.2-3.5c-2.2,1.5-4.7,2.6-7.4,3.5c-0.4-0.8-1-2-1.6-2.6c2.4-0.6,4.7-1.5,6.7-2.8c-1.9-2-3.4-4.3-4.6-7l1.1-0.3h-2
		v-2.8h13.4l0.5-0.1L352.8,396.6z M342.8,386.7c0,2.9-0.9,6.4-4.9,8.6c-0.4-0.6-1.4-1.7-1.9-2.1c3.6-1.9,4.1-4.4,4.1-6.6v-3.5h10.2
		v7.2c0,0.9,0,1.2,0.5,1.2h1.5c0.4,0,1.1-0.1,1.5-0.2l0.2,2.4c-0.4,0.2-1.1,0.2-1.6,0.2h-1.9c-2.5,0-3-1-3-3.7v-4.4h-4.6v0.9H342.8z
		 M340.8,398.7c0.9,2.1,2.3,3.9,4,5.5c1.7-1.5,3.1-3.4,4.1-5.5H340.8z"/>
	<path class="st2" d="M267.7,457.8c-0.6,2.3-1.4,4.5-2.4,6.7v22h-2.5v-16.8c-0.7,1.2-1.4,2.3-2.1,3.2c-0.2-0.7-0.9-2.4-1.4-3.1
		c2.4-3.2,4.6-8,5.8-12.7L267.7,457.8z M276.1,465h-8.8v-2.4h8.8V465z M267.8,476h8v9.6h-2.4v-1.3h-3.3v1.8h-2.4L267.8,476
		L267.8,476z M275.5,469.3h-7.3V467h7.3V469.3z M268.2,471.4h7.3v2.3h-7.3V471.4z M271.5,462.2c-0.4-1-1.3-2.5-2.2-3.6l1.8-1.2
		c0.9,1.1,1.9,2.5,2.3,3.5L271.5,462.2z M270.2,478.3v3.7h3.3v-3.7H270.2z M284,469.2c-0.7,1-1.5,2-2.3,2.9h6.7v14.2h-2.7v-1.1h-4.3
		v1.4h-2.5v-11.7c-0.7,0.6-1.5,1.2-2.2,1.7c-0.4-0.5-1.2-1.6-1.7-2.2c2.2-1.4,4.2-3.2,5.8-5.3h-4.5v-2.5h3.5V463h-3v-2.5h3v-3.4h2.5
		v3.4h2.6v2.2c0.7-1.5,1.3-3,1.8-4.6l2.5,0.6c-1,2.9-2.2,5.6-3.6,8.1h3.8v2.5H284V469.2z M285.6,474.5h-4.3v2.9h4.3V474.5z
		 M285.6,482.7v-2.9h-4.3v2.9H285.6z M282.2,466.7h0.4c0.7-1.2,1.5-2.4,2.1-3.7h-2.5V466.7z"/>
	<path class="st2" d="M299,461.2h-6.5v-2.3h6.5v-2h2.9v2h4v2.3h-4v2H299V461.2z M307.4,461.9c0.5,0.7,1,1.7,1.3,2.5h12.2v2.4h-14.7
		c-1.3,0.8-2.7,1.5-4,2l6.5-0.3c0.9-0.4,1.8-0.8,2.6-1.3l3,1.2c-3.7,1.8-7.4,3.2-11,4.3l10.8-0.4c-0.8-0.6-1.6-1.2-2.4-1.7l2.1-1.1
		c2.4,1.4,5,3.5,6.3,4.9l-2.2,1.4c-0.4-0.5-1-1.1-1.6-1.6c-17.9,0.8-19.8,0.8-21.1,1.2c-0.1-0.4-0.5-1.5-0.8-2.1
		c1.1-0.1,2.3-0.4,4.1-0.9c1-0.2,3-0.9,5.3-1.7c-5.5,0.3-6.4,0.5-7.1,0.6c-0.1-0.4-0.5-1.5-0.8-2c0.6-0.1,1.3-0.3,2.1-0.5
		c0.7-0.2,2.4-0.9,4-1.8h-9v-2.4h12.4c-0.3-0.6-0.6-1.3-0.9-1.9L307.4,461.9z M295.6,475.9h22.8v10.6h-3.1v-0.9h-16.7v0.9h-2.9
		L295.6,475.9L295.6,475.9z M298.5,477.9v1.8h6.9v-1.8H298.5z M305.4,483.6v-2h-6.9v2H305.4z M321,458.9v2.3h-6.1v2H312v-2h-4.5
		v-2.3h4.5V457h2.9v1.9H321z M315.3,477.9h-7.1v1.8h7.1V477.9z M315.3,483.6v-2h-7.1v2H315.3z"/>
	<path class="st2" d="M334.4,459.2c-0.8,2.7-1.8,5.9-2.7,8.4c1.9,2.6,2.4,4.9,2.4,6.8s-0.4,3.3-1.2,4c-0.5,0.3-1,0.5-1.6,0.6
		c-0.5,0.1-1.3,0.1-2,0c0-0.7-0.2-1.9-0.6-2.6c0.6,0,1.1,0.1,1.5,0c0.3,0,0.6-0.1,0.8-0.3c0.4-0.3,0.6-1.1,0.6-2.1
		c0-1.6-0.4-3.8-2.3-6.2c0.7-2.1,1.5-4.8,2-7H328v25.6h-2.5v-28.3h6.6l0.4-0.1L334.4,459.2z M340.3,477.5c-0.2,0.8-0.5,1.5-0.8,2.2
		c1.3,0.7,2.6,1.8,3.4,2.5l-1.5,2c-0.6-0.7-1.8-1.7-2.9-2.5c-1.3,2-2.9,3.7-4.7,5c-0.4-0.5-1.4-1.5-2-2c2.9-1.7,5-4.4,6-7.7
		L340.3,477.5z M338.5,464.6c-1.1,0.8-2.2,1.5-3.3,2.1c-0.4-0.6-1.4-1.6-2-2c3.8-2,7.3-5.1,9.1-8.1l2.9,1c-0.2,0.4-0.5,0.7-0.7,1
		c2.4,2.1,6.2,4.2,9.4,5.3c-0.5,0.7-1.1,2-1.3,2.8c-1.5-0.7-3.1-1.5-4.6-2.5v2.2h-9.5V464.6z M335,468.5h7.5v7.9H335V468.5z
		 M337.3,474.3h2.8v-3.7h-2.8V474.3z M347.8,464.1c-1.7-1.1-3.4-2.3-4.8-3.5c-1.2,1.3-2.5,2.5-3.8,3.5H347.8z M349.3,477.3
		c-0.2,1-0.5,1.9-0.8,2.7c1.9,1.3,4.2,2.9,5.3,4.1l-1.8,2.1c-1-1.1-2.8-2.5-4.6-3.8c-1,1.8-2.2,3.2-3.8,4.3c-0.4-0.5-1.4-1.5-2-1.9
		c2.6-1.6,4.2-4.4,4.9-7.7L349.3,477.3z M344.2,468.5h7.6v7.9h-7.6V468.5z M346.5,474.3h3v-3.7h-3V474.3z"/>
	<path class="st2" d="M239.9,555.3l0.3,2.5c-4.1,1-8.5,2.1-11.7,2.9l-0.7-2.9c1.4-0.3,3.2-0.6,5.2-1v-8.6h-4.7v-2.6h4.7v-3h-3v-1.5
		c-0.5,0.4-0.9,0.8-1.3,1.1c-0.2-0.6-0.9-2.2-1.3-2.9c2.6-1.7,5.3-4.5,6.9-7.4l2.5,0.9c-0.2,0.3-0.4,0.7-0.6,1.1
		c1.9,1.5,3.8,3.2,5,4.4l-1.8,2.1c-1.1-1.2-2.9-2.9-4.6-4.4c-1.1,1.4-2.3,2.8-3.5,4h7.5v2.5h-3.1v3h4.4v2.6h-4.4v8L239.9,555.3z
		 M230.9,549.6c0.6,1.8,1.2,4.2,1.4,5.8l-2.2,0.6c-0.1-1.6-0.7-4-1.3-5.9L230.9,549.6z M236,554.8c0.5-1.5,1.1-4,1.4-5.6l2.3,0.6
		c-0.6,1.9-1.3,4.1-1.9,5.6L236,554.8z M256.8,550.4c-1.4,1.2-3.2,2.4-4.7,3.4c1.4,2.1,3.1,3.8,5.2,4.8c-0.7,0.6-1.6,1.7-2.1,2.5
		c-4.4-2.5-6.9-7.5-8.5-13.6h-2.3v9.7l4.8-1.3c0,0.8,0.1,2,0.3,2.6c-6.6,2-7.6,2.4-8.3,2.9c-0.2-0.7-0.6-2-1-2.6
		c0.6-0.3,1.3-0.8,1.3-2V533h14.1v14.3h-6.3c0.4,1.4,0.9,2.7,1.5,4c1.4-1,3-2.2,4-3.2L256.8,550.4z M244.6,535.9v3.3h8.3v-3.3H244.6
		z M244.6,545h8.3v-3.4h-8.3V545z"/>
	<path class="st2" d="M271,539.9c-1,1.6-2.2,3.3-3.5,4.9v16.8h-3v-13.5c-1.1,1.1-2.2,2.1-3.2,2.9c-0.4-0.6-1.5-2-2.1-2.5
		c3.3-2.4,6.8-6,8.9-9.7L271,539.9z M269.8,533.1c-2.2,2.9-5.6,6.1-8.5,8.2c-0.4-0.7-1.2-1.8-1.7-2.4c2.7-1.7,5.8-4.6,7.4-6.9
		L269.8,533.1z M289.2,545.5h-4.6v12.4c0,1.7-0.4,2.6-1.6,3.1s-3.1,0.5-6.1,0.5c-0.1-0.9-0.5-2.1-1-3c2.1,0.1,4.2,0.1,4.8,0
		c0.6,0,0.8-0.2,0.8-0.6v-12.4h-10.2v-2.9h17.9L289.2,545.5L289.2,545.5z M288.2,536.7h-15.7v-2.9h15.7V536.7z"/>
	<path class="st2" d="M308.3,557.8c1.4,0.3,3,0.3,4.6,0.3c1.4,0,6.8,0,8.6,0c-0.5,0.7-1,2.1-1.1,3h-7.7c-6.4,0-11-1.1-13.9-6.2
		c-1.1,2.7-2.6,5-4.6,6.8c-0.5-0.5-1.7-1.6-2.4-2c3.5-2.6,5.2-7.2,5.8-12.8l3,0.3c-0.2,1.4-0.4,2.8-0.7,4.1c1.2,3,3,4.7,5.2,5.7
		v-12.3h-7.5v-2.8h18.2v2.8h-7.6v4.7h9.2v2.8h-9.2v5.6H308.3z M296.3,542.8h-2.9v-7.4h12.2c-0.3-0.9-0.8-2-1.3-2.9l3-0.9
		c0.7,1.2,1.4,2.7,1.8,3.8h11.3v7.4h-3.1v-4.6h-20.9v4.6H296.3z"/>
	<path class="st2" d="M335.9,539c-1.1,2.4-2.4,4.8-4,6.9v15.6h-3v-12c-1.1,1.1-2.2,2-3.5,2.9c-0.3-0.8-1-2.1-1.5-2.8
		c3.7-2.5,6.6-6.4,8.6-10.6H325v-2.9h8.8c0.5-1.4,1-2.8,1.4-4.2l3.1,0.7c-0.4,1.1-0.8,2.3-1.2,3.5h16v2.9L335.9,539L335.9,539z
		 M353.7,553.1h-8.1v5.2c0,1.6-0.3,2.5-1.5,2.9c-1.2,0.5-3,0.5-5.6,0.5c-0.1-0.8-0.5-2-0.9-2.9c1.9,0.1,3.8,0.1,4.3,0.1
		c0.6,0,0.7-0.2,0.7-0.6v-5.1H334v-2.8h8.6v-2.5c1.3-0.8,2.8-1.9,4-3h-9.9v-2.7h12.7l0.6-0.2l1.9,1.5c-1.7,1.8-4,3.8-6.3,5.2v1.6
		h8.1L353.7,553.1L353.7,553.1z"/>
</g>
<g class="st1">
	<path class="st3" d="M257.2,655.6h-8.5v5.3h-2.3v-5.3h-11v-2.2h3.9V647h7.1v-3.3h-5.5c-1,1.8-2.3,3.4-3.5,4.6
		c-0.4-0.4-1.4-1.1-2-1.5c2.2-1.9,4.2-5,5.3-8.2l2.3,0.6c-0.3,0.8-0.6,1.5-0.9,2.3h14v2.2h-7.3v3.3h6.8v2.1h-6.8v4.3h8.5v2.2H257.2z
		 M246.4,653.4v-4.3h-4.9v4.3H246.4z"/>
	<path class="st3" d="M267.7,639.5c-0.7,1.5-1.5,3.1-2.4,4.6v16.8h-2.1v-13.7c-0.9,1.2-1.9,2.3-2.9,3.2c-0.2-0.5-0.8-1.7-1.2-2.3
		c2.6-2.2,5.1-5.7,6.6-9.3L267.7,639.5z M277.6,658.2c1.3,0,1.5-1,1.7-5.1c0.5,0.4,1.5,0.8,2,1c-0.3,4.5-0.9,6.1-3.6,6.1h-4.3
		c-2.7,0-3.4-0.8-3.4-3.7v-17.4h2.2v6.4h8.5v2.2h-8.5v8.9c0,1.4,0.2,1.6,1.5,1.6H277.6z"/>
	<path class="st3" d="M290.2,654.3h4.1v1.9h-4.1v4.6h-2.1v-4.6h-4.3v-1.9h4.3V652h-3.8v-1.9h2c-0.2-0.8-0.6-1.9-1-2.7l1.5-0.5h-3
		V645h4.3v-2.1h-3.6V641h3.6v-2.3h2.1v2.3h3.5v1.9h-3.5v2.1h4.1v1.9h-2.7l1.6,0.4c-0.5,0.9-1,1.9-1.4,2.7h2.1v1.9h-3.6v2.4H290.2z
		 M287,646.9c0.5,0.9,1,2,1.1,2.8l-1.2,0.4h2.9c0.5-1,1.1-2.2,1.4-3.1H287V646.9z M305.2,648.4c-0.5,2.8-1.4,5.4-2.8,7.7
		c1.1,1.2,2.3,2.2,3.6,2.9c-0.5,0.4-1.2,1.2-1.5,1.8c-1.2-0.7-2.3-1.7-3.3-2.8c-0.9,1.2-2,2.2-3.2,3c-0.2-0.3-0.6-0.7-0.9-1v1H295
		v-21.1h9.6v4.6c0,1-0.2,1.6-1,1.9c-0.8,0.3-2,0.3-3.8,0.3c-0.1-0.6-0.4-1.4-0.7-1.9c1.4,0,2.7,0,3,0c0.4,0,0.5-0.1,0.5-0.4v-2.6
		h-5.4v6.2h6.3l0.4-0.1L305.2,648.4z M297.1,659c1.1-0.8,2-1.8,2.8-2.9c-1.2-1.8-2.1-3.9-2.8-6.2V659z M299,649.8
		c0.5,1.6,1.3,3.1,2.1,4.5c0.8-1.4,1.3-2.9,1.7-4.5H299z"/>
	<path class="st3" d="M314.4,644.3h2.3v16.1H315v-1.2h-5.2v1.6h-1.6v-16.5h2.3v-2.8h-2.6v-1.8h9.1v1.8h-2.7v2.8H314.4z M315.1,657.4
		v-6.1h-0.9c-1,0-1.3-0.3-1.3-1.5v-3.7H312v2c0,1.4-0.2,3.2-1.5,4.5c-0.1-0.1-0.4-0.4-0.6-0.6v5.4L315.1,657.4L315.1,657.4z
		 M309.9,646.1v5.5c0.8-1.1,1-2.4,1-3.5v-2H309.9z M314.3,653.7v1.6h-3.6v-1.6H314.3z M312,644.3h0.9v-2.8H312V644.3z M315.1,646.1
		h-1v3.6c0,0.3,0,0.3,0.3,0.3h0.6h0.2v-3.9H315.1z M329.2,639.2v21.7h-1.9v-9.7l-0.8,0.4c-0.2-1.2-0.8-2.7-1.3-4.2v12.8h-1.8v-9
		l-1,0.5c-0.1-1.2-0.6-3-1.1-4.5v1.5c0,4.5-0.3,8.8-2.6,12.2c-0.4-0.4-1.2-0.9-1.6-1.2c1.7-2.4,2.2-5.3,2.3-8.4l-1.2,0.5
		c-0.1-1.4-0.7-3.7-1.3-5.3l1.3-0.6c0.5,1.3,0.9,2.9,1.2,4.2c0-0.4,0-0.9,0-1.3v-9.6h1.8v7.1l1-0.5c0.4,1.1,0.8,2.4,1.1,3.6v-9.8
		h1.8v6.4l0.8-0.4c0.5,1.1,1,2.3,1.4,3.5v-10L329.2,639.2L329.2,639.2z"/>
	<path class="st3" d="M353.9,656.1h-9.7v4.8h-2.4v-4.8h-9.7V654h9.7v-1.8h2.4v1.8h9.7V656.1z M338.7,649.7c-1.8,1-3.7,2-5.3,2.7
		l-1.1-1.8c1.5-0.6,3.8-1.6,6-2.6L338.7,649.7z M346.9,652.6c-0.1-0.4-0.3-0.8-0.6-1.2c-6.1,0.6-6.9,0.7-7.5,1
		c-0.1-0.4-0.4-1.4-0.6-1.9c0.6-0.1,1.2-0.5,2-1.2c0.4-0.3,1.3-1.1,2.3-2.1c-2.3,0.2-2.9,0.3-3.2,0.4c-0.1-0.4-0.4-1.3-0.6-1.8
		c0.3-0.1,0.7-0.4,1.1-0.8c0.3-0.3,0.9-1.1,1.6-2.1h-8.5v-2.1h9.5c-0.3-0.6-0.7-1.2-1-1.7l2.3-0.5c0.5,0.7,1,1.5,1.4,2.2h8.8v2.1
		h-10c-0.6,0.9-1.3,1.8-2,2.6l2.7-0.1c0.6-0.6,1.1-1.3,1.6-2l1.7,1c-1.8,2.1-3.8,4.1-5.8,5.7l3.5-0.3c-0.3-0.5-0.7-1-1-1.4l1.6-0.6
		c1.1,1.3,2.2,3,2.7,4.2L346.9,652.6z M336.6,647.6c-0.8-0.8-2.3-2-3.6-2.8l1.5-1.2c1.3,0.8,2.9,1.9,3.7,2.7L336.6,647.6z
		 M352,652.7c-1-0.9-3.1-2.4-4.7-3.3l1.6-1.2c1.6,0.9,3.7,2.3,4.8,3.2L352,652.7z M352.7,644.6c-1.1,1.1-2.4,2.2-3.5,3l-1.6-1.1
		c1-0.8,2.5-2.1,3.3-3L352.7,644.6z"/>
</g>
<g class="st1">
	<path class="st4" d="M469.7,90.3c1.4,0,3.3-0.1,4.2-0.3c0.1,0.6,0.2,1.6,0.3,2.1c-0.8,0.2-2.7,0.2-4.6,0.2h-10.1
		c-3.9,0-5.8-1.2-5.8-5.1v-13h-1v-2H473v2h-17.1v13.2c0,2.1,0.8,2.9,3.4,2.9C459.3,90.3,469.7,90.3,469.7,90.3z M457.5,82.4h6.4v6.3
		h-6.4V82.4z M459.3,87.2h2.6V84h-2.6V87.2z M469.2,81.1H460v-5.5h9.1v5.5H469.2z M467,77.1h-4.8v2.4h4.8V77.1z M471.9,88.8h-6.6
		v-6.3h6.6V88.8z M470,84h-2.8v3.1h2.8V84z"/>
	<path class="st4" d="M484.5,87.3c-2.6,1.1-5.3,2.2-7.5,3l-0.7-2.3c0.9-0.3,1.9-0.7,3.1-1.1V79h-2.7v-2h2.7v-5.5h2.1V77h2.4v2.1
		h-2.4v7.1l2.5-0.9L484.5,87.3z M496.5,91.3c0.6,0,0.7-0.3,0.8-1.7c0.4,0.3,1.2,0.6,1.7,0.8c-0.2,2.2-0.8,2.8-2.3,2.8h-3.1
		c-2.1,0-2.6-0.6-2.6-2.6v-6.9h-1.4c-0.3,4.4-1.2,7.9-5.1,9.9c-0.2-0.5-0.9-1.3-1.3-1.7c3.3-1.6,4-4.5,4.3-8.2h-2.7v-10h2.5
		c0.3-0.8,0.6-1.8,0.8-2.5l2.4,0.3c-0.3,0.8-0.6,1.5-1,2.2h8.1v10h-4.8v6.9c0,0.7,0.1,0.8,0.9,0.8h2.8V91.3z M486.9,77.7h3.4v-2.3
		h-3.4V77.7z M486.9,81.8h3.4v-2.3h-3.4V81.8z M495.6,75.4h-3.3v2.3h3.3V75.4z M495.6,79.4h-3.3v2.3h3.3V79.4z M497.5,89.7
		c-0.1-0.2-0.1-0.5-0.2-0.7c-3.1,0.4-3.6,0.5-3.9,0.6c-0.1-0.3-0.3-1-0.5-1.4c0.3,0,0.5-0.3,0.7-0.7c0.2-0.4,1-1.9,1.3-3.4l1.4,0.4
		c-0.4,1.2-1,2.5-1.6,3.5l2.1-0.2c-0.3-0.6-0.5-1.3-0.8-1.8l1.1-0.4c0.6,1.1,1.3,2.6,1.5,3.6L497.5,89.7z"/>
	<path class="st4" d="M508.3,90.8c-2.4,0.7-5.1,1.4-7,1.8l-0.4-2c0.9-0.2,2-0.4,3.2-0.7v-6.6h-2.9v-1.9h2.9v-2.3h-1.8V78
		c-0.3,0.4-0.7,0.8-1.1,1.1c-0.1-0.5-0.5-1.7-0.7-2.3c1.5-1.4,3.2-3.5,4.1-5.8l1.5,0.8c-0.1,0.3-0.3,0.6-0.4,0.9
		c1.3,0.9,2.5,2,3.3,2.9l-0.8,1.9c-0.8-0.9-2.1-2.2-3.3-3.2c-0.6,1-1.3,2-1.9,2.9h4.8v1.9h-2v2.3h2.7v1.9h-2.7v6.2l2.5-0.6
		L508.3,90.8z M502.7,84.5c0.3,1.4,0.7,3.1,0.8,4.3l-1.4,0.5c-0.1-1.2-0.4-3-0.7-4.4L502.7,84.5z M505.9,88.5c0.3-1.2,0.7-3,0.8-4.2
		l1.5,0.5c-0.4,1.4-0.8,3.1-1.1,4.2L505.9,88.5z M513.1,82.6c-0.3,2.2-0.8,4.6-1.5,6.4c0.4,0.3,0.9,0.7,1.5,1
		c1.2,0.8,2.6,1.1,4.6,1.1c1.5,0,3.8-0.1,5.4-0.3c-0.2,0.6-0.5,1.6-0.5,2.1c-1.1,0.1-3.5,0.2-4.9,0.2c-2.1,0-3.6-0.4-4.9-1.3
		c-0.8-0.6-1.5-1.3-2-1.3c-0.4,0-1.1,1.6-1.5,2.9l-1.4-2c0.8-1.1,1.5-2,2.1-2.4c0.5-1.4,0.9-3.2,1.2-4.9H509
		c0.5-1.5,1.1-3.5,1.7-5.4h-1.9v-1.8h4.3c-0.5,1.7-1.1,3.8-1.6,5.5h0.7l0.3-0.1L513.1,82.6z M510.4,75.8c-0.3-1-0.8-2.7-1.1-3.9
		l1.6-0.5c0.4,1.2,0.9,2.8,1.2,3.8L510.4,75.8z M516.7,75.1H513v-1.8h3.7v-2.1h1.9v2.1h3.7v1.8h-3.7v1.6h3.2v7.7h-3.2v1.7h3.7v1.8
		h-3.7v2.7h-1.9v-2.7h-3.8v-1.8h3.8v-1.7h-3.2v-7.7h3.1v-1.6H516.7z M515.2,79.8h1.7v-1.5h-1.7V79.8z M515.2,82.8h1.7v-1.5h-1.7
		V82.8z M520.2,78.2h-1.7v1.5h1.7V78.2z M520.2,81.3h-1.7v1.5h1.7V81.3z"/>
	<path class="st4" d="M534.7,86.7v-7.4h-3.9v10.5h15.3V92h-17.6V79.3h-3.4v-2.2h3.4v-5.3h2.3v5.3h3.9v-5.8h2.3v5.8h4v-5.5h2.3v5.5
		h3.4v2.2h-3.4v7.4C543.3,86.7,534.7,86.7,534.7,86.7z M537,79.3v5.3h4v-5.3H537z"/>
	<path class="st4" d="M564.2,81.9c1.8,1.7,4.4,3.1,7.2,3.8c-0.5,0.5-1.2,1.3-1.5,1.9c-1.6-0.5-3.1-1.3-4.5-2.2v8h-2.3V85h1.8
		c-1.2-0.9-2.3-2-3.2-3.1H559c-0.9,1.1-2,2.2-3.2,3.1h2v1.5c0,2.3-0.6,5.3-5.3,7.1c-0.3-0.6-1-1.4-1.5-1.8c4.1-1.4,4.6-3.6,4.6-5.3
		v-1.3c-1.5,1-3.1,1.9-4.8,2.5c-0.3-0.6-1-1.4-1.5-1.9c2.6-0.8,5.3-2.2,7.1-3.9H552V72h16.7v9.9H564.2z M554,76h4.9v-2.2H554V76z
		 M554,80h4.9v-2.3H554V80z M566.2,73.8h-5V76h5V73.8z M566.2,77.8h-5V80h5V77.8z"/>
</g>
<g class="st1">
	<path class="st3" d="M386.7,650c0-6.2,2.3-9.2,5.8-9.2s5.8,3,5.8,9.2s-2.3,9.3-5.8,9.3S386.7,656.2,386.7,650z M395.6,650
		c0-5.1-1.3-7-3.1-7c-1.8,0-3.1,1.9-3.1,7c0,5.2,1.3,7.1,3.1,7.1C394.3,657.1,395.6,655.2,395.6,650z"/>
	<path class="st3" d="M400.2,646.5c0-3.6,1.7-5.6,4.2-5.6s4.2,2,4.2,5.6s-1.7,5.7-4.2,5.7S400.2,650.1,400.2,646.5z M406.6,646.5
		c0-2.8-0.9-4-2.2-4c-1.2,0-2.1,1.2-2.1,4c0,2.7,0.9,4,2.1,4C405.7,650.5,406.6,649.2,406.6,646.5z M414.7,640.9h1.8l-9.8,18.5H405
		L414.7,640.9z M412.9,653.7c0-3.6,1.7-5.6,4.2-5.6s4.2,2,4.2,5.6s-1.7,5.6-4.2,5.6S412.9,657.3,412.9,653.7z M419.2,653.7
		c0-2.8-0.9-4-2.1-4c-1.3,0-2.2,1.2-2.2,4c0,2.7,0.9,4,2.2,4C418.3,657.7,419.2,656.4,419.2,653.7z"/>
</g>
<g class="st1">
	<path class="st3" d="M604,656.9l1.3-1.8c1,1,2.3,1.9,4.2,1.9c2,0,3.5-1.4,3.5-3.8s-1.4-3.7-3.4-3.7c-1.1,0-1.8,0.3-2.9,1l-1.4-0.9
		l0.5-8.4h9v2.3h-6.6l-0.4,4.6c0.8-0.4,1.5-0.6,2.4-0.6c3,0,5.4,1.8,5.4,5.7s-2.9,6.2-6,6.2C607,659.3,605.3,658.2,604,656.9z"/>
	<path class="st3" d="M618,646.5c0-3.6,1.7-5.6,4.2-5.6s4.2,2,4.2,5.6s-1.7,5.7-4.2,5.7S618,650.1,618,646.5z M624.3,646.5
		c0-2.8-0.9-4-2.2-4c-1.2,0-2.1,1.2-2.1,4c0,2.7,0.9,4,2.1,4C623.4,650.5,624.3,649.2,624.3,646.5z M632.5,640.9h1.8l-9.8,18.5h-1.7
		L632.5,640.9z M630.6,653.7c0-3.6,1.7-5.6,4.2-5.6s4.2,2,4.2,5.6s-1.7,5.6-4.2,5.6S630.6,657.3,630.6,653.7z M637,653.7
		c0-2.8-0.9-4-2.1-4c-1.3,0-2.2,1.2-2.2,4c0,2.7,0.9,4,2.2,4C636.1,657.7,637,656.4,637,653.7z"/>
</g>
<g class="st1">
	<path class="st3" d="M806.1,656.7h3.9v-12.4h-3.2v-1.8c1.7-0.3,2.9-0.7,3.9-1.4h2.1v15.5h3.5v2.3h-10.2V656.7z"/>
	<path class="st3" d="M818.9,650c0-6.2,2.3-9.2,5.8-9.2s5.8,3,5.8,9.2s-2.3,9.3-5.8,9.3S818.9,656.2,818.9,650z M827.8,650
		c0-5.1-1.3-7-3.1-7s-3.1,1.9-3.1,7c0,5.2,1.3,7.1,3.1,7.1S827.8,655.2,827.8,650z"/>
	<path class="st3" d="M832.4,646.5c0-3.6,1.7-5.6,4.2-5.6s4.2,2,4.2,5.6s-1.7,5.7-4.2,5.7C834.1,652.1,832.4,650.1,832.4,646.5z
		 M838.8,646.5c0-2.8-0.9-4-2.2-4c-1.2,0-2.1,1.2-2.1,4c0,2.7,0.9,4,2.1,4C837.9,650.5,838.8,649.2,838.8,646.5z M846.9,640.9h1.8
		l-9.8,18.5h-1.7L846.9,640.9z M845.1,653.7c0-3.6,1.7-5.6,4.2-5.6s4.2,2,4.2,5.6s-1.7,5.6-4.2,5.6S845.1,657.3,845.1,653.7z
		 M851.4,653.7c0-2.8-0.9-4-2.1-4c-1.3,0-2.2,1.2-2.2,4c0,2.7,0.9,4,2.2,4C850.5,657.7,851.4,656.4,851.4,653.7z"/>
</g>
<g class="st1">
	<path class="st3" d="M1018.7,656.7h3.9v-12.4h-3.2v-1.8c1.7-0.3,2.9-0.7,3.9-1.4h2.1v15.5h3.5v2.3h-10.2V656.7z"/>
	<path class="st3" d="M1031.1,656.9l1.3-1.8c1,1,2.3,1.9,4.2,1.9c2,0,3.5-1.4,3.5-3.8s-1.4-3.7-3.4-3.7c-1.1,0-1.8,0.3-2.9,1
		l-1.4-0.9l0.5-8.4h9v2.3h-6.6l-0.4,4.6c0.8-0.4,1.5-0.6,2.4-0.6c3,0,5.4,1.8,5.4,5.7s-2.9,6.2-6,6.2
		C1034.1,659.3,1032.3,658.2,1031.1,656.9z"/>
	<path class="st3" d="M1045.1,646.5c0-3.6,1.7-5.6,4.2-5.6s4.2,2,4.2,5.6s-1.7,5.7-4.2,5.7C1046.8,652.1,1045.1,650.1,1045.1,646.5z
		 M1051.4,646.5c0-2.8-0.9-4-2.2-4c-1.2,0-2.1,1.2-2.1,4c0,2.7,0.9,4,2.1,4C1050.5,650.5,1051.4,649.2,1051.4,646.5z M1059.6,640.9
		h1.8l-9.8,18.5h-1.7L1059.6,640.9z M1057.7,653.7c0-3.6,1.7-5.6,4.2-5.6s4.2,2,4.2,5.6s-1.7,5.6-4.2,5.6
		C1059.4,659.3,1057.7,657.3,1057.7,653.7z M1064,653.7c0-2.8-0.9-4-2.1-4c-1.3,0-2.2,1.2-2.2,4c0,2.7,0.9,4,2.2,4
		S1064,656.4,1064,653.7z"/>
</g>
<g class="st1">
	<path class="st3" d="M1230.4,657.4c5.3-4.6,8-8.1,8-11c0-1.9-1-3.3-3-3.3c-1.4,0-2.6,0.9-3.5,2l-1.6-1.5c1.5-1.6,3.1-2.7,5.4-2.7
		c3.3,0,5.4,2.1,5.4,5.3c0,3.4-2.7,7-6.5,10.6c0.9-0.1,2-0.2,2.9-0.2h4.5v2.4h-11.5v-1.6H1230.4z"/>
	<path class="st3" d="M1244.2,650c0-6.2,2.3-9.2,5.8-9.2s5.8,3,5.8,9.2s-2.3,9.3-5.8,9.3S1244.2,656.2,1244.2,650z M1253.1,650
		c0-5.1-1.3-7-3.1-7c-1.8,0-3.1,1.9-3.1,7c0,5.2,1.3,7.1,3.1,7.1C1251.8,657.1,1253.1,655.2,1253.1,650z"/>
	<path class="st3" d="M1257.8,646.5c0-3.6,1.7-5.6,4.2-5.6s4.2,2,4.2,5.6s-1.7,5.7-4.2,5.7C1259.4,652.1,1257.8,650.1,1257.8,646.5z
		 M1264.1,646.5c0-2.8-0.9-4-2.2-4c-1.2,0-2.1,1.2-2.1,4c0,2.7,0.9,4,2.1,4C1263.2,650.5,1264.1,649.2,1264.1,646.5z M1272.2,640.9
		h1.8l-9.8,18.5h-1.7L1272.2,640.9z M1270.4,653.7c0-3.6,1.7-5.6,4.2-5.6s4.2,2,4.2,5.6s-1.7,5.6-4.2,5.6S1270.4,657.3,1270.4,653.7
		z M1276.7,653.7c0-2.8-0.9-4-2.1-4c-1.3,0-2.2,1.2-2.2,4c0,2.7,0.9,4,2.2,4C1275.8,657.7,1276.7,656.4,1276.7,653.7z"/>
</g>
<g class="st1">
	<path class="st3" d="M1443,657.4c5.3-4.6,8-8.1,8-11c0-1.9-1-3.3-3-3.3c-1.4,0-2.6,0.9-3.5,2l-1.6-1.5c1.5-1.6,3.1-2.7,5.4-2.7
		c3.3,0,5.4,2.1,5.4,5.3c0,3.4-2.7,7-6.5,10.6c0.9-0.1,2-0.2,2.9-0.2h4.5v2.4H1443V657.4z"/>
	<path class="st3" d="M1456.4,656.9l1.3-1.8c1,1,2.3,1.9,4.2,1.9c2,0,3.5-1.4,3.5-3.8s-1.4-3.7-3.4-3.7c-1.1,0-1.8,0.3-2.9,1
		l-1.4-0.9l0.5-8.4h9v2.3h-6.6l-0.4,4.6c0.8-0.4,1.5-0.6,2.4-0.6c3,0,5.4,1.8,5.4,5.7s-2.9,6.2-6,6.2
		C1459.4,659.3,1457.6,658.2,1456.4,656.9z"/>
	<path class="st3" d="M1470.4,646.5c0-3.6,1.7-5.6,4.2-5.6s4.2,2,4.2,5.6s-1.7,5.7-4.2,5.7C1472.1,652.1,1470.4,650.1,1470.4,646.5z
		 M1476.7,646.5c0-2.8-0.9-4-2.2-4c-1.2,0-2.1,1.2-2.1,4c0,2.7,0.9,4,2.1,4C1475.8,650.5,1476.7,649.2,1476.7,646.5z M1484.9,640.9
		h1.8l-9.8,18.5h-1.7L1484.9,640.9z M1483,653.7c0-3.6,1.7-5.6,4.2-5.6s4.2,2,4.2,5.6s-1.7,5.6-4.2,5.6S1483,657.3,1483,653.7z
		 M1489.4,653.7c0-2.8-0.9-4-2.1-4c-1.3,0-2.2,1.2-2.2,4c0,2.7,0.9,4,2.2,4C1488.5,657.7,1489.4,656.4,1489.4,653.7z"/>
</g>
<g>
	<line class="st5" x1="403.8" y1="143.2" x2="403.8" y2="605.2"/>
	<line class="st6" x1="510.2" y1="143.2" x2="510.2" y2="605.2"/>
	<line class="st5" x1="616.5" y1="143.2" x2="616.5" y2="605.2"/>
	<line class="st6" x1="722.8" y1="143.2" x2="722.8" y2="605.2"/>
	<line class="st5" x1="829.1" y1="143.2" x2="829.1" y2="605.2"/>
	<line class="st6" x1="935.5" y1="143.2" x2="935.5" y2="605.2"/>
	<line class="st5" x1="1041.8" y1="143.2" x2="1041.8" y2="605.2"/>
	<line class="st6" x1="1148.1" y1="143.2" x2="1148.1" y2="605.2"/>
	<line class="st5" x1="1254.4" y1="143.2" x2="1254.4" y2="605.2"/>
	<line class="st6" x1="1360.8" y1="143.2" x2="1360.8" y2="605.2"/>
	<line class="st5" x1="1467.1" y1="143.2" x2="1467.1" y2="605.2"/>
</g>
<g>
	<rect x="1163.2" y="156.5" class="st0" width="135.7" height="34.1"/>
	<g>
		<path class="st7" d="M1176.1,181.2h5.1v-15.1h-4.3v-2.9c2.4-0.5,4-1.1,5.6-2h3.5v20h4.5v3.8h-14.4L1176.1,181.2L1176.1,181.2z"/>
		<path class="st7" d="M1193.3,182.2l2.2-3c1.4,1.3,3,2.4,5.3,2.4c2.5,0,4.2-1.6,4.2-4.4c0-2.8-1.6-4.3-4-4.3
			c-1.4,0-2.2,0.4-3.6,1.3l-2.2-1.4l0.6-11.6h12.8v4h-8.7l-0.5,5.1c0.9-0.5,1.8-0.7,2.9-0.7c4,0,7.4,2.4,7.4,7.6
			c0,5.3-3.9,8.4-8.4,8.4C1197.5,185.5,1195,184,1193.3,182.2z"/>
		<path class="st7" d="M1213,174.1h8.8v3.4h-8.8V174.1z"/>
		<path class="st7" d="M1224.2,182.1l2.2-3c1.4,1.4,3.2,2.5,5.3,2.5c2.4,0,4.1-1.2,4.1-3.3c0-2.4-1.4-3.8-6.6-3.8V171
			c4.4,0,5.8-1.5,5.8-3.6c0-1.9-1.2-3-3.2-3c-1.7,0-3.1,0.8-4.5,2.1l-2.4-2.9c2.1-1.8,4.4-2.9,7.2-2.9c4.6,0,7.7,2.3,7.7,6.4
			c0,2.6-1.5,4.5-4,5.5v0.2c2.7,0.7,4.8,2.7,4.8,5.9c0,4.4-3.8,6.9-8.4,6.9C1228.4,185.5,1225.9,184,1224.2,182.1z"/>
		<path class="st7" d="M1243.8,173c0-8.3,3.2-12.3,8.1-12.3c4.8,0,8.1,4.1,8.1,12.3s-3.2,12.5-8.1,12.5S1243.8,181.2,1243.8,173z
			 M1255.5,173c0-6.7-1.5-8.6-3.6-8.6s-3.6,1.9-3.6,8.6c0,6.7,1.5,8.8,3.6,8.8C1253.9,181.8,1255.5,179.7,1255.5,173z"/>
		<path class="st7" d="M1262.4,168.2c0-4.8,2.4-7.5,5.8-7.5s5.8,2.7,5.8,7.5s-2.4,7.6-5.8,7.6S1262.4,173,1262.4,168.2z
			 M1270.7,168.2c0-3.5-1.1-4.8-2.5-4.8s-2.5,1.3-2.5,4.8s1.1,4.9,2.5,4.9S1270.7,171.7,1270.7,168.2z M1282,160.7h2.8l-13,24.8
			h-2.8L1282,160.7z M1279.8,177.8c0-4.8,2.4-7.6,5.8-7.6s5.8,2.7,5.8,7.6c0,4.8-2.5,7.6-5.8,7.6S1279.8,182.6,1279.8,177.8z
			 M1288.1,177.8c0-3.5-1.1-4.9-2.5-4.9s-2.5,1.4-2.5,4.9s1.1,4.9,2.5,4.9S1288.1,181.4,1288.1,177.8z"/>
	</g>
	<rect x="403.8" y="156.5" class="st7" width="759.5" height="34.1"/>
	<rect x="1298.5" y="156.5" class="st7" width="34.1" height="34.1"/>
	<polygon class="st7" points="1332.6,148.4 1357.8,173.6 1332.6,198.8 	"/>
</g>
<g>
	<rect x="985.3" y="227.7" class="st0" width="135.7" height="34.1"/>
	<g>
		<path class="st7" d="M1015.6,236.2h-10.7v-4h15.9v2.9c-5.6,6.8-6.3,11.7-6.7,21h-4.8C1009.6,247.9,1011,242.6,1015.6,236.2z"/>
		<path class="st7" d="M1023.8,245.2h8.8v3.4h-8.8V245.2z"/>
		<path class="st7" d="M1035,253.3l2.2-3c1.4,1.4,3.2,2.5,5.3,2.5c2.4,0,4.1-1.2,4.1-3.3c0-2.4-1.4-3.8-6.6-3.8v-3.4
			c4.4,0,5.8-1.5,5.8-3.6c0-1.9-1.2-3-3.2-3c-1.7,0-3.1,0.8-4.5,2.1l-2.4-2.9c2.1-1.8,4.4-2.9,7.2-2.9c4.6,0,7.7,2.3,7.7,6.4
			c0,2.6-1.5,4.5-4,5.5v0.2c2.7,0.7,4.8,2.7,4.8,5.9c0,4.4-3.8,6.9-8.4,6.9C1039.2,256.6,1036.7,255.2,1035,253.3z"/>
		<path class="st7" d="M1054,253.4l2.2-3c1.4,1.3,3,2.4,5.3,2.4c2.5,0,4.2-1.6,4.2-4.4c0-2.8-1.6-4.3-4-4.3c-1.4,0-2.2,0.4-3.6,1.3
			l-2.2-1.4l0.6-11.6h12.8v4h-8.7l-0.5,5.1c0.9-0.5,1.8-0.7,2.9-0.7c4,0,7.4,2.4,7.4,7.6c0,5.3-3.9,8.4-8.4,8.4
			C1058.3,256.6,1055.8,255.1,1054,253.4z"/>
		<path class="st7" d="M1073.2,239.3c0-4.8,2.4-7.5,5.8-7.5s5.8,2.7,5.8,7.5s-2.4,7.6-5.8,7.6S1073.2,244.2,1073.2,239.3z
			 M1081.5,239.3c0-3.5-1.1-4.8-2.5-4.8s-2.5,1.3-2.5,4.8s1.1,4.9,2.5,4.9S1081.5,242.9,1081.5,239.3z M1092.8,231.8h2.8l-13,24.8
			h-2.8L1092.8,231.8z M1090.5,249c0-4.8,2.4-7.6,5.8-7.6s5.8,2.7,5.8,7.6c0,4.8-2.5,7.6-5.8,7.6S1090.5,253.8,1090.5,249z
			 M1098.8,249c0-3.5-1.1-4.9-2.5-4.9s-2.5,1.4-2.5,4.9s1.1,4.9,2.5,4.9S1098.8,252.5,1098.8,249z"/>
	</g>
	<rect x="403.8" y="227.7" class="st7" width="581.6" height="34.1"/>
	<rect x="1120.6" y="227.7" class="st7" width="34.1" height="34.1"/>
	<polygon class="st7" points="1154.7,219.5 1179.9,244.7 1154.7,269.9 	"/>
</g>
<g>
	<rect x="786.4" y="306.2" class="st0" width="135.7" height="34.1"/>
	<g>
		<path class="st7" d="M807.1,328.8c0-3.1,1.9-5,4.1-6.2v-0.2c-1.8-1.3-3.2-3.1-3.2-5.7c0-3.8,3-6.3,7.2-6.3s6.9,2.5,6.9,6.4
			c0,2.4-1.5,4.3-3.1,5.5v0.2c2.2,1.2,4,3.1,4,6.4c0,3.6-3.2,6.4-8,6.4C810.5,335.2,807.1,332.5,807.1,328.8z M818.7,328.6
			c0-2.5-2.2-3.5-5.3-4.8c-1.3,1-2.2,2.6-2.2,4.4c0,2.2,1.8,3.5,4,3.5C817.2,331.8,818.7,330.7,818.7,328.6z M818.3,317.1
			c0-1.9-1.2-3.3-3.2-3.3c-1.6,0-2.9,1.1-2.9,3c0,2.3,1.8,3.4,4.4,4.4C817.8,319.8,818.3,318.5,818.3,317.1z"/>
		<path class="st7" d="M826.2,323.8h8.8v3.4h-8.8V323.8z"/>
		<path class="st7" d="M837.9,332c6.5-5.8,10.3-10.3,10.3-14c0-2.4-1.3-3.9-3.6-3.9c-1.7,0-3.2,1.1-4.4,2.5l-2.6-2.6
			c2.2-2.3,4.3-3.6,7.6-3.6c4.5,0,7.5,2.9,7.5,7.4c0,4.3-3.6,9-7.9,13.2c1.2-0.1,2.8-0.3,3.9-0.3h5.2v4h-16V332z"/>
		<path class="st7" d="M857,322.7c0-8.3,3.2-12.3,8.1-12.3c4.8,0,8.1,4.1,8.1,12.3c0,8.2-3.2,12.5-8.1,12.5S857,330.9,857,322.7z
			 M868.6,322.7c0-6.7-1.5-8.6-3.6-8.6s-3.6,1.9-3.6,8.6s1.5,8.8,3.6,8.8S868.6,329.4,868.6,322.7z"/>
		<path class="st7" d="M875.6,317.9c0-4.8,2.4-7.5,5.8-7.5s5.8,2.7,5.8,7.5s-2.4,7.6-5.8,7.6S875.6,322.7,875.6,317.9z M883.9,317.9
			c0-3.5-1.1-4.8-2.5-4.8s-2.5,1.3-2.5,4.8s1.1,4.9,2.5,4.9S883.9,321.4,883.9,317.9z M895.2,310.4h2.8l-13,24.8h-2.8L895.2,310.4z
			 M892.9,327.6c0-4.8,2.4-7.6,5.8-7.6s5.8,2.7,5.8,7.6c0,4.8-2.5,7.6-5.8,7.6S892.9,332.3,892.9,327.6z M901.2,327.6
			c0-3.5-1.1-4.9-2.5-4.9s-2.5,1.4-2.5,4.9s1.1,4.9,2.5,4.9S901.2,331.1,901.2,327.6z"/>
	</g>
	<rect x="403.8" y="306.2" class="st7" width="382.6" height="34.1"/>
	<rect x="921.6" y="306.2" class="st7" width="34.1" height="34.1"/>
	<polygon class="st7" points="955.7,298.1 980.9,323.3 955.7,348.5 	"/>
</g>
<g>
	<rect x="447.6" y="377.8" class="st0" width="115.1" height="34.1"/>
	<g>
		<path class="st8" d="M465.5,403.4l2.2-3c1.4,1.4,3.2,2.5,5.3,2.5c2.4,0,4.1-1.2,4.1-3.3c0-2.4-1.4-3.8-6.6-3.8v-3.4
			c4.4,0,5.8-1.5,5.8-3.6c0-1.9-1.2-3-3.2-3c-1.7,0-3.1,0.8-4.5,2.1l-2.4-2.9c2.1-1.8,4.4-2.9,7.2-2.9c4.6,0,7.7,2.3,7.7,6.4
			c0,2.6-1.5,4.5-4,5.5v0.2c2.7,0.7,4.8,2.7,4.8,5.9c0,4.4-3.8,6.9-8.4,6.9C469.8,406.7,467.2,405.3,465.5,403.4z"/>
		<path class="st8" d="M485.3,395.4h8.8v3.4h-8.8V395.4z"/>
		<path class="st8" d="M508,386.4h-10.7v-4h15.9v2.9c-5.6,6.8-6.3,11.7-6.7,21h-4.8C502.1,398,503.4,392.7,508,386.4z"/>
		<path class="st8" d="M515.7,389.5c0-4.8,2.4-7.5,5.8-7.5s5.8,2.7,5.8,7.5s-2.4,7.6-5.8,7.6S515.7,394.3,515.7,389.5z M524,389.5
			c0-3.5-1.1-4.8-2.5-4.8s-2.5,1.3-2.5,4.8s1.1,4.9,2.5,4.9S524,393,524,389.5z M535.3,382h2.8l-13,24.8h-2.8L535.3,382z M533,399.1
			c0-4.8,2.4-7.6,5.8-7.6s5.8,2.7,5.8,7.6c0,4.8-2.5,7.6-5.8,7.6S533,403.9,533,399.1z M541.3,399.1c0-3.5-1.1-4.9-2.5-4.9
			s-2.5,1.4-2.5,4.9s1.1,4.9,2.5,4.9S541.3,402.6,541.3,399.1z"/>
	</g>
	<rect x="403.8" y="377.8" class="st8" width="43.9" height="34.1"/>
	<rect x="562.2" y="377.8" class="st8" width="34.1" height="34.1"/>
	<polygon class="st8" points="596.3,369.7 621.5,394.9 596.3,420.1 	"/>
</g>
<g>
	<rect x="404.8" y="454.4" class="st0" width="115.1" height="34.1"/>
	<g>
		<path class="st8" d="M423.2,480.1c6.5-5.8,10.3-10.3,10.3-14c0-2.4-1.3-3.9-3.6-3.9c-1.7,0-3.2,1.1-4.4,2.5l-2.6-2.6
			c2.2-2.3,4.3-3.6,7.6-3.6c4.5,0,7.5,2.9,7.5,7.4c0,4.3-3.6,9-7.9,13.2c1.2-0.1,2.8-0.3,3.9-0.3h5.2v4h-16V480.1z"/>
		<path class="st8" d="M442.4,471.9h8.8v3.4h-8.8V471.9z"/>
		<path class="st8" d="M470.8,476.7H468v6.2h-4.4v-6.2h-10.2v-3.2l8.9-14.5h5.7v14.1h2.8V476.7z M463.6,473.1v-4.9
			c0-1.4,0.1-3.5,0.2-4.9h-0.1c-0.6,1.3-1.2,2.6-1.9,3.9l-3.7,5.9H463.6z"/>
		<path class="st8" d="M472.8,466.1c0-4.8,2.4-7.5,5.8-7.5s5.8,2.7,5.8,7.5s-2.4,7.6-5.8,7.6S472.8,470.9,472.8,466.1z M481.1,466.1
			c0-3.5-1.1-4.8-2.5-4.8s-2.5,1.3-2.5,4.8s1.1,4.9,2.5,4.9S481.1,469.6,481.1,466.1z M492.4,458.5h2.8l-13,24.8h-2.8L492.4,458.5z
			 M490.1,475.7c0-4.8,2.4-7.6,5.8-7.6s5.8,2.7,5.8,7.6c0,4.8-2.5,7.6-5.8,7.6S490.1,480.5,490.1,475.7z M498.4,475.7
			c0-3.5-1.1-4.9-2.5-4.9s-2.5,1.4-2.5,4.9s1.1,4.9,2.5,4.9S498.4,479.2,498.4,475.7z"/>
	</g>
	<rect x="515.8" y="454.4" class="st8" width="17" height="34.1"/>
	<polygon class="st8" points="532.8,446.2 558.1,471.4 532.8,496.6 	"/>
</g>
<g>
	<g>
		<path class="st8" d="M452.3,560.2h5.1v-15.1h-4.3v-2.9c2.4-0.5,4-1.1,5.6-2h3.5v20h4.5v3.8h-14.4L452.3,560.2L452.3,560.2z"/>
		<path class="st8" d="M469.7,547.2c0-4.8,2.4-7.5,5.8-7.5s5.8,2.7,5.8,7.5s-2.4,7.6-5.8,7.6S469.7,552,469.7,547.2z M478,547.2
			c0-3.5-1.1-4.8-2.5-4.8s-2.5,1.3-2.5,4.8s1.1,4.9,2.5,4.9S478,550.7,478,547.2z M489.3,539.7h2.8l-13,24.8h-2.8L489.3,539.7z
			 M487,556.9c0-4.8,2.4-7.6,5.8-7.6s5.8,2.7,5.8,7.6c0,4.8-2.5,7.6-5.8,7.6S487,561.6,487,556.9z M495.3,556.9
			c0-3.5-1.1-4.9-2.5-4.9s-2.5,1.4-2.5,4.9s1.1,4.9,2.5,4.9S495.3,560.4,495.3,556.9z"/>
	</g>
	<rect x="404.8" y="535.5" class="st8" width="17" height="34.1"/>
	<polygon class="st8" points="421.8,527.4 447,552.6 421.8,577.8 	"/>
</g>
<g>
	<rect x="403.8" y="71.9" class="st7" width="19.6" height="19.6"/>
	<polygon class="st7" points="423.4,67.2 437.9,81.7 423.4,96.2 	"/>
</g>
<g class="st1">
	<path class="st4" d="M685.2,86.4h3.3v1.8h-3.3v3c0,1.1-0.2,1.6-1,1.9s-2.1,0.3-3.8,0.3c-0.1-0.6-0.4-1.4-0.7-1.9c1.3,0,2.5,0,2.9,0
		c0.3,0,0.4-0.1,0.4-0.4v-2.9h-6.3c1,0.9,2.2,2.1,2.7,2.9l-1.7,1.2c-0.6-0.9-1.9-2.3-3-3.3l1.3-0.8h-3.6v-1.8H683v-1.3
		c-3.7,0.1-7.2,0.2-9.9,0.3l-0.2-1.7c1.8,0,4.1,0,6.6-0.1v-1.3H674v-6.5h5.5v-1.2H673v-1.5c-0.6,1.3-1.2,2.6-1.9,3.9v16.3H669v-13
		c-0.7,0.9-1.4,1.8-2.1,2.5c-0.2-0.5-0.9-1.7-1.2-2.3c2.3-2.2,4.4-5.8,5.7-9.3l2.1,0.6c-0.1,0.3-0.3,0.7-0.4,1h6.4v-1.5h2.2v1.5h6.5
		v1.7h-6.5v1.2h5.7v6.5h-1.5c1.1,0.9,2.2,1.9,2.7,2.7l-1.6,1c-0.2-0.3-0.5-0.6-0.8-1h-1L685.2,86.4L685.2,86.4z M676.1,78.4h3.4
		v-1.3h-3.4V78.4z M679.5,80.9v-1.3h-3.4v1.3H679.5z M681.7,77.1v1.3h3.5v-1.3H681.7z M685.2,80.9v-1.3h-3.5v1.3H685.2z M681.7,83.5
		h3c-0.4-0.4-0.8-0.7-1.2-1l0.3-0.2h-2.2v1.2H681.7z"/>
	<path class="st4" d="M697.7,85.7c0-0.3-0.1-0.7-0.3-1.2c-5.1,0.9-5.8,1.1-6.3,1.4c-0.1-0.4-0.4-1.5-0.7-2.1
		c0.6-0.1,1.1-0.7,1.8-1.6c0.4-0.4,1-1.2,1.7-2.3c-2.2,0.3-2.7,0.4-3,0.6c-0.1-0.4-0.5-1.5-0.7-2c0.4-0.1,0.8-0.6,1.4-1.3
		c0.5-0.7,2.1-3.4,3-6l2.1,0.9c-1,2.2-2.3,4.5-3.7,6.3l2.1-0.2c0.7-1.1,1.4-2.3,1.9-3.5l1.9,1.2c-1.5,2.7-3.4,5.4-5.3,7.7l3.2-0.5
		c-0.2-0.8-0.5-1.5-0.8-2.1l1.6-0.6c0.7,1.5,1.5,3.5,1.7,4.8L697.7,85.7z M693,87.1c-0.2,2.1-0.6,4.4-1.1,5.9
		c-0.4-0.2-1.3-0.5-1.7-0.6c0.5-1.5,0.9-3.6,1-5.5L693,87.1z M695.5,86.6c0.3,1.6,0.6,3.7,0.7,5l-1.7,0.4c0-1.4-0.3-3.5-0.6-5.1
		L695.5,86.6z M698.1,86c0.5,1.3,1,3,1.3,4.2l-1.6,0.6c-0.2-1.1-0.8-2.9-1.2-4.2L698.1,86z M710.1,91c0.5,0,0.6-0.5,0.6-3.2
		c0.5,0.4,1.4,0.7,1.9,0.9c-0.2,3.4-0.7,4.4-2.3,4.4h-1.9c-1.9,0-2.3-0.7-2.3-2.8v-7.9l-1.9,0.2c-0.2,5.4-0.9,8.9-5,11
		c-0.2-0.6-0.9-1.4-1.4-1.8c3.5-1.6,4-4.4,4.2-8.9c-1.3,0.1-1.7,0.3-2,0.4c-0.1-0.5-0.5-1.6-0.8-2.2c0.6-0.1,1-0.8,1.7-1.8
		c0.3-0.5,1-1.6,1.8-3.1h-3.2v-2.1h4.3c0.4-1,0.8-2,1.2-3l2.5,0.7c-0.3,0.8-0.7,1.5-1,2.3h5.9v2.1h-7c-0.9,1.6-1.8,3.1-2.7,4.5
		l6.2-0.6c-0.5-0.8-1-1.6-1.4-2.4l1.8-0.8c1.3,1.9,2.7,4.3,3.3,5.9l-2,0.9c-0.2-0.5-0.5-1.2-0.8-1.9l-1.5,0.2v8.1
		c0,0.7,0,0.8,0.6,0.8h1.2V91z"/>
	<path class="st4" d="M726.9,80.4v2.9h8.1v2h-8.1v5.4h9.3v2.1h-20.8v-2.1h9.1v-5.4h-8v-2h8v-2.9h-5.1v-1.3c-1.1,0.6-2.3,1.1-3.5,1.5
		c-0.3-0.7-0.9-1.5-1.5-2.1c4.5-1.4,8.9-4,11.2-7.6l2.1,0.9c-0.2,0.3-0.4,0.6-0.6,0.9c2.4,2.4,6.4,4.7,10.1,5.8
		c-0.5,0.5-1.2,1.4-1.5,2c-1.2-0.4-2.4-1-3.6-1.7v1.5L726.9,80.4L726.9,80.4z M720.2,85.6c0.9,1.3,1.9,3,2.3,4.2l-2,0.8
		c-0.3-1.1-1.3-3-2.2-4.3L720.2,85.6z M730.9,78.3c-1.9-1.1-3.7-2.5-5.1-3.9c-1.4,1.5-3,2.8-4.9,3.9H730.9z M728.7,89.9
		c0.8-1.2,1.8-3,2.3-4.3l2.2,0.8c-0.9,1.5-2,3.2-2.8,4.3L728.7,89.9z"/>
	<path class="st4" d="M739.1,72.2h11.6v1.9h-11.6V72.2z M750.3,91.1c0,0.9-0.1,1.4-0.7,1.7c-0.6,0.3-1.4,0.3-2.6,0.3
		c-0.1-0.5-0.3-1.2-0.5-1.7c0.8,0,1.5,0,1.7,0s0.3-0.1,0.3-0.3v-7.9h-7.2v10.2h-1.8v-12h10.8V91.1z M749.5,80.3h-9.3v-5h9.3V80.3z
		 M745.7,88.3v4.4H744v-4.4h-2.2v-1.5h3c0.6-1,1.2-2.4,1.5-3.3l1.4,0.6c-0.5,0.9-1,1.9-1.5,2.8h1.4v1.5L745.7,88.3L745.7,88.3z
		 M743.3,83.6c0.5,0.8,1.1,1.9,1.3,2.6l-1.3,0.5c-0.2-0.7-0.7-1.9-1.2-2.7L743.3,83.6z M747.5,76.9h-5.3v1.9h5.3V76.9z M759.4,93.4
		c-0.1-0.6-0.2-1.2-0.4-2c-2.7,0.5-5.5,1-7.6,1.4l-0.5-2.1c1.1-0.1,2.4-0.3,3.8-0.6v-5h-3.4v-9.4h3.4v-4.4h2v4.4h3.4v9.4h-3.4v4.7
		l1.9-0.3c-0.3-1-0.6-2-0.9-2.8l1.6-0.4c0.8,2.1,1.6,4.8,1.9,6.5L759.4,93.4z M753,83.3h1.9v-5.5H753V83.3z M758.4,77.8h-1.8v5.5
		h1.8V77.8z"/>
</g>
<g>
	<rect x="616.5" y="71.9" class="st8" width="19.6" height="19.6"/>
	<polygon class="st8" points="636.1,67.2 650.6,81.7 636.1,96.2 	"/>
</g>
<g>
	
		<image style="overflow:visible;opacity:0.25;" width="1526" height="703" xlink:href="CD3A03953C4097E6.png"  transform="matrix(1 0 0 1 37 -826.1)">
	</image>
	<g>
		<g>
			<g>
				<path class="st0" d="M1508.2-144.4H91.8c-18.2,0-32.9-14.7-32.9-32.9v-594.8c0-18.2,14.7-32.9,32.9-32.9h1416.4
					c18.2,0,32.9,14.7,32.9,32.9v594.8C1541.1-159.2,1526.4-144.4,1508.2-144.4z"/>
			</g>
		</g>
	</g>
</g>
<text transform="matrix(1 0 0 1 124.735 -656.4265)" class="st2" style="font-family:'NotoSansTC-Medium-B5pc-H'; font-size:32.27px;">Defi 流動性套利</text>
<text transform="matrix(1 0 0 1 226.135 -583.5967)" class="st2" style="font-family:'NotoSansTC-Medium-B5pc-H'; font-size:32.27px;">期限套利</text>
<text transform="matrix(1 0 0 1 193.835 -508.5967)" class="st2" style="font-family:'NotoSansTC-Medium-B5pc-H'; font-size:32.27px;">保證金放貸</text>
<text transform="matrix(1 0 0 1 290.635 -433.5967)" class="st2" style="font-family:'NotoSansTC-Medium-B5pc-H'; font-size:32.27px;">存股</text>
<text transform="matrix(1 0 0 1 258.435 -358.5967)" class="st2" style="font-family:'NotoSansTC-Medium-B5pc-H'; font-size:32.27px;">儲蓄險</text>
<text transform="matrix(1 0 0 1 226.135 -283.5967)" class="st2" style="font-family:'NotoSansTC-Medium-B5pc-H'; font-size:32.27px;">銀行定存</text>
<text transform="matrix(1 0 0 1 234.1987 -181.4318)" class="st3" style="font-family:'NotoSansTC-Medium-B5pc-H'; font-size:24.2015px;">年化報酬率</text>
<text transform="matrix(1 0 0 1 451.2326 -748.9407)" class="st4" style="font-family:'NotoSansTC-Medium-B5pc-H'; font-size:24.2015px;">區塊鏈世界</text>
<text transform="matrix(1 0 0 1 385.5751 -181.4318)" class="st3" style="font-family:'NotoSansTC-Medium-B5pc-H'; font-size:24.2015px;">0%</text>
<text transform="matrix(1 0 0 1 603.3401 -181.4318)" class="st3" style="font-family:'NotoSansTC-Medium-B5pc-H'; font-size:24.2015px;">5%</text>
<text transform="matrix(1 0 0 1 803.984 -181.4318)" class="st3" style="font-family:'NotoSansTC-Medium-B5pc-H'; font-size:24.2015px;">10%</text>
<text transform="matrix(1 0 0 1 1016.6369 -181.4318)" class="st3" style="font-family:'NotoSansTC-Medium-B5pc-H'; font-size:24.2015px;">15%</text>
<text transform="matrix(1 0 0 1 1229.2898 -181.4318)" class="st3" style="font-family:'NotoSansTC-Medium-B5pc-H'; font-size:24.2015px;">20%</text>
<text transform="matrix(1 0 0 1 1441.9427 -181.4318)" class="st3" style="font-family:'NotoSansTC-Medium-B5pc-H'; font-size:24.2015px;">25%</text>
<g>
	<line class="st5" x1="403.8" y1="-697.2" x2="403.8" y2="-235.2"/>
	<line class="st6" x1="510.2" y1="-697.2" x2="510.2" y2="-235.2"/>
	<line class="st5" x1="616.5" y1="-697.2" x2="616.5" y2="-235.2"/>
	<line class="st6" x1="722.8" y1="-697.2" x2="722.8" y2="-235.2"/>
	<line class="st5" x1="829.1" y1="-697.2" x2="829.1" y2="-235.2"/>
	<line class="st6" x1="935.5" y1="-697.2" x2="935.5" y2="-235.2"/>
	<line class="st5" x1="1041.8" y1="-697.2" x2="1041.8" y2="-235.2"/>
	<line class="st6" x1="1148.1" y1="-697.2" x2="1148.1" y2="-235.2"/>
	<line class="st5" x1="1254.4" y1="-697.2" x2="1254.4" y2="-235.2"/>
	<line class="st6" x1="1360.8" y1="-697.2" x2="1360.8" y2="-235.2"/>
	<line class="st5" x1="1467.1" y1="-697.2" x2="1467.1" y2="-235.2"/>
</g>
<g>
	<rect x="1163.2" y="-683.9" class="st0" width="135.7" height="34.1"/>
	
		<text transform="matrix(1 0 0 1 1173.4078 -655.4268)" class="st7" style="font-family:'NotoSansTC-Bold-B5pc-H'; font-size:32.27px;">15-30%</text>
	<rect x="403.8" y="-683.9" class="st7" width="759.5" height="34.1"/>
	<rect x="1298.5" y="-683.9" class="st7" width="34.1" height="34.1"/>
	<polygon class="st7" points="1332.6,-692.1 1357.8,-666.9 1332.6,-641.6 	"/>
</g>
<g>
	<rect x="985.3" y="-612.7" class="st0" width="135.7" height="34.1"/>
	
		<text transform="matrix(1 0 0 1 1003.1929 -584.2786)" class="st7" style="font-family:'NotoSansTC-Bold-B5pc-H'; font-size:32.27px;">7-35%</text>
	<rect x="403.8" y="-612.7" class="st7" width="581.6" height="34.1"/>
	<rect x="1120.6" y="-612.7" class="st7" width="34.1" height="34.1"/>
	<polygon class="st7" points="1154.7,-620.9 1179.9,-595.7 1154.7,-570.5 	"/>
</g>
<g>
	<rect x="786.4" y="-534.2" class="st0" width="135.7" height="34.1"/>
	
		<text transform="matrix(1 0 0 1 805.5903 -505.7191)" class="st7" style="font-family:'NotoSansTC-Bold-B5pc-H'; font-size:32.27px;">8-20%</text>
	<rect x="403.8" y="-534.2" class="st7" width="382.6" height="34.1"/>
	<rect x="921.6" y="-534.2" class="st7" width="34.1" height="34.1"/>
	<polygon class="st7" points="955.7,-542.3 980.9,-517.1 955.7,-491.9 	"/>
</g>
<g>
	<rect x="447.6" y="-462.6" class="st0" width="115.1" height="34.1"/>
	
		<text transform="matrix(1 0 0 1 464.6874 -434.1451)" class="st8" style="font-family:'NotoSansTC-Bold-B5pc-H'; font-size:32.27px;">3-7%</text>
	<rect x="403.8" y="-462.6" class="st8" width="43.9" height="34.1"/>
	<rect x="562.2" y="-462.6" class="st8" width="34.1" height="34.1"/>
	<polygon class="st8" points="596.3,-470.8 621.5,-445.6 596.3,-420.4 	"/>
</g>
<g>
	<rect x="404.8" y="-386" class="st0" width="115.1" height="34.1"/>
	
		<text transform="matrix(1 0 0 1 421.7975 -357.5709)" class="st8" style="font-family:'NotoSansTC-Bold-B5pc-H'; font-size:32.27px;">2-4%</text>
	<rect x="515.8" y="-386" class="st8" width="17" height="34.1"/>
	<polygon class="st8" points="532.8,-394.2 558.1,-369 532.8,-343.8 	"/>
</g>
<g>
	
		<text transform="matrix(1 0 0 1 449.6432 -276.4175)" class="st8" style="font-family:'NotoSansTC-Bold-B5pc-H'; font-size:32.27px;">1%</text>
	<rect x="404.8" y="-304.9" class="st8" width="17" height="34.1"/>
	<polygon class="st8" points="421.8,-313 447,-287.8 421.8,-262.6 	"/>
</g>
<g>
	<rect x="403.8" y="-768.5" class="st7" width="19.6" height="19.6"/>
	<polygon class="st7" points="423.4,-773.2 437.9,-758.7 423.4,-744.3 	"/>
</g>
<text transform="matrix(1 0 0 1 665.2155 -748.9407)" class="st4" style="font-family:'NotoSansTC-Medium-B5pc-H'; font-size:24.2015px;">傳統金融</text>
<g>
	<rect x="616.5" y="-768.5" class="st8" width="19.6" height="19.6"/>
	<polygon class="st8" points="636.1,-773.2 650.6,-758.7 636.1,-744.3 	"/>
</g>
</svg>
