<?xml version="1.0" encoding="utf-8"?>
<!-- Generator: Adobe Illustrator 24.0.3, SVG Export Plug-In . SVG Version: 6.00 Build 0)  -->
<svg version="1.1" id="圖層_1" xmlns="http://www.w3.org/2000/svg" xmlns:xlink="http://www.w3.org/1999/xlink" x="0px" y="0px"
	 viewBox="0 0 905.6 561.9" style="enable-background:new 0 0 905.6 561.9;" xml:space="preserve">
<style type="text/css">
	.st0{fill:url(#SVGID_1_);}
	.st1{fill:url(#SVGID_2_);}
	.st2{fill:#FFFFFF;}
	.st3{fill:url(#SVGID_3_);}
	.st4{fill:url(#SVGID_4_);}
	.st5{fill:#1F273A;}
	.st6{fill:#CAB380;}
	.st7{fill:none;stroke:#CAB380;stroke-width:2.5246;stroke-linecap:round;stroke-linejoin:round;}
	.st8{fill:none;stroke:#CAB380;stroke-width:2.5246;stroke-linecap:round;stroke-linejoin:round;stroke-dasharray:0.6312,7.574;}
	.st9{fill:none;stroke:url(#SVGID_5_);stroke-width:3.787;}
	.st10{fill:none;stroke:url(#SVGID_6_);stroke-width:3.787;}
	.st11{enable-background:new    ;}
	.st12{fill:#302847;}
	.st13{clip-path:url(#SVGID_8_);}
	.st14{fill:#824D47;fill-opacity:0;}
	.st15{opacity:6.666667e-02;fill:#824D47;enable-background:new    ;}
	.st16{opacity:0.1333;fill:#824D47;enable-background:new    ;}
	.st17{opacity:0.2;fill:#824D47;enable-background:new    ;}
	.st18{opacity:0.2667;fill:#824D47;enable-background:new    ;}
	.st19{opacity:0.3333;fill:#824D47;enable-background:new    ;}
	.st20{opacity:0.4;fill:#824D47;enable-background:new    ;}
	.st21{opacity:0.4667;fill:#824D47;enable-background:new    ;}
	.st22{opacity:0.5333;fill:#824D47;enable-background:new    ;}
	.st23{opacity:0.6;fill:#824D47;enable-background:new    ;}
	.st24{opacity:0.6667;fill:#824D47;enable-background:new    ;}
	.st25{opacity:0.7333;fill:#824D47;enable-background:new    ;}
	.st26{opacity:0.8;fill:#824D47;enable-background:new    ;}
	.st27{opacity:0.8667;fill:#824D47;enable-background:new    ;}
	.st28{opacity:0.9333;fill:#824D47;enable-background:new    ;}
	.st29{fill:#824D47;}
	.st30{clip-path:url(#SVGID_12_);}
	.st31{clip-path:url(#SVGID_16_);}
	.st32{clip-path:url(#SVGID_20_);}
	.st33{clip-path:url(#SVGID_24_);}
	.st34{clip-path:url(#SVGID_28_);}
	.st35{clip-path:url(#SVGID_32_);}
	.st36{clip-path:url(#SVGID_36_);}
	.st37{clip-path:url(#SVGID_40_);}
	.st38{clip-path:url(#SVGID_44_);}
	.st39{clip-path:url(#SVGID_48_);}
	.st40{clip-path:url(#SVGID_52_);}
	.st41{fill:none;stroke:url(#SVGID_55_);stroke-width:3.787;}
	.st42{fill:none;stroke:url(#SVGID_56_);stroke-width:3.787;}
	.st43{fill:#858585;}
</style>
<symbol  id="鍒鼨懧鎀" viewBox="-53.8 -35.2 107.6 70.4">
	
		<linearGradient id="SVGID_1_" gradientUnits="userSpaceOnUse" x1="-161.2" y1="-76.9" x2="-53.7" y2="-76.9" gradientTransform="matrix(1 0 0 1 107.5 70.4)">
		<stop  offset="4.838970e-02" style="stop-color:#997047"/>
		<stop  offset="0.1875" style="stop-color:#E3D46A"/>
		<stop  offset="0.3801" style="stop-color:#9C6547"/>
		<stop  offset="0.7386" style="stop-color:#F2DFA9"/>
		<stop  offset="0.8892" style="stop-color:#CB8347"/>
		<stop  offset="1" style="stop-color:#D5B447"/>
	</linearGradient>
	<path class="st0" d="M53.7-4.9V9.5l-8.9-0.1C35.1,17.1,18.7,22.2,0,22.2c-19.3,0-36.2-5.4-45.7-13.6l-7.9-0.1V-4.6
		c-0.1-0.6-0.1-1.3-0.1-1.9c0-15.8,24.1-28.7,53.8-28.7S53.8-22.4,53.8-6.5C53.8-6,53.7-5.4,53.7-4.9z"/>
	
		<linearGradient id="SVGID_2_" gradientUnits="userSpaceOnUse" x1="-161.3" y1="-63.9" x2="-53.7" y2="-63.9" gradientTransform="matrix(1 0 0 1 107.5 70.4)">
		<stop  offset="1.267540e-02" style="stop-color:#D8A147"/>
		<stop  offset="0.7291" style="stop-color:#F6E582"/>
		<stop  offset="1" style="stop-color:#FFFFFB"/>
	</linearGradient>
	<ellipse class="st1" cx="0" cy="6.5" rx="53.8" ry="28.7"/>
	<path class="st2" d="M0-22.2c-29.1,0-52.7,12.3-53.7,27.7c0-0.3,0-0.7,0-1c0-15.8,24.1-28.7,53.8-28.7S53.8-11.4,53.8,4.5
		c0,0.3,0,0.7,0,1C52.7-9.9,29.1-22.2,0-22.2z"/>
	
		<linearGradient id="SVGID_3_" gradientUnits="userSpaceOnUse" x1="-151.5" y1="-61.9" x2="-63.5" y2="-61.9" gradientTransform="matrix(1 0 0 1 107.5 70.4)">
		<stop  offset="1.267540e-02" style="stop-color:#FFFFD8"/>
		<stop  offset="0.3697" style="stop-color:#B48747"/>
		<stop  offset="0.7291" style="stop-color:#FFFFE8"/>
		<stop  offset="1" style="stop-color:#BC8D47"/>
	</linearGradient>
	<ellipse class="st3" cx="0" cy="8.5" rx="44" ry="23.5"/>
	
		<linearGradient id="SVGID_4_" gradientUnits="userSpaceOnUse" x1="-148.9917" y1="-61.9" x2="-66.4993" y2="-61.9" gradientTransform="matrix(1 0 0 1 107.5 70.4)">
		<stop  offset="1.267540e-02" style="stop-color:#D8A147"/>
		<stop  offset="0.7291" style="stop-color:#F6E582"/>
		<stop  offset="1" style="stop-color:#FFFFFB"/>
	</linearGradient>
	<ellipse class="st4" cx="-0.2" cy="8.5" rx="41.2" ry="21.3"/>
</symbol>
<g>
	<g id="XMLID_269_">
		<g id="XMLID_530_">
			<path class="st2" d="M-739.2-222.2c0,3-2.4,5.4-5.4,5.4s-5.4-2.4-5.4-5.4s2.4-5.4,5.4-5.4S-739.2-225.2-739.2-222.2z"/>
		</g>
		<g id="XMLID_531_">
			<path class="st5" d="M-751-214.5c-4.1,0-7.6-3.4-7.6-7.6c0-4.1,3.4-7.6,7.6-7.6c4.1,0,7.6,3.4,7.6,7.6
				C-743.4-218-746.8-214.5-751-214.5z M-751-225.5c-1.9,0-3.3,1.5-3.3,3.3c0,1.9,1.5,3.3,3.3,3.3c1.9,0,3.3-1.5,3.3-3.3
				S-749.2-225.5-751-225.5z"/>
		</g>
	</g>
	<g id="XMLID_270_">
		<g id="XMLID_526_">
			<path class="st2" d="M-565.7-189.2c0,3-2.4,5.4-5.4,5.4s-5.4-2.4-5.4-5.4s2.4-5.4,5.4-5.4C-568.1-194.7-565.7-192.3-565.7-189.2z
				"/>
		</g>
		<g id="XMLID_527_">
			<path class="st5" d="M-577.6-181.7c-4.1,0-7.6-3.4-7.6-7.6s3.4-7.6,7.6-7.6s7.6,3.4,7.6,7.6
				C-569.9-185.1-573.3-181.7-577.6-181.7z M-577.6-192.6c-1.9,0-3.3,1.5-3.3,3.3c0,1.9,1.5,3.3,3.3,3.3c1.9,0,3.3-1.5,3.3-3.3
				C-574.1-191.1-575.7-192.6-577.6-192.6z"/>
		</g>
	</g>
	<g id="XMLID_252_">
		<g id="XMLID_257_">
			<g id="XMLID_457_">
				<g>
					<path class="st6" d="M-656.2-71.1c-0.1-0.1-0.2-0.1-0.2-0.2c-8.8-5-23-5-31.8,0c-0.1,0.1-0.2,0.1-0.2,0.2h-6.1
						c-0.2,0-0.2,0.1-0.2,0.2v8.8l0,0c0,4.8,4.5,9.5,13.6,11.9c5.8,1.5,11.9,1.5,17.7,0c9.1-2.4,13.6-7.2,13.6-11.9l0,0v-8.8
						c0-0.2-0.1-0.2-0.2-0.2C-650-71.1-656.2-71.1-656.2-71.1z"/>
				</g>
			</g>
			<g id="XMLID_458_">
				<path class="st5" d="M-672.3-46.9c-3.2,0-6.3-0.4-9.4-1.2c-9.5-2.5-15.1-7.8-15.1-14v-8.8c0-1.3,1.1-2.4,2.4-2.4h5.5
					c9.4-5.4,24-5.4,33.5,0h5.5c1.3,0,2.4,1.1,2.4,2.4v8.8c0,6.3-5.7,11.5-15.2,14C-666-47.3-669.2-46.9-672.3-46.9z M-692.6-69v6.9
					c0,4.1,4.6,8,12,9.9c5.4,1.5,11.2,1.5,16.6,0c7.4-2,12-5.8,12-9.9V-69h-4.8l-0.7-0.4c-8.2-4.7-21.5-4.7-29.6,0l-0.7,0.5
					L-692.6-69L-692.6-69z"/>
			</g>
		</g>
		<g id="XMLID_256_">
			<g id="XMLID_797_">
				<path class="st5" d="M-650.1-71.1h-6.1c-0.1-0.1-0.2-0.1-0.2-0.2c-3.7-2.2-8.5-3.4-13.4-3.7v25.9c2.2-0.2,4.3-0.5,6.4-1.1
					c9.1-2.4,13.6-7.2,13.6-11.9v-8.8C-649.8-71-650-71.1-650.1-71.1z"/>
			</g>
		</g>
		<g id="XMLID_255_">
			<g id="XMLID_453_">
				<g>
					<path class="st6" d="M-656.4-80.3c8.8,5,8.8,13.2,0,18.4c-8.8,5-23,5-31.8,0s-8.8-13.2,0-18.4
						C-679.4-85.4-665.2-85.4-656.4-80.3z"/>
				</g>
			</g>
			<g id="XMLID_454_">
				<path class="st5" d="M-672.3-56c-6.1,0-12.2-1.4-17-4.1c-5-2.8-7.6-6.7-7.6-11c0-4.2,2.7-8.1,7.6-11c9.5-5.5,24.4-5.5,33.9,0
					l0,0c5,2.8,7.6,6.7,7.6,11c0,4.2-2.7,8.1-7.6,11C-660.1-57.4-666.2-56-672.3-56z M-672.3-82c-5.4,0-10.7,1.2-14.8,3.6
					c-3.6,2-5.5,4.6-5.5,7.3c0,2.7,1.9,5.3,5.5,7.3c8.2,4.7,21.4,4.7,29.6,0c3.6-2,5.5-4.6,5.5-7.3s-1.9-5.3-5.5-7.3
					C-661.6-80.9-667-82-672.3-82z"/>
			</g>
		</g>
		<g id="XMLID_254_">
			<g id="XMLID_448_">
				<path class="st2" d="M-663.5-68.7c-4.9-2.1-12.8-2.1-17.5,0c-4.9,2.1-4.9,5.6,0,7.7c4.9,2.1,12.8,2.1,17.5,0
					C-658.7-63.1-658.7-66.5-663.5-68.7z"/>
			</g>
			<g id="XMLID_450_">
				<path class="st5" d="M-672.3-63.6c-3.5,0-6.9-0.6-9.7-1.8c-4.3-1.9-4.9-4.5-4.9-5.8c0-1.4,0.6-3.9,4.9-5.8
					c5.4-2.4,13.9-2.4,19.2,0c4.3,1.9,4.9,4.5,4.9,5.8c0,1.4-0.6,3.9-4.9,5.8C-665.3-64.1-668.8-63.6-672.3-63.6z M-672.3-74.5
					c-2.9,0-5.8,0.5-8,1.4c-1.9,0.9-2.4,1.7-2.4,1.9c0,0.2,0.4,1.1,2.4,1.9c4.3,1.9,11.5,1.9,15.8,0c1.9-0.9,2.4-1.7,2.4-1.9
					c0-0.2-0.4-1.1-2.4-1.9l0,0C-666.5-74.1-669.4-74.5-672.3-74.5z"/>
			</g>
		</g>
		<g id="XMLID_253_">
			<g id="XMLID_449_">
				<rect x="-686.9" y="-60.9" class="st5" width="4.2" height="9"/>
			</g>
		</g>
	</g>
	<g id="XMLID_157_">
		<g id="XMLID_238_">
			<g id="XMLID_225_">
				<g id="XMLID_224_">
					<g id="XMLID_222_">
						<g id="XMLID_496_">
							<g>
								<path class="st6" d="M-763-110.1l59.6-104.1l0,0l10.1,3.7l0,0l60.3-109.1l0,0v134.5l0,0L-763-110.1
									C-763-110-763-110-763-110.1z"/>
							</g>
						</g>
						<g id="XMLID_497_">
							<path class="st5" d="M-763.4-107.4l-2.3-2.3l0.8-1.5l60.6-105.7l1.7,0.6l8.3,3.1l60.2-109l3.2,2.3v0.2v135.8l-1.2,0.6
								L-763.4-107.4z M-702.5-211.5l-54.9,95.8l122.2-70.6v-125.1l-56.7,102.7l-1.6,0.6l-0.7-0.3L-702.5-211.5z"/>
						</g>
					</g>
					<g id="XMLID_220_">
						<g id="XMLID_492_">
							<path class="st5" d="M-743.5-98.7l59.6-104.2l0,0l10.1,3.7l0,0l60.3-109.1l0,0v134.5l0,0L-743.5-98.7
								C-743.4-98.7-743.5-98.7-743.5-98.7z"/>
						</g>
						<g id="XMLID_493_">
							<path class="st5" d="M-743.7-96.1l-2.3-2.3l0.8-1.5l59.6-103.9l0.8-1.8l1.9,0.7l8.3,3.1l60.2-109l3.2,1.1v1.3v135.6l-1,0.6
								L-743.7-96.1z M-682.9-200.3l-54.9,95.8l122.2-70.6v-125l-57.3,103.6L-682.9-200.3z"/>
						</g>
					</g>
					<g id="XMLID_216_">
						<g id="XMLID_488_">
							<g>
								<path class="st6" d="M-763-110l19.6,11.4l0,0l59.7-104.1l0,0l-19.6-11.4l0,0L-763-110L-763-110z"/>
							</g>
						</g>
						<g id="XMLID_749_">
							<path class="st2" d="M-700.7-202.7L-700.7-202.7l-55.6,97.1l12.8,7.4l0,0l55.6-97.1L-700.7-202.7z"/>
						</g>
						<g id="XMLID_489_">
							<path class="st5" d="M-743.7-96.1l-0.8-0.8l-19.4-11.2l-0.8-0.3l-0.6-2l0.6-0.7l60.5-105.7l2,0.8l20.3,11.8l0.5,1.8l-0.6,0.8
								l-59.7,104.2L-743.7-96.1z M-760.2-110.8l15.9,9.3l57.6-100.5l-15.9-9.3L-760.2-110.8z"/>
						</g>
					</g>
					<g id="XMLID_223_">
						<g id="XMLID_484_">
							<g>
								<path class="st6" d="M-693.4-210.5l60.3-109.1l0,0l19.6,11.4l0,0l-60.3,109.1l0,0L-693.4-210.5
									C-693.4-210.4-693.4-210.5-693.4-210.5z"/>
							</g>
						</g>
						<g id="XMLID_552_">
							<path class="st2" d="M-630.4-308.1L-630.4-308.1l-56.3,101.8l12.7,7.3l0,0l56.2-101.8L-630.4-308.1z"/>
						</g>
						<g id="XMLID_485_">
							<path class="st5" d="M-672.9-196.2l-1.9-1.1l-21.1-12.3l0.8-1.9l61.3-111.1l1.9,1.1l20.6,11.9l-0.2,2.3L-672.9-196.2z
								 M-690.5-211.2l16,9.3l58.2-105.6l-15.9-9.3L-690.5-211.2z"/>
						</g>
					</g>
				</g>
				<g id="XMLID_226_">
					<g id="XMLID_230_">
						<g id="XMLID_480_">
							<g>
								<path class="st6" d="M-728.2-93.5L-677-183l0,0l8.6,3.2l0,0l51.8-93.9l0,0v115.6l0,0L-728.2-93.5L-728.2-93.5z"/>
							</g>
						</g>
						<g id="XMLID_481_">
							<path class="st5" d="M-728.4-90.9L-730-92v-2.6l52.1-91l8.6,3.2l51.7-93.7l3.2,0.8v1.7v116.9l-1.1,0.6L-728.4-90.9z
								 M-676-180.4l-46.5,81.2l103.9-60v-106.3l-48.7,88.4L-676-180.4z"/>
						</g>
					</g>
					<g id="XMLID_229_">
						<g id="XMLID_476_">
							<path class="st5" d="M-711.3-83.8l51.2-89.5l0,0l8.6,3.2l0,0l51.8-93.9l0,0v115.6l0,0L-711.3-83.8L-711.3-83.8z"/>
						</g>
						<g id="XMLID_477_">
							<path class="st5" d="M-710.7-81.8c-0.6,0.3-1.4,0.2-1.9-0.2l-1.4-1.4l0.7-1.5l51.7-90.2l1.8-0.5l0.6,0.4l6.7,2.5l51.7-93.6
								l3.2,0.7v1.7v117l-1.2,0.6L-710.7-81.8z M-659.1-170.7l-46.5,81.2l103.9-60v-106.3l-48.9,88.5l-1.7-0.8L-659.1-170.7z"/>
						</g>
					</g>
					<g id="XMLID_228_">
						<g id="XMLID_472_">
							<g>
								<path class="st6" d="M-728.2-93.5l16.8,9.7l0,0l51.3-89.5l0,0l-16.8-9.7l0,0L-728.2-93.5L-728.2-93.5z"/>
							</g>
						</g>
						<g id="XMLID_750_">
							<path class="st2" d="M-674-173.5L-674-173.5l-48,83.8l10.7,6.2l0,0l48-83.8L-674-173.5z"/>
						</g>
						<g id="XMLID_473_">
							<path class="st5" d="M-711.3-81.4l-1-0.5L-730-92.1l-0.5-1.9l0.5-0.7l51.4-89.7l1.1-1.5l1.7,1.1l17.5,10.2l0.4,1.9l-0.5,0.7
								L-711.3-81.4z M-725.4-94.3l13.2,7.6l49.2-85.9l-13.2-7.6L-725.4-94.3z"/>
						</g>
					</g>
					<g id="XMLID_227_">
						<g id="XMLID_461_">
							<g>
								<path class="st6" d="M-668.3-179.9l51.8-93.9l0,0l16.8,9.7l0,0l-51.8,93.9l0,0L-668.3-179.9L-668.3-179.9z"/>
							</g>
						</g>
						<g id="XMLID_751_">
							<path class="st2" d="M-614-263.3C-614-263.4-614-263.3-614-263.3l-48.2,87.1l10.2,5.8l0,0l48.1-87.1L-614-263.3z"/>
						</g>
						<g id="XMLID_469_">
							<path class="st5" d="M-650.5-167.3l-1.9-0.9l-16.8-9.7l-0.7-0.3l-0.6-1.7l0.5-0.9l52.8-95.7l1.9,0.9l18.7,10.8l-0.9,1.8
								L-650.5-167.3z M-665.4-180.7l13.2,7.6l49.8-90.2l-13.2-7.6L-665.4-180.7z"/>
						</g>
					</g>
				</g>
			</g>
			<g id="XMLID_232_">
				<g id="XMLID_468_">
					<g>
						<polygon class="st6" points="-624.8,-157.6 -626.9,-161.3 -608.2,-172.1 -608.2,-236.1 -603.9,-236.1 -603.9,-169.6 						"/>
					</g>
				</g>
			</g>
			<g id="XMLID_233_">
				<g id="XMLID_467_">
					<g>
						
							<rect x="-644.6" y="-154.6" transform="matrix(0.8665 -0.4992 0.4992 0.8665 -9.0327 -338.8214)" class="st6" width="13.3" height="4.2"/>
					</g>
				</g>
			</g>
			<g id="XMLID_235_">
				<g id="XMLID_466_">
					<g>
						
							<rect x="-703.3" y="-170.5" transform="matrix(0.4969 -0.8678 0.8678 0.4969 -203.7117 -688.1485)" class="st6" width="15.9" height="4.2"/>
					</g>
				</g>
			</g>
			<g id="XMLID_231_">
				<g id="XMLID_465_">
					<g>
						
							<rect x="-742.2" y="-134.2" transform="matrix(0.4969 -0.8678 0.8678 0.4969 -245.6746 -687.9521)" class="st6" width="52.1" height="4.2"/>
					</g>
				</g>
			</g>
			<g id="XMLID_236_">
				<g id="XMLID_464_">
					<g>
						
							<rect x="-644.3" y="-271.4" transform="matrix(0.4969 -0.8678 0.8678 0.4969 -81.9588 -680.0012)" class="st6" width="33.7" height="4.2"/>
					</g>
				</g>
			</g>
			<g id="XMLID_234_">
				<g id="XMLID_463_">
					<g>
						
							<rect x="-655.2" y="-146.7" transform="matrix(0.8665 -0.4992 0.4992 0.8665 -14.8344 -344.7037)" class="st6" width="6.7" height="4.2"/>
					</g>
				</g>
			</g>
			<g id="XMLID_237_">
				<g id="XMLID_462_">
					<g>
						
							<rect x="-643.4" y="-249.5" transform="matrix(0.4973 -0.8676 0.8676 0.4973 -107.1315 -679.5954)" class="st6" width="6.8" height="4.2"/>
					</g>
				</g>
			</g>
		</g>
		<g id="XMLID_266_">
			<g id="XMLID_267_">
				<g id="XMLID_444_">
					<g>
						<path class="st6" d="M-549.3-125l-75.4,43.5c-1.5,0.9-4.1,0.7-5.8-0.2l-31.9-18.4c-1.7-1-1.9-2.5-0.4-3.3l75.4-43.5
							c1.5-0.9,4.1-0.7,5.8,0.2l31.9,18.4C-548-127.3-547.8-125.8-549.3-125z"/>
					</g>
				</g>
				<g id="XMLID_445_">
					<path class="st5" d="M-627.3-78.7c-1.5,0-3.1-0.4-4.3-1.1l-31.9-18.4c-1.5-0.9-2.5-2.3-2.5-3.7c0-1.3,0.7-2.5,2-3.3l75.4-43.5
						c2.1-1.2,5.5-1.1,8,0.2l31.9,18.4c1.5,0.9,2.5,2.3,2.5,3.7c0,1.3-0.7,2.5-2,3.3l-75.4,43.5C-624.7-79-626-78.7-627.3-78.7z
						 M-661.4-101.9l31.8,18.4c1.1,0.6,2.9,0.6,3.7,0.2l75-43.3l-31.8-18.3c-1.1-0.6-2.9-0.6-3.7-0.2L-661.4-101.9z"/>
				</g>
			</g>
			<g id="XMLID_261_">
				<g id="XMLID_440_">
					<g>
						<path class="st6" d="M-549.3-135.9l-75.4,43.5c-1.5,0.9-4.1,0.7-5.8-0.2l-31.9-18.4c-1.7-1-1.9-2.5-0.4-3.3l75.4-43.5
							c1.5-0.9,4.1-0.7,5.8,0.2l31.9,18.4C-548-138.3-547.8-136.8-549.3-135.9z"/>
					</g>
				</g>
				<g id="XMLID_441_">
					<path class="st5" d="M-627.3-89.7c-1.5,0-3.1-0.4-4.3-1.1l-31.9-18.4c-1.5-0.9-2.5-2.3-2.5-3.7c0-1.3,0.7-2.5,2-3.3l75.4-43.5
						c2.1-1.2,5.5-1.1,8,0.2l31.9,18.4c1.5,0.9,2.5,2.3,2.5,3.7c0,1.3-0.7,2.5-2,3.3l-75.4,43.5C-624.7-90.1-626-89.7-627.3-89.7z
						 M-661.4-112.9l31.8,18.4c1.1,0.6,2.9,0.6,3.7,0.2l75-43.3l-31.8-18.3c-1.1-0.6-2.9-0.6-3.7-0.2L-661.4-112.9z"/>
				</g>
			</g>
			<g id="XMLID_260_">
				<g id="XMLID_240_">
					<g id="XMLID_436_">
						<g>
							<path class="st6" d="M-549.3-147l-75.4,43.5c-1.5,0.9-4.1,0.7-5.8-0.2l-31.9-18.4c-1.7-1-1.9-2.5-0.4-3.3l75.4-43.5
								c1.5-0.9,4.1-0.7,5.8,0.2l31.9,18.4C-548-149.3-547.8-147.9-549.3-147z"/>
						</g>
					</g>
					<g id="XMLID_437_">
						<path class="st5" d="M-627.3-100.8c-1.5,0-3.1-0.4-4.3-1.1l-31.9-18.4c-1.5-0.9-2.5-2.3-2.5-3.7c0-1.3,0.7-2.5,2-3.3
							l75.4-43.5c2.1-1.2,5.5-1.1,8,0.2l31.9,18.4c1.5,0.9,2.5,2.3,2.5,3.7c0,1.3-0.7,2.5-2,3.3l-75.4,43.5
							C-624.7-101-626-100.8-627.3-100.8z M-661.4-123.9l31.8,18.4c1.1,0.6,2.9,0.6,3.7,0.2l75-43.3l-31.8-18.4
							c-1.1-0.6-2.9-0.6-3.7-0.2L-661.4-123.9z"/>
					</g>
				</g>
				<g id="XMLID_259_">
					<g id="XMLID_432_">
						<path class="st2" d="M-566.4-139.6l-59.5,34.4c-0.8,0.5-2.2,0.4-3.1-0.2l-17.5-10.1c-0.9-0.6-1.1-1.3-0.2-1.8l59.5-34.4
							c0.8-0.5,2.2-0.4,3.1,0.2l17.5,10.1C-565.7-140.8-565.6-140-566.4-139.6z"/>
					</g>
					<g id="XMLID_433_">
						<path class="st5" d="M-626.9-110.7c-1,0-1.9-0.2-2.8-0.7l-17.5-10.1c-1.1-0.6-1.8-1.7-1.8-2.8s0.6-2,1.6-2.6l59.5-34.4
							c1.5-0.8,3.7-0.8,5.2,0.2l17.5,10.1c1.1,0.6,1.8,1.7,1.8,2.8s-0.6,2-1.6,2.6l0,0l-59.5,34.4
							C-625.1-110.8-626-110.7-626.9-110.7z M-643.4-124.2l15.9,9.2c0.3,0.2,0.8,0.2,1,0.1l57.7-33.4l-15.9-9.2
							c-0.3-0.2-0.8-0.2-1-0.1L-643.4-124.2z"/>
					</g>
				</g>
				<g id="XMLID_258_">
					<g id="XMLID_428_">
						<g>
							<path class="st6" d="M-597.3-141.3c5.8,3.3,6.4,8.3,1.5,11c-4.9,2.8-13.4,2.4-19.2-0.9c-5.8-3.3-6.4-8.3-1.5-11
								C-611.6-145-603.1-144.6-597.3-141.3z"/>
						</g>
					</g>
					<g id="XMLID_551_">
						<path class="st2" d="M-616.5-136.5c-1,0.6-1.7,1.2-2.3,1.9c0.8,1.2,2.1,2.4,3.8,3.4c5.8,3.3,14.3,3.7,19.2,0.9
							c1-0.6,1.7-1.2,2.3-1.9c-0.8-1.2-2.1-2.4-3.8-3.4C-603.1-138.9-611.6-139.3-616.5-136.5z"/>
					</g>
					<g id="XMLID_429_">
						<path class="st5" d="M-603.9-126.3c-4.1,0-8.5-1.1-12.1-3.1c-3.7-2.1-5.8-5.1-5.8-8.2c0-2.6,1.5-5,4.3-6.5
							c5.5-3.2,14.9-2.8,21.3,0.9c3.7,2.1,5.8,5.1,5.8,8.2c0,2.6-1.5,5-4.3,6.5C-597.1-127-600.5-126.3-603.9-126.3z M-608.3-141.9
							c-2.7,0-5.2,0.5-7.1,1.5c-1,0.6-2.2,1.5-2.2,2.8c0,1.5,1.4,3.2,3.7,4.5c5,2.9,12.8,3.3,17.1,0.9c1-0.6,2.2-1.5,2.2-2.8
							c0-1.5-1.4-3.2-3.7-4.5C-601.2-141.1-604.9-141.9-608.3-141.9z"/>
					</g>
				</g>
			</g>
		</g>
		<g id="XMLID_137_">
			<g id="XMLID_195_">
				<g>
					<polygon id="XMLID_9_" class="st5" points="-769.7,-122 -773.4,-124.1 -711.1,-232.7 -701.2,-229 -640.1,-339.6 -636.4,-337.6 
						-699.2,-223.7 -709.3,-227.5 					"/>
				</g>
			</g>
			<g id="XMLID_197_">
				<polygon class="st5" points="-630.9,-350 -649.2,-340 -631.6,-329.5 				"/>
			</g>
		</g>
	</g>
</g>
<g>
	<g>
		<line class="st7" x1="-570.5" y1="94.4" x2="-570.8" y2="94.4"/>
		<line class="st8" x1="-490" y1="94.4" x2="-614.2" y2="94.4"/>
		<line class="st7" x1="-616.8" y1="94.4" x2="-617.1" y2="94.4"/>
	</g>
</g>
<g>
	
		<linearGradient id="SVGID_5_" gradientUnits="userSpaceOnUse" x1="-710.8033" y1="308.2565" x2="-710.8033" y2="832.7435" gradientTransform="matrix(1 0 0 -1 0 816.75)">
		<stop  offset="0" style="stop-color:#CAB380;stop-opacity:0"/>
		<stop  offset="0.5558" style="stop-color:#CAB380"/>
		<stop  offset="1" style="stop-color:#CAB380;stop-opacity:0"/>
	</linearGradient>
	<path class="st9" d="M-841.9-14.1c143.8,0,260.3,116.6,260.3,260.3s-116.5,260.4-260.3,260.4"/>
	
		<linearGradient id="SVGID_6_" gradientUnits="userSpaceOnUse" x1="-972.9968" y1="832.7435" x2="-972.9968" y2="308.3565" gradientTransform="matrix(1 0 0 -1 0 816.75)">
		<stop  offset="0" style="stop-color:#CAB380;stop-opacity:0"/>
		<stop  offset="0.5558" style="stop-color:#CAB380"/>
		<stop  offset="1" style="stop-color:#CAB380;stop-opacity:0"/>
	</linearGradient>
	<path class="st10" d="M-841.9,506.5c-143.8,0-260.3-116.6-260.3-260.3S-985.6-14.1-841.9-14.1"/>
</g>
<g>
	<path class="st2" d="M-630.4,105.8c-6.3,0-11.4-5.1-11.4-11.4s5.1-11.4,11.4-11.4c6.3,0,11.4,5.1,11.4,11.4
		C-619,100.7-624.1,105.8-630.4,105.8z"/>
	<path class="st6" d="M-630.4,84.8c5.2,0,9.6,4.3,9.6,9.6c0,5.3-4.3,9.6-9.6,9.6s-9.6-4.3-9.6-9.6C-640,89.1-635.6,84.8-630.4,84.8
		 M-630.4,81.1c-7.4,0-13.3,5.9-13.3,13.3s5.9,13.3,13.3,13.3c7.4,0,13.3-5.9,13.3-13.3C-617.1,87-623,81.1-630.4,81.1L-630.4,81.1z
		"/>
</g>
<g>
	
		<text transform="matrix(1 0 0 1 -474.55 138.2552)" class="st43" style="font-family:'NotoSansTC-Medium-B5pc-H'; font-size:20.3677px;">無須手續費</text>
</g>
<text transform="matrix(1 0 0 1 -474.4211 102.39)" class="st5" style="font-family:'NotoSansTC-Bold-B5pc-H'; font-size:28.4431px;">0%申購手續費</text>
<g>
	<g>
		<line class="st7" x1="-570.5" y1="397" x2="-570.8" y2="397"/>
		<line class="st8" x1="-490" y1="397" x2="-614.2" y2="397"/>
		<line class="st7" x1="-616.8" y1="397" x2="-617.1" y2="397"/>
	</g>
</g>
<g>
	<path class="st2" d="M-630.4,408.4c-6.3,0-11.4-5.1-11.4-11.4s5.1-11.4,11.4-11.4c6.3,0,11.4,5.1,11.4,11.4
		S-624.1,408.4-630.4,408.4z"/>
	<path class="st6" d="M-630.4,387.4c5.2,0,9.6,4.3,9.6,9.6s-4.3,9.6-9.6,9.6s-9.6-4.3-9.6-9.6C-640,391.7-635.6,387.4-630.4,387.4
		 M-630.4,383.7c-7.4,0-13.3,5.9-13.3,13.3s5.9,13.3,13.3,13.3c7.4,0,13.3-5.9,13.3-13.3S-623,383.7-630.4,383.7L-630.4,383.7z"/>
</g>
<g>
	
		<text transform="matrix(1 0 0 1 -474.55 440.9047)" class="st43" style="font-family:'NotoSansTC-Medium-B5pc-H'; font-size:20.3677px;">約滿到期管理費</text>
</g>
<text transform="matrix(1 0 0 1 -474.4211 405.0385)" class="st5" style="font-family:'NotoSansTC-Bold-B5pc-H'; font-size:28.4431px;">0~1%管理費</text>
<g>
	<g>
		<line class="st7" x1="-519.9" y1="246.1" x2="-520.2" y2="246.1"/>
		<line class="st8" x1="-439.4" y1="246.1" x2="-563.6" y2="246.1"/>
		<line class="st7" x1="-566.2" y1="246.1" x2="-566.5" y2="246.1"/>
	</g>
</g>
<g>
	<path class="st2" d="M-579.8,257.6c-6.3,0-11.4-5.1-11.4-11.4c0-6.3,5.1-11.4,11.4-11.4c6.3,0,11.4,5.1,11.4,11.4
		C-568.4,252.4-573.6,257.6-579.8,257.6z"/>
	<path class="st6" d="M-579.8,236.6c5.2,0,9.6,4.3,9.6,9.6s-4.3,9.6-9.6,9.6s-9.6-4.3-9.6-9.6C-589.4,240.9-585.1,236.6-579.8,236.6
		 M-579.8,232.9c-7.4,0-13.3,5.9-13.3,13.3c0,7.4,5.9,13.3,13.3,13.3s13.3-5.9,13.3-13.3C-566.5,238.8-572.5,232.9-579.8,232.9
		L-579.8,232.9z"/>
</g>
<g>
	
		<text transform="matrix(1 0 0 1 -424.03 291.5365)" class="st43" style="font-family:'NotoSansTC-Medium-B5pc-H'; font-size:20.3677px;">產生獲利時收取</text>
</g>
<text transform="matrix(1 0 0 1 -423.9016 255.6703)" class="st5" style="font-family:'NotoSansTC-Bold-B5pc-H'; font-size:28.4431px;">0~30%績效費</text>
<g>
	<g>
		<g>
			<path class="st5" d="M227.5-269.2c-0.2-5.3-5.4-9.5-15.4-12.6c-7.8-2.3-17.6-3.7-28.3-4v-40.7c0-0.7-0.2-1.3-0.6-1.9
				c-1.1-4.6-6.2-8.3-15.3-11.1c-8.6-2.6-19.8-4-31.5-4s-22.8,1.4-31.2,4c-6.9,2.1-15.2,6.1-15.2,12.9c0,0.4,0,0.8,0.1,1.3l0.4,17.4
				c-24.8-4.7-48.7,11.5-53.3,36.3c-0.5,2.8-0.8,5.6-0.8,8.5c0,25.1,20.5,45.6,45.6,45.6c10.5,0,20.6-3.6,28.7-10.2
				c7.1,1.7,15.5,2.6,24.4,2.7c1.9,10.6,24.8,15.4,46.1,15.4c11.7,0,22.8-1.4,31.2-4.1c6.9-2.1,15.2-6.1,15.2-13v-41.8
				C227.5-268.7,227.5-269,227.5-269.2z M175.8-305.3c0,0.5-1.8,3.1-10.1,5.6c-7.7,2.3-18.4,3.7-29.3,3.7c-9.4,0-18.6-1-25.9-2.9
				c-0.1,0-0.2,0-0.3-0.1c-3.6-2.9-7.6-5.1-11.9-6.7L98-316.4c2.6,1.3,5.4,2.4,8.2,3.2c8.3,2.4,19,3.7,30.2,3.7
				c11.7,0,23-1.4,31.5-4c2.9-0.8,5.6-1.9,8.3-3.3v10C175.8-306.3,175.8-305.9,175.8-305.3z M107.4-332c7.7-2.4,18-3.7,29-3.7
				c10.9,0,21.6,1.3,29.3,3.7c8.3,2.5,10.1,5.1,10.1,5.6s-1.9,3.2-10.1,5.6c-7.7,2.3-18.4,3.7-29.3,3.7c-10.5,0-20.5-1.2-28.1-3.4
				c-8.2-2.4-10.5-5-10.7-5.8c0-0.1,0-0.1,0-0.1C97.6-327.1,99.3-329.6,107.4-332z M107.5-234.9c-15.5,14.1-39.5,13-53.6-2.5
				s-13-39.5,2.5-53.6c7-6.4,16.1-9.9,25.6-9.9c3.8,0,7.6,0.6,11.2,1.7c13.2,4.1,23.2,15.1,26,28.6c0.5,2.5,0.8,5.1,0.8,7.7
				C119.9-252.3,115.4-242.1,107.5-234.9z M117.2-234.1c3.1-3.8,5.6-8,7.3-12.5c3.2,0.3,6.6,0.5,10.1,0.5v0.7l0.2,12.9
				C128.9-232.6,123-233.2,117.2-234.1z M127.3-267.6c2.2,0.2,4.5,0.2,6.9,0.3l0.2,13.5c-2.7,0-5.3-0.2-7.8-0.3
				c0.6-2.9,0.9-5.9,0.9-8.9C127.5-264.6,127.4-266,127.3-267.6z M136.7-274.9c-0.1,0-0.3,0-0.4,0c-3.7,0-7.2-0.2-10.5-0.4
				c-1.4-5.1-3.7-9.9-6.8-14.2c5.7,0.7,11.5,1.1,17.3,1.1c11.8,0,23-1.4,31.6-4c2.9-0.8,5.6-1.9,8.2-3.3v10
				C159.8-285.2,143-281.7,136.7-274.9z M141.7-268.8c0,0,0-0.1,0-0.2c0.3-1,3-3.5,10.9-5.8c7.4-2.1,17-3.2,27.2-3.2h0.6
				c10.9,0,21.6,1.3,29.3,3.6c8.1,2.4,10,5,10.1,5.5l0,0c0,0.6-1.9,3.2-10.4,5.7c-7.8,2.3-18.1,3.6-29,3.6
				c-10.5,0-20.5-1.2-28.1-3.4C144.1-265.4,141.9-268,141.7-268.8C141.7-268.8,141.7-268.8,141.7-268.8z M210.2-220.9
				c-7.7,2.4-18,3.7-29,3.7s-21.3-1.3-28.9-3.6c-8-2.5-9.7-5-9.7-5.6c0,0,0,0,0-0.1l-0.2-11c3,1.5,6.2,2.6,9.5,3.5
				c8,2.1,18.2,3.3,28.6,3.3c11.8,0,22.9-1.4,31.5-4c2.8-0.8,5.4-1.9,8-3.2v11.4l0,0C220-226.1,218.2-223.4,210.2-220.9z M220-249
				L220-249c0,0.4-0.3,0.8-0.3,1.3s-1.8,3.1-10,5.6c-7.8,2.4-18.2,3.7-29.2,3.7c-21.1,0-35.3-4.8-38.3-8.5v-3.2l-0.2-8.8
				c2.7,1.3,5.4,2.4,8.3,3.2c8.3,2.4,19,3.7,30.2,3.7c11.6,0,22.6-1.4,31.1-3.9c2.9-0.8,5.7-1.9,8.3-3.3L220-249L220-249L220-249z"
				/>
		</g>
	</g>
	<path class="st6" d="M107.5-234.9c-15.5,14.1-39.5,13-53.6-2.5s-13-39.5,2.5-53.6c7-6.4,16.1-9.9,25.6-9.9c3.8,0,7.6,0.6,11.2,1.7
		c13.2,4.1,23.2,15.1,26,28.6c0.5,2.5,0.8,5.1,0.8,7.7C119.9-252.3,115.4-242.1,107.5-234.9z"/>
	<g>
		<g>
			<path class="st5" d="M95.8-257.7c-1.8-6.2-7.4-10.5-13.9-10.5c-3.7,0-6.8-3-6.8-6.7c0-3.8,3-6.8,6.8-6.8s6.8,3,6.8,6.8
				c0,2.1,1.7,3.8,3.8,3.8s3.8-1.7,3.8-3.8c0-6.4-4.3-12.1-10.5-13.9v-1.7c0-2.1-1.7-3.8-3.8-3.8s-3.8,1.7-3.8,3.8v1.6
				C70.5-286.8,66-279,68-271.3c1.7,6.3,7.4,10.7,13.9,10.7c3.7,0,6.8,3,6.8,6.7s-3,6.8-6.7,6.8s-6.8-3-6.8-6.7
				c0-2.1-1.7-3.8-3.8-3.8s-3.8,1.7-3.8,3.8c0,6.5,4.4,12.2,10.7,13.9v3.3c0,2.1,1.7,3.8,3.8,3.8s3.8-1.7,3.8-3.8v-3.3
				C93.5-242.1,98-250,95.8-257.7z"/>
		</g>
	</g>
</g>
<g>
	<g>
		<g>
			<path class="st5" d="M-775.9,199.7c-0.2-4.1-4.2-7.4-12-9.8c-6.1-1.8-13.7-2.9-22-3.1v-31.6c0-0.5-0.2-1-0.5-1.5
				c-0.9-3.6-4.8-6.5-11.9-8.6c-6.7-2-15.4-3.1-24.5-3.1s-17.7,1.1-24.2,3.1c-5.4,1.6-11.8,4.7-11.8,10c0,0.3,0,0.6,0.1,1l0.3,13.5
				c-19.3-3.7-37.8,8.9-41.4,28.2c-0.4,2.2-0.6,4.4-0.6,6.6c0,19.5,15.9,35.4,35.4,35.4c8.2,0,16-2.8,22.3-7.9c5.5,1.3,12,2,19,2.1
				c1.5,8.2,19.3,12,35.8,12c9.1,0,17.7-1.1,24.2-3.2c5.4-1.6,11.8-4.7,11.8-10.1v-32.5C-775.8,200.1-775.8,199.9-775.9,199.7z
				 M-816.1,171.7c0,0.4-1.4,2.4-7.8,4.4c-6,1.8-14.3,2.9-22.8,2.9c-7.3,0-14.5-0.8-20.1-2.3c-0.1,0-0.2,0-0.2-0.1
				c-2.8-2.3-5.9-4-9.2-5.2l-0.2-8.3c2,1,4.2,1.9,6.4,2.5c6.5,1.9,14.8,2.9,23.5,2.9c9.1,0,17.9-1.1,24.5-3.1
				c2.3-0.6,4.4-1.5,6.5-2.6v7.8C-816.1,170.8-816.1,171.2-816.1,171.7z M-869.3,150.9c6-1.9,14-2.9,22.5-2.9s16.8,1,22.8,2.9
				c6.5,1.9,7.8,4,7.8,4.4s-1.5,2.5-7.8,4.4c-6,1.8-14.3,2.9-22.8,2.9c-8.2,0-15.9-0.9-21.8-2.6c-6.4-1.9-8.2-3.9-8.3-4.5
				c0-0.1,0-0.1,0-0.1C-876.9,154.7-875.5,152.8-869.3,150.9z M-869.2,226.3c-12,11-30.7,10.1-41.7-1.9s-10.1-30.7,1.9-41.7
				c5.4-5,12.5-7.7,19.9-7.7c3,0,5.9,0.5,8.7,1.3c10.3,3.2,18,11.7,20.2,22.2c0.4,1.9,0.6,4,0.6,6
				C-859.5,212.9-863,220.7-869.2,226.3z M-861.6,227c2.4-3,4.4-6.2,5.7-9.7c2.5,0.2,5.1,0.4,7.8,0.4v0.5l0.2,10
				C-852.6,228.2-857.1,227.7-861.6,227z M-853.7,201c1.7,0.2,3.5,0.2,5.4,0.2l0.2,10.5c-2.1,0-4.1-0.2-6.1-0.2
				c0.5-2.3,0.7-4.6,0.7-6.9C-853.6,203.3-853.6,202.2-853.7,201z M-846.5,195.3c-0.1,0-0.2,0-0.3,0c-2.9,0-5.6-0.2-8.2-0.3
				c-1.1-4-2.9-7.7-5.3-11c4.4,0.5,8.9,0.9,13.4,0.9c9.2,0,17.9-1.1,24.6-3.1c2.3-0.6,4.4-1.5,6.4-2.6v7.8
				C-828.5,187.3-841.6,190-846.5,195.3z M-842.5,200.1c0,0,0-0.1,0-0.2c0.2-0.8,2.3-2.7,8.5-4.5c5.8-1.6,13.2-2.5,21.1-2.5h0.5
				c8.5,0,16.8,1,22.8,2.8c6.3,1.9,7.8,3.9,7.8,4.3l0,0c0,0.5-1.5,2.5-8.1,4.4c-6.1,1.8-14.1,2.8-22.5,2.8c-8.2,0-15.9-0.9-21.8-2.6
				C-840.7,202.7-842.4,200.7-842.5,200.1L-842.5,200.1z M-789.4,237.3c-6,1.9-14,2.9-22.5,2.9s-16.6-1-22.5-2.8
				c-6.2-1.9-7.5-3.9-7.5-4.4c0,0,0,0,0-0.1l-0.2-8.5c2.3,1.2,4.8,2,7.4,2.7c6.2,1.6,14.1,2.6,22.2,2.6c9.2,0,17.8-1.1,24.5-3.1
				c2.2-0.6,4.2-1.5,6.2-2.5v8.9l0,0C-781.7,233.2-783.1,235.3-789.4,237.3z M-781.7,215.4L-781.7,215.4c0,0.3-0.2,0.6-0.2,1
				s-1.4,2.4-7.8,4.4c-6.1,1.9-14.1,2.9-22.7,2.9c-16.4,0-27.4-3.7-29.8-6.6v-2.5l-0.2-6.8c2.1,1,4.2,1.9,6.5,2.5
				c6.5,1.9,14.8,2.9,23.5,2.9c9,0,17.6-1.1,24.2-3c2.3-0.6,4.4-1.5,6.5-2.6V215.4L-781.7,215.4L-781.7,215.4z"/>
		</g>
	</g>
	<path class="st6" d="M-869.2,226.3c-12,11-30.7,10.1-41.7-1.9s-10.1-30.7,1.9-41.7c5.4-5,12.5-7.7,19.9-7.7c3,0,5.9,0.5,8.7,1.3
		c10.3,3.2,18,11.7,20.2,22.2c0.4,1.9,0.6,4,0.6,6C-859.5,212.9-863,220.7-869.2,226.3z"/>
	<g>
		<g>
			<path class="st5" d="M-878.3,208.7c-1.4-4.8-5.8-8.2-10.8-8.2c-2.9,0-5.3-2.3-5.3-5.2c0-3,2.3-5.3,5.3-5.3c2.9,0,5.3,2.3,5.3,5.3
				c0,1.6,1.3,3,3,3c1.6,0,3-1.3,3-3c0-5-3.3-9.4-8.2-10.8v-1.3c0-1.6-1.3-3-3-3c-1.6,0-3,1.3-3,3v1.2c-6,1.6-9.5,7.7-7.9,13.7
				c1.3,4.9,5.8,8.3,10.8,8.3c2.9,0,5.3,2.3,5.3,5.2s-2.3,5.3-5.2,5.3s-5.3-2.3-5.3-5.2c0-1.6-1.3-3-3-3c-1.6,0-3,1.3-3,3
				c0,5.1,3.4,9.5,8.3,10.8v2.6c0,1.6,1.3,3,3,3c1.6,0,3-1.3,3-3v-2.6C-880.1,220.8-876.6,214.7-878.3,208.7z"/>
		</g>
	</g>
</g>
<text transform="matrix(1 0 0 1 -908.9539 330.4457)" class="st5" style="font-family:'NotoSansTC-Bold-B5pc-H'; font-size:41.7551px;">淨   值</text>
<g class="st11">
	<path class="st5" d="M228.3,416.6c-1.5-1.5-4.6-3.4-7.1-4.5l2.3-3.8c2.4,1,5.6,2.8,7.3,4.1L228.3,416.6z M222.3,431.6
		c2-3.1,4.9-8.2,7.2-13l3.3,3.3c-2,4.3-4.4,9-6.7,13L222.3,431.6z M230.3,405.3c-1.4-1.5-4.5-3.5-6.9-4.7l2.4-3.6
		c2.4,1,5.6,2.8,7.2,4.3L230.3,405.3z M260.6,419.7h-2.9v6.3h-9.7v4.2c0,2.4-0.5,3.6-2,4.3c-1.5,0.7-3.8,0.8-6.9,0.8
		c-0.2-1.3-0.8-3.2-1.4-4.4c2,0.1,4.2,0.1,4.9,0c0.7,0,0.8-0.2,0.8-0.8V426h-8.9v-3.9h8.9v-2.4h-11v-4.2h11v-2.2h-8.5v-3.9h1.8
		c-0.5-1.4-1.4-3.2-2.3-4.5l3.4-1.5c1.1,1.5,2.3,3.5,2.7,4.9l-2.4,1.1h19.6v6.1h2.9V419.7z M258,400c-6.5,1.8-15.5,2.8-23.3,3.3
		c-0.1-1.1-0.7-2.8-1.2-3.8c7.6-0.5,16.1-1.6,21.2-3L258,400z M244.9,409.3c-0.3-1.6-1.2-3.9-2.2-5.7l3.6-1.2c1,1.7,2,4,2.4,5.5
		L244.9,409.3z M248.1,415.5h5.4v-2.2h-5.4V415.5z M253.5,419.7h-5.4v2.4h5.4V419.7z M250.4,408c1.1-1.7,2.5-4.3,3.3-6.3l4.6,1.2
		c-1.3,2.4-2.7,4.6-3.8,6.2L250.4,408z"/>
	<path class="st5" d="M305.2,398.1c-1,3-2.5,6.1-4,9.1v28.2h-4.6v-20.8c-0.8,1-1.5,1.9-2.3,2.8c-0.4-1.2-1.8-3.9-2.6-5.2
		c3.6-3.8,7-9.7,9-15.6L305.2,398.1z M331,430.5v4.2h-28.1v-4.2h3.6v-23.1h7.2c0.2-0.9,0.3-1.8,0.5-2.8h-9.5v-4.3h10.1
		c0.1-1.3,0.3-2.5,0.3-3.7l5.3,0.2c-0.2,1.2-0.4,2.3-0.6,3.5H330v4.3h-11.1c-0.3,1-0.5,2-0.7,2.8h9.6v23.1H331z M310.9,411v2.3h12.4
		V411H310.9z M323.2,416.7h-12.4v2.3h12.4V416.7z M310.9,422.3v2.4h12.4v-2.4H310.9z M310.9,430.5h12.4v-2.3h-12.4V430.5z"/>
</g>
<g>
	<path class="st5" d="M72,1078c-1.9-1.9-5.9-4.4-9.2-5.8l3-4.9c3.1,1.3,7.2,3.6,9.3,5.4L72,1078z M64.3,1097.4
		c2.6-4,6.3-10.6,9.3-16.7l4.2,4.3c-2.6,5.6-5.7,11.5-8.6,16.7L64.3,1097.4z M74.7,1063.6c-1.8-1.9-5.8-4.5-8.9-6.1l3.1-4.7
		c3.1,1.3,7.2,3.6,9.3,5.6L74.7,1063.6z M113.7,1082.2H110v8.1H97.6v5.4c0,3.1-0.6,4.6-2.6,5.5c-1.9,0.9-4.9,1-8.9,1
		c-0.2-1.7-1-4.1-1.8-5.7c2.6,0.1,5.4,0.1,6.3,0.1s1.1-0.2,1.1-1v-5.3H80.1v-5h11.5v-3.1H77.5v-5.4h14.1v-2.8h-11v-5H83
		c-0.6-1.8-1.8-4.1-3-5.8l4.4-1.9c1.5,1.9,2.9,4.5,3.5,6.3l-3.1,1.5H110v7.9h3.7V1082.2L113.7,1082.2z M110.3,1056.8
		c-8.4,2.3-20,3.7-30,4.2c-0.2-1.4-0.9-3.6-1.5-4.9c9.7-0.6,20.7-2,27.2-3.9L110.3,1056.8z M93.4,1068.7c-0.4-2-1.5-5-2.8-7.4
		l4.7-1.5c1.3,2.2,2.5,5.1,3.1,7.1L93.4,1068.7z M97.5,1076.7h7v-2.8h-7V1076.7z M104.5,1082.2h-7v3.1h7V1082.2z M100.5,1067
		c1.5-2.1,3.2-5.6,4.2-8l5.9,1.5c-1.7,3.1-3.4,5.9-4.9,8L100.5,1067z"/>
	<path class="st5" d="M181.7,1054.2c-1.4,3.9-3.2,7.9-5.2,11.7v36.3h-5.9v-26.8c-1,1.2-1.9,2.4-2.9,3.6c-0.6-1.5-2.3-5-3.3-6.7
		c4.6-4.9,9-12.4,11.6-20.1L181.7,1054.2z M215,1096v5.4h-36.1v-5.4h4.6v-29.8h9.3c0.2-1.1,0.4-2.4,0.6-3.7h-12.2v-5.4h12.9
		c0.2-1.7,0.3-3.2,0.4-4.8l6.7,0.2c-0.2,1.5-0.6,3-0.8,4.5h13.2v5.4h-14.4c-0.3,1.4-0.6,2.5-0.9,3.7h12.4v29.8L215,1096L215,1096z
		 M189,1070.9v2.9h15.9v-2.9H189z M205,1078.2h-15.9v2.9H205V1078.2z M189,1085.5v3.1h15.9v-3.1H189z M189,1096h15.9v-3H189V1096z"
		/>
</g>
<g>
	<path class="st12" d="M261.1,881.6c0,1.1-0.9,2-2,2s-2-0.9-2-2s0.9-2,2-2C260.3,879.7,261.1,880.6,261.1,881.6z"/>
	<path class="st12" d="M243.8,881.6c0,1.1-0.9,2-2,2s-2-0.9-2-2s0.9-2,2-2C242.9,879.7,243.8,880.6,243.8,881.6z"/>
	<path class="st12" d="M226.4,881.6c0,1.1-0.9,2-2,2s-2-0.9-2-2s0.9-2,2-2S226.4,880.6,226.4,881.6z"/>
	<path class="st12" d="M209.1,881.6c0,1.1-0.9,2-2,2s-2-0.9-2-2s0.9-2,2-2C208.2,879.7,209.1,880.6,209.1,881.6z"/>
	<path class="st12" d="M191.8,881.6c0,1.1-0.9,2-2,2s-2-0.9-2-2s0.9-2,2-2C190.9,879.7,191.8,880.6,191.8,881.6z"/>
	<path class="st12" d="M174.4,881.6c0,1.1-0.9,2-2,2s-2-0.9-2-2s0.9-2,2-2S174.4,880.6,174.4,881.6z"/>
	<path class="st12" d="M157.1,881.6c0,1.1-0.9,2-2,2s-2-0.9-2-2s0.9-2,2-2C156.2,879.7,157.1,880.6,157.1,881.6z"/>
	<path class="st12" d="M139.7,881.6c0,1.1-0.9,2-2,2s-2-0.9-2-2s0.9-2,2-2C138.8,879.7,139.7,880.6,139.7,881.6z"/>
	<path class="st12" d="M122.4,881.6c0,1.1-0.9,2-2,2s-2-0.9-2-2s0.9-2,2-2C121.5,879.7,122.4,880.6,122.4,881.6z"/>
	<path class="st12" d="M105,881.6c0,1.1-0.9,2-2,2s-2-0.9-2-2s0.9-2,2-2C104.2,879.7,105,880.6,105,881.6z"/>
	<g>
		<g>
			<defs>
				<rect id="SVGID_7_" x="140.5" y="869.4" width="124.9" height="81.7"/>
			</defs>
			<clipPath id="SVGID_8_">
				<use xlink:href="#SVGID_7_"  style="overflow:visible;"/>
			</clipPath>
			<g transform="matrix(1 0 0 1 0 -6.103516e-05)" class="st13">
				<g>
					<defs>
						<rect id="SVGID_9_" x="140.4" y="869.3" width="125" height="81.8"/>
					</defs>
					<clipPath id="SVGID_10_">
						<use xlink:href="#SVGID_9_"  style="overflow:visible;"/>
					</clipPath>
					<g transform="matrix(1 0 0 1 0 -6.103516e-05)" style="clip-path:url(#SVGID_10_);">
						
							<use xlink:href="#鍒鼨懧鎀"  width="107.6" height="70.4" x="-53.8" y="-35.2" transform="matrix(1.1617 0 0 -1.1617 202.8599 910.1939)" style="overflow:visible;"/>
					</g>
				</g>
			</g>
		</g>
	</g>
	<g>
		<ellipse class="st14" cx="202.6" cy="904.6" rx="62.3" ry="33.2"/>
		<ellipse class="st15" cx="202.6" cy="904.6" rx="60.6" ry="32.3"/>
		<ellipse class="st16" cx="202.6" cy="904.6" rx="58.9" ry="31.4"/>
		<ellipse class="st17" cx="202.6" cy="904.6" rx="57.2" ry="30.5"/>
		<ellipse class="st18" cx="202.6" cy="904.6" rx="55.5" ry="29.6"/>
		<ellipse class="st19" cx="202.6" cy="904.6" rx="53.8" ry="28.7"/>
		<ellipse class="st20" cx="202.6" cy="904.6" rx="52" ry="27.8"/>
		<ellipse class="st21" cx="202.6" cy="904.6" rx="50.3" ry="26.8"/>
		<ellipse class="st22" cx="202.6" cy="904.6" rx="48.6" ry="25.9"/>
		<ellipse class="st23" cx="202.6" cy="904.6" rx="46.9" ry="25"/>
		<ellipse class="st24" cx="202.6" cy="904.6" rx="45.2" ry="24.1"/>
		<ellipse class="st25" cx="202.6" cy="904.6" rx="43.5" ry="23.2"/>
		<ellipse class="st26" cx="202.6" cy="904.6" rx="41.8" ry="22.3"/>
		<ellipse class="st27" cx="202.6" cy="904.6" rx="40.1" ry="21.4"/>
		<ellipse class="st28" cx="202.6" cy="904.6" rx="38.4" ry="20.5"/>
		<ellipse class="st29" cx="202.6" cy="904.6" rx="36.7" ry="19.5"/>
	</g>
	<g>
		<g>
			<defs>
				<rect id="SVGID_11_" x="138.5" y="848" width="124.9" height="81.7"/>
			</defs>
			<clipPath id="SVGID_12_">
				<use xlink:href="#SVGID_11_"  style="overflow:visible;"/>
			</clipPath>
			<g class="st30">
				<g>
					<defs>
						<rect id="SVGID_13_" x="138.3" y="847.9" width="125" height="81.8"/>
					</defs>
					<clipPath id="SVGID_14_">
						<use xlink:href="#SVGID_13_"  style="overflow:visible;"/>
					</clipPath>
					<g style="clip-path:url(#SVGID_14_);">
						
							<use xlink:href="#鍒鼨懧鎀"  width="107.6" height="70.4" x="-53.8" y="-35.2" transform="matrix(1.1617 0 0 -1.1617 200.8372 888.7526)" style="overflow:visible;"/>
					</g>
				</g>
			</g>
		</g>
	</g>
	<g>
		<ellipse class="st14" cx="199.4" cy="882.3" rx="62.3" ry="33.2"/>
		<ellipse class="st15" cx="199.4" cy="882.3" rx="60.6" ry="32.3"/>
		<ellipse class="st16" cx="199.4" cy="882.3" rx="58.9" ry="31.4"/>
		<ellipse class="st17" cx="199.4" cy="882.3" rx="57.2" ry="30.5"/>
		<ellipse class="st18" cx="199.4" cy="882.3" rx="55.5" ry="29.6"/>
		<ellipse class="st19" cx="199.4" cy="882.3" rx="53.8" ry="28.7"/>
		<ellipse class="st20" cx="199.4" cy="882.3" rx="52" ry="27.8"/>
		<ellipse class="st21" cx="199.4" cy="882.3" rx="50.3" ry="26.8"/>
		<ellipse class="st22" cx="199.4" cy="882.3" rx="48.6" ry="25.9"/>
		<ellipse class="st23" cx="199.4" cy="882.3" rx="46.9" ry="25"/>
		<ellipse class="st24" cx="199.4" cy="882.3" rx="45.2" ry="24.1"/>
		<ellipse class="st25" cx="199.4" cy="882.3" rx="43.5" ry="23.2"/>
		<ellipse class="st26" cx="199.4" cy="882.3" rx="41.8" ry="22.3"/>
		<ellipse class="st27" cx="199.4" cy="882.3" rx="40.1" ry="21.4"/>
		<ellipse class="st28" cx="199.4" cy="882.3" rx="38.4" ry="20.5"/>
		<ellipse class="st29" cx="199.4" cy="882.3" rx="36.7" ry="19.5"/>
	</g>
	<g>
		<g>
			<defs>
				<rect id="SVGID_15_" x="144" y="828.6" width="124.9" height="81.7"/>
			</defs>
			<clipPath id="SVGID_16_">
				<use xlink:href="#SVGID_15_"  style="overflow:visible;"/>
			</clipPath>
			<g class="st31">
				<g>
					<defs>
						<rect id="SVGID_17_" x="143.8" y="828.4" width="125" height="81.8"/>
					</defs>
					<clipPath id="SVGID_18_">
						<use xlink:href="#SVGID_17_"  style="overflow:visible;"/>
					</clipPath>
					<g transform="matrix(1 0 0 1 0 6.103516e-05)" style="clip-path:url(#SVGID_18_);">
						
							<use xlink:href="#鍒鼨懧鎀"  width="107.6" height="70.4" x="-53.8" y="-35.2" transform="matrix(1.1617 0 0 -1.1617 206.345 869.3416)" style="overflow:visible;"/>
					</g>
				</g>
			</g>
		</g>
	</g>
	<g>
		<g>
			<defs>
				<rect id="SVGID_19_" x="-3.8" y="861" width="124.9" height="81.7"/>
			</defs>
			<clipPath id="SVGID_20_">
				<use xlink:href="#SVGID_19_"  style="overflow:visible;"/>
			</clipPath>
			<g class="st32">
				<g>
					<defs>
						<rect id="SVGID_21_" x="-3.9" y="860.9" width="125" height="81.8"/>
					</defs>
					<clipPath id="SVGID_22_">
						<use xlink:href="#SVGID_21_"  style="overflow:visible;"/>
					</clipPath>
					<g style="clip-path:url(#SVGID_22_);">
						
							<use xlink:href="#鍒鼨懧鎀"  width="107.6" height="70.4" x="-53.8" y="-35.2" transform="matrix(1.1617 0 0 -1.1617 58.6121 901.7819)" style="overflow:visible;"/>
					</g>
				</g>
			</g>
		</g>
	</g>
	<g>
		<ellipse class="st14" cx="57.4" cy="894.6" rx="62.3" ry="33.2"/>
		<ellipse class="st15" cx="57.4" cy="894.6" rx="60.6" ry="32.3"/>
		<ellipse class="st16" cx="57.4" cy="894.6" rx="58.9" ry="31.4"/>
		<ellipse class="st17" cx="57.4" cy="894.6" rx="57.2" ry="30.5"/>
		<ellipse class="st18" cx="57.4" cy="894.6" rx="55.5" ry="29.6"/>
		<ellipse class="st19" cx="57.4" cy="894.6" rx="53.8" ry="28.7"/>
		<ellipse class="st20" cx="57.4" cy="894.6" rx="52" ry="27.8"/>
		<ellipse class="st21" cx="57.4" cy="894.6" rx="50.3" ry="26.8"/>
		<ellipse class="st22" cx="57.4" cy="894.6" rx="48.6" ry="25.9"/>
		<ellipse class="st23" cx="57.4" cy="894.6" rx="46.9" ry="25"/>
		<ellipse class="st24" cx="57.4" cy="894.6" rx="45.2" ry="24.1"/>
		<ellipse class="st25" cx="57.4" cy="894.6" rx="43.5" ry="23.2"/>
		<ellipse class="st26" cx="57.4" cy="894.6" rx="41.8" ry="22.3"/>
		<ellipse class="st27" cx="57.4" cy="894.6" rx="40.1" ry="21.4"/>
		<ellipse class="st28" cx="57.4" cy="894.6" rx="38.4" ry="20.5"/>
		<ellipse class="st29" cx="57.4" cy="894.6" rx="36.7" ry="19.5"/>
	</g>
	<g>
		<g>
			<defs>
				<rect id="SVGID_23_" x="-11.3" y="839.6" width="124.9" height="81.7"/>
			</defs>
			<clipPath id="SVGID_24_">
				<use xlink:href="#SVGID_23_"  style="overflow:visible;"/>
			</clipPath>
			<g class="st33">
				<g>
					<defs>
						<rect id="SVGID_25_" x="-11.4" y="839.5" width="125" height="81.8"/>
					</defs>
					<clipPath id="SVGID_26_">
						<use xlink:href="#SVGID_25_"  style="overflow:visible;"/>
					</clipPath>
					<g style="clip-path:url(#SVGID_26_);">
						
							<use xlink:href="#鍒鼨懧鎀"  width="107.6" height="70.4" x="-53.8" y="-35.2" transform="matrix(1.1617 0 0 -1.1617 51.1148 880.3597)" style="overflow:visible;"/>
					</g>
				</g>
			</g>
		</g>
	</g>
	<g>
		<ellipse class="st14" cx="206.1" cy="862.6" rx="62.3" ry="33.2"/>
		<ellipse class="st15" cx="206.1" cy="862.6" rx="60.6" ry="32.3"/>
		<ellipse class="st16" cx="206.1" cy="862.6" rx="58.9" ry="31.4"/>
		<ellipse class="st17" cx="206.1" cy="862.6" rx="57.2" ry="30.5"/>
		<ellipse class="st18" cx="206.1" cy="862.6" rx="55.5" ry="29.6"/>
		<ellipse class="st19" cx="206.1" cy="862.6" rx="53.8" ry="28.7"/>
		<ellipse class="st20" cx="206.1" cy="862.6" rx="52" ry="27.8"/>
		<ellipse class="st21" cx="206.1" cy="862.6" rx="50.3" ry="26.8"/>
		<ellipse class="st22" cx="206.1" cy="862.6" rx="48.6" ry="25.9"/>
		<ellipse class="st23" cx="206.1" cy="862.6" rx="46.9" ry="25"/>
		<ellipse class="st24" cx="206.1" cy="862.6" rx="45.2" ry="24.1"/>
		<ellipse class="st25" cx="206.1" cy="862.6" rx="43.5" ry="23.2"/>
		<ellipse class="st26" cx="206.1" cy="862.6" rx="41.8" ry="22.3"/>
		<ellipse class="st27" cx="206.1" cy="862.6" rx="40.1" ry="21.4"/>
		<ellipse class="st28" cx="206.1" cy="862.6" rx="38.4" ry="20.5"/>
		<ellipse class="st29" cx="206.1" cy="862.6" rx="36.7" ry="19.5"/>
	</g>
	<g>
		<g>
			<defs>
				<rect id="SVGID_27_" x="137" y="808.7" width="124.9" height="81.7"/>
			</defs>
			<clipPath id="SVGID_28_">
				<use xlink:href="#SVGID_27_"  style="overflow:visible;"/>
			</clipPath>
			<g class="st34">
				<g>
					<defs>
						<rect id="SVGID_29_" x="136.9" y="808.6" width="125" height="81.8"/>
					</defs>
					<clipPath id="SVGID_30_">
						<use xlink:href="#SVGID_29_"  style="overflow:visible;"/>
					</clipPath>
					<g style="clip-path:url(#SVGID_30_);">
						
							<use xlink:href="#鍒鼨懧鎀"  width="107.6" height="70.4" x="-53.8" y="-35.2" transform="matrix(1.1617 0 0 -1.1617 199.3748 849.5198)" style="overflow:visible;"/>
					</g>
				</g>
			</g>
		</g>
	</g>
	<g>
		<g>
			<defs>
				<rect id="SVGID_31_" x="60.5" y="908.8" width="124.9" height="81.7"/>
			</defs>
			<clipPath id="SVGID_32_">
				<use xlink:href="#SVGID_31_"  style="overflow:visible;"/>
			</clipPath>
			<g class="st35">
				<g>
					<defs>
						<rect id="SVGID_33_" x="60.4" y="908.7" width="125" height="81.8"/>
					</defs>
					<clipPath id="SVGID_34_">
						<use xlink:href="#SVGID_33_"  style="overflow:visible;"/>
					</clipPath>
					<g transform="matrix(1 0 0 1 7.629395e-06 0)" style="clip-path:url(#SVGID_34_);">
						
							<use xlink:href="#鍒鼨懧鎀"  width="107.6" height="70.4" x="-53.8" y="-35.2" transform="matrix(1.1617 0 0 -1.1617 122.8992 949.5841)" style="overflow:visible;"/>
					</g>
				</g>
			</g>
		</g>
	</g>
	<g>
		<ellipse class="st14" cx="122.7" cy="942" rx="62.3" ry="33.2"/>
		<ellipse class="st15" cx="122.7" cy="942" rx="60.6" ry="32.3"/>
		<ellipse class="st16" cx="122.7" cy="942" rx="58.9" ry="31.4"/>
		<ellipse class="st17" cx="122.7" cy="942" rx="57.2" ry="30.5"/>
		<ellipse class="st18" cx="122.7" cy="942" rx="55.5" ry="29.6"/>
		<ellipse class="st19" cx="122.7" cy="942" rx="53.8" ry="28.7"/>
		<ellipse class="st20" cx="122.7" cy="942" rx="52" ry="27.8"/>
		<ellipse class="st21" cx="122.7" cy="942" rx="50.3" ry="26.8"/>
		<ellipse class="st22" cx="122.7" cy="942" rx="48.6" ry="25.9"/>
		<ellipse class="st23" cx="122.7" cy="942" rx="46.9" ry="25"/>
		<ellipse class="st24" cx="122.7" cy="942" rx="45.2" ry="24.1"/>
		<ellipse class="st25" cx="122.7" cy="942" rx="43.5" ry="23.2"/>
		<ellipse class="st26" cx="122.7" cy="942" rx="41.8" ry="22.3"/>
		<ellipse class="st27" cx="122.7" cy="942" rx="40.1" ry="21.4"/>
		<ellipse class="st28" cx="122.7" cy="942" rx="38.4" ry="20.5"/>
		<ellipse class="st29" cx="122.7" cy="942" rx="36.7" ry="19.5"/>
	</g>
	<g>
		<g>
			<defs>
				<rect id="SVGID_35_" x="57.7" y="888.8" width="124.9" height="81.7"/>
			</defs>
			<clipPath id="SVGID_36_">
				<use xlink:href="#SVGID_35_"  style="overflow:visible;"/>
			</clipPath>
			<g class="st36">
				<g>
					<defs>
						<rect id="SVGID_37_" x="57.6" y="888.7" width="125" height="81.8"/>
					</defs>
					<clipPath id="SVGID_38_">
						<use xlink:href="#SVGID_37_"  style="overflow:visible;"/>
					</clipPath>
					<g style="clip-path:url(#SVGID_38_);">
						
							<use xlink:href="#鍒鼨懧鎀"  width="107.6" height="70.4" x="-53.8" y="-35.2" transform="matrix(1.1617 0 0 -1.1617 120.0968 929.6051)" style="overflow:visible;"/>
					</g>
				</g>
			</g>
		</g>
	</g>
	<g>
		<ellipse class="st14" cx="117.4" cy="922.5" rx="62.3" ry="33.2"/>
		<ellipse class="st15" cx="117.4" cy="922.5" rx="60.6" ry="32.3"/>
		<ellipse class="st16" cx="117.4" cy="922.5" rx="58.9" ry="31.4"/>
		<ellipse class="st17" cx="117.4" cy="922.5" rx="57.2" ry="30.5"/>
		<ellipse class="st18" cx="117.4" cy="922.5" rx="55.5" ry="29.6"/>
		<ellipse class="st19" cx="117.4" cy="922.5" rx="53.8" ry="28.7"/>
		<ellipse class="st20" cx="117.4" cy="922.5" rx="52" ry="27.8"/>
		<ellipse class="st21" cx="117.4" cy="922.5" rx="50.3" ry="26.8"/>
		<ellipse class="st22" cx="117.4" cy="922.5" rx="48.6" ry="25.9"/>
		<ellipse class="st23" cx="117.4" cy="922.5" rx="46.9" ry="25"/>
		<ellipse class="st24" cx="117.4" cy="922.5" rx="45.2" ry="24.1"/>
		<ellipse class="st25" cx="117.4" cy="922.5" rx="43.5" ry="23.2"/>
		<ellipse class="st26" cx="117.4" cy="922.5" rx="41.8" ry="22.3"/>
		<ellipse class="st27" cx="117.4" cy="922.5" rx="40.1" ry="21.4"/>
		<ellipse class="st28" cx="117.4" cy="922.5" rx="38.4" ry="20.5"/>
		<ellipse class="st29" cx="117.4" cy="922.5" rx="36.7" ry="19.5"/>
	</g>
	<g>
		<g>
			<defs>
				<rect id="SVGID_39_" x="64.2" y="865.4" width="124.9" height="81.7"/>
			</defs>
			<clipPath id="SVGID_40_">
				<use xlink:href="#SVGID_39_"  style="overflow:visible;"/>
			</clipPath>
			<g class="st37">
				<g>
					<defs>
						<rect id="SVGID_41_" x="64.1" y="865.2" width="125" height="81.8"/>
					</defs>
					<clipPath id="SVGID_42_">
						<use xlink:href="#SVGID_41_"  style="overflow:visible;"/>
					</clipPath>
					<g style="clip-path:url(#SVGID_42_);">
						
							<use xlink:href="#鍒鼨懧鎀"  width="107.6" height="70.4" x="-53.8" y="-35.2" transform="matrix(1.1617 0 0 -1.1617 126.583 906.1392)" style="overflow:visible;"/>
					</g>
				</g>
			</g>
		</g>
	</g>
	<g>
		<ellipse class="st14" cx="199" cy="843.1" rx="62.3" ry="33.2"/>
		<ellipse class="st15" cx="199" cy="843.1" rx="60.6" ry="32.3"/>
		<ellipse class="st16" cx="199" cy="843.1" rx="58.9" ry="31.4"/>
		<ellipse class="st17" cx="199" cy="843.1" rx="57.2" ry="30.5"/>
		<ellipse class="st18" cx="199" cy="843.1" rx="55.5" ry="29.6"/>
		<ellipse class="st19" cx="199" cy="843.1" rx="53.8" ry="28.7"/>
		<ellipse class="st20" cx="199" cy="843.1" rx="52" ry="27.8"/>
		<ellipse class="st21" cx="199" cy="843.1" rx="50.3" ry="26.8"/>
		<ellipse class="st22" cx="199" cy="843.1" rx="48.6" ry="25.9"/>
		<ellipse class="st23" cx="199" cy="843.1" rx="46.9" ry="25"/>
		<ellipse class="st24" cx="199" cy="843.1" rx="45.2" ry="24.1"/>
		<ellipse class="st25" cx="199" cy="843.1" rx="43.5" ry="23.2"/>
		<ellipse class="st26" cx="199" cy="843.1" rx="41.8" ry="22.3"/>
		<ellipse class="st27" cx="199" cy="843.1" rx="40.1" ry="21.4"/>
		<ellipse class="st28" cx="199" cy="843.1" rx="38.4" ry="20.5"/>
		<ellipse class="st29" cx="199" cy="843.1" rx="36.7" ry="19.5"/>
	</g>
	<g>
		<g>
			<defs>
				<rect id="SVGID_43_" x="147.4" y="785" width="124.9" height="81.7"/>
			</defs>
			<clipPath id="SVGID_44_">
				<use xlink:href="#SVGID_43_"  style="overflow:visible;"/>
			</clipPath>
			<g transform="matrix(1 0 0 1 1.525879e-05 0)" class="st38">
				<g>
					<defs>
						<rect id="SVGID_45_" x="147.3" y="784.8" width="125" height="81.8"/>
					</defs>
					<clipPath id="SVGID_46_">
						<use xlink:href="#SVGID_45_"  style="overflow:visible;"/>
					</clipPath>
					<g transform="matrix(1 0 0 1 1.525879e-05 0)" style="clip-path:url(#SVGID_46_);">
						
							<use xlink:href="#鍒鼨懧鎀"  width="107.6" height="70.4" x="-53.8" y="-35.2" transform="matrix(1.1617 0 0 -1.1617 209.7865 825.7385)" style="overflow:visible;"/>
					</g>
				</g>
			</g>
		</g>
	</g>
	<g>
		<ellipse class="st14" cx="209" cy="817.4" rx="62.3" ry="33.2"/>
		<ellipse class="st15" cx="209" cy="817.4" rx="60.6" ry="32.3"/>
		<ellipse class="st16" cx="209" cy="817.4" rx="58.9" ry="31.4"/>
		<ellipse class="st17" cx="209" cy="817.4" rx="57.2" ry="30.5"/>
		<ellipse class="st18" cx="209" cy="817.4" rx="55.5" ry="29.6"/>
		<ellipse class="st19" cx="209" cy="817.4" rx="53.8" ry="28.7"/>
		<ellipse class="st20" cx="209" cy="817.4" rx="52" ry="27.8"/>
		<ellipse class="st21" cx="209" cy="817.4" rx="50.3" ry="26.8"/>
		<ellipse class="st22" cx="209" cy="817.4" rx="48.6" ry="25.9"/>
		<ellipse class="st23" cx="209" cy="817.4" rx="46.9" ry="25"/>
		<ellipse class="st24" cx="209" cy="817.4" rx="45.2" ry="24.1"/>
		<ellipse class="st25" cx="209" cy="817.4" rx="43.5" ry="23.2"/>
		<ellipse class="st26" cx="209" cy="817.4" rx="41.8" ry="22.3"/>
		<ellipse class="st27" cx="209" cy="817.4" rx="40.1" ry="21.4"/>
		<ellipse class="st28" cx="209" cy="817.4" rx="38.4" ry="20.5"/>
		<ellipse class="st29" cx="209" cy="817.4" rx="36.7" ry="19.5"/>
	</g>
	<g>
		<g>
			<defs>
				<rect id="SVGID_47_" x="139.5" y="764.5" width="124.9" height="81.7"/>
			</defs>
			<clipPath id="SVGID_48_">
				<use xlink:href="#SVGID_47_"  style="overflow:visible;"/>
			</clipPath>
			<g class="st39">
				<g>
					<defs>
						<rect id="SVGID_49_" x="139.4" y="764.3" width="125" height="81.8"/>
					</defs>
					<clipPath id="SVGID_50_">
						<use xlink:href="#SVGID_49_"  style="overflow:visible;"/>
					</clipPath>
					<g style="clip-path:url(#SVGID_50_);">
						
							<use xlink:href="#鍒鼨懧鎀"  width="107.6" height="70.4" x="-53.8" y="-35.2" transform="matrix(1.1617 0 0 -1.1617 201.8714 805.232)" style="overflow:visible;"/>
					</g>
				</g>
			</g>
		</g>
	</g>
	<g>
		<ellipse class="st14" cx="117.2" cy="897.3" rx="62.3" ry="33.2"/>
		<ellipse class="st15" cx="117.2" cy="897.3" rx="60.6" ry="32.3"/>
		<ellipse class="st16" cx="117.2" cy="897.3" rx="58.9" ry="31.4"/>
		<ellipse class="st17" cx="117.2" cy="897.3" rx="57.2" ry="30.5"/>
		<ellipse class="st18" cx="117.2" cy="897.3" rx="55.5" ry="29.6"/>
		<ellipse class="st19" cx="117.2" cy="897.3" rx="53.8" ry="28.7"/>
		<ellipse class="st20" cx="117.2" cy="897.3" rx="52" ry="27.8"/>
		<ellipse class="st21" cx="117.2" cy="897.3" rx="50.3" ry="26.8"/>
		<ellipse class="st22" cx="117.2" cy="897.3" rx="48.6" ry="25.9"/>
		<ellipse class="st23" cx="117.2" cy="897.3" rx="46.9" ry="25"/>
		<ellipse class="st24" cx="117.2" cy="897.3" rx="45.2" ry="24.1"/>
		<ellipse class="st25" cx="117.2" cy="897.3" rx="43.5" ry="23.2"/>
		<ellipse class="st26" cx="117.2" cy="897.3" rx="41.8" ry="22.3"/>
		<ellipse class="st27" cx="117.2" cy="897.3" rx="40.1" ry="21.4"/>
		<ellipse class="st28" cx="117.2" cy="897.3" rx="38.4" ry="20.5"/>
		<ellipse class="st29" cx="117.2" cy="897.3" rx="36.7" ry="19.5"/>
	</g>
	<g>
		<g>
			<defs>
				<rect id="SVGID_51_" x="60.3" y="842.6" width="124.9" height="81.7"/>
			</defs>
			<clipPath id="SVGID_52_">
				<use xlink:href="#SVGID_51_"  style="overflow:visible;"/>
			</clipPath>
			<g class="st40">
				<g>
					<defs>
						<rect id="SVGID_53_" x="60.2" y="842.5" width="125" height="81.8"/>
					</defs>
					<clipPath id="SVGID_54_">
						<use xlink:href="#SVGID_53_"  style="overflow:visible;"/>
					</clipPath>
					<g style="clip-path:url(#SVGID_54_);">
						
							<use xlink:href="#鍒鼨懧鎀"  width="107.6" height="70.4" x="-53.8" y="-35.2" transform="matrix(1.1617 0 0 -1.1617 122.7161 883.4)" style="overflow:visible;"/>
					</g>
				</g>
			</g>
		</g>
	</g>
</g>
<g>
	<g>
		<line class="st7" x1="551.3" y1="129.1" x2="550.9" y2="129.1"/>
		<line class="st8" x1="631.8" y1="129.1" x2="507.6" y2="129.1"/>
		<line class="st7" x1="505" y1="129.1" x2="504.6" y2="129.1"/>
	</g>
</g>
<g>
	
		<linearGradient id="SVGID_55_" gradientUnits="userSpaceOnUse" x1="410.9967" y1="273.5565" x2="410.9967" y2="798.0435" gradientTransform="matrix(1 0 0 -1 0 816.75)">
		<stop  offset="0" style="stop-color:#CAB380;stop-opacity:0"/>
		<stop  offset="0.5558" style="stop-color:#CAB380"/>
		<stop  offset="1" style="stop-color:#CAB380;stop-opacity:0"/>
	</linearGradient>
	<path class="st41" d="M279.9,20.6c143.8,0,260.3,116.6,260.3,260.3S423.6,541.3,279.9,541.3"/>
	
		<linearGradient id="SVGID_56_" gradientUnits="userSpaceOnUse" x1="148.8033" y1="798.0435" x2="148.8033" y2="273.5565" gradientTransform="matrix(1 0 0 -1 0 816.75)">
		<stop  offset="0" style="stop-color:#CAB380;stop-opacity:0"/>
		<stop  offset="0.5558" style="stop-color:#CAB380"/>
		<stop  offset="1" style="stop-color:#CAB380;stop-opacity:0"/>
	</linearGradient>
	<path class="st42" d="M279.9,541.3C136.1,541.3,19.6,424.7,19.6,281S136.2,20.6,279.9,20.6"/>
</g>
<g>
	<path class="st2" d="M491.3,140.5c-6.3,0-11.4-5.1-11.4-11.4c0-6.3,5.1-11.4,11.4-11.4s11.4,5.1,11.4,11.4
		C502.8,135.4,497.6,140.5,491.3,140.5z"/>
	<path class="st6" d="M491.3,119.6c5.2,0,9.6,4.3,9.6,9.6c0,5.3-4.3,9.6-9.6,9.6c-5.3,0-9.6-4.3-9.6-9.6
		C481.8,123.8,486.1,119.6,491.3,119.6 M491.3,115.8c-7.4,0-13.3,5.9-13.3,13.3c0,7.4,5.9,13.3,13.3,13.3s13.3-5.9,13.3-13.3
		C504.6,121.7,498.7,115.8,491.3,115.8L491.3,115.8z"/>
</g>
<g>
	<g>
		<line class="st7" x1="551.3" y1="431.8" x2="550.9" y2="431.8"/>
		<line class="st8" x1="631.8" y1="431.8" x2="507.6" y2="431.8"/>
		<line class="st7" x1="505" y1="431.8" x2="504.6" y2="431.8"/>
	</g>
</g>
<g>
	<path class="st2" d="M491.3,443.2c-6.3,0-11.4-5.1-11.4-11.4s5.1-11.4,11.4-11.4s11.4,5.1,11.4,11.4S497.6,443.2,491.3,443.2z"/>
	<path class="st6" d="M491.3,422.2c5.2,0,9.6,4.3,9.6,9.6c0,5.3-4.3,9.6-9.6,9.6c-5.3,0-9.6-4.3-9.6-9.6
		C481.8,426.5,486.1,422.2,491.3,422.2 M491.3,418.5c-7.4,0-13.3,5.9-13.3,13.3s5.9,13.3,13.3,13.3s13.3-5.9,13.3-13.3
		S498.7,418.5,491.3,418.5L491.3,418.5z"/>
</g>
<g>
	<g>
		<line class="st7" x1="601.8" y1="280.9" x2="601.5" y2="280.9"/>
		<line class="st8" x1="682.4" y1="280.9" x2="558.1" y2="280.9"/>
		<line class="st7" x1="555.5" y1="280.9" x2="555.2" y2="280.9"/>
	</g>
</g>
<g>
	<path class="st2" d="M541.9,292.3c-6.3,0-11.4-5.1-11.4-11.4s5.1-11.4,11.4-11.4s11.4,5.1,11.4,11.4S548.1,292.3,541.9,292.3z"/>
	<path class="st6" d="M541.9,271.3c5.2,0,9.6,4.3,9.6,9.6c0,5.2-4.3,9.6-9.6,9.6c-5.2,0-9.6-4.3-9.6-9.6
		C532.4,275.7,536.6,271.3,541.9,271.3 M541.9,267.6c-7.4,0-13.3,5.9-13.3,13.3s5.9,13.3,13.3,13.3s13.3-5.9,13.3-13.3
		C555.2,273.6,549.2,267.6,541.9,267.6L541.9,267.6z"/>
</g>
<g>
	<g class="st11">
		<path class="st43" d="M651.7,159.8c-0.7,0.9-1.5,1.7-2.3,2.3c-0.1-0.2-0.5-0.7-0.8-0.9c1.5-1.1,3-2.9,3.9-4.7l1.1,0.3
			c-0.3,0.6-0.7,1.3-1.1,1.9h11.8v1.1H651.7z M665,167.3v1.1h-16v-1.1h2.8v-3.2h-2.2V163h2.2v-2.1h1.1v2.1h2v-2.1h1v2.1h2.2v-2.1
			h1.1v2.1h2.1v-2.1h1.1v2.1h2.1v1.1h-2.1v3.2H665z M649.3,172.7c0.6-0.9,1.3-2.3,1.8-3.5l1.1,0.3c-0.5,1.2-1.1,2.7-1.8,3.6
			L649.3,172.7z M652.9,167.3h2v-3.2h-2V167.3z M655.3,169.6c0.2,1.1,0.4,2.4,0.5,3.2l-1.2,0.2c0-0.8-0.2-2.2-0.4-3.3L655.3,169.6z
			 M655.9,164.1v3.2h2.2v-3.2H655.9z M659,169.5c0.5,1,1,2.4,1.2,3.3l-1.2,0.3c-0.2-0.8-0.7-2.2-1.1-3.3L659,169.5z M659.2,164.1
			v3.2h2.1v-3.2H659.2z M662.8,169.2c0.7,1.1,1.5,2.5,1.9,3.4l-1.2,0.5c-0.3-0.9-1.1-2.4-1.8-3.5L662.8,169.2z"/>
		<path class="st43" d="M673.3,167.5c-1.3,2.1-3.4,4.1-5.7,5.3c-0.2-0.3-0.5-0.7-0.9-1c2.1-1,4.3-2.8,5.4-4.8L673.3,167.5z
			 M672.6,157.4c-1.3,1.5-3.2,2.9-4.9,3.9c-0.2-0.3-0.6-0.7-0.9-0.9c1.6-0.8,3.5-2.2,4.6-3.5L672.6,157.4z M672.9,162.4
			c-1.2,1.6-3.2,3.2-4.9,4.2c-0.2-0.3-0.6-0.7-0.9-0.9c1.7-0.8,3.6-2.3,4.7-3.7L672.9,162.4z M677.2,170.8c-1.1,0.9-3,1.8-4.6,2.4
			c-0.2-0.2-0.5-0.6-0.8-0.9c1.6-0.5,3.4-1.4,4.3-2.2L677.2,170.8z M677.1,160.3c0.1-0.5,0.3-1.2,0.4-1.8h-4.3v-1.1h10.2v1.1h-4.5
			c-0.2,0.6-0.4,1.2-0.6,1.8h4.4v9.4h-8.7v-9.4H677.1z M681.6,161.3h-6.4v1.9h6.4V161.3z M681.6,164.1h-6.4v1.9h6.4V164.1z
			 M681.6,166.9h-6.4v1.9h6.4V166.9z M680.1,170.2c1.2,0.6,2.8,1.6,3.7,2.3l-1,0.7c-0.8-0.7-2.4-1.7-3.6-2.3L680.1,170.2z"/>
		<path class="st43" d="M701.6,167.2H694v4.2c0,0.9-0.3,1.3-0.9,1.5c-0.7,0.2-1.8,0.2-3.7,0.2c-0.1-0.3-0.3-0.9-0.5-1.2
			c1.6,0,3,0,3.4,0c0.4,0,0.6-0.1,0.6-0.5v-4.2h-7.5V166h7.5v-3.1h-6.3v-1.2h6.3v-2.9c-2,0.2-4.1,0.3-6,0.4c0-0.3-0.2-0.8-0.3-1.1
			c4.3-0.2,9.7-0.7,12.4-1.6l0.9,1c-1.5,0.5-3.5,0.8-5.7,1.1v3h6.5v1.2H694v3.1h7.5V167.2z"/>
		<path class="st43" d="M705.1,168.3c-0.2,1.7-0.6,3.5-1,4.7c-0.2-0.1-0.7-0.3-1-0.3c0.5-1.2,0.8-3,0.9-4.5L705.1,168.3z
			 M708.4,167.6c-0.1-0.3-0.1-0.7-0.2-1.1c-3.6,0.5-4.1,0.7-4.4,0.8c-0.1-0.2-0.3-0.8-0.4-1.1c0.3-0.1,0.7-0.5,1.3-1.2
			c0.3-0.3,0.9-1.1,1.5-2.2c-1.9,0.2-2.2,0.3-2.5,0.4c-0.1-0.2-0.2-0.8-0.4-1c0.3-0.1,0.6-0.5,0.9-1c0.4-0.5,1.6-2.7,2.3-4.6
			l1.1,0.4c-0.8,1.8-1.7,3.6-2.6,5l1.9-0.2c0.5-0.8,0.9-1.6,1.3-2.5l1,0.5c-1.1,2.2-2.5,4.3-3.9,6l2.8-0.4c-0.2-0.7-0.4-1.3-0.6-1.9
			l0.9-0.2c0.5,1.3,0.9,2.9,1.1,3.8L708.4,167.6z M706.7,168.1c0.2,1.3,0.4,3,0.5,4.2l-0.9,0.2c0-1.1-0.2-2.9-0.5-4.2L706.7,168.1z
			 M708.2,167.7c0.4,1.1,0.8,2.5,1,3.4l-0.9,0.3c-0.2-0.9-0.6-2.4-1-3.4L708.2,167.7z M713.7,171.4c-1.4,0.7-3.1,1.4-4.3,1.9
			c-0.1-0.3-0.3-0.6-0.5-0.9c1.2-0.4,3-1.2,3.9-1.7L713.7,171.4z M713.9,158.5h-4.7v-0.9h4.7v-1h1.2v1h4.5v0.9h-4.5v1h3.8v0.8H710
			v-0.8h3.9V158.5z M709.3,161.2h10.1v3.3h-10.1V161.2z M716,170.6c1.4,0.5,2.9,1.2,3.8,1.6l-0.5,0.9c-1-0.5-2.5-1.2-3.8-1.7
			L716,170.6h-6.1v-5.3h8.9v5.3H716z M710.4,163.6h2.2V162h-2.2V163.6z M711,166.9h6.7V166H711V166.9z M711,168.3h6.7v-0.8H711
			V168.3z M711,169.8h6.7V169H711V169.8z M715.6,163.6V162h-2v1.6H715.6z M718.4,162h-1.8v1.6h1.8V162z"/>
		<path class="st43" d="M728.3,171.1c-1.5,0.8-3.8,1.6-5.6,2.1c-0.2-0.2-0.6-0.7-0.9-0.9c1.8-0.4,4-1,5.4-1.7L728.3,171.1z
			 M732.5,170.5c2,0.5,4.1,1.3,5.4,1.8l-0.9,0.8c-1.2-0.6-3.3-1.3-5.4-1.9l0.7-0.6h-8.1v-5.8c-0.5,0.1-1.1,0.3-1.7,0.4
			c-0.1-0.3-0.4-0.7-0.6-0.9c2.3-0.5,3.6-1.1,4.4-1.8h-3.1c0.2-0.8,0.3-1.9,0.5-2.8h3.7v-1.1h-4.5v-0.8h4.5v-1h1.1v1h3v-1h1.1v1h4.1
			v2.8h-4.1v1.1h5.2c0,0,0,0.3,0,0.4c-0.1,0.9-0.2,1.5-0.5,1.7c-0.2,0.2-0.5,0.3-0.8,0.3h-0.5v6.6H732.5z M724.5,160.4
			c-0.1,0.4-0.1,0.8-0.2,1.1h2.5c0.2-0.4,0.3-0.7,0.3-1.1H724.5z M734.6,164.5h-9.3v1.2h9.3V164.5z M734.6,166.5h-9.3v1.2h9.3V166.5
			z M725.3,169.7h9.3v-1.2h-9.3V169.7z M727.8,162.4c-0.3,0.5-0.8,0.9-1.4,1.3h8.4c0-0.2-0.1-0.4-0.2-0.6c0.6,0.1,1.1,0.1,1.3,0.1
			c0.2,0,0.3,0,0.4-0.1c0.1-0.1,0.2-0.3,0.2-0.7h-4v1.3h-1.1v-1.3H727.8z M731.3,160.4h-3c0,0.4-0.1,0.8-0.2,1.1h3.2V160.4z
			 M728.4,159.6h3v-1.1h-3V159.6z M732.5,158.5v1.1h3v-1.1H732.5z"/>
	</g>
</g>
<g>
	<g class="st11">
		<path class="st43" d="M651.1,470.9c-0.3,1.5-0.8,3.2-1.3,4.4c-0.2-0.1-0.7-0.3-1-0.4c0.5-1.1,0.9-2.7,1.2-4.2L651.1,470.9z
			 M655.4,469.8c-0.1-0.3-0.1-0.6-0.2-1c-4.8,0.7-5.4,0.9-5.8,1.1c-0.1-0.2-0.3-0.8-0.4-1.2c0.4-0.1,0.9-0.5,1.5-1.1
			c0.3-0.3,1.1-1.2,1.9-2.3c-2.4,0.3-2.8,0.4-3.1,0.5c-0.1-0.3-0.3-0.8-0.4-1.1c0.3-0.1,0.7-0.5,1.1-1c0.5-0.5,2-2.6,2.9-4.6
			l1.1,0.5c-1,1.7-2.2,3.5-3.4,4.9l2.5-0.2c0.5-0.7,1-1.5,1.5-2.2l1.1,0.7c-1.4,2.1-3,4.1-4.6,5.7l3.7-0.5c-0.2-0.6-0.4-1.2-0.6-1.8
			l1-0.2c0.5,1.2,1.1,2.8,1.3,3.7L655.4,469.8z M653.2,470.5c0.3,1.3,0.5,2.9,0.6,4l-1,0.3c-0.1-1.1-0.3-2.7-0.5-4L653.2,470.5z
			 M655.3,470.2c0.5,1.1,1,2.6,1.2,3.5l-1,0.3c-0.2-0.9-0.7-2.4-1.1-3.5L655.3,470.2z M664.8,463.1c-0.3,8.2-0.5,10.9-1.2,11.8
			c-0.4,0.5-0.8,0.6-1.4,0.7c-0.6,0.1-1.6,0-2.6,0c0-0.4-0.2-0.9-0.4-1.2c1.1,0.1,2.2,0.1,2.6,0.1c0.3,0,0.5,0,0.7-0.3
			c0.5-0.6,0.8-3.3,1-10.5h-5.4c-0.5,1-1,1.9-1.5,2.7c-0.2-0.2-0.7-0.5-1-0.7c1.3-1.6,2.3-4.1,2.9-6.5l1.2,0.2
			c-0.3,1.1-0.6,2.1-1,3.1h6.1V463.1z M660.9,470.8c-0.6-1.1-1.9-2.8-3.2-4l0.9-0.6c1.2,1.2,2.6,2.8,3.2,4L660.9,470.8z"/>
		<path class="st43" d="M670,466.8c-0.6-0.6-1.9-1.3-3-1.8l0.7-0.9c1.1,0.4,2.4,1.1,3,1.7L670,466.8z M667.4,474.8
			c0.7-1.4,1.8-3.8,2.5-5.8l1,0.6c-0.7,1.9-1.6,4.1-2.4,5.8L667.4,474.8z M668.5,459.3c1,0.5,2.3,1.3,2.9,1.9l-0.7,1
			c-0.6-0.6-1.8-1.5-2.9-2L668.5,459.3z M677.9,464.6v1.4h5.1v8.4c0,0.6-0.1,0.9-0.5,1c-0.4,0.1-1.1,0.2-2.3,0.2
			c0-0.3-0.2-0.7-0.3-0.9c0.8,0,1.5,0,1.8,0c0.2,0,0.3-0.1,0.3-0.3v-7.4h-4v8.4h-1.1v-2.8c-0.2,0.1-0.4,0.4-0.5,0.5
			c-0.5-0.5-0.9-1.3-1.2-2.3c-0.3,1-0.7,1.8-1.4,2.4c-0.1-0.2-0.4-0.4-0.6-0.5c0.9-0.7,1.3-1.9,1.5-3.1h0.3c0-0.2-0.1-0.5-0.1-0.7
			h-1.1v-0.9h1.7c0.1,2,0.6,3.6,1.4,4.4v-5.5h-3.8v8.6h-1.1V466h4.9v-1.4h-2.6v-2.7h-2.8v-1.1h2.8v-1.8h1.1v1.8h4.1v-1.8h1.2v1.8h3
			v1.1h-3v2.7H677.9z M675.3,463.6h4.1v-1.6h-4.1V463.6z M680.3,468.2c0.1,2.1,0.7,3.7,1.6,4.4c-0.2,0.1-0.5,0.4-0.6,0.6
			c-0.6-0.5-1-1.3-1.3-2.3c-0.3,0.9-0.7,1.8-1.5,2.3c-0.1-0.2-0.4-0.4-0.6-0.5c0.9-0.7,1.4-1.8,1.5-2.9h0.3c0-0.2-0.1-0.5-0.1-0.7
			h-1.1v-0.9H680.3z"/>
		<path class="st43" d="M691.1,472.6c1.3-0.2,2.6-0.5,3.9-0.7l0.1,1.1c-3.2,0.6-6.7,1.3-9.1,1.7l-0.3-1.1c1.1-0.2,2.6-0.5,4.2-0.7
			v-3.2h-3.6v-1.1h3.6v-2h1.2v2h3.7v1.1h-3.7V472.6z M685.8,460.3h9.3v1.1h-4.9c-0.7,1.3-1.4,2.5-2.2,3.6l4.9-0.4
			c-0.5-0.7-1-1.3-1.4-1.9l0.9-0.5c1,1.2,2.2,2.9,2.8,3.9l-0.9,0.6c-0.2-0.3-0.4-0.7-0.7-1.2c-5.8,0.6-6.4,0.7-6.8,0.8
			c-0.1-0.3-0.3-0.8-0.4-1.1c0.3-0.1,0.6-0.4,0.9-0.8c0.3-0.4,1.1-1.6,1.7-2.9h-3V460.3z M697.3,471.6h-1.1v-10.9h1.1V471.6z
			 M700.9,459.4v14.3c0,0.8-0.2,1.2-0.7,1.4c-0.5,0.2-1.5,0.2-2.8,0.2c-0.1-0.3-0.3-0.9-0.5-1.2c1.1,0,2.1,0,2.4,0
			c0.3,0,0.4-0.1,0.4-0.4v-14.3H700.9z"/>
		<path class="st43" d="M712.4,471.2h-8.9v-1.1h1.8v-7.5h-1.5v-1.1h1.5v-2.2h1.1v2.2h3.5v-2.2h1.1v2.2h1.3v1.1H711v7.5h1.4V471.2z
			 M707.2,472c-0.6,1.4-1.7,2.8-2.7,3.7c-0.2-0.2-0.7-0.5-1-0.7c1-0.8,2-2.1,2.5-3.3L707.2,472z M706.4,462.6v1.7h3.5v-1.7H706.4z
			 M706.4,467.2h3.5v-1.9h-3.5V467.2z M706.4,470.2h3.5v-1.9h-3.5V470.2z M709.5,471.7c0.7,0.8,1.5,1.9,1.9,2.7l-1,0.6
			c-0.3-0.7-1.1-1.9-1.8-2.8L709.5,471.7z M719.5,474c0,0.8-0.2,1.1-0.7,1.3c-0.5,0.2-1.3,0.2-2.7,0.2c-0.1-0.3-0.2-0.9-0.4-1.2
			c1,0,1.9,0,2.2,0c0.3,0,0.4-0.1,0.4-0.4v-4.5h-4c-0.2,2.2-0.6,4.5-1.7,6.3c-0.2-0.2-0.7-0.6-1-0.7c1.5-2.4,1.7-5.9,1.7-8.5V460
			h6.2V474z M718.3,468.4v-3.2h-3.9v1.3c0,0.6,0,1.2,0,1.8H718.3z M714.4,461.1v3h3.9v-3H714.4z"/>
		<path class="st43" d="M724.5,461.4c-0.6,0.9-1.2,1.7-1.9,2.4c-0.2-0.2-0.6-0.6-0.9-0.8c1.1-1,2.2-2.5,2.8-4l1.1,0.3
			c-0.2,0.4-0.3,0.8-0.5,1.2h4.8v1h-3.6c0.6,0.5,1.3,1.2,1.6,1.7l-0.8,0.7c-0.4-0.5-1.1-1.2-1.7-1.8l0.7-0.5H724.5z M730.1,462.8
			c0.3,0.4,0.5,1,0.7,1.4h6.7v3h-1.2v-2H724v2h-1.2v-3h6.7c-0.1-0.4-0.4-0.8-0.6-1.2L730.1,462.8z M726,471.2h10.1v4.4H735V475H726
			v0.6h-1.2v-9.3h10.4v3.6H726V471.2z M726,467.3v1.7h8v-1.7H726z M726,472.2v1.9h8.9v-1.9H726z M738.2,460.4v1H732
			c-0.4,0.6-0.8,1.1-1.3,1.5c-0.2-0.2-0.6-0.6-0.9-0.7c1-0.8,1.8-2,2.3-3.2l1.1,0.3c-0.2,0.4-0.3,0.8-0.6,1.2H738.2z M735.3,463.9
			c-0.4-0.5-1.3-1.3-1.9-1.9l0.8-0.6c0.7,0.5,1.5,1.3,1.9,1.8L735.3,463.9z"/>
		<path class="st43" d="M745.7,471.9c-1.9,0.7-4,1.4-5.6,1.9l-0.3-1.2c0.7-0.2,1.5-0.5,2.5-0.8v-5h-2.1v-1.1h2.1v-4.1H740v-1.1h5.6
			v1.1h-2.1v4.1h1.9v1.1h-1.9v4.7c0.7-0.2,1.4-0.5,2-0.7L745.7,471.9z M756.6,473.9v1.1h-11.8v-1.1h5.6v-2.6h-4.2v-1.1h4.2V468h-4
			v-8.1h9.2v8.1h-4v2.2h4.3v1.1h-4.3v2.6H756.6z M747.6,463.4h2.9V461h-2.9V463.4z M747.6,466.9h2.9v-2.5h-2.9V466.9z M754.6,461h-3
			v2.4h3V461z M754.6,464.4h-3v2.5h3V464.4z"/>
		<path class="st43" d="M764.8,473.5c-1.5,0.8-3.8,1.6-5.6,2.1c-0.2-0.2-0.6-0.7-0.9-0.9c1.8-0.4,4-1,5.4-1.7L764.8,473.5z
			 M769.1,473c2,0.5,4.1,1.3,5.4,1.8l-0.9,0.8c-1.2-0.6-3.3-1.3-5.4-1.9l0.7-0.6h-8.1v-5.8c-0.5,0.1-1.1,0.3-1.7,0.4
			c-0.1-0.3-0.4-0.7-0.6-0.9c2.3-0.5,3.6-1.1,4.4-1.8h-3.1c0.2-0.8,0.3-1.9,0.5-2.8h3.7V461h-4.5v-0.8h4.5v-1h1.1v1h3v-1h1.1v1h4.1
			v2.8H769v1.1h5.2c0,0,0,0.3,0,0.4c-0.1,0.9-0.2,1.5-0.5,1.7c-0.2,0.2-0.5,0.3-0.8,0.3h-0.5v6.6H769.1z M761.1,462.9
			c-0.1,0.4-0.1,0.8-0.2,1.1h2.5c0.2-0.4,0.3-0.7,0.3-1.1H761.1z M771.2,467h-9.3v1.2h9.3V467z M771.2,469h-9.3v1.2h9.3V469z
			 M761.9,472.2h9.3v-1.2h-9.3V472.2z M764.3,464.9c-0.3,0.5-0.8,0.9-1.4,1.3h8.4c0-0.2-0.1-0.4-0.2-0.6c0.6,0.1,1.1,0.1,1.3,0.1
			c0.2,0,0.3,0,0.4-0.1c0.1-0.1,0.2-0.3,0.2-0.7h-4v1.3h-1.1v-1.3H764.3z M767.9,462.9h-3c0,0.4-0.1,0.8-0.2,1.1h3.2V462.9z
			 M764.9,462h3V461h-3V462z M769,461v1.1h3V461H769z"/>
	</g>
</g>
<g>
	<g class="st11">
		<path class="st43" d="M701.6,317v2.9c0,2-0.3,4.7-1.9,6.6c-0.2-0.2-0.6-0.6-0.9-0.8c1.5-1.7,1.7-4,1.7-5.8V316h2.3
			c-0.2-0.2-0.4-0.5-0.6-0.6c1.5-0.3,3.2-0.7,4.8-1.1c-1.4-0.4-2.9-0.8-4.2-1.1l0.8-0.6h-2.9v-1h6.8c-0.3-0.5-0.7-1-1-1.4l0.9-0.5
			c0.5,0.5,1.1,1.3,1.4,1.9h6.1v1h-2.8l0.7,0.4c-0.8,0.4-1.8,0.9-2.9,1.3c1.4,0.4,2.6,0.8,3.6,1.2l-0.7,0.6h2.6v1H701.6z
			 M715.6,324.7v1H702v-1h6v-2h-4.3v-1h4.3V320h-3.9c-0.5,0.9-1.1,1.6-1.7,2.2c-0.1-0.2-0.5-0.8-0.7-1c1-1,1.9-2.4,2.4-3.9l1.1,0.3
			c-0.2,0.5-0.4,0.9-0.6,1.3h3.4v-1.6h1.2v1.6h5v1h-5v1.7h4.6v1h-4.6v2H715.6z M712.3,316c-1.1-0.4-2.5-0.9-4-1.3
			c-1.7,0.5-3.4,1-5,1.3H712.3z M703.6,312.5c1.5,0.4,3.1,0.8,4.8,1.3c1.2-0.4,2.3-0.9,3.1-1.3H703.6z"/>
		<path class="st43" d="M733.6,324.6v1.2h-16.2v-1.2h7.5v-4.8h-5.5v-1.2h5.5v-4.1h-4.4c-0.6,1.2-1.2,2.2-1.9,3
			c-0.2-0.2-0.8-0.6-1.1-0.7c1.5-1.6,2.7-4.1,3.4-6.7l1.2,0.3c-0.3,1-0.6,2-1,3h3.9v-3.6h1.3v3.6h6.6v1.2h-6.6v4.1h5.9v1.2h-5.9v4.8
			H733.6z"/>
		<path class="st43" d="M740.8,310.7c-0.4,0.8-1,1.7-1.7,2.5c1,2,1.2,4.1,1.2,6.3c0,2.6-0.2,4.9-0.9,5.9c-0.2,0.3-0.6,0.5-1,0.6
			c-0.6,0.1-1.3,0.1-2.1,0.1c0-0.4-0.2-0.9-0.4-1.2c0.9,0.1,1.5,0.1,2,0c0.3,0,0.4-0.1,0.6-0.3c0.5-0.6,0.6-2.7,0.6-5.1
			c0-0.4,0-0.8,0-1.2c-0.9,1.4-2,2.8-3.1,3.7c-0.1-0.3-0.5-0.8-0.7-1.1c1.3-0.9,2.8-2.7,3.6-4.4c-0.1-0.8-0.3-1.6-0.7-2.4
			c-0.8,0.8-1.6,1.6-2.3,2.2c-0.2-0.3-0.5-0.8-0.7-1.1c0.8-0.5,1.7-1.3,2.5-2.1c-0.5-0.7-1.1-1.5-1.9-2.2l0.8-0.7
			c0.7,0.6,1.3,1.3,1.8,2c0.5-0.7,1.1-1.4,1.4-2.1L740.8,310.7z M751,321.7c-0.8,1.1-2.1,2-3.5,2.7c1.4,0.4,3,0.7,4.6,0.9
			c-0.2,0.2-0.5,0.7-0.7,1c-1.9-0.3-3.7-0.7-5.4-1.3c-1.7,0.6-3.6,1.1-5.4,1.4c-0.1-0.3-0.4-0.8-0.6-1c1.6-0.2,3.2-0.5,4.6-0.9
			c-1.1-0.6-2.1-1.2-2.8-2l0.5-0.2h-1.2v-0.9h8.9l0.2-0.1L751,321.7z M742.1,316c-0.3,0.4-0.6,0.7-0.9,1c-0.2-0.2-0.6-0.6-0.8-0.7
			c1-0.9,2-2.1,2.5-3.4l1,0.3c-0.2,0.4-0.4,0.7-0.6,1.1h3c-0.3-0.4-0.7-0.8-1-1.1l0.9-0.5c0.5,0.5,1.1,1.2,1.4,1.6h3.7v0.8h-4v0.9
			h3.6v0.7h-3.6v1h3.6v0.8h-3.6v1h4.2v0.8h-8.3v0.5h-1.1V316z M744.1,312.1H741v-0.9h3.1v-1.4h1.1v3.5h-1.1V312.1z M746.2,315.1h-3
			v0.9h3V315.1z M746.2,316.8h-3v1h3V316.8z M746.2,318.6h-3v1h3V318.6z M743.2,322.2c0.7,0.7,1.8,1.3,3,1.7c1.2-0.5,2.2-1,3-1.7
			H743.2z M748.3,313.3h-1.1v-3.6h1.1v1.3h3.6v0.9h-3.6V313.3z"/>
		<path class="st43" d="M758.9,315.2h3.8v1.1h-3.8v0.5c0.9,0.8,3,3,3.6,3.6l-0.7,1c-0.6-0.7-1.9-2.2-2.9-3.2v8.1h-1.2v-8.1
			c-1,2.1-2.3,4.3-3.6,5.6c-0.1-0.3-0.4-0.8-0.7-1.1c1.5-1.4,3.1-4,4-6.3h-3.6v-1.1h3.9V312c-1.2,0.2-2.4,0.4-3.6,0.6
			c-0.1-0.3-0.2-0.7-0.4-1c2.7-0.4,5.9-1,7.6-1.7l0.9,0.9c-0.9,0.4-2.1,0.7-3.3,1V315.2z M765.4,321.9h-1.2v-10h1.2V321.9z
			 M769.3,310v14.7c0,0.9-0.3,1.2-0.8,1.4c-0.6,0.2-1.5,0.2-3.2,0.2c-0.1-0.3-0.3-0.9-0.5-1.2c1.3,0,2.4,0,2.8,0
			c0.3,0,0.5-0.1,0.5-0.5V310H769.3z"/>
		<path class="st43" d="M777.6,322.8h-4v1.4h-1.1V311h5.1V322.8z M773.6,312.1v4.2h2.8v-4.2H773.6z M776.4,321.7v-4.3h-2.8v4.3
			H776.4z M783.7,313.1v2.5h4v1.1h-1.6v2.1h2.2v1.1h-2.2v5.1c0,0.7-0.2,1.1-0.7,1.3c-0.5,0.2-1.4,0.2-2.9,0.2
			c-0.1-0.3-0.2-0.8-0.4-1.1c1.1,0,2.2,0,2.5,0c0.3,0,0.4-0.1,0.4-0.4v-5H778v-1.1h6.9v-2.1h-6.2v-1.1h3.8v-2.5h-4.6V312h4.6v-2.2
			h1.2v2.2h4.6v1.1H783.7z M780.1,320.5c0.9,0.9,1.9,2.3,2.4,3.1l-1,0.7c-0.4-0.9-1.4-2.2-2.3-3.2L780.1,320.5z"/>
		<path class="st43" d="M795.2,310.1h1.2v16.3h-1.2v-5.1c-3.4,1.3-3.9,1.5-4.2,1.8c-0.1-0.3-0.3-0.8-0.5-1.1
			c0.3-0.1,0.6-0.5,0.6-1.2v-8.9h1.2v9.3l2.9-1V310.1z M805.1,314.5c-0.5,2.9-1.3,5.3-2.4,7.2c1.1,1.6,2.4,2.8,4,3.6
			c-0.3,0.2-0.7,0.7-0.8,1c-1.5-0.8-2.8-2.1-3.8-3.6c-1.1,1.5-2.5,2.7-4.3,3.7c-0.1-0.3-0.5-0.8-0.8-1c1.9-0.9,3.3-2.1,4.4-3.7
			c-0.9-1.6-1.7-3.4-2.3-5.4c-0.5,1-1,1.8-1.5,2.6c-0.2-0.3-0.6-0.8-0.9-1c1.5-1.9,2.5-4.8,3.1-8l1.2,0.2c-0.2,1.1-0.5,2.3-0.8,3.4
			h6.4v1.1H805.1z M799.7,314.7c0.5,2.1,1.3,4.2,2.3,5.9c0.9-1.7,1.5-3.7,1.9-6.1h-4.2L799.7,314.7z"/>
		<path class="st43" d="M815.9,312.1v14.2h-1.2v-3.4c-2.3,0.4-4.7,0.7-6.4,1l-0.2-1.2c0.5-0.1,1.1-0.1,1.8-0.2v-10.5h-1.4v-1.1h8.8
			v1.1H815.9z M814.7,312.1H811v2.5h3.7V312.1z M814.7,315.7H811v2.7h3.7V315.7z M811,322.4c1.2-0.2,2.4-0.4,3.7-0.6v-2.4H811V322.4
			z M824.3,312.5c-0.5,3.9-1.5,6.9-3,9.2c1,1.5,2.3,2.7,3.8,3.5c-0.3,0.2-0.7,0.7-0.9,1c-1.5-0.8-2.7-2-3.7-3.4
			c-1.1,1.4-2.4,2.5-3.8,3.3c-0.2-0.3-0.5-0.8-0.8-1c1.5-0.8,2.8-1.9,3.9-3.4c-1.3-2.2-2.1-4.8-2.8-7.9l1.1-0.2c0.5,2.6,1.2,5,2.3,7
			c1.1-1.9,2-4.2,2.4-7.1h-6.3v-1.2h6.6l0.2,0L824.3,312.5z"/>
	</g>
</g>
<g class="st11">
	<path class="st5" d="M649.9,429.6c0-7.1,2.6-10.5,6.6-10.5c4,0,6.6,3.5,6.6,10.5c0,7.1-2.6,10.7-6.6,10.7
		C652.4,440.2,649.9,436.7,649.9,429.6z M660,429.6c0-5.9-1.5-8-3.6-8c-2.1,0-3.6,2.1-3.6,8c0,5.9,1.5,8.1,3.6,8.1
		C658.5,437.7,660,435.5,660,429.6z"/>
	<path class="st5" d="M669.5,429.4c-0.9,0-1.7,0.6-2.4,1.9l-1.7-1.2c1.2-2.1,2.7-2.9,4.1-2.9c2.5,0,3.7,2.6,5.5,2.6
		c0.9,0,1.6-0.6,2.3-1.9l1.7,1.3c-1.3,2.1-2.7,2.9-4.1,2.9C672.5,432,671.3,429.4,669.5,429.4z"/>
	<path class="st5" d="M682.6,437.2h4.5V423h-3.7v-2c1.9-0.4,3.3-0.8,4.4-1.6h2.4v17.8h4v2.6h-11.7V437.2z"/>
	<path class="st5" d="M697,425.5c0-4.1,1.9-6.4,4.8-6.4c2.9,0,4.8,2.3,4.8,6.4c0,4.1-1.9,6.5-4.8,6.5C698.9,432,697,429.6,697,425.5
		z M704.3,425.5c0-3.2-1-4.6-2.5-4.6c-1.4,0-2.4,1.4-2.4,4.6c0,3.1,1,4.6,2.4,4.6C703.2,430.1,704.3,428.6,704.3,425.5z M713.6,419
		h2l-11.2,21.2h-2L713.6,419z M711.5,433.8c0-4.1,1.9-6.4,4.8-6.4c2.8,0,4.8,2.3,4.8,6.4c0,4.1-1.9,6.5-4.8,6.5
		C713.4,440.2,711.5,437.9,711.5,433.8z M718.7,433.8c0-3.2-1-4.6-2.4-4.6c-1.4,0-2.5,1.4-2.5,4.6c0,3.1,1,4.6,2.5,4.6
		C717.7,438.4,718.7,436.9,718.7,433.8z"/>
	<path class="st5" d="M727.9,420.5c-0.9,1.4-1.9,2.6-2.9,3.5c-0.4-0.4-1.2-1.3-1.7-1.7c1.7-1.4,3.2-3.7,4.1-5.9l2.3,0.7
		c-0.2,0.5-0.4,0.9-0.7,1.4h6.6v2H731c0.8,0.7,1.6,1.5,2.1,2.1l-1.7,1.4c-0.5-0.7-1.6-1.9-2.5-2.6l1-0.9H727.9z M736.4,422.1
		c0.4,0.6,0.9,1.4,1.1,2.1h10v4.7h-2.6v-2.7h-17.8v2.7h-2.5v-4.7h10.2c-0.2-0.6-0.5-1.1-0.8-1.6L736.4,422.1z M730.4,435.1h15.2v6.9
		H743v-0.8h-12.6v0.9h-2.6v-14.4h16.3v5.8h-13.7V435.1z M730.4,429.6v1.9h11.2v-1.9H730.4z M730.4,437.1v2.2H743v-2.2H730.4z
		 M748.5,418.4v2H743c0.9,0.7,2,1.6,2.5,2.3l-1.7,1.5c-0.6-0.7-1.9-1.9-3-2.8l1.2-1h-2.9c-0.6,0.9-1.3,1.6-2,2.2
		c-0.4-0.4-1.4-1.2-1.9-1.6c1.5-1.2,2.7-2.9,3.4-4.7l2.4,0.6c-0.2,0.5-0.4,1-0.7,1.5H748.5z"/>
	<path class="st5" d="M760.2,436.4c-3,1.1-6.2,2.1-8.7,2.9l-0.6-2.6c1-0.3,2.2-0.6,3.6-1v-7h-3v-2.4h3v-5.5h-3.3v-2.4h8.8v2.4h-3.1
		v5.5h2.6v2.4h-2.6v6.3c0.9-0.3,1.9-0.6,2.9-0.9L760.2,436.4z M776.6,438.8v2.4h-17.7v-2.4h8v-3.3h-6v-2.3h6v-2.9h-5.8v-12.5h14.2
		v12.5h-5.8v2.9h6.2v2.3h-6.2v3.3H776.6z M763.5,423h3.6v-3h-3.6V423z M763.5,428.1h3.6v-3.1h-3.6V428.1z M772.9,420h-3.6v3h3.6V420
		z M772.9,425.1h-3.6v3.1h3.6V425.1z"/>
	<path class="st5" d="M796.7,437.9c2.6,0.8,5.3,1.8,7,2.5l-1.9,1.6c-1.8-0.9-4.9-2.1-8-3.1l1.1-1h-7.4l2,0.9
		c-2.2,1.3-5.7,2.6-8.5,3.3c-0.4-0.5-1.3-1.4-1.9-1.9c2.7-0.5,5.9-1.3,7.8-2.3h-4.3v-8.5c-0.7,0.2-1.4,0.4-2.3,0.5
		c-0.2-0.6-0.8-1.6-1.2-2c3.4-0.5,5.4-1.3,6.5-2.3h-4.6c0.3-1.3,0.6-3.2,0.7-4.7h5.4v-1.4h-6.5V418h6.5v-1.4h2.3v1.4h3.8v-1.4h2.4
		v1.4h6v4.6h-6v1.5h7.8c0,0,0,0.5-0.1,0.7c-0.2,1.6-0.3,2.4-0.7,2.9c-0.4,0.4-0.9,0.5-1.4,0.6c-0.2,0-0.4,0-0.6,0v9.7H796.7z
		 M783.9,422.5c-0.1,0.5-0.2,1-0.2,1.5h3.2c0.2-0.5,0.3-0.9,0.3-1.5H783.9z M798.1,429h-13v1.4h13V429z M798.1,431.9h-13v1.4h13
		V431.9z M785.1,436.4h13v-1.5h-13V436.4z M788.8,425.6c-0.4,0.7-0.9,1.3-1.7,1.8h6.2v-1.8H788.8z M793.3,422.5h-3.8
		c0,0.5-0.1,1-0.2,1.5h3.9V422.5z M789.5,420.9h3.8v-1.4h-3.8V420.9z M795.7,419.6v1.4h3.7v-1.4H795.7z M795.7,425.6v1.8h2.9
		c-0.1-0.3-0.2-0.6-0.3-0.9c0.7,0.1,1.4,0.1,1.7,0.1c0.3,0,0.5,0,0.6-0.2c0.1-0.1,0.2-0.4,0.3-0.9H795.7z"/>
</g>
<g class="st11">
	<path class="st5" d="M700.4,280.3c0-7.1,2.6-10.5,6.6-10.5c4,0,6.6,3.5,6.6,10.5c0,7.1-2.6,10.7-6.6,10.7
		C703,290.9,700.4,287.4,700.4,280.3z M710.5,280.3c0-5.9-1.5-8-3.6-8s-3.6,2.1-3.6,8c0,5.9,1.5,8.1,3.6,8.1
		S710.5,286.2,710.5,280.3z"/>
	<path class="st5" d="M720,280.2c-0.9,0-1.7,0.6-2.4,1.9l-1.7-1.2c1.2-2.1,2.7-2.9,4.1-2.9c2.5,0,3.7,2.6,5.5,2.6
		c0.9,0,1.6-0.6,2.3-1.9l1.7,1.3c-1.3,2.1-2.7,2.9-4.1,2.9C723,282.7,721.8,280.2,720,280.2z"/>
	<path class="st5" d="M731.5,288.1l1.6-2.1c1.2,1.2,2.7,2.2,4.8,2.2c2.3,0,3.9-1.3,3.9-3.4c0-2.3-1.4-3.7-6.1-3.7v-2.4
		c4,0,5.4-1.5,5.4-3.6c0-1.8-1.2-2.9-3.1-3c-1.6,0-2.9,0.8-4.1,1.9l-1.7-2c1.6-1.4,3.5-2.5,5.9-2.5c3.7,0,6.2,1.9,6.2,5.3
		c0,2.4-1.4,4-3.5,4.8v0.1c2.4,0.6,4.2,2.4,4.2,5.1c0,3.7-3.1,5.9-6.8,5.9C734.9,290.9,732.8,289.6,731.5,288.1z"/>
	<path class="st5" d="M747.8,280.3c0-7.1,2.6-10.5,6.6-10.5c4,0,6.6,3.5,6.6,10.5c0,7.1-2.6,10.7-6.6,10.7
		C750.4,290.9,747.8,287.4,747.8,280.3z M758,280.3c0-5.9-1.5-8-3.6-8c-2.1,0-3.6,2.1-3.6,8c0,5.9,1.5,8.1,3.6,8.1
		C756.5,288.4,758,286.2,758,280.3z"/>
	<path class="st5" d="M763.3,276.2c0-4.1,1.9-6.4,4.8-6.4s4.8,2.3,4.8,6.4c0,4.1-1.9,6.5-4.8,6.5S763.3,280.3,763.3,276.2z
		 M770.6,276.2c0-3.2-1-4.6-2.5-4.6c-1.4,0-2.4,1.4-2.4,4.6c0,3.1,1,4.6,2.4,4.6C769.6,280.8,770.6,279.3,770.6,276.2z M779.9,269.7
		h2l-11.2,21.2h-2L779.9,269.7z M777.8,284.5c0-4.1,1.9-6.4,4.8-6.4c2.8,0,4.8,2.3,4.8,6.4c0,4.1-1.9,6.5-4.8,6.5
		C779.8,290.9,777.8,288.6,777.8,284.5z M785.1,284.5c0-3.2-1-4.6-2.4-4.6c-1.4,0-2.5,1.4-2.5,4.6c0,3.1,1,4.6,2.5,4.6
		C784,289.1,785.1,287.6,785.1,284.5z"/>
	<path class="st5" d="M797.5,284.3c-0.1-0.4-0.2-1-0.3-1.5c-5.4,0.8-6.3,1-6.9,1.3c-0.1-0.5-0.5-1.6-0.8-2.2c0.6-0.1,1.2-0.8,2-1.9
		c0.4-0.4,1.2-1.5,2.1-2.8c-2.5,0.3-3.1,0.4-3.5,0.6c-0.1-0.5-0.5-1.6-0.8-2.2c0.5-0.1,0.9-0.7,1.5-1.5c0.6-0.8,2.4-4,3.4-6.9
		l2.2,0.9c-1.1,2.5-2.5,5-3.9,7.1l2.4-0.2c0.7-1.2,1.4-2.5,2-3.7l2.1,1.2c-1.7,3.1-3.7,6.2-5.9,8.7l3.5-0.4
		c-0.2-0.8-0.4-1.7-0.7-2.5l1.8-0.4c0.6,1.9,1.3,4.4,1.5,5.8L797.5,284.3z M792.6,285.5c-0.2,2.6-0.7,5.3-1.3,7.1
		c-0.4-0.2-1.3-0.5-1.9-0.7c0.6-1.8,1-4.4,1.3-6.8L792.6,285.5z M795.3,284.9c0.3,2.1,0.6,4.7,0.7,6.4l-1.8,0.3
		c0-1.7-0.3-4.4-0.6-6.4L795.3,284.9z M797.8,284.3c0.6,1.5,1.2,3.5,1.4,4.8l-1.7,0.6c-0.2-1.3-0.9-3.4-1.4-4.9L797.8,284.3z
		 M806,289.9c-2,1-4.7,2.1-6.6,2.8c-0.4-0.5-1.1-1.2-1.6-1.7c1.9-0.7,4.6-1.8,6.1-2.7L806,289.9z M805.6,270.7h-6.1V269h6.1v-1.7
		h2.5v1.7h5.7v1.8h-5.7v1.3h5.1v1.7h-5.1v1.3h6.7v1.9h-16.3V275h7.1v-1.3h-5.5V272h5.5V270.7z M800.3,288.2V278h13v10.2H800.3z
		 M802.6,281h8.2v-1.4h-8.2V281z M802.6,283.8h8.2v-1.4h-8.2V283.8z M802.6,286.6h8.2v-1.4h-8.2V286.6z M809.7,288.3
		c1.9,1,4,2.2,5.4,3.1l-2.2,1.3c-1.2-0.9-3.1-2.2-4.9-3.2L809.7,288.3z"/>
	<path class="st5" d="M823,274.6c-1.1,2.4-2.7,5.2-4.1,7c-0.4-0.4-1.2-1.2-1.8-1.6c1.4-1.6,2.8-3.9,3.6-6L823,274.6z M827.3,290
		c-0.6-1.1-1.5-2.4-2.6-3.9c-1.5,2.5-3.4,4.5-5.7,6c-0.3-0.5-1.2-1.5-1.8-1.9c2.4-1.5,4.4-3.6,5.9-6.1c-1.1-1.2-2.1-2.4-3.1-3.4
		l1.9-1.4c0.7,0.7,1.6,1.6,2.4,2.4c0.4-1.1,0.8-2.2,1.1-3.5l2.4,0.4c-0.5,1.8-1.1,3.5-1.8,5c1.4,1.6,2.7,3.3,3.4,4.6L827.3,290z
		 M830.5,273.5h-12.8v-2.3h5.7c-0.3-0.9-1.1-2.2-1.7-3.2l2.2-0.8c0.8,1,1.6,2.4,2,3.3l-1.7,0.7h6.3V273.5z M841.1,274.6
		c-0.7,4.4-1.7,8.1-3.4,11c1.4,2.2,3.2,3.9,5.3,5.1c-0.6,0.5-1.4,1.4-1.8,2.1c-2-1.2-3.6-2.9-5-4.9c-1.6,2.1-3.6,3.7-6.2,5.1
		c-0.3-0.5-1.2-1.5-1.7-1.9c2.9-1.3,5-3.1,6.6-5.4c-0.9-1.8-1.7-3.7-2.3-5.9c-0.4,0.8-0.9,1.5-1.4,2.2c-0.3-0.5-1.2-1.6-1.7-2
		c0.2-0.3,0.4-0.6,0.6-0.9l-1.7,1c-0.5-1.4-1.9-3.6-3.1-5.1l1.9-1c1.2,1.4,2.6,3.4,3.2,4.7c1.7-3,2.9-7,3.5-11.3l2.4,0.4
		c-0.3,1.6-0.6,3.1-0.9,4.6h7.2v2.4H841.1z M834.6,274.6c-0.2,0.6-0.4,1.2-0.6,1.8c0.5,2.4,1.3,4.7,2.2,6.7c1.1-2.4,1.9-5.2,2.3-8.5
		H834.6z"/>
	<path class="st5" d="M863,288.6c2.6,0.8,5.3,1.8,7,2.5l-1.9,1.6c-1.8-0.9-4.9-2.1-8-3.1l1.1-1h-7.4l2,0.9c-2.2,1.3-5.7,2.6-8.5,3.3
		c-0.4-0.5-1.3-1.4-1.9-1.9c2.7-0.5,5.9-1.3,7.8-2.3H849v-8.5c-0.7,0.2-1.4,0.4-2.3,0.5c-0.2-0.6-0.8-1.6-1.2-2
		c3.4-0.5,5.4-1.3,6.5-2.3h-4.6c0.3-1.3,0.6-3.2,0.8-4.7h5.4v-1.4H847v-1.6h6.6v-1.4h2.3v1.4h3.8v-1.4h2.4v1.4h6v4.6h-6v1.5h7.8
		c0,0,0,0.5-0.1,0.7c-0.2,1.6-0.3,2.4-0.7,2.9c-0.4,0.4-0.9,0.5-1.4,0.6c-0.2,0-0.4,0-0.6,0v9.7H863z M850.2,273.2
		c-0.1,0.5-0.2,1-0.2,1.5h3.2c0.2-0.5,0.3-0.9,0.3-1.5H850.2z M864.4,279.7h-13v1.4h13V279.7z M864.4,282.6h-13v1.4h13V282.6z
		 M851.5,287.1h13v-1.5h-13V287.1z M855.1,276.3c-0.4,0.7-0.9,1.3-1.7,1.8h6.2v-1.8H855.1z M859.6,273.2h-3.8c0,0.5-0.1,1-0.2,1.5
		h3.9V273.2z M855.9,271.6h3.8v-1.4h-3.8V271.6z M862.1,270.3v1.4h3.7v-1.4H862.1z M862.1,276.3v1.8h2.9c-0.1-0.3-0.2-0.6-0.3-0.9
		c0.8,0.1,1.4,0.1,1.7,0.1c0.3,0,0.5,0,0.6-0.2c0.1-0.1,0.2-0.4,0.3-0.9H862.1z"/>
</g>
<g class="st11">
	<path class="st5" d="M649.9,126.9c0-7.1,2.6-10.5,6.6-10.5c4,0,6.6,3.5,6.6,10.5c0,7.1-2.6,10.7-6.6,10.7
		C652.4,137.6,649.9,134,649.9,126.9z M660,126.9c0-5.9-1.5-8-3.6-8c-2.1,0-3.6,2.1-3.6,8c0,5.9,1.5,8.1,3.6,8.1
		C658.5,135.1,660,132.8,660,126.9z"/>
	<path class="st5" d="M665.4,122.8c0-4.1,1.9-6.4,4.8-6.4s4.8,2.3,4.8,6.4c0,4.1-1.9,6.5-4.8,6.5S665.4,126.9,665.4,122.8z
		 M672.6,122.8c0-3.2-1-4.6-2.5-4.6c-1.4,0-2.4,1.4-2.4,4.6c0,3.1,1,4.6,2.4,4.6C671.6,127.4,672.6,126,672.6,122.8z M682,116.4h2
		l-11.2,21.2h-2L682,116.4z M679.9,131.1c0-4.1,1.9-6.4,4.8-6.4c2.8,0,4.8,2.3,4.8,6.4c0,4.1-1.9,6.5-4.8,6.5
		C681.8,137.6,679.9,135.2,679.9,131.1z M687.1,131.1c0-3.2-1-4.6-2.4-4.6c-1.4,0-2.5,1.4-2.5,4.6c0,3.1,1,4.6,2.5,4.6
		C686.1,135.7,687.1,134.2,687.1,131.1z"/>
	<path class="st5" d="M715.3,117.6v15.8h-2.7v-1.4h-7v7.4h-2.7v-7.4H696v1.5h-2.6v-16h9.4V114h2.7v3.6H715.3z M696,120.1v3.5h6.9
		v-3.5H696z M702.9,129.6v-3.7H696v3.7H702.9z M705.6,120.1v3.5h7v-3.5H705.6z M712.6,129.6v-3.7h-7v3.7H712.6z"/>
	<path class="st5" d="M724.1,133.4c-0.7,2.3-1.9,4.6-3.1,6c-0.4-0.4-1.4-1-1.9-1.3c1.2-1.3,2.3-3.2,2.8-5.2L724.1,133.4z
		 M728.6,132.4h-8.1V115h8.1V132.4z M726.3,117.1h-3.5v3.1h3.5V117.1z M726.3,122.1h-3.5v3.1h3.5V122.1z M726.3,127.2h-3.5v3.2h3.5
		V127.2z M727.2,132.8c0.9,1.4,1.9,3.2,2.3,4.4l-2,1c-0.4-1.2-1.4-3.1-2.2-4.5L727.2,132.8z M744.8,134.9h-1.5v2
		c0,1.1-0.2,1.7-1.1,2.1c-0.8,0.4-2.1,0.4-4,0.4c-0.1-0.6-0.4-1.5-0.7-2.1c1.3,0.1,2.6,0.1,2.9,0c0.4,0,0.5-0.1,0.5-0.4v-2h-8v4.5
		h-2.3v-4.5H729V133h1.6v-7h5.1v-1.3h-6.6v-1.9h3.7v-1.5h-2.5v-1.8h2.5v-1.4h-3.2v-1.9h3.2v-2.2h2.3v2.2h3.6v-2.2h2.3v2.2h3.2v1.9
		h-3.2v1.4h2.7v1.8h-2.7v1.5h3.8v1.9H738v1.3h5.3v7h1.5V134.9z M732.9,127.9v1.6h2.8v-1.6H732.9z M732.9,133h2.8v-1.8h-2.8V133z
		 M735.1,119.5h3.6v-1.4h-3.6V119.5z M735.1,122.8h3.6v-1.5h-3.6V122.8z M738,127.9v1.6h2.9v-1.6H738z M740.9,133v-1.8H738v1.8
		H740.9z"/>
	<path class="st5" d="M772.3,130.6h-11.1v5.4c0,1.7-0.5,2.4-1.6,2.8c-1.1,0.4-3,0.5-5.9,0.4c-0.2-0.7-0.7-1.9-1.1-2.6
		c2.2,0.1,4.4,0.1,5.1,0.1c0.6,0,0.8-0.2,0.8-0.8v-5.4h-11.2v-2.5h11.2v-3.9h-9.3v-2.5h9.3v-3.8c-3,0.2-6,0.4-8.8,0.6
		c0-0.6-0.4-1.7-0.6-2.2c6.6-0.3,14.4-1,18.7-2.3l1.9,2.1c-2.4,0.7-5.4,1.2-8.5,1.6v4.1h9.5v2.5h-9.5v3.9h11.1V130.6z"/>
	<path class="st5" d="M778,132.1c-0.3,2.6-0.8,5.3-1.4,7.1c-0.4-0.2-1.4-0.5-1.9-0.7c0.6-1.8,1-4.4,1.3-6.8L778,132.1z M782.5,131
		c-0.1-0.4-0.2-0.9-0.3-1.5c-5.2,0.8-6,1-6.6,1.3c-0.1-0.5-0.4-1.6-0.7-2.1c0.6-0.2,1.2-0.8,2-1.9c0.4-0.4,1.1-1.5,1.9-2.9
		c-2.4,0.3-3,0.4-3.4,0.6c-0.1-0.5-0.5-1.5-0.7-2.1c0.5-0.1,0.9-0.7,1.4-1.5c0.6-0.8,2.2-4,3.2-7l2.2,0.9c-1,2.5-2.3,5.1-3.7,7.1
		l2.3-0.2c0.6-1.2,1.3-2.5,1.9-3.7l2,1.2c-1.6,3.1-3.6,6.2-5.6,8.8l3.4-0.4c-0.2-0.8-0.5-1.7-0.7-2.4l1.8-0.5
		c0.6,1.9,1.3,4.4,1.5,5.8L782.5,131z M780.5,131.7c0.4,2,0.6,4.6,0.7,6.4l-1.9,0.4c0-1.7-0.3-4.4-0.6-6.4L780.5,131.7z M782.9,131
		c0.5,1.6,1.2,3.7,1.4,5.1l-1.7,0.6c-0.2-1.4-0.8-3.5-1.4-5.1L782.9,131z M794.8,135.4c2,0.7,4.1,1.5,5.4,2.1l-1.1,1.8
		c-1.5-0.7-3.8-1.7-5.9-2.5l0.8-1.4h-4.5l1.5,1.4c-2.1,1-4.8,2-6.7,2.7c-0.2-0.5-0.6-1.3-1-1.8c1.7-0.6,4.1-1.6,5.6-2.3H785v-8.2
		h13.8v8.2H794.8z M790.8,117H784v-1.7h6.8v-1.4h2.5v1.4h6.5v1.7h-6.5v1.2h5.5v1.7H785v-1.7h5.7V117z M784.1,120.9h15.6v5.3h-15.6
		V120.9z M786.2,124.5h2.6v-2h-2.6V124.5z M787.3,129.7h9.1v-1h-9.1V129.7z M787.3,131.8h9.1v-1h-9.1V131.8z M787.3,134h9.1v-1.1
		h-9.1V134z M793.2,124.5v-2h-2.4v2H793.2z M797.4,122.5h-2.2v2h2.2V122.5z"/>
	<path class="st5" d="M820.6,135.3c2.6,0.8,5.3,1.8,7,2.5l-1.9,1.6c-1.8-0.9-4.9-2.1-8-3.1l1.1-1h-7.4l2,0.9
		c-2.2,1.3-5.7,2.6-8.5,3.3c-0.4-0.5-1.3-1.4-1.9-1.9c2.7-0.5,5.9-1.3,7.8-2.3h-4.3v-8.5c-0.7,0.2-1.4,0.4-2.3,0.5
		c-0.2-0.6-0.8-1.6-1.2-2c3.4-0.5,5.4-1.3,6.5-2.3h-4.6c0.3-1.3,0.6-3.2,0.8-4.7h5.4v-1.4h-6.6v-1.6h6.6v-1.4h2.3v1.4h3.8v-1.4h2.4
		v1.4h6v4.6h-6v1.5h7.8c0,0,0,0.5-0.1,0.7c-0.2,1.6-0.3,2.4-0.7,2.9c-0.4,0.4-0.9,0.5-1.4,0.6c-0.2,0-0.4,0-0.6,0v9.7H820.6z
		 M807.7,119.9c-0.1,0.5-0.2,1-0.2,1.5h3.2c0.2-0.5,0.3-0.9,0.3-1.5H807.7z M821.9,126.4h-13v1.4h13V126.4z M821.9,129.3h-13v1.4h13
		V129.3z M809,133.7h13v-1.5h-13V133.7z M812.6,123c-0.4,0.7-0.9,1.3-1.7,1.8h6.2V123H812.6z M817.2,119.9h-3.8c0,0.5-0.1,1-0.2,1.5
		h3.9V119.9z M813.4,118.3h3.8v-1.4h-3.8V118.3z M819.6,116.9v1.4h3.7v-1.4H819.6z M819.6,123v1.8h2.9c-0.1-0.3-0.2-0.6-0.3-0.9
		c0.8,0.1,1.4,0.1,1.7,0.1c0.3,0,0.5,0,0.6-0.2c0.1-0.1,0.2-0.4,0.3-0.9H819.6z"/>
</g>
<g id="shutterstock_x5F_1767227042.psd">
	
		<image style="overflow:visible;" width="1890" height="1260" id="shutterstock_x5F_1767227042" xlink:href="785A32C531C35EEA.png"  transform="matrix(0.2376 0 0 0.2376 58.561 102.39)">
	</image>
</g>
</svg>
