<?xml version="1.0" encoding="utf-8"?>
<!-- Generator: Adobe Illustrator 24.0.3, SVG Export Plug-In . SVG Version: 6.00 Build 0)  -->
<svg version="1.1" id="圖層_1" xmlns="http://www.w3.org/2000/svg" xmlns:xlink="http://www.w3.org/1999/xlink" x="0px" y="0px"
	 viewBox="0 0 1600 415.9" style="enable-background:new 0 0 1600 415.9;" xml:space="preserve">
<style type="text/css">
	.st0{fill:none;stroke:#BEBEBE;stroke-width:6;}
	.st1{fill:none;stroke:#CAB380;stroke-width:6;}
	.st2{fill:none;stroke:#1F273A;stroke-width:6;}
	.st3{fill:none;stroke:#CAB380;stroke-width:1.5;stroke-linecap:round;stroke-linejoin:round;}
	.st4{fill:none;stroke:#CAB380;stroke-width:1.5;stroke-linecap:round;stroke-linejoin:round;stroke-dasharray:1.0251,8.2004;}
	.st5{fill:#FFFFFF;}
	.st6{fill:#CAB380;}
	.st7{fill:none;stroke:#1F273A;stroke-width:1.5;stroke-linecap:round;stroke-linejoin:round;}
	.st8{fill:none;stroke:#1F273A;stroke-width:1.5;stroke-linecap:round;stroke-linejoin:round;stroke-dasharray:1.0251,8.2004;}
	.st9{fill:#1F273A;}
	.st10{fill:none;stroke:#1E3684;stroke-width:1.5;stroke-linecap:round;stroke-linejoin:round;stroke-dasharray:1.0251,8.2004;}
	.st11{fill:none;stroke:#1E3684;stroke-width:1.5;stroke-linecap:round;stroke-linejoin:round;}
	.st12{fill:#1E3684;}
	.st13{enable-background:new    ;}
	.st14{fill:#3E3E3E;}
	.st15{fill:#FFFFFF;stroke:#1F273A;stroke-width:1.5753;}
	.st16{fill:#FFFFFF;stroke:#1E3684;stroke-width:1.5019;}
</style>
<line class="st0" x1="420" y1="-315.3" x2="1425.8" y2="-315.3"/>
<line class="st1" x1="115.8" y1="-315.3" x2="420" y2="-315.3"/>
<line class="st2" x1="442.3" y1="-315.3" x2="1128.5" y2="-315.3"/>
<g>
	<g>
		<line class="st3" x1="115.8" y1="-315.3" x2="115.8" y2="-315.8"/>
		<line class="st4" x1="115.8" y1="-324" x2="115.8" y2="-384.5"/>
		<line class="st3" x1="115.8" y1="-388.6" x2="115.8" y2="-389.1"/>
	</g>
</g>
<g>
	<circle class="st5" cx="115.8" cy="-315.3" r="5.5"/>
	<path class="st6" d="M115.8-319.3c2.2,0,4,1.8,4,4s-1.8,4-4,4s-4-1.8-4-4S113.6-319.3,115.8-319.3 M115.8-322.3c-3.9,0-7,3.1-7,7
		s3.1,7,7,7s7-3.1,7-7C122.7-319.2,119.6-322.3,115.8-322.3L115.8-322.3z"/>
</g>
<g>
	<g>
		<line class="st3" x1="420" y1="-315.3" x2="420" y2="-315.8"/>
		<line class="st4" x1="420" y1="-324" x2="420" y2="-384.5"/>
		<line class="st3" x1="420" y1="-388.6" x2="420" y2="-389.1"/>
	</g>
</g>
<g>
	<g>
		<line class="st7" x1="442.3" y1="-238.2" x2="442.3" y2="-238.7"/>
		<line class="st8" x1="442.3" y1="-246.9" x2="442.3" y2="-307.4"/>
		<line class="st7" x1="442.3" y1="-311.5" x2="442.3" y2="-312"/>
	</g>
</g>
<g>
	<circle class="st5" cx="420" cy="-315.3" r="5.5"/>
	<path class="st6" d="M420-319.3c2.2,0,4,1.8,4,4s-1.8,4-4,4s-4-1.8-4-4S417.8-319.3,420-319.3 M420-322.3c-3.9,0-7,3.1-7,7
		s3.1,7,7,7s7-3.1,7-7S423.9-322.3,420-322.3L420-322.3z"/>
</g>
<g>
	<circle class="st5" cx="442.3" cy="-315.3" r="5.5"/>
	<path class="st9" d="M442.3-319.3c2.2,0,4,1.8,4,4s-1.8,4-4,4s-4-1.8-4-4S440.1-319.3,442.3-319.3 M442.3-322.3c-3.9,0-7,3.1-7,7
		s3.1,7,7,7s7-3.1,7-7S446.2-322.3,442.3-322.3L442.3-322.3z"/>
</g>
<path class="st6" d="M174.6-391.3H56.9C40-391.3,26.2-405,26.2-422l0,0c0-16.9,13.7-30.7,30.7-30.7h117.6
	c16.9,0,30.7,13.7,30.7,30.7l0,0C205.3-405,191.5-391.3,174.6-391.3z"/>
<text transform="matrix(1 0 0 1 50.9475 -410.1614)" class="st5" style="font-family:'NotoSansTC-Medium-B5pc-H'; font-size:32.27px;">申購方案</text>
<text transform="matrix(1 0 0 1 203.3525 -334.7577)" class="st14" style="font-family:'NotoSansTC-Medium-B5pc-H'; font-size:32.27px;">入金準備</text>
<text transform="matrix(1 0 0 1 688.6221 -334.7577)" class="st14" style="font-family:'NotoSansTC-Medium-B5pc-H'; font-size:32.27px;">方案投放期間</text>
<path class="st6" d="M478.8-391.3H361.2c-16.9,0-30.7-13.7-30.7-30.7l0,0c0-16.9,13.7-30.7,30.7-30.7h117.6
	c16.9,0,30.7,13.7,30.7,30.7l0,0C509.5-405,495.8-391.3,478.8-391.3z"/>
<text transform="matrix(1 0 0 1 355.2062 -410.1614)" class="st5" style="font-family:'NotoSansTC-Medium-B5pc-H'; font-size:32.27px;">方案開始</text>
<g>
	<g>
		<line class="st7" x1="1128.5" y1="-315.3" x2="1128.5" y2="-315.8"/>
		<line class="st8" x1="1128.5" y1="-324" x2="1128.5" y2="-384.5"/>
		<line class="st7" x1="1128.5" y1="-388.6" x2="1128.5" y2="-389.1"/>
	</g>
</g>
<g>
	<circle class="st5" cx="1128.5" cy="-315.3" r="5.5"/>
	<path class="st9" d="M1128.5-319.3c2.2,0,4,1.8,4,4s-1.8,4-4,4s-4-1.8-4-4S1126.3-319.3,1128.5-319.3 M1128.5-322.3
		c-3.9,0-7,3.1-7,7s3.1,7,7,7s7-3.1,7-7S1132.4-322.3,1128.5-322.3L1128.5-322.3z"/>
</g>
<path class="st9" d="M1187.4-391.3h-117.6c-16.9,0-30.7-13.7-30.7-30.7l0,0c0-16.9,13.7-30.7,30.7-30.7h117.6
	c16.9,0,30.7,13.7,30.7,30.7l0,0C1218-405,1204.3-391.3,1187.4-391.3z"/>
<text transform="matrix(1 0 0 1 1063.7238 -410.1614)" class="st5" style="font-family:'NotoSansTC-Medium-B5pc-H'; font-size:32.27px;">約滿到期</text>
<g>
	<g>
		<line class="st10" x1="1153.2" y1="-234.8" x2="1153.2" y2="-307.4"/>
		<line class="st11" x1="1153.2" y1="-311.5" x2="1153.2" y2="-312"/>
	</g>
</g>
<g>
	<circle class="st5" cx="1153.2" cy="-315.3" r="5.5"/>
	<path class="st12" d="M1153.2-319.3c2.2,0,4,1.8,4,4s-1.8,4-4,4s-4-1.8-4-4S1151-319.3,1153.2-319.3 M1153.2-322.3
		c-3.9,0-7,3.1-7,7s3.1,7,7,7s7-3.1,7-7S1157.1-322.3,1153.2-322.3L1153.2-322.3z"/>
</g>
<circle class="st6" cx="1443.2" cy="-315.3" r="130.5"/>
<g>
	<path class="st5" d="M1799.8-247.9v-0.9c0-2.6-2.1-4.7-4.7-4.7h-0.9v-2.8h-2.8v2.8h-0.9c-2.6,0-4.7,2.1-4.7,4.7c0,2,1.2,3.7,3,4.4
		l2.5,0.9v5.3h-0.9c-1,0-1.9-0.8-1.9-1.9l0,0v-0.9h-2.8v0.9c0,2.6,2.1,4.7,4.7,4.7h4.6c2.6,0,4.7-2.1,4.7-4.7c0-2-1.2-3.7-3-4.4
		l-2.5-0.9v-5.3h0.9c1,0,1.9,0.8,1.9,1.9l0,0v0.9H1799.8L1799.8-247.9z M1795.7-241.9c0.7,0.3,1.2,1,1.2,1.8c0,1-0.8,1.9-1.9,1.9
		l0,0h-0.9v-4.3L1795.7-241.9z M1791.4-246.5l-1.6-0.6c-0.7-0.3-1.2-1-1.2-1.8c0-1,0.8-1.9,1.9-1.9l0,0h0.9L1791.4-246.5
		L1791.4-246.5z"/>
	<path class="st5" d="M1752.5-196.5h18.1c0.4,0,0.7-0.1,1-0.4l4.2-4.2c0.5-0.5,0.5-1.2,0.2-1.8l-0.7-1l32.1-7.4c1.7-0.4,3.4-1,5-1.8
		l19.5-10c2.7-1.5,3.7-4.9,2.2-7.6s-4.9-3.7-7.6-2.2l0,0l-7.6,3.3l-1.9-3.9c-0.3-0.6-0.4-1.2-0.4-1.9v-15.4c0-9.7-7.2-18-16.9-19.3
		l5.6-7.7c0.4-0.6,0.3-1.5-0.3-1.9c-0.2-0.2-0.6-0.3-0.9-0.3h-22.2c-0.8,0-1.4,0.6-1.4,1.4c0,0.3,0.1,0.6,0.3,0.8l5.6,7.7
		c-9.7,1.3-16.9,9.5-16.9,19.3v15.7c-0.8,0.6-1.5,1.3-2.1,2.1l-6.1,7.7l-1.7-2.6c-0.2-0.3-0.5-0.6-0.9-0.6c-0.4-0.1-0.8,0-1.1,0.3
		l-5.6,4.2c-0.4,0.3-0.6,0.7-0.6,1.1v25C1751.1-197.1,1751.7-196.5,1752.5-196.5z M1784.4-277.1h16.8l-5,6.9h-6.9L1784.4-277.1z
		 M1772-250.6c0-9.2,7.5-16.7,16.7-16.7h8.3c9.2,0,16.7,7.5,16.7,16.7v15.4c0,1.1,0.3,2.1,0.7,3.1l1.9,3.8l-9.5,4.1
		c-0.2,0.1-0.4,0.1-0.5,0.1h-24.5c-0.8,0-1.4-0.6-1.4-1.4s0.6-1.4,1.4-1.4h11.1c5.4,0,9.7-4.4,9.7-9.7c0-0.8-0.6-1.4-1.4-1.4h-1.8
		c0.3-0.6,0.4-1.2,0.4-1.9c0-1.9-1.2-3.7-3-4.4l-2.5-0.9v-5.3h0.9c1,0,1.9,0.8,1.9,1.9l0,0v0.9h2.8v-0.9c0-2.6-2.1-4.7-4.7-4.7h-0.9
		v-2.8h-2.8v2.8h-0.9c-2.6,0-4.7,2.1-4.7,4.7c0,2,1.2,3.7,3,4.4l2.5,0.9v5.3h-0.9c-1,0-1.9-0.8-1.9-1.9l0,0v-0.9h-2.8v0.9
		c0,0.7,0.1,1.3,0.4,1.9h-8.2c-2.1,0-4.2,0.5-6.1,1.4v-14L1772-250.6L1772-250.6z M1797-240.1c0,1-0.8,1.9-1.9,1.9l0,0h-0.9v-4.3
		l1.6,0.6C1796.5-241.6,1797-240.9,1797-240.1z M1791.4-250.6v4.3l-1.6-0.6c-0.7-0.3-1.2-1-1.2-1.8c0-1,0.8-1.9,1.9-1.9l0,0H1791.4
		L1791.4-250.6z M1769.3-231.2c2.1-2.7,5.4-4.2,8.8-4.2h21.6c-0.7,3.2-3.5,5.6-6.8,5.6h-11.1c-2.3,0-4.2,1.9-4.2,4.2
		s1.9,4.2,4.2,4.2h24.4c0.6,0,1.1-0.1,1.6-0.3l19.8-8.5c1.3-0.8,3-0.4,3.8,1s0.4,3-1,3.8l0,0l-19.4,10c-1.4,0.7-2.9,1.2-4.4,1.6
		l-33.1,7.6l-11-16.5L1769.3-231.2z M1753.9-222.1l3.8-2.9l15.3,22.8l-3,3h-16.1L1753.9-222.1L1753.9-222.1z"/>
	<path class="st5" d="M1765-209c-2.3,0-4.2,1.9-4.2,4.2s1.9,4.2,4.2,4.2s4.2-1.9,4.2-4.2S1767.3-209,1765-209z M1765-203.5
		c-0.8,0-1.4-0.6-1.4-1.4s0.6-1.4,1.4-1.4s1.4,0.6,1.4,1.4S1765.8-203.5,1765-203.5z"/>
	<path class="st5" d="M1819.2-276c-0.4,2.2-2.1,4-4.4,4.4c-0.8,0-1.4,0.6-1.4,1.4s0.6,1.4,1.4,1.4c2.2,0.4,4,2.1,4.4,4.4
		c0,0.8,0.6,1.4,1.4,1.4s1.4-0.6,1.4-1.4c0.4-2.2,2.1-4,4.4-4.4c0.8,0,1.4-0.6,1.4-1.4s-0.6-1.4-1.4-1.4c-2.2-0.4-4-2.1-4.4-4.4
		c0-0.8-0.6-1.4-1.4-1.4C1819.8-277.2,1819.2-276.6,1819.2-276z M1822.6-270.1c-0.8,0.5-1.4,1.2-2,2c-0.5-0.8-1.2-1.4-2-2
		c0.8-0.5,1.4-1.2,2-2C1821.1-271.4,1821.8-270.6,1822.6-270.1z"/>
	<path class="st5" d="M1752.3-241c2.2,0.4,4,2.1,4.4,4.4c0,0.8,0.6,1.4,1.4,1.4s1.4-0.6,1.4-1.4c0.4-2.2,2.1-4,4.4-4.4
		c0.8,0,1.4-0.6,1.4-1.4s-0.6-1.4-1.4-1.4c-2.2-0.4-4-2.1-4.4-4.4c0-0.8-0.6-1.4-1.4-1.4s-1.4,0.6-1.4,1.4c-0.4,2.2-2.1,4-4.4,4.4
		c-0.8,0-1.4,0.6-1.4,1.4S1751.5-241,1752.3-241z M1758.1-244.4c0.5,0.8,1.2,1.4,2,2c-0.8,0.5-1.4,1.2-2,2c-0.5-0.8-1.2-1.4-2-2
		C1756.9-242.9,1757.5-243.6,1758.1-244.4z"/>
</g>
<g>
	
		<text transform="matrix(1 0 0 1 1378.4148 -339.17)" class="st5" style="font-family:'NotoSansTC-Medium-B5pc-H'; font-size:32.27px;">贖回資產</text>
	
		<text transform="matrix(1 0 0 1 1410.5148 -261.77)" class="st5" style="font-family:'NotoSansTC-Medium-B5pc-H'; font-size:32.27px;">淨值</text>
	<polygon class="st5" points="1453.1,-311.5 1443.2,-301.6 1433.3,-311.5 	"/>
</g>
<g>
	<line class="st0" x1="420.1" y1="187.2" x2="1425.9" y2="187.2"/>
	<line class="st1" x1="115.9" y1="187.2" x2="420.1" y2="187.2"/>
	<line class="st2" x1="442.4" y1="187.2" x2="1128.6" y2="187.2"/>
	<g>
		<g>
			<line class="st3" x1="115.9" y1="187.2" x2="115.9" y2="186.7"/>
			<line class="st4" x1="115.9" y1="178.5" x2="115.9" y2="118"/>
			<line class="st3" x1="115.9" y1="113.9" x2="115.9" y2="113.4"/>
		</g>
	</g>
	<g>
		<circle class="st5" cx="115.9" cy="187.2" r="5.5"/>
		<path class="st6" d="M115.9,183.2c2.2,0,4,1.8,4,4s-1.8,4-4,4s-4-1.8-4-4S113.7,183.2,115.9,183.2 M115.9,180.2c-3.9,0-7,3.1-7,7
			s3.1,7,7,7s7-3.1,7-7C122.8,183.3,119.7,180.2,115.9,180.2L115.9,180.2z"/>
	</g>
	<g>
		<g>
			<line class="st3" x1="420.1" y1="187.2" x2="420.1" y2="186.7"/>
			<line class="st4" x1="420.1" y1="178.5" x2="420.1" y2="118"/>
			<line class="st3" x1="420.1" y1="113.9" x2="420.1" y2="113.4"/>
		</g>
	</g>
	<g>
		<g>
			<line class="st7" x1="442.4" y1="264.3" x2="442.4" y2="263.8"/>
			<line class="st8" x1="442.4" y1="255.6" x2="442.4" y2="195.1"/>
			<line class="st7" x1="442.4" y1="191" x2="442.4" y2="190.5"/>
		</g>
	</g>
	<g>
		<circle class="st5" cx="420.1" cy="187.2" r="5.5"/>
		<path class="st6" d="M420.1,183.2c2.2,0,4,1.8,4,4s-1.8,4-4,4s-4-1.8-4-4S417.9,183.2,420.1,183.2 M420.1,180.2c-3.9,0-7,3.1-7,7
			s3.1,7,7,7s7-3.1,7-7S424,180.2,420.1,180.2L420.1,180.2z"/>
	</g>
	<g>
		<circle class="st5" cx="442.4" cy="187.2" r="5.5"/>
		<path class="st9" d="M442.4,183.2c2.2,0,4,1.8,4,4s-1.8,4-4,4s-4-1.8-4-4S440.2,183.2,442.4,183.2 M442.4,180.2c-3.9,0-7,3.1-7,7
			s3.1,7,7,7s7-3.1,7-7S446.3,180.2,442.4,180.2L442.4,180.2z"/>
	</g>
	<path class="st6" d="M174.7,111.2H57c-16.9,0-30.7-13.7-30.7-30.7l0,0C26.3,63.6,40,49.8,57,49.8h117.6c16.9,0,30.7,13.7,30.7,30.7
		l0,0C205.4,97.5,191.6,111.2,174.7,111.2z"/>
	<g class="st13">
		<path class="st5" d="M79.9,69.5V88h-3.1v-1.6h-8.2V95h-3.1v-8.6h-8v1.8h-3V69.5h10.9v-4.2h3.1v4.2H79.9z M57.5,72.4v4h8v-4H57.5z
			 M65.5,83.5v-4.3h-8v4.3H65.5z M68.6,72.4v4h8.2v-4H68.6z M76.8,83.5v-4.3h-8.2v4.3H76.8z"/>
		<path class="st5" d="M90.2,87.9c-0.8,2.6-2.2,5.3-3.6,7c-0.5-0.5-1.6-1.2-2.3-1.5c1.5-1.5,2.6-3.8,3.3-6.1L90.2,87.9z M95.4,86.8
			H86V66.5h9.4V86.8z M92.7,68.9h-4.1v3.6h4.1V68.9z M92.7,74.8h-4.1v3.6h4.1V74.8z M92.7,80.7h-4.1v3.7h4.1V80.7z M93.7,87.2
			c1,1.6,2.2,3.7,2.7,5.1L94,93.4c-0.4-1.4-1.6-3.6-2.6-5.2L93.7,87.2z M114.2,89.7h-1.7V92c0,1.3-0.3,2-1.2,2.5
			c-1,0.4-2.5,0.4-4.7,0.4c-0.1-0.7-0.5-1.7-0.8-2.4c1.5,0.1,3,0.1,3.4,0c0.5,0,0.5-0.1,0.5-0.5v-2.3h-9.3V95h-2.7v-5.3h-1.9v-2.2
			h1.9v-8.2h5.9v-1.5h-7.7v-2.2h4.4v-1.7h-2.9v-2.1h2.9v-1.6h-3.7V68h3.7v-2.6h2.6V68h4.1v-2.6h2.7V68h3.7v2.2h-3.7v1.6h3.2v2.1
			h-3.2v1.7h4.4v2.2h-7.8v1.5h6.2v8.2h1.7V89.7z M100.4,81.5v1.9h3.3v-1.9H100.4z M100.4,87.5h3.3v-2.1h-3.3V87.5z M102.9,71.7h4.1
			v-1.6h-4.1V71.7z M102.9,75.5h4.1v-1.7h-4.1V75.5z M106.3,81.5v1.9h3.4v-1.9H106.3z M109.7,87.5v-2.1h-3.4v2.1H109.7z"/>
		<path class="st5" d="M129.4,73.6c-0.1,1.5-0.2,3.1-0.4,4.6h13.7c0,0,0,0.9-0.1,1.4c-0.6,8.9-1.2,12.5-2.5,13.8
			c-0.9,0.9-1.7,1.1-3.1,1.3c-1.2,0.1-3.3,0.1-5.5-0.1c0-0.9-0.5-2.1-1.1-2.9c2.3,0.2,4.5,0.2,5.4,0.2c0.7,0,1.1-0.1,1.5-0.4
			c0.9-0.7,1.5-3.7,2-10.3h-10.9c-1,5.6-3.4,10.7-9.4,14c-0.5-0.8-1.4-1.8-2.2-2.5c8-4.1,8.7-11.9,9.1-19h-8.5v-2.9h13.8
			c-0.4-1.3-1.3-3.1-2-4.5l2.9-1.1c0.8,1.5,1.8,3.4,2.3,4.7l-2.2,0.9h13.3v2.9L129.4,73.6L129.4,73.6z"/>
		<path class="st5" d="M178.4,87.3h-8.8c2.8,1.3,6.5,3.4,8.4,4.9l-2.3,2.1c-1.7-1.5-5.4-3.8-8.2-5.2l2-1.9h-4.1v7.6h-3v-7.6h-12.7
			v-2.5h12.7v-2.5h3v2.5h13L178.4,87.3L178.4,87.3z M174.9,83.7c-2.5-0.9-5.9-1.9-9.9-2.8c-3.5,1.5-8.2,2.1-14.2,2.5
			c-0.2-0.9-0.6-1.8-1.1-2.5c4.1-0.2,7.5-0.5,10.3-1.1c-2-0.4-4.1-0.8-6.2-1.1c0.9-0.8,1.9-1.9,2.9-2.9h-6.8v-2.4h8.9
			c0.9-1.1,1.7-2.2,2.4-3.3L164,71c-0.5,0.8-1.2,1.6-1.9,2.4h7.2c0.4-0.6,0.6-1.4,0.9-2.1l2.9,0.6c-0.2,0.5-0.4,1-0.5,1.5h5.4v2.4
			h-6.6c-0.9,1.3-1.9,2.5-3.2,3.4c3.7,0.9,7.1,1.8,9.6,2.6L174.9,83.7z M160.1,88.7c-1.9,2.2-5.1,4.2-7.8,5.4
			c-0.6-0.6-1.8-1.5-2.5-2c2.8-1,5.8-2.6,7.4-4.4L160.1,88.7z M174.7,70.1h-21.5v2.2h-2.8v-4.7h11.9c-0.3-0.6-0.6-1.1-0.9-1.6
			l3.1-0.7c0.4,0.7,1,1.6,1.4,2.4h11.6v4.7h-2.9L174.7,70.1L174.7,70.1z M160.1,75.8c-0.5,0.5-1,1-1.5,1.5c2,0.3,3.9,0.7,5.8,1.1
			c1.4-0.7,2.5-1.5,3.4-2.5L160.1,75.8L160.1,75.8z"/>
	</g>
	<g class="st13">
		<path class="st14" d="M221.5,142.5c0,5.8,0.7,17.8,13,25.1c-0.7,0.5-1.9,1.8-2.4,2.5c-7.3-4.4-10.8-11-12.4-16.9
			c-2.4,7.8-6.4,13.4-12.4,17c-0.6-0.6-2-1.9-2.8-2.4c6.9-3.6,10.8-9.9,12.7-18.7l1.6,0.3c-0.2-1.4-0.4-2.7-0.4-3.8h-7.7v-3h10.8
			L221.5,142.5L221.5,142.5z"/>
		<path class="st14" d="M253.3,152.9v3.9h10.8v2.7h-10.8v7.2h12.4v2.7H238v-2.7h12.1v-7.2h-10.6v-2.7h10.6v-3.9h-6.7v-1.7
			c-1.5,0.8-3.1,1.5-4.7,2.1c-0.4-0.9-1.3-2-2-2.8c6-1.8,11.8-5.4,14.9-10.1l2.8,1.3c-0.3,0.4-0.5,0.8-0.8,1.2
			c3.2,3.2,8.6,6.2,13.4,7.7c-0.7,0.6-1.6,1.8-2.1,2.6c-1.6-0.6-3.2-1.3-4.8-2.2v2h-6.8V152.9z M244.4,159.8c1.2,1.7,2.5,4.1,3,5.6
			l-2.6,1.1c-0.5-1.5-1.7-3.9-2.9-5.7L244.4,159.8z M258.7,150.1c-2.5-1.5-4.9-3.3-6.8-5.2c-1.9,2-4.1,3.8-6.5,5.2H258.7z
			 M255.8,165.6c1.1-1.5,2.5-4,3.1-5.8l2.9,1.1c-1.2,2-2.6,4.2-3.7,5.7L255.8,165.6z"/>
		<path class="st14" d="M274.3,150.7c-1.1-0.8-3.4-1.8-5.1-2.5l1.5-2c1.6,0.5,3.9,1.5,5.1,2.2c2.5-1.9,4.9-4.9,6.3-7.9l2.9,0.9
			c-0.5,0.9-1,1.8-1.5,2.7h4.3c-0.3-0.8-0.7-1.7-1-2.4l2.8-0.7c0.5,0.9,1.2,2.2,1.5,3.1h6.2v2.3h-6.8v2h5.7v2h-5.7v1.9h5.7v2h-5.7
			v2.1h7.3v2.4h-15.4v1.3h-2.9v-10.9c-0.5,0.5-0.9,0.9-1.4,1.3c-0.5-0.5-1.5-1.3-2.3-1.8L274.3,150.7z M298.6,164.3h-13.1v6h-3.1v-6
			h-12.8v-2.7h12.8v-2.2h3.1v2.2h13.1V164.3z M270.1,158c1.7-1.5,4.2-4.1,6.4-6.6l1.6,2c-1.8,2.3-3.9,4.7-5.9,6.8L270.1,158z
			 M276.6,145.5c-1.1-0.8-3.3-2-5-2.7l1.5-2.1c1.7,0.6,3.9,1.6,5.1,2.5L276.6,145.5z M287.6,146.3h-5.3v2h5.3V146.3z M287.6,150.3
			h-5.3v1.9h5.3V150.3z M287.6,154.2h-5.3v2.1h5.3V154.2z"/>
		<path class="st14" d="M310.3,141.5c-0.7,2.2-1.5,4.3-2.5,6.4v22.4H305v-16.8c-0.7,1.2-1.5,2.2-2.3,3.2c-0.2-0.7-1-2.4-1.5-3.2
			c2.6-3.1,4.9-7.9,6.3-12.7L310.3,141.5z M317.1,151.8c-0.5,0.8-1,1.5-1.5,2.2h13.8v13.4c0,1.3-0.2,1.9-1,2.3
			c-0.8,0.4-2,0.5-3.5,0.5c-0.2-0.7-0.5-1.7-0.9-2.4c0.9,0,1.9,0,2.2,0c0.3,0,0.4-0.1,0.4-0.4v-1.9h-4.4v4.1h-2.7v-4.1h-4.9
			c-0.4,1.8-1,3.5-2.2,5c-0.5-0.5-1.7-1.5-2.5-1.8c2-2.5,2.2-5.8,2.2-8.5v-2.7c-0.8,0.6-1.6,1.2-2.4,1.7c-0.3-0.5-1.2-1.9-1.7-2.4
			c2.1-1.2,4.3-2.9,5.8-4.9h-4.2V149h5.6v-2.6h-4.7v-2.7h4.7v-2.8h2.9v2.8h4.7v-2.8h2.9v2.8h4.1v2.7h-4.1v2.6h4.9v2.8H317.1z
			 M319.4,163.3v-2.4H315c0,0.7-0.1,1.6-0.2,2.4H319.4z M315.1,158.7h4.4v-2.3h-4.4V158.7z M318.2,149h4.7v-2.6h-4.7V149z
			 M326.6,156.4h-4.4v2.3h4.4V156.4z M326.6,163.3v-2.4h-4.4v2.4H326.6z"/>
	</g>
	<g class="st13">
		<path class="st14" d="M702.6,149c-0.1,1.5-0.2,3.1-0.4,4.6h13.7c0,0,0,0.9-0.1,1.4c-0.6,8.9-1.2,12.5-2.5,13.8
			c-0.9,0.9-1.7,1.1-3.1,1.3c-1.2,0.1-3.3,0.1-5.5-0.1c0-0.9-0.5-2.1-1.1-2.9c2.3,0.2,4.5,0.2,5.4,0.2c0.7,0,1.1-0.1,1.5-0.4
			c0.9-0.7,1.5-3.7,2-10.3h-10.9c-1,5.6-3.4,10.7-9.4,14c-0.5-0.8-1.4-1.8-2.2-2.5c8-4.1,8.7-11.9,9.1-19h-8.5V146h13.8
			c-0.4-1.3-1.3-3.1-2-4.5l2.9-1.1c0.8,1.5,1.8,3.4,2.3,4.7l-2.2,0.9h13.3v2.9h-16.1V149z"/>
		<path class="st14" d="M751.5,162.7h-8.8c2.8,1.3,6.5,3.4,8.4,4.9l-2.3,2.1c-1.7-1.5-5.4-3.8-8.2-5.2l2-1.9h-4.1v7.6h-3v-7.6h-12.7
			v-2.5h12.7v-2.5h3v2.5h13L751.5,162.7L751.5,162.7z M748.1,159.1c-2.5-0.9-5.9-1.9-9.9-2.8c-3.5,1.5-8.2,2.1-14.2,2.5
			c-0.2-0.9-0.6-1.8-1.1-2.5c4.1-0.2,7.5-0.5,10.3-1.1c-2-0.4-4.1-0.8-6.2-1.1c0.9-0.8,1.9-1.9,2.9-2.9H723v-2.4h8.9
			c0.9-1.1,1.7-2.2,2.4-3.3l2.8,0.9c-0.5,0.8-1.2,1.6-1.9,2.4h7.2c0.4-0.6,0.6-1.4,0.9-2.1l2.9,0.6c-0.2,0.5-0.4,1-0.5,1.5h5.4v2.4
			h-6.6c-0.9,1.3-1.9,2.5-3.2,3.4c3.7,0.9,7.1,1.8,9.6,2.6L748.1,159.1z M733.3,164.1c-1.9,2.2-5.1,4.2-7.8,5.4
			c-0.6-0.6-1.8-1.5-2.5-2c2.8-1,5.8-2.6,7.4-4.4L733.3,164.1z M747.8,145.5h-21.5v2.2h-2.8V143h11.9c-0.3-0.6-0.6-1.1-0.9-1.6
			l3.1-0.7c0.4,0.7,1,1.6,1.4,2.4h11.6v4.7h-2.9v-2.3L747.8,145.5L747.8,145.5z M733.2,151.2c-0.5,0.5-1,1-1.5,1.5
			c2,0.3,3.9,0.7,5.8,1.1c1.4-0.7,2.5-1.5,3.4-2.5h-7.7V151.2z"/>
		<path class="st14" d="M765,157.4c-1,0.3-2.1,0.6-3.1,0.9v8.5c0,1.5-0.3,2.3-1.3,2.7c-0.9,0.5-2.4,0.5-4.6,0.5
			c-0.1-0.7-0.5-2-0.9-2.7c1.4,0,2.8,0,3.2,0c0.5,0,0.6-0.2,0.6-0.6v-7.6l-3.7,1l-0.8-2.9c1.3-0.3,2.8-0.7,4.6-1.1v-6.4h-4.1V147
			h4.1v-6.3h2.9v6.3h3.7v2.8h-3.7v5.6l2.7-0.7L765,157.4z M782.1,155.4c-1.2,3.9-3.3,6.9-5.9,9.3c2.3,1.3,5,2.3,8,2.9
			c-0.6,0.6-1.5,1.9-1.9,2.8c-3.3-0.8-6.2-2.1-8.7-3.8c-2.7,1.7-5.8,2.9-9.1,3.8c-0.3-0.8-0.9-2.1-1.5-2.7c2.9-0.6,5.7-1.5,8.2-3
			c-2.1-1.9-3.7-4.2-4.9-6.9l0.8-0.3h-1.6v-2.8h14.2l0.5-0.1L782.1,155.4z M771.2,145.4c0,3-0.9,6.5-5,8.7c-0.4-0.6-1.4-1.8-1.9-2.2
			c3.6-1.8,4.2-4.3,4.2-6.6v-3.5H779v7.2c0,0.9,0.1,1.3,0.6,1.3h2.2c0.5,0,1.2-0.1,1.7-0.2c0,0.8,0.1,1.8,0.2,2.5
			c-0.5,0.2-1.2,0.2-1.9,0.2h-2.4c-2.6,0-3.2-1.1-3.2-3.8v-4.4h-5L771.2,145.4L771.2,145.4z M769.1,157.5c1.1,2.1,2.6,3.9,4.5,5.5
			c1.8-1.5,3.3-3.3,4.5-5.5H769.1z"/>
		<path class="st14" d="M814.1,149.3c-0.8,5-2,9-3.9,12.4c1.7,2.5,3.8,4.6,6.6,5.8c-0.6,0.6-1.6,1.7-2,2.6c-2.6-1.4-4.6-3.3-6.3-5.7
			c-1.9,2.4-4.3,4.3-7.3,5.9c-0.3-0.7-1.1-2-1.7-2.6c3.2-1.5,5.6-3.5,7.4-6c-1.2-2.3-2.1-5-2.8-7.9c-0.6,1.3-1.3,2.4-2.1,3.4
			c-0.4-0.5-1.4-1.5-2.1-2.2c-0.2,9.3-0.4,12.7-1.2,13.7c-0.5,0.7-1.1,1-2,1.2c-0.8,0.1-2.1,0.1-3.5,0.1c-0.1-0.8-0.4-2-0.8-2.7
			c1.2,0.1,2.2,0.1,2.7,0.1s0.7-0.1,0.9-0.5c0.5-0.7,0.7-3.6,0.9-11.9h-3.7c0,5.3-0.6,10.7-4.8,15.2c-0.5-0.6-1.5-1.5-2.2-2
			c3.7-4.1,4.2-8.9,4.2-13.3v-6.5H787v-2.8h14.1v2.8h-7.8v3.8h6.6c0,0,0,0.9,0,1.3v1c2.5-3.3,4.2-8.5,5.1-13.9l3.1,0.5
			c-0.4,1.8-0.8,3.7-1.2,5.4h9.7v2.8L814.1,149.3L814.1,149.3z M793.6,145.7c-0.3-1.2-1-3-1.5-4.4l2.6-0.7c0.6,1.4,1.4,3.1,1.6,4.3
			L793.6,145.7z M805.8,149.6c0.6,3.4,1.5,6.4,2.7,9.1c1.3-2.7,2.1-5.7,2.6-9.4h-5.3V149.6z"/>
		<path class="st14" d="M826.1,163.8c-1.2,2.4-3,4.9-4.8,6.5c-0.5-0.5-1.7-1.4-2.4-1.8c1.7-1.4,3.4-3.5,4.3-5.5L826.1,163.8z
			 M834.8,162.5h-15.7v-2.6h3v-12.6h-2.6v-2.6h2.6V141h2.7v3.7h5V141h2.8v3.7h2.3v2.6h-2.3v12.6h2.2V162.5z M824.8,147.3v2.4h5v-2.4
			H824.8z M824.8,154.8h5v-2.7h-5V154.8z M824.8,159.9h5v-2.8h-5V159.9z M830.2,163c1.3,1.5,2.8,3.4,3.5,4.7l-2.4,1.5
			c-0.6-1.3-2.1-3.4-3.4-4.9L830.2,163z M847.7,166.7c0,1.6-0.4,2.5-1.4,2.9c-1,0.5-2.5,0.6-4.9,0.5c-0.1-0.8-0.5-2.1-0.9-2.8
			c1.5,0.1,3.1,0,3.5,0c0.5,0,0.7-0.2,0.7-0.7v-7.2h-5.9c-0.4,3.8-1.1,7.9-3,10.9c-0.5-0.5-1.7-1.4-2.4-1.7
			c2.5-4.2,2.8-10.3,2.8-14.9v-11.6h11.4v24.6H847.7z M844.8,156.8v-4.7h-5.7v1.7c0,0.9,0,2-0.1,3H844.8z M839.1,144.9v4.5h5.7v-4.5
			H839.1z"/>
		<path class="st14" d="M855.9,153.2v17.1h-3V142h11.9v11.2H855.9z M855.9,144.2v2.2h6.1v-2.2H855.9z M862,151v-2.4h-6.1v2.4H862z
			 M879.6,166.5c0,1.7-0.4,2.7-1.5,3.2s-2.9,0.5-5.6,0.5c-0.1-0.8-0.5-2.1-0.9-2.9h-8.7v1.6h-2.7v-13.5h12.1v11.8
			c1.6,0.1,3.1,0,3.6,0c0.6,0,0.7-0.2,0.7-0.7v-13.3h-9.2V142h12.2L879.6,166.5L879.6,166.5z M862.8,157.7v2.5h6.6v-2.5H862.8z
			 M869.4,165.1v-2.7h-6.6v2.7H869.4z M870.3,144.2v2.2h6.3v-2.2H870.3z M876.6,151v-2.5h-6.3v2.5H876.6z"/>
	</g>
	<path class="st6" d="M478.9,111.2H361.3c-16.9,0-30.7-13.7-30.7-30.7l0,0c0-16.9,13.7-30.7,30.7-30.7h117.6
		c16.9,0,30.7,13.7,30.7,30.7l0,0C509.6,97.5,495.9,111.2,478.9,111.2z"/>
	<g class="st13">
		<path class="st5" d="M369.2,73.6c-0.1,1.5-0.2,3.1-0.4,4.6h13.7c0,0,0,0.9-0.1,1.4c-0.6,8.9-1.2,12.5-2.5,13.8
			c-0.9,0.9-1.7,1.1-3.1,1.3c-1.2,0.1-3.3,0.1-5.5-0.1c0-0.9-0.5-2.1-1.1-2.9c2.3,0.2,4.5,0.2,5.4,0.2c0.7,0,1.1-0.1,1.5-0.4
			c0.9-0.7,1.5-3.7,2-10.3h-10.9c-1,5.6-3.4,10.7-9.4,14c-0.5-0.8-1.4-1.8-2.2-2.5c8-4.1,8.7-11.9,9.1-19h-8.5v-2.9H371
			c-0.4-1.3-1.3-3.1-2-4.5l2.9-1.1c0.8,1.5,1.8,3.4,2.3,4.7l-2.2,0.9h13.3v2.9L369.2,73.6L369.2,73.6z"/>
		<path class="st5" d="M418.1,87.3h-8.8c2.8,1.3,6.5,3.4,8.4,4.9l-2.3,2.1c-1.7-1.5-5.4-3.8-8.2-5.2l2-1.9h-4.1v7.6h-3v-7.6h-12.7
			v-2.5h12.7v-2.5h3v2.5h13V87.3z M414.7,83.7c-2.5-0.9-5.9-1.9-9.9-2.8c-3.5,1.5-8.2,2.1-14.2,2.5c-0.2-0.9-0.6-1.8-1.1-2.5
			c4.1-0.2,7.5-0.5,10.3-1.1c-2-0.4-4.1-0.8-6.2-1.1c0.9-0.8,1.9-1.9,2.9-2.9h-6.8v-2.4h8.9c0.9-1.1,1.7-2.2,2.4-3.3l2.8,0.9
			c-0.5,0.8-1.2,1.6-1.9,2.4h7.2c0.4-0.6,0.6-1.4,0.9-2.1l2.9,0.6c-0.2,0.5-0.4,1-0.5,1.5h5.4v2.4h-6.6c-0.9,1.3-1.9,2.5-3.2,3.4
			c3.7,0.9,7.1,1.8,9.6,2.6L414.7,83.7z M399.9,88.7c-1.9,2.2-5.1,4.2-7.8,5.4c-0.6-0.6-1.8-1.5-2.5-2c2.8-1,5.8-2.6,7.4-4.4
			L399.9,88.7z M414.4,70.1h-21.5v2.2h-2.8v-4.7H402c-0.3-0.6-0.6-1.1-0.9-1.6l3.1-0.7c0.4,0.7,1,1.6,1.4,2.4h11.6v4.7h-2.9
			L414.4,70.1L414.4,70.1z M399.8,75.8c-0.5,0.5-1,1-1.5,1.5c2,0.3,3.9,0.7,5.8,1.1c1.4-0.7,2.5-1.5,3.4-2.5L399.8,75.8L399.8,75.8z
			"/>
		<path class="st5" d="M425.6,77.6v17.3h-3V66.6h12v11H425.6z M425.6,68.8V71h6.2v-2.2H425.6z M431.8,75.4V73h-6.2v2.4H431.8z
			 M440.4,87.4v6.9h-2.7v-6.9h-3.9c-0.3,2.2-1.3,5.5-4.2,7.4c-0.4-0.5-1.3-1.4-1.9-1.8c2.4-1.5,3.3-3.9,3.5-5.6h-3.7v-2.5h3.8v-3.1
			h-3.2v-2.4h15.7v2.4h-3.4v3.1h4v2.5H440.4z M437.7,84.9v-3.1h-3.8v3.1H437.7z M449.4,91.2c0,1.6-0.3,2.5-1.4,3
			c-1,0.5-2.6,0.6-5.1,0.5c-0.1-0.8-0.5-2.2-1-3c1.6,0,3.3,0,3.8,0s0.6-0.2,0.6-0.7V77.6H437v-11h12.2v24.6H449.4z M440,68.8V71h6.4
			v-2.2H440z M446.4,75.4V73H440v2.4H446.4z"/>
		<path class="st5" d="M464.5,74.5c0,3.5-0.4,7.6-2.1,11.6c1.5,1.3,2.7,2.5,3.6,3.6l-1.8,2.3c-0.8-0.9-1.9-2.1-3.2-3.3
			c-1.3,2.2-3.2,4.3-5.7,6.2c-0.5-0.6-1.4-1.5-2.1-2c2.6-1.9,4.4-4,5.7-6.1c-1.6-1.5-3.3-2.9-4.7-4c0.7-2,1.4-4.8,2-7.7l-2.5,0.2
			l-0.3-2.7c1,0,2.1-0.1,3.3-0.2c0.4-2.4,0.8-4.8,1-6.9l2.8,0.2c-0.3,2.1-0.6,4.3-1.1,6.6l2.4-0.1v-2.3h2.7V72l1.5-0.1v2.5
			L464.5,74.5z M458.8,74.8c-0.5,2.5-1.1,4.9-1.7,6.9c0.9,0.7,2,1.5,2.9,2.4c1.4-3.3,1.6-6.7,1.7-9.5L458.8,74.8z M480.8,80.2
			c-0.2-0.7-0.5-1.4-0.9-2.2c-11.2,0.9-12.7,1.1-13.7,1.5c-0.2-0.6-0.6-2.1-1-2.8c0.6-0.2,1.3-0.9,2.1-2.1c0.8-1.1,3.3-5.3,4.8-9.4
			l3.1,0.9c-1.5,3.5-3.5,7-5.5,9.8l8.8-0.6c-0.9-1.5-1.9-3-2.9-4.3l2.4-1.2c2.2,2.8,4.4,6.5,5.4,9L480.8,80.2z M466.8,81.7h14.5
			v13.1h-2.9v-1.3h-8.9v1.4h-2.7V81.7z M469.6,84.4v6.5h8.9v-6.5H469.6z"/>
	</g>
	<g>
		<g>
			<line class="st7" x1="1128.6" y1="187.2" x2="1128.6" y2="186.7"/>
			<line class="st8" x1="1128.6" y1="178.5" x2="1128.6" y2="118"/>
			<line class="st7" x1="1128.6" y1="113.9" x2="1128.6" y2="113.4"/>
		</g>
	</g>
	<g>
		<circle class="st5" cx="1128.6" cy="187.2" r="5.5"/>
		<path class="st9" d="M1128.6,183.2c2.2,0,4,1.8,4,4s-1.8,4-4,4s-4-1.8-4-4S1126.4,183.2,1128.6,183.2 M1128.6,180.2
			c-3.9,0-7,3.1-7,7s3.1,7,7,7s7-3.1,7-7S1132.5,180.2,1128.6,180.2L1128.6,180.2z"/>
	</g>
	<path class="st9" d="M1187.5,111.2h-117.6c-16.9,0-30.7-13.7-30.7-30.7l0,0c0-16.9,13.7-30.7,30.7-30.7h117.6
		c16.9,0,30.7,13.7,30.7,30.7l0,0C1218.1,97.5,1204.4,111.2,1187.5,111.2z"/>
	<g class="st13">
		<path class="st5" d="M1069.8,86.6c-0.5,2.8-1.4,5.8-2.1,7.7c-0.6-0.3-1.8-0.7-2.6-0.9c0.9-1.9,1.6-4.8,2.1-7.4L1069.8,86.6z
			 M1076.4,84.6c-0.1-0.5-0.2-1.1-0.4-1.7c-7.9,1.3-9,1.5-9.7,1.9c-0.2-0.5-0.6-2-1-2.8c0.8-0.2,1.6-0.9,2.7-2
			c0.5-0.5,1.6-1.7,2.9-3.3c-3.5,0.4-4.3,0.6-4.7,0.8c-0.2-0.6-0.6-1.9-1-2.7c0.6-0.1,1.3-0.7,2-1.7c0.8-0.9,3.3-4.5,4.7-7.9
			l2.7,1.2c-1.5,2.8-3.4,5.7-5.3,8l3.5-0.3c0.9-1.3,1.8-2.6,2.5-4l2.5,1.6c-2.2,3.3-4.9,6.7-7.5,9.4l5-0.7c-0.3-0.9-0.6-1.9-1-2.7
			l2.4-0.6c0.9,2.2,1.8,5,2.1,6.7L1076.4,84.6z M1073.5,85.8c0.5,2.3,0.9,5.1,1.1,7.1l-2.5,0.7c-0.1-2-0.5-4.9-0.9-7.2L1073.5,85.8z
			 M1077.2,85.1c0.8,1.9,1.7,4.4,2.1,6L1077,92c-0.4-1.6-1.2-4.2-1.9-6.1L1077.2,85.1z M1093.8,71.1c0,0,0,1.1,0,1.5
			c-0.4,14.1-0.8,18.9-2,20.5c-0.8,1.1-1.6,1.4-2.8,1.5c-1.1,0.2-3,0.1-4.9,0c-0.1-0.8-0.5-2.1-1-3c2,0.2,3.8,0.2,4.6,0.2
			c0.6,0,1-0.1,1.3-0.5c0.9-1,1.4-5.7,1.7-17.4h-8.5c-0.8,1.7-1.6,3.3-2.5,4.5c-0.6-0.4-1.9-1.3-2.6-1.7c2.3-2.7,4-7.1,4.9-11.4
			l3,0.6c-0.5,1.8-1,3.5-1.6,5.2C1083.4,71.1,1093.8,71.1,1093.8,71.1z M1086.1,86.4c-1-1.9-3.4-4.9-5.6-7l2.1-1.5
			c2.2,2,4.6,4.8,5.7,6.8L1086.1,86.4z"/>
		<path class="st5" d="M1102.4,79.4c-1.1-1-3.3-2.3-5.2-3.1l1.7-2.2c1.8,0.7,4.1,1.9,5.2,2.9L1102.4,79.4z M1097.9,92.9
			c1.3-2.5,3-6.6,4.3-10.2l2.5,1.6c-1.2,3.4-2.7,7.2-4.1,10.2L1097.9,92.9z M1117.1,75.5v1.9h8.9v14.7c0,1.2-0.3,1.9-1.1,2.3
			c-0.9,0.4-2.2,0.4-4,0.4c-0.1-0.6-0.4-1.6-0.7-2.2c1.2,0,2.4,0,2.7,0c0.4,0,0.5-0.1,0.5-0.5v-2.6c-0.4,0.3-0.8,0.7-1,1
			c-0.8-0.8-1.4-2-1.8-3.4c-0.5,1.4-1.2,2.6-2.3,3.5c-0.2-0.3-0.6-0.8-1-1.1v5h-2.6v-4.9c-0.4,0.3-0.7,0.7-1,1
			c-0.7-0.8-1.3-1.9-1.7-3.4c-0.4,1.4-1.1,2.7-2.2,3.7c-0.2-0.4-0.7-0.9-1.1-1.2v5.1h-2.5V77.4h8.6v-1.9h-4.6v-4.9h-4.6v-1.8
			l-1.7,2.3c-1-1-3.2-2.5-5-3.4l1.7-2.1c1.7,0.7,3.9,2,5,3v-0.7h4.6v-2.7h2.9v2.7h6.3v-2.7h2.9v2.7h4.8v2.7h-4.8v4.9H1117.1z
			 M1112.7,81.5c0.1,3.2,0.7,5.9,1.8,7.4V80h-6v9.6c1.4-1.2,2-3.3,2.2-5.1h0.6c0-0.4-0.1-0.7-0.1-1.1h-1.7v-1.9H1112.7z
			 M1112.8,72.9h6.3v-2.3h-6.3V72.9z M1117.1,80v9.3c1.4-1.2,2-3.1,2.2-4.8h0.6c0-0.3-0.1-0.7-0.1-1h-1.6v-1.9h3.1
			c0.1,3.3,0.8,6,2.1,7.5v-9L1117.1,80L1117.1,80z"/>
		<path class="st5" d="M1140.4,89c2.1-0.4,4.3-0.7,6.5-1.1l0.2,2.6c-5.7,1.1-11.7,2.2-16,3l-0.6-2.8c1.9-0.3,4.5-0.7,7.2-1.2v-5
			h-6.1v-2.6h6.1v-3.2h2.8v3.2h6.1v2.6h-6.1L1140.4,89L1140.4,89z M1130.6,67.3h16.6v2.6h-8.6c-0.9,1.9-2.1,3.8-3.3,5.4l7.1-0.5
			c-0.7-1-1.4-2.1-2.1-2.9l2.2-1.3c1.7,2.1,3.8,5,4.7,6.9l-2.3,1.5c-0.3-0.5-0.5-1.2-0.9-1.8c-9.5,0.8-10.7,1-11.6,1.3
			c-0.2-0.6-0.6-2-1-2.7c0.5-0.1,1-0.7,1.5-1.5c0.4-0.5,1.5-2.3,2.4-4.3h-4.6L1130.6,67.3L1130.6,67.3z M1151.5,87.5h-2.8V68.1h2.8
			V87.5z M1157.8,65.7v25c0,1.7-0.4,2.6-1.4,3c-1.1,0.5-2.8,0.5-5.3,0.5c-0.1-0.8-0.6-2.1-1.1-2.9c1.8,0.1,3.6,0.1,4.1,0
			c0.5,0,0.7-0.2,0.7-0.7v-25L1157.8,65.7L1157.8,65.7z"/>
		<path class="st5" d="M1169,88.4c-1.2,2.4-3,4.9-4.8,6.5c-0.5-0.5-1.7-1.4-2.4-1.8c1.7-1.4,3.4-3.5,4.3-5.5L1169,88.4z
			 M1177.6,87.1h-15.7v-2.6h3V71.9h-2.6v-2.6h2.6v-3.7h2.7v3.7h5v-3.7h2.8v3.7h2.3v2.6h-2.3v12.6h2.2V87.1z M1167.6,71.9v2.4h5v-2.4
			H1167.6z M1167.6,79.4h5v-2.7h-5V79.4z M1167.6,84.5h5v-2.8h-5V84.5z M1173.1,87.6c1.3,1.5,2.8,3.4,3.5,4.7l-2.4,1.5
			c-0.6-1.3-2.1-3.4-3.4-4.9L1173.1,87.6z M1190.5,91.3c0,1.6-0.4,2.5-1.4,2.9c-1,0.5-2.5,0.6-4.9,0.5c-0.1-0.8-0.5-2.1-0.9-2.8
			c1.5,0.1,3.1,0,3.5,0c0.5,0,0.7-0.2,0.7-0.7V84h-5.9c-0.4,3.8-1.1,7.9-3,10.9c-0.5-0.5-1.7-1.4-2.4-1.7c2.5-4.2,2.8-10.3,2.8-14.9
			V66.8h11.4v24.5H1190.5z M1187.6,81.4v-4.7h-5.7v1.7c0,0.9,0,2-0.1,3H1187.6z M1181.9,69.5V74h5.7v-4.5H1181.9z"/>
	</g>
	<path class="st15" d="M572.4,366.1h-268c-27.1,0-49.2-22-49.2-49.2l0,0c0-27.1,22-49.2,49.2-49.2h268c27.1,0,49.2,22,49.2,49.2l0,0
		C621.5,344.1,599.5,366.1,572.4,366.1z"/>
	<g>
		<g>
			<line class="st10" x1="1153.2" y1="267.7" x2="1153.2" y2="195.1"/>
			<line class="st11" x1="1153.2" y1="191" x2="1153.2" y2="190.5"/>
		</g>
	</g>
	<g>
		<circle class="st5" cx="1153.2" cy="187.2" r="5.5"/>
		<path class="st12" d="M1153.2,183.2c2.2,0,4,1.8,4,4s-1.8,4-4,4s-4-1.8-4-4S1151.1,183.2,1153.2,183.2 M1153.2,180.2
			c-3.9,0-7,3.1-7,7s3.1,7,7,7s7-3.1,7-7S1157.2,180.2,1153.2,180.2L1153.2,180.2z"/>
	</g>
	<path class="st16" d="M1233.7,366.1H947.5c-27.1,0-49.2-22-49.2-49.2l0,0c0-27.1,22-49.2,49.2-49.2h286.2c27.1,0,49.2,22,49.2,49.2
		l0,0C1282.9,344.1,1260.9,366.1,1233.7,366.1z"/>
	<circle class="st6" cx="1443.2" cy="187.2" r="130.5"/>
	<g>
		<g class="st13">
			<path class="st5" d="M1385,161.4c-0.9,2.1-2.2,4.6-3.3,6.2c-0.5-0.4-1.5-1.1-2-1.4c1.1-1.5,2.3-3.6,3-5.5L1385,161.4z
				 M1389.8,159.9h-8.7v-20h8.7V159.9z M1387.4,142.4h-3.9v3.4h3.9V142.4z M1387.4,148.1h-3.9v3.5h3.9V148.1z M1387.4,153.9h-3.9
				v3.5h3.9V153.9z M1388.1,160.7c0.9,1.3,2,3.1,2.5,4.2l-2,1.3c-0.5-1.2-1.5-3-2.4-4.4L1388.1,160.7z M1403,163.4
				c2.4,0.8,4.8,1.9,6.5,2.6l-1.2,2.1c-1.7-0.9-4.5-2.1-6.9-3.1l1-1.7h-5.4l1.8,1.6c-2.5,1.1-5.6,2.3-7.9,3.2
				c-0.2-0.6-0.7-1.5-1.1-2.1c1.9-0.6,4.7-1.8,6.5-2.7h-3.9v-9.5h15.5v9.5L1403,163.4L1403,163.4z M1398.3,142h-7.2v-2h7.2v-1.6h2.9
				v1.6h7.6v2h-7.6v1.5h6.8v1.9h-15.8v-1.9h6.1V142z M1391.3,146.5h17.4v6.3h-17.4V146.5z M1393.7,151.1h2.7v-3h-2.7V151.1z
				 M1395,156.8h10.1v-1.2H1395V156.8z M1395,159.2h10.1V158H1395V159.2z M1395,161.8h10.1v-1.3H1395V161.8z M1401.4,151.1v-3h-3.1
				v3H1401.4z M1406.1,148.1h-2.8v3h2.8V148.1z"/>
			<path class="st5" d="M1440.4,139.6V168h-3.2v-1.7h-20.6v1.7h-3.1v-28.4H1440.4z M1437.1,163.5v-20.8h-20.6v20.8H1437.1z
				 M1433.1,147.1V159h-12.7v-11.8L1433.1,147.1L1433.1,147.1z M1430.1,149.8h-6.9v6.6h6.9V149.8z"/>
			<path class="st5" d="M1464.5,143.3c0,0.2,0,0.5-0.1,0.8c1.7,1.8,5.2,2.9,9.5,3.1c-0.6,0.6-1.3,1.7-1.6,2.5
				c-3.7-0.5-6.6-1.7-8.6-3.5c-1.2,1.5-3.7,2.9-9.3,3.6c-0.3-0.7-1-1.7-1.5-2.2h-8.2v-2.4h9.4v2.1c7-0.9,7.7-2.7,7.7-4.1v-0.4h-2.7
				c-0.7,1.2-1.5,2.2-2.4,3c-0.5-0.4-1.6-1.2-2.3-1.5c1.7-1.5,3-3.7,3.7-5.9l2.7,0.6c-0.2,0.5-0.4,1.1-0.6,1.6h10.1l0.4-0.1l2.1,0.7
				c-0.8,1.7-1.9,3.6-2.8,4.8l-2.4-0.8c0.4-0.6,0.9-1.4,1.4-2.2h-4.5L1464.5,143.3L1464.5,143.3z M1464.2,162.8
				c3.3,1.1,6.9,2.5,9.1,3.5l-2.7,1.6c-2-1.1-5.4-2.5-8.7-3.6l1.9-1.5h-9.6l2.7,1.2c-2.6,1.6-6.6,3.1-9.9,4
				c-0.5-0.6-1.6-1.7-2.2-2.3c3.3-0.6,7.1-1.7,9.3-3h-5.2v-13h21v13h-5.7L1464.2,162.8L1464.2,162.8z M1453.2,142.5h-7.9v-2.3h7.9
				V142.5z M1451.8,153.6h15.1v-1.8h-15.1V153.6z M1451.8,157.2h15.1v-1.8h-15.1V157.2z M1451.8,160.9h15.1V159h-15.1V160.9z"/>
			<path class="st5" d="M1506.2,164.7v2.5h-23.7v-2.5h10.1V162h-7.2v-2.4h7.2v-2.4h-6.1c-0.9,1.6-2,3-3.2,4.1c-0.2-0.5-1-2-1.5-2.6
				c-0.3,3.3-1.1,7-3.4,9.6c-0.5-0.5-1.7-1.6-2.3-1.9c2.6-3.1,2.9-7.5,2.9-10.7v-6.3h4.1c-0.4-0.5-0.9-1-1.3-1.3
				c2.5-0.4,5.3-1,7.9-1.7c-2.3-0.6-4.6-1.2-6.8-1.7l1.6-1.3h-5.3V141h11.5c-0.5-0.7-1-1.5-1.5-2.1l2.1-1c0.8,0.9,1.7,2.1,2.3,3.1
				h10.9v2.4h-4.8l1.4,0.9c-1.3,0.6-2.9,1.3-4.5,1.9c2.2,0.6,4.2,1.3,5.7,1.8l-1.5,1.3h4.7v2.5h-23.7v3.8c0,0.9,0,1.9-0.1,3
				c1.7-1.6,3.2-3.9,4.1-6.4l2.6,0.7c-0.2,0.6-0.5,1.2-0.8,1.8h4.8v-2.4h3v2.4h8.4v2.4h-8.4v2.4h7.5v2.4h-7.5v2.6h10.8L1506.2,164.7
				L1506.2,164.7z M1499.6,149.5c-1.7-0.6-3.9-1.3-6.2-2c-2.6,0.8-5.4,1.5-7.9,2H1499.6z M1486.2,143.6c2.4,0.5,4.9,1.2,7.4,1.9
				c1.9-0.6,3.6-1.2,5-1.9H1486.2z"/>
			<path class="st5" d="M1417.1,230.7c-1.2-1.1-3.6-2.6-5.6-3.5l1.5-2.2c1.9,0.7,4.4,2.1,5.6,3.2L1417.1,230.7z M1412.3,243.1
				c1.5-2.4,3.8-6.4,5.6-10l2,2c-1.5,3.3-3.5,7-5.2,10L1412.3,243.1z M1418.7,222.2c-1.1-1.2-3.5-2.7-5.5-3.7l1.5-2.2
				c1.9,0.9,4.4,2.3,5.6,3.5L1418.7,222.2z M1441.4,233.2h-2.4v4.9h-7.5v4c0,1.6-0.3,2.4-1.4,2.8c-1.1,0.5-2.7,0.5-5.1,0.5
				c-0.1-0.7-0.5-1.9-0.9-2.7c1.7,0.1,3.4,0.1,3.9,0.1s0.7-0.2,0.7-0.6v-4h-7.1v-2.4h7.1v-2.5h-8.8v-2.6h8.8v-2.4h-6.9v-2.4h1.7
				c-0.3-1.1-1-2.7-1.8-3.9l2.1-0.9c0.8,1.2,1.6,2.8,2,3.9l-2.1,0.9h15.3v4.8h2.4L1441.4,233.2L1441.4,233.2z M1439.2,218.1
				c-4.7,1.4-11.7,2.2-17.7,2.5c-0.1-0.7-0.5-1.7-0.7-2.3c5.8-0.4,12.6-1.3,16.4-2.4L1439.2,218.1z M1429.5,225.5
				c-0.2-1.2-0.9-3-1.6-4.4l2.2-0.7c0.7,1.3,1.5,3.1,1.7,4.3L1429.5,225.5z M1431.5,230.6h4.9v-2.4h-4.9V230.6z M1436.4,233.2h-4.9
				v2.5h4.9V233.2z M1434,224.6c0.9-1.3,1.9-3.4,2.5-4.9l2.8,0.8c-0.9,1.8-2,3.6-2.8,4.8L1434,224.6z"/>
			<path class="st5" d="M1453.9,216.8c-0.9,2.4-2,4.9-3.3,7.1v21.6h-2.8v-17c-0.8,1.1-1.5,2.1-2.4,3c-0.2-0.7-1.1-2.3-1.6-3.1
				c2.9-3,5.6-7.7,7.2-12.4L1453.9,216.8z M1473.7,242.2v2.5h-21.5v-2.5h3v-17.9h5.5c0.2-0.8,0.4-1.7,0.5-2.6h-7.6V219h8
				c0.2-1.1,0.3-2.2,0.4-3.1l3.2,0.1c-0.2,0.9-0.4,2-0.5,3h8.3v2.6h-8.8c-0.2,0.9-0.4,1.9-0.6,2.6h7.6v17.9L1473.7,242.2
				L1473.7,242.2z M1457.9,226.5v2.3h10.4v-2.3H1457.9z M1468.3,231h-10.4v2.3h10.4V231z M1457.9,235.4v2.4h10.4v-2.4H1457.9z
				 M1457.9,242.2h10.4v-2.3h-10.4V242.2z"/>
		</g>
		<polygon class="st5" points="1453.1,191 1443.2,200.9 1433.3,191 		"/>
	</g>
	<g class="st13">
		<path class="st14" d="M315.7,329.4v2.5H292v-2.5h10.1v-2.6H295v-2.4h7.2V322h-6.1c-0.9,1.6-2,3-3.2,4.1c-0.2-0.5-1-2-1.5-2.6
			c-0.3,3.3-1.1,7-3.4,9.6c-0.5-0.5-1.7-1.6-2.3-1.9c2.6-3.1,2.9-7.5,2.9-10.7v-6.3h4.1c-0.4-0.5-0.9-1-1.3-1.3
			c2.5-0.4,5.3-1,7.9-1.7c-2.3-0.6-4.6-1.2-6.8-1.7l1.6-1.3h-5.3v-2.4h11.5c-0.5-0.7-1-1.5-1.5-2.1l2.1-1c0.8,0.9,1.7,2.1,2.3,3.1
			h10.9v2.4h-4.8l1.4,0.9c-1.3,0.6-2.9,1.3-4.6,1.9c2.2,0.6,4.2,1.3,5.7,1.8l-1.5,1.3h4.7v2.5h-23.7v3.8c0,0.9,0,1.9-0.1,3
			c1.7-1.6,3.2-3.9,4.1-6.4l2.6,0.7c-0.2,0.6-0.5,1.2-0.8,1.8h4.8v-2.4h3v2.4h8.4v2.4h-8.4v2.4h7.5v2.4h-7.5v2.6H315.7z
			 M309.1,314.2c-1.7-0.6-3.9-1.3-6.2-2c-2.6,0.8-5.4,1.5-7.9,2H309.1z M295.7,308.3c2.4,0.5,4.9,1.2,7.4,1.9c1.9-0.6,3.6-1.2,5-1.9
			H295.7z"/>
		<path class="st14" d="M347.6,328.8v2.9h-28.7v-2.9h12.8v-7.4h-9.2v-2.9h9.2v-6.5h-7.2c-1,1.9-2.1,3.6-3.2,5
			c-0.6-0.5-1.9-1.4-2.7-1.8c2.6-2.7,4.6-7.2,5.8-11.7l3.1,0.7c-0.5,1.6-1.1,3.3-1.7,4.8h5.8v-6h3.1v6H346v2.9h-11.2v6.5h10v2.9h-10
			v7.4H347.6z"/>
		<path class="st14" d="M362.4,314.9c-0.4,0.5-0.8,0.9-1.2,1.2c-0.4-0.4-1.2-1.2-1.7-1.7c0.3,1.9,0.4,3.9,0.4,5.9
			c0,4.5-0.4,8.6-1.7,10.5c-0.4,0.6-1,1-1.8,1.2c-1.1,0.3-2.4,0.3-3.8,0.2c0-0.9-0.4-2.1-0.9-2.9c1.6,0.1,2.8,0.1,3.5,0
			c0.5-0.1,0.7-0.2,1-0.6c0.7-1,1-4.5,1-8.4v-0.8c-1.5,2.2-3.3,4.2-5,5.6c-0.4-0.8-1.1-1.9-1.6-2.5c2.3-1.5,4.8-4.5,6.3-7.4
			c-0.2-1.2-0.5-2.4-1-3.6c-1.3,1.4-2.6,2.6-3.8,3.5c-0.4-0.7-1-2-1.7-2.7c1.4-0.8,2.8-2.1,4.2-3.5c-0.8-1.2-1.8-2.4-3.1-3.5l2-1.6
			c1.2,1,2.2,2.1,3,3.1c0.8-1.1,1.5-2.1,2.1-3.1l2.2,1.4c-0.8,1.3-1.7,2.7-2.8,4.1c0.8,1.6,1.3,3.2,1.6,4.8c1.6-1.4,3.4-3.4,4.4-5.4
			l2.1,0.7v-1.8h-5v-2.2h5v-2.3h2.6v6.2l1.8-1c0.9,0.9,1.9,2.1,2.5,2.9h6v1.8h-6.6v1.3h5.8v1.6h-5.8v1.4h5.8v1.6h-5.8v1.4h7v1.9
			h-14.3v0.8h-2.6V314.9z M378.9,324.7c-1.4,1.8-3.4,3.3-5.7,4.5c2.3,0.5,4.8,0.9,7.4,1.2c-0.6,0.6-1.4,1.7-1.7,2.4
			c-3.2-0.4-6.4-1.1-9.2-2.1c-2.9,1-6.1,1.6-9.3,2.1c-0.2-0.6-0.9-1.8-1.3-2.4c2.5-0.3,4.9-0.6,7.2-1.2c-1.6-0.8-3-1.8-4.1-2.9
			l1.1-0.5h-2.1v-2.2h15.5l0.5-0.1L378.9,324.7z M369.6,313.1h-4.6v1.3h4.6V313.1z M369.6,316h-4.6v1.4h4.6V316z M369.6,319h-4.6
			v1.4h4.6V319z M366,309.4l0.4,0.1c-0.3,0.6-0.6,1.1-1,1.7h4.4c-0.5-0.6-1-1.2-1.5-1.8l0.1-0.1H366z M365.3,325.8
			c1.2,0.9,2.7,1.6,4.5,2.3c1.7-0.6,3.3-1.4,4.5-2.3H365.3z M374.5,309.5h-2.8v-6.4h2.8v2.2h5.6v2.3h-5.6V309.5z"/>
		<path class="st14" d="M392.8,312.7h6.3v2.8h-6.3v1c1.6,1.4,5,4.7,5.9,5.6l-1.7,2.5c-0.9-1.1-2.7-3.1-4.2-4.7v12.9h-3v-12.8
			c-1.6,3.4-3.5,6.6-5.6,8.6c-0.3-0.9-1.1-2.1-1.6-2.9c2.5-2.3,5.1-6.4,6.6-10.1h-5.9v-2.8h6.5v-4.8c-2,0.4-3.9,0.7-5.8,0.9
			c-0.2-0.7-0.6-1.7-0.9-2.3c4.7-0.7,10.1-1.8,13.1-3.2l2.2,2.3c-1.6,0.6-3.5,1.2-5.6,1.7V312.7z M404.3,324.7h-3V307h3V324.7z
			 M411.1,303.5v25.3c0,1.9-0.5,2.8-1.6,3.3c-1.2,0.5-3.1,0.6-6,0.6c-0.1-0.8-0.6-2.3-1.1-3.1c2.2,0.1,4.2,0.1,4.8,0.1
			c0.6,0,0.8-0.2,0.8-0.8v-25.3H411.1z"/>
		<path class="st14" d="M418.4,322.4c2.5-0.9,3.9-2.4,4.1-4.4c-0.1,0-0.3,0-0.5,0c-1.5,0-2.7-0.9-2.7-2.6c0-1.6,1.3-2.6,2.7-2.6
			c2,0,3.1,1.6,3.1,4c0,3.6-2.3,6.4-5.9,7.6L418.4,322.4z"/>
		<path class="st14" d="M440.3,303.6h3v29.1h-3v-8.6c-5.5,1.9-6.5,2.5-7.2,3c-0.2-0.7-0.7-2.1-1.2-2.7c0.5-0.3,1.1-0.9,1.1-2.2
			v-15.6h2.9v16l4.3-1.4V303.6z M458.7,312.1c-0.9,4.9-2.2,9-4.2,12.4c1.8,2.5,4,4.4,6.6,5.7c-0.7,0.5-1.6,1.6-2.1,2.4
			c-2.4-1.4-4.5-3.3-6.3-5.6c-1.8,2.3-4.1,4.3-6.9,5.8c-0.3-0.6-1.4-1.9-2-2.5c3-1.5,5.4-3.4,7.2-5.9c-1.4-2.4-2.5-5.2-3.5-8.2
			c-0.6,1.2-1.4,2.3-2.1,3.3c-0.4-0.6-1.5-1.9-2.1-2.5c2.7-3.2,4.4-8.4,5.2-13.8l3.1,0.5c-0.3,1.9-0.7,3.8-1.3,5.6h10.5v2.8H458.7z
			 M449.2,312.7c0.8,3.3,2,6.3,3.5,9c1.4-2.7,2.3-5.9,2.9-9.7h-6.2L449.2,312.7z"/>
		<path class="st14" d="M492.4,307.8c-0.7,6.9-2.5,12.4-4.9,16.5c1.7,2.4,3.7,4.3,6.3,5.6c-0.7,0.6-1.6,1.7-2.1,2.5
			c-2.4-1.4-4.4-3.2-6.1-5.4c-1.7,2.2-3.8,4-6.2,5.4c-0.4-0.7-1.2-1.7-1.9-2.3v2.6h-2.9v-5.5c-3.9,0.6-7.9,1.3-10.9,1.8l-0.5-3
			c0.9-0.1,1.9-0.3,3-0.4v-17.7h-2.4v-2.8h15.8v2.3h10.2l0.5-0.1L492.4,307.8z M469.1,307.8v3.7h5.5v-3.7H469.1z M469.1,318.2h5.5
			v-3.9h-5.5V318.2z M474.6,324.4v-3.5h-5.5v4.3L474.6,324.4z M477.5,329.9c2.4-1.3,4.5-3.2,6.3-5.6c-2.1-3.7-3.6-8.2-4.6-13.3
			l2.9-0.6c0.7,4,1.9,7.7,3.5,10.9c1.6-3.1,2.8-6.8,3.5-11h-10.2v-2.5h-1.3V329.9z"/>
		<path class="st6" d="M505.1,322.9c-0.1-0.5-0.2-1.1-0.3-1.7c-6.3,0.9-7.3,1.2-8,1.5c-0.1-0.5-0.5-1.9-0.9-2.6
			c0.7-0.2,1.4-1,2.4-2.2c0.5-0.5,1.4-1.7,2.4-3.3c-2.9,0.3-3.6,0.5-4.1,0.7c-0.1-0.5-0.5-1.8-0.9-2.5c0.6-0.1,1.1-0.8,1.7-1.8
			c0.7-0.9,2.7-4.6,3.9-8l2.6,1.1c-1.3,2.9-2.9,5.8-4.5,8.3l2.8-0.3c0.8-1.4,1.6-2.9,2.3-4.3l2.4,1.5c-1.9,3.5-4.4,7.2-6.8,10.1
			l4.1-0.5c-0.3-1-0.5-2-0.8-2.9l2.1-0.5c0.7,2.2,1.5,5.1,1.8,6.7L505.1,322.9z M499.4,324.3c-0.3,3-0.9,6.2-1.5,8.3
			c-0.5-0.3-1.5-0.6-2.2-0.8c0.7-2.1,1.2-5.1,1.5-7.9L499.4,324.3z M502.5,323.6c0.4,2.4,0.7,5.4,0.8,7.5l-2.1,0.4
			c0-2-0.4-5.1-0.7-7.5L502.5,323.6z M505.5,323c0.6,1.8,1.4,4.1,1.7,5.6l-1.9,0.6c-0.3-1.5-1-3.9-1.6-5.7L505.5,323z M515,329.5
			c-2.3,1.1-5.4,2.5-7.6,3.3c-0.4-0.6-1.3-1.5-1.8-2c2.2-0.8,5.3-2.1,7.1-3.1L515,329.5z M514.5,307.2h-7.1v-2.1h7.1v-2h2.9v2h6.6
			v2.1h-6.6v1.5h6v2h-6v1.5h7.8v2.2h-19v-2.2h8.3v-1.5h-6.4v-2h6.4V307.2z M508.3,327.5v-11.9h15.1v11.9H508.3z M511,319.1h9.5v-1.6
			H511V319.1z M511,322.3h9.5v-1.6H511V322.3z M511,325.6h9.5V324H511V325.6z M519.3,327.6c2.2,1.2,4.7,2.6,6.2,3.6l-2.6,1.5
			c-1.4-1-3.6-2.5-5.6-3.7L519.3,327.6z"/>
		<path class="st6" d="M534.7,311.7c-1.3,2.8-3.1,6-4.8,8.1c-0.5-0.5-1.5-1.5-2.1-1.9c1.6-1.8,3.2-4.5,4.2-7L534.7,311.7z
			 M539.8,329.5c-0.7-1.3-1.7-2.8-3.1-4.5c-1.7,2.9-4,5.2-6.6,7c-0.4-0.5-1.4-1.7-2.1-2.2c2.8-1.7,5.1-4.2,6.8-7.1
			c-1.2-1.4-2.5-2.8-3.6-3.9l2.2-1.6c0.9,0.9,1.8,1.8,2.8,2.8c0.5-1.3,1-2.6,1.3-4l2.8,0.5c-0.6,2.1-1.3,4-2.1,5.8
			c1.6,1.9,3.1,3.8,4,5.4L539.8,329.5z M543.5,310.4h-14.8v-2.7h6.6c-0.4-1.1-1.2-2.5-2-3.7l2.5-0.9c0.9,1.2,1.9,2.7,2.3,3.8
			l-1.9,0.8h7.3V310.4z M555.8,311.6c-0.8,5.2-2,9.4-4,12.8c1.6,2.5,3.7,4.5,6.2,5.9c-0.7,0.6-1.6,1.7-2.1,2.5
			c-2.3-1.4-4.2-3.4-5.8-5.7c-1.8,2.4-4.2,4.4-7.2,5.9c-0.4-0.6-1.4-1.7-2-2.3c3.3-1.5,5.8-3.5,7.6-6.2c-1.1-2.1-2-4.4-2.7-6.8
			c-0.5,0.9-1,1.7-1.6,2.5c-0.4-0.6-1.4-1.8-1.9-2.4c0.3-0.3,0.5-0.6,0.7-1l-2,1.1c-0.6-1.6-2.2-4.1-3.6-6l2.2-1.2
			c1.5,1.7,3,3.9,3.7,5.5c2-3.5,3.3-8.2,4.1-13.1l2.8,0.4c-0.3,1.8-0.7,3.6-1.1,5.3h8.4v2.8H555.8z M548.3,311.6
			c-0.3,0.7-0.5,1.4-0.7,2.1c0.6,2.8,1.5,5.4,2.6,7.8c1.3-2.8,2.2-6.1,2.7-9.9H548.3z"/>
		<path class="st6" d="M581.3,327.9c3,0.9,6.1,2.1,8.1,2.9l-2.2,1.8c-2.1-1-5.7-2.4-9.3-3.6l1.2-1.2h-8.6l2.3,1
			c-2.6,1.5-6.7,3-9.9,3.8c-0.5-0.6-1.5-1.7-2.2-2.2c3.2-0.5,6.8-1.5,9.1-2.6h-5v-9.9c-0.8,0.2-1.7,0.4-2.6,0.6
			c-0.3-0.7-1-1.8-1.4-2.4c3.9-0.6,6.2-1.5,7.6-2.6h-5.3c0.4-1.5,0.7-3.7,0.9-5.5h6.3v-1.6h-7.6v-1.9h7.6v-1.6h2.7v1.6h4.4v-1.6h2.8
			v1.6h7v5.3h-7v1.7h9c0,0,0,0.5-0.1,0.9c-0.2,1.8-0.4,2.8-0.8,3.4c-0.5,0.4-1,0.6-1.7,0.6c-0.2,0-0.4,0-0.7,0v11.3H581.3z
			 M566.4,310.1c-0.1,0.6-0.2,1.2-0.3,1.7h3.7c0.2-0.5,0.3-1.1,0.4-1.7H566.4z M582.9,317.6h-15.1v1.6h15.1V317.6z M582.9,321h-15.1
			v1.7h15.1V321z M567.8,326.1h15.1v-1.7h-15.1V326.1z M572.1,313.6c-0.5,0.8-1.1,1.5-1.9,2.1h7.2v-2.1H572.1z M577.4,310.1H573
			c0,0.6-0.1,1.2-0.2,1.7h4.6V310.1z M573,308.2h4.4v-1.6H573V308.2z M580.2,306.6v1.6h4.3v-1.6H580.2z M580.2,313.6v2.1h3.4
			c-0.1-0.4-0.3-0.7-0.4-1c0.9,0.1,1.6,0.1,2,0.1c0.4,0,0.5,0,0.7-0.2c0.1-0.2,0.2-0.4,0.3-1H580.2z"/>
	</g>
	<g class="st13">
		<path class="st14" d="M943.4,324.4c-0.5,2.8-1.4,5.8-2.1,7.7c-0.6-0.3-1.8-0.7-2.6-0.9c0.9-1.9,1.6-4.8,2.1-7.4L943.4,324.4z
			 M949.9,322.5c-0.1-0.5-0.2-1.1-0.4-1.7c-7.9,1.3-9,1.5-9.7,1.9c-0.2-0.5-0.6-2-1-2.8c0.8-0.2,1.6-0.9,2.7-2
			c0.5-0.5,1.6-1.7,2.9-3.3c-3.5,0.4-4.3,0.6-4.7,0.8c-0.2-0.6-0.6-1.9-1-2.7c0.6-0.1,1.3-0.7,2-1.7c0.8-0.9,3.3-4.5,4.7-7.9
			l2.7,1.2c-1.5,2.8-3.4,5.7-5.3,8l3.5-0.3c0.9-1.3,1.8-2.6,2.5-4l2.5,1.6c-2.2,3.3-4.9,6.7-7.5,9.4l5-0.7c-0.3-0.9-0.6-1.9-1-2.7
			l2.4-0.6c0.9,2.2,1.8,5,2.1,6.7L949.9,322.5z M947,323.7c0.5,2.3,0.9,5.1,1.1,7.1l-2.5,0.7c-0.1-2-0.5-4.9-0.9-7.2L947,323.7z
			 M950.7,322.9c0.8,1.9,1.7,4.4,2.1,6l-2.3,0.9c-0.4-1.6-1.2-4.2-1.9-6.1L950.7,322.9z M967.3,309c0,0,0,1.1,0,1.5
			c-0.4,14.1-0.8,18.9-2,20.5c-0.8,1.1-1.6,1.4-2.8,1.5c-1.1,0.2-3,0.1-4.9,0c-0.1-0.8-0.5-2.1-1-3c2,0.2,3.8,0.2,4.6,0.2
			c0.6,0,1-0.1,1.3-0.5c0.9-1,1.4-5.7,1.7-17.4h-8.5c-0.8,1.7-1.6,3.3-2.5,4.5c-0.6-0.4-1.9-1.3-2.6-1.7c2.3-2.7,4-7.1,4.9-11.4
			l3,0.6c-0.5,1.8-1,3.5-1.6,5.2H967.3z M959.6,324.3c-1-1.9-3.4-4.9-5.6-7l2.1-1.5c2.2,2,4.6,4.8,5.7,6.8L959.6,324.3z"/>
		<path class="st14" d="M976,317.3c-1.1-1-3.3-2.3-5.2-3.1l1.7-2.2c1.8,0.7,4.1,1.9,5.2,2.9L976,317.3z M971.4,330.8
			c1.3-2.5,3-6.6,4.3-10.2l2.5,1.6c-1.2,3.4-2.7,7.2-4.1,10.2L971.4,330.8z M990.7,313.4v1.9h8.9V330c0,1.2-0.3,1.9-1.1,2.3
			c-0.9,0.4-2.2,0.4-4,0.4c-0.1-0.6-0.4-1.6-0.7-2.2c1.2,0,2.4,0,2.7,0c0.4,0,0.5-0.1,0.5-0.5v-2.6c-0.4,0.3-0.8,0.7-1,1
			c-0.8-0.8-1.4-2-1.8-3.4c-0.5,1.4-1.2,2.6-2.3,3.5c-0.2-0.3-0.6-0.8-1-1.1v5H988v-4.9c-0.4,0.3-0.7,0.7-1,1
			c-0.7-0.8-1.3-1.9-1.7-3.4c-0.4,1.4-1.1,2.7-2.2,3.7c-0.2-0.4-0.7-0.9-1.1-1.2v5.1h-2.5v-17.4h8.6v-1.9h-4.6v-4.9h-4.6v-1.8
			l-1.7,2.3c-1-1-3.2-2.5-5-3.4l1.7-2.1c1.7,0.7,3.9,2,5,3v-0.7h4.6v-2.7h2.9v2.7h6.3v-2.7h2.9v2.7h4.8v2.7h-4.8v4.9H990.7z
			 M986.2,319.4c0.1,3.2,0.7,5.9,1.8,7.4v-8.9h-6v9.6c1.4-1.2,2-3.3,2.2-5.1h0.6c0-0.4-0.1-0.7-0.1-1.1h-1.7v-1.9H986.2z
			 M986.3,310.8h6.3v-2.3h-6.3V310.8z M990.7,317.8v9.3c1.4-1.2,2-3.1,2.2-4.8h0.6c0-0.3-0.1-0.7-0.1-1h-1.6v-1.9h3.1
			c0.1,3.3,0.8,6,2.1,7.5v-9H990.7z"/>
		<path class="st14" d="M1013.9,326.8c2.1-0.4,4.3-0.7,6.5-1.1l0.2,2.6c-5.7,1.1-11.7,2.2-16,3l-0.6-2.8c1.9-0.3,4.5-0.7,7.2-1.2v-5
			h-6.1v-2.6h6.1v-3.2h2.8v3.2h6.1v2.6h-6.1V326.8z M1004.1,305.1h16.6v2.6h-8.6c-0.9,1.9-2.1,3.8-3.3,5.4l7.1-0.5
			c-0.7-1-1.4-2.1-2.1-2.9l2.2-1.3c1.7,2.1,3.8,5,4.7,6.9l-2.3,1.5c-0.3-0.5-0.5-1.2-0.9-1.8c-9.5,0.8-10.7,1-11.6,1.3
			c-0.2-0.6-0.6-2-1-2.7c0.5-0.1,1-0.7,1.5-1.5c0.4-0.5,1.5-2.3,2.4-4.3h-4.6V305.1z M1025,325.3h-2.8V306h2.8V325.3z M1031.4,303.6
			v25c0,1.7-0.4,2.6-1.4,3c-1.1,0.5-2.8,0.5-5.3,0.5c-0.1-0.8-0.6-2.1-1.1-2.9c1.8,0.1,3.6,0.1,4.1,0c0.5,0,0.7-0.2,0.7-0.7v-25
			H1031.4z"/>
		<path class="st14" d="M1042.5,326.3c-1.2,2.4-3,4.9-4.8,6.5c-0.5-0.5-1.7-1.4-2.4-1.8c1.7-1.4,3.4-3.5,4.3-5.5L1042.5,326.3z
			 M1051.2,325h-15.7v-2.6h3v-12.6h-2.6v-2.6h2.6v-3.7h2.7v3.7h5v-3.7h2.8v3.7h2.3v2.6h-2.3v12.6h2.2V325z M1041.2,309.8v2.4h5v-2.4
			H1041.2z M1041.2,317.3h5v-2.7h-5V317.3z M1041.2,322.4h5v-2.8h-5V322.4z M1046.6,325.4c1.3,1.5,2.8,3.4,3.5,4.7l-2.4,1.5
			c-0.6-1.3-2.1-3.4-3.4-4.9L1046.6,325.4z M1064,329.2c0,1.6-0.4,2.5-1.4,2.9c-1,0.5-2.5,0.6-4.9,0.5c-0.1-0.8-0.5-2.1-0.9-2.8
			c1.5,0.1,3.1,0,3.5,0c0.5,0,0.7-0.2,0.7-0.7V322h-5.9c-0.4,3.8-1.1,7.9-3,10.9c-0.5-0.5-1.7-1.4-2.4-1.7
			c2.5-4.2,2.8-10.3,2.8-14.9v-11.6h11.4V329.2z M1061.1,319.3v-4.7h-5.7v1.7c0,0.9,0,2-0.1,3H1061.1z M1055.5,307.4v4.5h5.7v-4.5
			H1055.5z"/>
		<path class="st14" d="M1070.9,322.4c2.5-0.9,3.9-2.4,4.1-4.4c-0.1,0-0.3,0-0.5,0c-1.5,0-2.7-0.9-2.7-2.6c0-1.6,1.3-2.6,2.7-2.6
			c2,0,3.1,1.6,3.1,4c0,3.6-2.3,6.4-5.9,7.6L1070.9,322.4z"/>
		<path class="st14" d="M1092.9,303.6h3v29.1h-3v-8.6c-5.5,1.9-6.5,2.5-7.2,3c-0.2-0.7-0.7-2.1-1.2-2.7c0.5-0.3,1.1-0.9,1.1-2.2
			v-15.6h2.9v16l4.3-1.4V303.6z M1111.2,312.1c-0.9,4.9-2.2,9-4.2,12.4c1.8,2.5,4,4.4,6.6,5.7c-0.7,0.5-1.6,1.6-2.1,2.4
			c-2.4-1.4-4.5-3.3-6.3-5.6c-1.8,2.3-4.1,4.3-6.9,5.8c-0.3-0.6-1.4-1.9-2-2.5c3-1.5,5.4-3.4,7.2-5.9c-1.4-2.4-2.5-5.2-3.5-8.2
			c-0.6,1.2-1.4,2.3-2.1,3.3c-0.4-0.6-1.5-1.9-2.1-2.5c2.7-3.2,4.4-8.4,5.2-13.8l3.1,0.5c-0.3,1.9-0.7,3.8-1.3,5.6h10.5v2.8H1111.2z
			 M1101.8,312.7c0.8,3.3,2,6.3,3.5,9c1.4-2.7,2.3-5.9,2.9-9.7h-6.2L1101.8,312.7z"/>
		<path class="st14" d="M1144.9,307.8c-0.7,6.9-2.5,12.4-4.9,16.5c1.7,2.4,3.7,4.3,6.3,5.6c-0.7,0.6-1.6,1.7-2.1,2.5
			c-2.4-1.4-4.4-3.2-6.1-5.4c-1.7,2.2-3.8,4-6.2,5.4c-0.4-0.7-1.2-1.7-1.9-2.3v2.6h-2.9v-5.5c-3.9,0.6-7.9,1.3-10.9,1.8l-0.5-3
			c0.9-0.1,1.9-0.3,3-0.4v-17.7h-2.4v-2.8h15.8v2.3h10.2l0.5-0.1L1144.9,307.8z M1121.7,307.8v3.7h5.5v-3.7H1121.7z M1121.7,318.2
			h5.5v-3.9h-5.5V318.2z M1127.2,324.4v-3.5h-5.5v4.3L1127.2,324.4z M1130.1,329.9c2.4-1.3,4.5-3.2,6.3-5.6
			c-2.1-3.7-3.5-8.2-4.6-13.3l2.9-0.6c0.7,4,1.9,7.7,3.5,10.9c1.6-3.1,2.8-6.8,3.5-11h-10.2v-2.5h-1.3V329.9z"/>
		<path class="st12" d="M1153.8,307.6c-1,1.6-2.2,3-3.3,4.1c-0.4-0.5-1.5-1.5-2-2c1.9-1.7,3.7-4.3,4.8-6.9l2.7,0.8
			c-0.2,0.5-0.5,1.1-0.8,1.6h7.7v2.4h-5.4c0.9,0.8,1.9,1.7,2.4,2.4l-1.9,1.7c-0.6-0.8-1.9-2.2-2.9-3.1l1.2-1H1153.8z M1163.7,309.6
			c0.5,0.7,1,1.7,1.3,2.5h11.7v5.5h-3v-3.1H1153v3.1h-2.9V312h11.9c-0.3-0.6-0.6-1.3-0.9-1.9L1163.7,309.6z M1156.8,324.7h17.7v8h-3
			v-0.9h-14.7v1h-3v-16.7h19v6.7h-15.9V324.7z M1156.8,318.3v2.3h13v-2.3H1156.8z M1156.8,327v2.5h14.7V327H1156.8z M1177.8,305.3
			v2.4h-6.3c1.1,0.8,2.3,1.9,2.9,2.6l-2,1.7c-0.7-0.9-2.3-2.3-3.5-3.2l1.4-1.1h-3.3c-0.7,1-1.5,1.9-2.3,2.6
			c-0.5-0.5-1.6-1.4-2.3-1.8c1.7-1.4,3.2-3.4,4-5.5l2.7,0.7c-0.2,0.6-0.5,1.1-0.8,1.7H1177.8z"/>
		<path class="st12" d="M1191.4,326.2c-3.5,1.2-7.3,2.5-10.2,3.4l-0.7-3.1c1.2-0.3,2.6-0.7,4.1-1.2v-8.2h-3.5v-2.8h3.5v-6.4h-3.8
			v-2.8h10.3v2.8h-3.6v6.4h3.1v2.8h-3.1v7.3c1.1-0.4,2.3-0.7,3.4-1.1L1191.4,326.2z M1210.5,329v2.7h-20.6V329h9.4v-3.8h-7v-2.7h7
			v-3.3h-6.7v-14.5h16.5v14.5h-6.7v3.3h7.2v2.7h-7.2v3.8H1210.5z M1195.2,310.6h4.2v-3.5h-4.2V310.6z M1195.2,316.5h4.2V313h-4.2
			V316.5z M1206.1,307.1h-4.1v3.5h4.1V307.1z M1206.1,313h-4.1v3.5h4.1V313z"/>
		<path class="st12" d="M1233.8,327.9c3,0.9,6.1,2.1,8.1,2.9l-2.2,1.8c-2.1-1-5.7-2.4-9.3-3.6l1.2-1.2h-8.6l2.3,1
			c-2.6,1.5-6.7,3-9.9,3.8c-0.5-0.6-1.5-1.7-2.2-2.2c3.2-0.5,6.8-1.5,9.1-2.6h-5v-9.9c-0.8,0.2-1.7,0.4-2.6,0.6
			c-0.3-0.7-1-1.8-1.4-2.4c3.9-0.6,6.2-1.5,7.6-2.6h-5.3c0.4-1.5,0.7-3.7,0.9-5.5h6.3v-1.6h-7.6v-1.9h7.6v-1.6h2.7v1.6h4.4v-1.6h2.8
			v1.6h7v5.3h-7v1.7h9c0,0,0,0.5-0.1,0.9c-0.2,1.8-0.4,2.8-0.8,3.4c-0.5,0.4-1,0.6-1.7,0.6c-0.2,0-0.4,0-0.7,0v11.3H1233.8z
			 M1218.9,310.1c-0.1,0.6-0.2,1.2-0.3,1.7h3.7c0.2-0.5,0.3-1.1,0.4-1.7H1218.9z M1235.5,317.6h-15.1v1.6h15.1V317.6z M1235.5,321
			h-15.1v1.7h15.1V321z M1220.4,326.1h15.1v-1.7h-15.1V326.1z M1224.7,313.6c-0.5,0.8-1.1,1.5-1.9,2.1h7.2v-2.1H1224.7z
			 M1229.9,310.1h-4.4c0,0.6-0.1,1.2-0.2,1.7h4.6V310.1z M1225.5,308.2h4.4v-1.6h-4.4V308.2z M1232.8,306.6v1.6h4.3v-1.6H1232.8z
			 M1232.8,313.6v2.1h3.4c-0.1-0.4-0.3-0.7-0.4-1c0.9,0.1,1.6,0.1,2,0.1c0.4,0,0.5,0,0.7-0.2c0.1-0.2,0.2-0.4,0.3-1H1232.8z"/>
	</g>
</g>
<path class="st15" d="M572.4-135.6h-268c-27.1,0-49.2-22-49.2-49.2l0,0c0-27.1,22-49.2,49.2-49.2h268c27.1,0,49.2,22,49.2,49.2l0,0
	C621.5-157.6,599.5-135.6,572.4-135.6z"/>
<path class="st16" d="M1233.7-135.6H947.5c-27.1,0-49.2-22-49.2-49.2l0,0c0-27.1,22-49.2,49.2-49.2h286.2c27.1,0,49.2,22,49.2,49.2
	l0,0C1282.9-157.6,1260.9-135.6,1233.7-135.6z"/>
<text transform="matrix(1 0 0 1 284.7635 -171.5002)" class="st13"><tspan x="0" y="0" class="st14" style="font-family:'NotoSansTC-Medium-B5pc-H'; font-size:32.27px;">產生獲利，收取</tspan><tspan x="225.9" y="0" class="st6" style="font-family:'NotoSansTC-Medium-B5pc-H'; font-size:32.27px;">績效費</tspan></text>
<text transform="matrix(1 0 0 1 937.3175 -171.4998)" class="st13"><tspan x="0" y="0" class="st14" style="font-family:'NotoSansTC-Medium-B5pc-H'; font-size:32.27px;">約滿到期，收取</tspan><tspan x="225.9" y="0" class="st12" style="font-family:'NotoSansTC-Medium-B5pc-H'; font-size:32.27px;">管理費</tspan></text>
</svg>
