<?xml version="1.0" encoding="utf-8"?>
<!-- Generator: Adobe Illustrator 24.0.3, SVG Export Plug-In . SVG Version: 6.00 Build 0)  -->
<svg version="1.1" id="圖層_1" xmlns="http://www.w3.org/2000/svg" xmlns:xlink="http://www.w3.org/1999/xlink" x="0px" y="0px"
	 viewBox="0 0 760 1153.6" style="enable-background:new 0 0 760 1153.6;" xml:space="preserve">
<style type="text/css">
	.st0{fill:#CAB380;}
	.st1{fill:#1F273A;}
	.st2{fill:none;stroke:#BEBEBE;stroke-width:4.814;}
	.st3{fill:none;stroke:#CAB380;stroke-width:4.814;}
	.st4{fill:none;stroke:#1F273A;stroke-width:4.814;}
	.st5{fill:none;stroke:#CAB380;stroke-width:1.2035;stroke-linecap:round;stroke-linejoin:round;}
	.st6{fill:none;stroke:#CAB380;stroke-width:1.2035;stroke-linecap:round;stroke-linejoin:round;stroke-dasharray:0.8225,6.5794;}
	.st7{fill:#FFFFFF;}
	.st8{fill:none;stroke:#1F273A;stroke-width:1.2035;stroke-linecap:round;stroke-linejoin:round;}
	.st9{fill:none;stroke:#1F273A;stroke-width:1.2035;stroke-linecap:round;stroke-linejoin:round;stroke-dasharray:0.8225,6.5794;}
	.st10{fill:none;stroke:#FF3F4B;stroke-width:1.2035;stroke-linecap:round;stroke-linejoin:round;}
	.st11{fill:none;stroke:#1E3684;stroke-width:1.2035;stroke-linecap:round;stroke-linejoin:round;stroke-dasharray:0.8225,6.5794;}
	.st12{fill:#1E3684;}
	.st13{fill:#FFFFFF;stroke:#CAB380;stroke-width:2.1018;}
	.st14{fill:#FFFFFF;stroke:#1E3684;stroke-width:2.8245;}
	.st15{enable-background:new    ;}
	.st16{fill:#3E3E3E;}
</style>
<path class="st0" d="M-245.5,90.9h-144.1c-17.6,0-32-14.3-32-32l0,0c0-17.6,14.3-32,32-32h144c17.6,0,32,14.3,32,32l0,0
	C-213.4,76.6-227.8,90.9-245.5,90.9z"/>
<text transform="matrix(1 0 0 1 -386.3031 71.2244)" class="st7" style="font-family:'NotoSansTC-Medium-B5pc-H'; font-size:33.677px;">申購方案</text>
<text transform="matrix(1 0 0 1 -447.0785 162.1776)" class="st16" style="font-family:'NotoSansTC-Medium-B5pc-H'; font-size:33.677px;">入金準備</text>
<text transform="matrix(1 0 0 1 -447.0785 481.2899)" class="st16" style="font-family:'NotoSansTC-Medium-B5pc-H'; font-size:33.677px;">方案投放期間</text>
<path class="st0" d="M-245.6,264.4h-144c-17.6,0-32-14.3-32-32l0,0c0-17.6,14.3-32,32-32h144c17.6,0,32,14.3,32,32l0,0
	C-213.5,250.1-227.8,264.4-245.6,264.4z"/>
<text transform="matrix(1 0 0 1 -386.3031 244.661)" class="st7" style="font-family:'NotoSansTC-Medium-B5pc-H'; font-size:33.677px;">方案開始</text>
<path class="st1" d="M-245.6,750.4h-144c-17.6,0-32-14.3-32-32l0,0c0-17.6,14.3-32,32-32h144c17.6,0,32,14.3,32,32l0,0
	C-213.6,736.1-227.9,750.4-245.6,750.4z"/>
<text transform="matrix(1 0 0 1 -386.3031 730.699)" class="st7" style="font-family:'NotoSansTC-Medium-B5pc-H'; font-size:33.677px;">約滿到期</text>
<line class="st2" x1="-471.1" y1="229.5" x2="-471.1" y2="890.2"/>
<line class="st3" x1="-471.1" y1="55.7" x2="-471.1" y2="229.5"/>
<line class="st4" x1="-471.1" y1="247.4" x2="-471.1" y2="715.2"/>
<g>
	<g>
		<line class="st5" x1="-471.1" y1="55.7" x2="-470.7" y2="55.7"/>
		<line class="st6" x1="-464.2" y1="55.7" x2="-415.6" y2="55.7"/>
		<line class="st5" x1="-412.4" y1="55.7" x2="-412" y2="55.7"/>
	</g>
</g>
<g>
	<circle class="st7" cx="-471.1" cy="55.7" r="4.4"/>
	<path class="st0" d="M-467.9,55.7c0,1.8-1.4,3.2-3.2,3.2c-1.8,0-3.2-1.4-3.2-3.2s1.4-3.2,3.2-3.2
		C-469.4,52.5-467.9,53.9-467.9,55.7 M-465.6,55.7c0-3.1-2.5-5.6-5.6-5.6s-5.6,2.5-5.6,5.6s2.5,5.6,5.6,5.6
		C-468,61.2-465.6,58.7-465.6,55.7L-465.6,55.7z"/>
</g>
<g>
	<g>
		<line class="st5" x1="-471.1" y1="229.5" x2="-470.7" y2="229.5"/>
		<line class="st6" x1="-464.2" y1="229.5" x2="-415.6" y2="229.5"/>
		<line class="st5" x1="-412.4" y1="229.5" x2="-412" y2="229.5"/>
	</g>
</g>
<g>
	<g>
		<line class="st6" x1="-533" y1="247.4" x2="-532.6" y2="247.4"/>
		<line class="st6" x1="-526" y1="247.4" x2="-477.5" y2="247.4"/>
		<line class="st6" x1="-474.2" y1="247.4" x2="-473.8" y2="247.4"/>
	</g>
</g>
<g>
	<circle class="st7" cx="-471.1" cy="229.5" r="4.4"/>
	<path class="st0" d="M-467.9,229.5c0,1.8-1.4,3.2-3.2,3.2c-1.8,0-3.2-1.4-3.2-3.2s1.4-3.2,3.2-3.2
		C-469.4,226.3-467.9,227.8-467.9,229.5 M-465.6,229.5c0-3.1-2.5-5.6-5.6-5.6s-5.6,2.5-5.6,5.6s2.5,5.6,5.6,5.6
		C-468,235.2-465.6,232.7-465.6,229.5L-465.6,229.5z"/>
</g>
<g>
	<circle class="st7" cx="-471.1" cy="247.4" r="4.4"/>
	<path class="st0" d="M-467.9,247.4c0,1.8-1.4,3.2-3.2,3.2c-1.8,0-3.2-1.4-3.2-3.2s1.4-3.2,3.2-3.2
		C-469.4,244.2-467.9,245.7-467.9,247.4 M-465.6,247.4c0-3.1-2.5-5.6-5.6-5.6s-5.6,2.5-5.6,5.6s2.5,5.6,5.6,5.6
		C-468,253-465.6,250.6-465.6,247.4L-465.6,247.4z"/>
</g>
<g>
	<g>
		<line class="st8" x1="-471.1" y1="715.2" x2="-470.7" y2="715.2"/>
		<line class="st9" x1="-464.2" y1="715.2" x2="-415.6" y2="715.2"/>
		<line class="st8" x1="-412.4" y1="715.2" x2="-412" y2="715.2"/>
	</g>
</g>
<g>
	<circle class="st7" cx="-471.1" cy="715.2" r="4.4"/>
	<path class="st1" d="M-467.9,715.2c0,1.8-1.4,3.2-3.2,3.2c-1.8,0-3.2-1.4-3.2-3.2s1.4-3.2,3.2-3.2
		C-469.4,711.9-467.9,713.4-467.9,715.2 M-465.6,715.2c0-3.1-2.5-5.6-5.6-5.6s-5.6,2.5-5.6,5.6s2.5,5.6,5.6,5.6
		C-468,720.8-465.6,718.3-465.6,715.2L-465.6,715.2z"/>
</g>
<g>
	<g>
		<line class="st10" x1="-533" y1="735" x2="-532.6" y2="735"/>
		<line class="st11" x1="-526" y1="735" x2="-477.5" y2="735"/>
		<line class="st10" x1="-474.2" y1="735" x2="-473.8" y2="735"/>
	</g>
</g>
<g>
	<circle class="st7" cx="-471.1" cy="735" r="4.4"/>
	<path class="st12" d="M-467.9,735c0,1.8-1.4,3.2-3.2,3.2c-1.8,0-3.2-1.4-3.2-3.2s1.4-3.2,3.2-3.2
		C-469.4,731.8-467.9,733.2-467.9,735 M-465.6,735c0-3.1-2.5-5.6-5.6-5.6s-5.6,2.5-5.6,5.6s2.5,5.6,5.6,5.6
		C-468,740.6-465.6,738.1-465.6,735L-465.6,735z"/>
</g>
<circle class="st0" cx="-475.6" cy="990.5" r="136.2"/>
<g>
	<path class="st7" d="M-937,1080.4v-0.9c0-2.7-2.2-4.9-4.9-4.9h-0.9v-2.9h-2.9v2.9h-0.9c-2.7,0-4.9,2.2-4.9,4.9
		c0,2.1,1.2,3.8,3.1,4.6l2.6,0.9v5.5h-0.9c-1,0-2-0.8-2-2l0,0v-0.9h-2.9v0.9c0,2.7,2.2,4.9,4.9,4.9h4.8c2.7,0,4.9-2.2,4.9-4.9
		c0-2.1-1.2-3.8-3.1-4.6l-2.6-0.9v-5.5h0.9c1,0,2,0.8,2,2l0,0v0.9H-937L-937,1080.4z M-941.3,1086.6c0.7,0.3,1.2,1,1.2,1.9
		c0,1-0.8,2-2,2l0,0h-0.9v-4.5L-941.3,1086.6z M-945.8,1081.8l-1.7-0.6c-0.7-0.3-1.2-1-1.2-1.9c0-1,0.8-2,2-2l0,0h0.9V1081.8
		L-945.8,1081.8z"/>
	<path class="st7" d="M-986.3,1134h18.9c0.4,0,0.7-0.1,1-0.4l4.4-4.4c0.5-0.5,0.5-1.2,0.2-1.9l-0.7-1l33.5-7.7
		c1.8-0.4,3.5-1,5.2-1.9l20.3-10.4c2.8-1.6,3.8-5.1,2.3-7.9c-1.6-2.8-5.1-3.8-7.9-2.3l0,0l-7.9,3.4l-2-4.1c-0.3-0.6-0.4-1.2-0.4-2
		v-16.1c0-10.1-7.5-18.8-17.6-20.1l5.9-8c0.4-0.6,0.3-1.6-0.3-2c-0.2-0.2-0.6-0.3-0.9-0.3h-23.2c-0.8,0-1.5,0.6-1.5,1.5
		c0,0.3,0.1,0.6,0.3,0.8l5.9,8c-10.1,1.4-17.6,9.9-17.6,20.1v16.4c-0.8,0.6-1.6,1.4-2.2,2.2l-6.4,8l-1.8-2.7
		c-0.2-0.3-0.5-0.6-0.9-0.6c-0.4-0.1-0.8,0-1.1,0.3l-5.9,4.4c-0.4,0.3-0.6,0.7-0.6,1.1v26.1C-987.8,1133.3-987.2,1134-986.3,1134z
		 M-953.1,1049.9h17.5l-5.2,7.2h-7.2L-953.1,1049.9z M-966,1077.4c0-9.6,7.8-17.4,17.4-17.4h8.7c9.6,0,17.4,7.8,17.4,17.4v16.1
		c0,1.1,0.3,2.2,0.7,3.2l2,4l-9.9,4.3c-0.2,0.1-0.4,0.1-0.5,0.1h-25.6c-0.8,0-1.5-0.6-1.5-1.5c0-0.8,0.6-1.5,1.5-1.5h11.6
		c5.6,0,10.1-4.6,10.1-10.1c0-0.8-0.6-1.5-1.5-1.5h-1.9c0.3-0.6,0.4-1.2,0.4-2c0-2-1.2-3.8-3.1-4.6l-2.6-0.9v-5.5h0.9c1,0,2,0.8,2,2
		l0,0v0.9h2.9v-0.9c0-2.7-2.2-4.9-4.9-4.9h-0.9v-2.9h-2.9v2.9h-0.9c-2.7,0-4.9,2.2-4.9,4.9c0,2.1,1.2,3.8,3.1,4.6l2.6,0.9v5.5h-0.9
		c-1,0-2-0.8-2-2l0,0v-0.9h-2.9v0.9c0,0.7,0.1,1.4,0.4,2h-8.6c-2.2,0-4.4,0.5-6.4,1.5v-14.6H-966L-966,1077.4z M-939.9,1088.5
		c0,1-0.8,2-2,2l0,0h-0.9v-4.5l1.7,0.6C-940.4,1086.9-939.9,1087.7-939.9,1088.5z M-945.8,1077.4v4.5l-1.7-0.6
		c-0.7-0.3-1.2-1-1.2-1.9c0-1,0.8-2,2-2l0,0H-945.8L-945.8,1077.4z M-968.8,1097.7c2.2-2.8,5.6-4.4,9.2-4.4h22.6
		c-0.7,3.3-3.6,5.9-7.1,5.9h-11.6c-2.4,0-4.4,2-4.4,4.4s2,4.4,4.4,4.4h25.5c0.6,0,1.1-0.1,1.7-0.3l20.7-8.9c1.4-0.8,3.1-0.4,4,1
		c0.8,1.5,0.4,3.1-1,4l0,0l-20.2,10.4c-1.5,0.7-3,1.2-4.6,1.7l-34.5,7.9l-11.5-17.2L-968.8,1097.7z M-984.9,1107.2l4-3l16,23.8
		l-3.1,3.1h-16.8L-984.9,1107.2L-984.9,1107.2z"/>
	<path class="st7" d="M-973.3,1121c-2.4,0-4.4,2-4.4,4.4s2,4.4,4.4,4.4s4.4-2,4.4-4.4C-968.9,1122.8-970.9,1121-973.3,1121z
		 M-973.3,1126.7c-0.8,0-1.5-0.6-1.5-1.5c0-0.8,0.6-1.5,1.5-1.5c0.8,0,1.5,0.6,1.5,1.5C-971.9,1126-972.5,1126.7-973.3,1126.7z"/>
	<path class="st7" d="M-916.7,1051c-0.4,2.3-2.2,4.2-4.6,4.6c-0.8,0-1.5,0.6-1.5,1.5c0,0.8,0.6,1.5,1.5,1.5c2.3,0.4,4.2,2.2,4.6,4.6
		c0,0.8,0.6,1.5,1.5,1.5s1.5-0.6,1.5-1.5c0.4-2.3,2.2-4.2,4.6-4.6c0.8,0,1.5-0.6,1.5-1.5c0-0.8-0.6-1.5-1.5-1.5
		c-2.3-0.4-4.2-2.2-4.6-4.6c0-0.8-0.6-1.5-1.5-1.5C-916.1,1049.7-916.7,1050.3-916.7,1051z M-913.2,1057.1c-0.8,0.5-1.5,1.2-2.1,2.1
		c-0.5-0.8-1.2-1.5-2.1-2.1c0.8-0.5,1.5-1.2,2.1-2.1C-914.8,1055.8-914,1056.5-913.2,1057.1z"/>
	<path class="st7" d="M-986.6,1087.6c2.3,0.4,4.2,2.2,4.6,4.6c0,0.8,0.6,1.5,1.5,1.5s1.5-0.6,1.5-1.5c0.4-2.3,2.2-4.2,4.6-4.6
		c0.8,0,1.5-0.6,1.5-1.5s-0.6-1.5-1.5-1.5c-2.3-0.4-4.2-2.2-4.6-4.6c0-0.8-0.6-1.5-1.5-1.5s-1.5,0.6-1.5,1.5
		c-0.4,2.3-2.2,4.2-4.6,4.6c-0.8,0-1.5,0.6-1.5,1.5C-988,1086.9-987.4,1087.6-986.6,1087.6z M-980.5,1084c0.5,0.8,1.2,1.5,2.1,2.1
		c-0.8,0.5-1.5,1.2-2.1,2.1c-0.5-0.8-1.2-1.5-2.1-2.1C-981.8,1085.5-981.1,1084.8-980.5,1084z"/>
</g>
<path class="st13" d="M-586.6,319.5h-138.7c-37.9,0-68.9-30.8-68.9-68.9l0,0c0-37.9,30.8-68.9,68.9-68.9h138.7
	c37.9,0,68.9,30.8,68.9,68.9l0,0C-517.7,288.7-548.5,319.5-586.6,319.5z"/>
<path class="st14" d="M-586.6,799.8h-138.7c-37.9,0-68.9-30.8-68.9-68.9l0,0c0-37.9,30.8-68.9,68.9-68.9h138.7
	c37.9,0,68.9,30.8,68.9,68.9l0,0C-517.7,769-548.5,799.8-586.6,799.8z"/>
<g>
	<g>
		
			<text transform="matrix(1 0 0 1 -563.0479 959.7753)" class="st7" style="font-family:'NotoSansTC-Medium-B5pc-H'; font-size:43.7241px;">贖回資產</text>
		
			<text transform="matrix(1 0 0 1 -519.5479 1064.6753)" class="st7" style="font-family:'NotoSansTC-Medium-B5pc-H'; font-size:43.7241px;">淨值</text>
		<polygon class="st7" points="-462.4,996.4 -475.3,1009.3 -488.1,996.4 		"/>
	</g>
</g>
<g>
	<path class="st0" d="M665.8,90.9H521.7c-17.6,0-32-14.3-32-32l0,0c0-17.6,14.3-32,32-32h144c17.6,0,32,14.3,32,32l0,0
		C697.9,76.6,683.5,90.9,665.8,90.9z"/>
	<g class="st15">
		<path class="st7" d="M555.1,47.4v19.2h-3.2V65h-8.6v8.9h-3.2V65h-8.3v1.9h-3.1V47.4h11.4V43h3.2v4.4H555.1z M531.8,50.4v4.2h8.3
			v-4.2H531.8z M540.1,62v-4.4h-8.3V62H540.1z M543.3,50.4v4.2h8.6v-4.2H543.3z M551.9,62v-4.4h-8.6V62H551.9z"/>
		<path class="st7" d="M566.9,66.6c-0.8,2.8-2.3,5.5-3.8,7.3c-0.5-0.5-1.7-1.2-2.4-1.6c1.5-1.6,2.8-3.9,3.4-6.4L566.9,66.6z
			 M572.3,65.4h-9.8V44.2h9.8V65.4z M569.4,46.8h-4.2v3.7h4.2V46.8z M569.4,52.9h-4.2v3.8h4.2V52.9z M569.4,59.1h-4.2v3.8h4.2V59.1z
			 M570.6,65.9c1.1,1.7,2.3,3.8,2.8,5.3l-2.5,1.2c-0.4-1.4-1.7-3.8-2.7-5.5L570.6,65.9z M591.9,68.4h-1.8v2.4c0,1.4-0.3,2.1-1.3,2.6
			c-1,0.4-2.6,0.4-4.9,0.4c-0.1-0.7-0.5-1.8-0.8-2.5c1.5,0.1,3.1,0.1,3.5,0c0.5,0,0.6-0.1,0.6-0.5v-2.4h-9.7v5.5h-2.8v-5.5h-2v-2.3
			h2v-8.5h6.2V56h-8v-2.3h4.5v-1.8h-3v-2.2h3V48h-3.9v-2.3h3.9V43h2.8v2.7h4.3V43h2.8v2.7h3.9V48h-3.9v1.7h3.3v2.2h-3.3v1.8h4.6V56
			h-8.2v1.6h6.5v8.5h1.8L591.9,68.4L591.9,68.4z M577.5,59.9v2h3.4v-2H577.5z M577.5,66.1h3.4V64h-3.4V66.1z M580.2,49.7h4.3V48
			h-4.3V49.7z M580.2,53.7h4.3v-1.8h-4.3V53.7z M583.7,59.9v2h3.6v-2H583.7z M587.2,66.1V64h-3.6v2.2L587.2,66.1L587.2,66.1z"/>
		<path class="st7" d="M608.8,51.6c-0.1,1.6-0.2,3.2-0.4,4.8h14.3c0,0,0,1-0.1,1.4c-0.6,9.3-1.3,13-2.6,14.4
			c-0.9,0.9-1.8,1.2-3.2,1.3c-1.2,0.1-3.4,0.1-5.7-0.1c0-0.9-0.5-2.2-1.1-3.1c2.4,0.2,4.7,0.2,5.6,0.2c0.7,0,1.2-0.1,1.6-0.4
			c0.9-0.8,1.5-3.9,2.1-10.8H608c-1.1,5.8-3.5,11.2-9.8,14.6c-0.5-0.8-1.4-1.9-2.3-2.6c8.4-4.2,9.1-12.4,9.5-19.8h-8.8v-3.1H611
			c-0.4-1.3-1.3-3.3-2.1-4.7l3.1-1.1c0.9,1.5,1.9,3.5,2.4,4.9l-2.3,1h13.8v3.1C625.9,51.6,608.8,51.6,608.8,51.6z"/>
		<path class="st7" d="M660.8,66h-9.2c2.9,1.3,6.8,3.5,8.7,5.1l-2.4,2.2c-1.8-1.6-5.6-3.9-8.6-5.4l2.1-2h-4.3v7.9H644V66h-13.3v-2.6
			H644v-2.6h3.1v2.6h13.6V66H660.8z M657.3,62.2c-2.6-1-6.1-2-10.3-2.9c-3.6,1.5-8.5,2.2-14.9,2.6c-0.2-0.9-0.7-1.9-1.1-2.6
			c4.3-0.2,7.8-0.5,10.7-1.1c-2.1-0.4-4.3-0.8-6.5-1.1c0.9-0.8,2-2,3.1-3.1h-7.1v-2.5h9.3c1-1.2,1.8-2.3,2.5-3.4l3,0.9
			c-0.6,0.8-1.2,1.7-2,2.5h7.5c0.4-0.7,0.6-1.4,0.9-2.2l3.1,0.6c-0.2,0.5-0.4,1-0.6,1.5h5.6v2.5h-6.9c-0.9,1.4-2,2.6-3.4,3.5
			c3.9,0.9,7.4,1.9,10.1,2.7L657.3,62.2z M641.8,67.4c-2,2.3-5.3,4.4-8.2,5.7c-0.6-0.6-1.9-1.6-2.6-2.1c2.9-1,6-2.7,7.7-4.5
			L641.8,67.4z M657,48h-22.4v2.3h-2.9v-5h12.4c-0.3-0.6-0.7-1.2-0.9-1.7l3.2-0.7c0.4,0.7,1,1.6,1.5,2.5H660v5h-3V48z M641.8,53.9
			c-0.5,0.5-1.1,1-1.6,1.5c2.1,0.3,4.1,0.7,6.1,1.1c1.4-0.7,2.6-1.6,3.5-2.7h-8V53.9z"/>
	</g>
	<g class="st15">
		<path class="st16" d="M483.1,135.9c0,6.1,0.8,18.6,13.6,26.2c-0.7,0.5-2,1.9-2.5,2.7c-7.6-4.6-11.2-11.5-12.9-17.7
			c-2.5,8.1-6.7,14-12.9,17.7c-0.6-0.6-2.1-2-2.9-2.5c7.2-3.7,11.3-10.4,13.3-19.5l1.7,0.3c-0.2-1.4-0.4-2.8-0.4-4h-8v-3.2H483.1z"
			/>
		<path class="st16" d="M517.3,146.7v4.1h11.3v2.8h-11.3v7.5h12.9v2.9h-28.9v-2.9H514v-7.5h-11.1v-2.8H514v-4.1h-7v-1.8
			c-1.6,0.8-3.2,1.5-4.9,2.2c-0.4-0.9-1.3-2.1-2.1-2.9c6.3-1.9,12.4-5.6,15.6-10.6l2.9,1.3c-0.3,0.4-0.6,0.9-0.9,1.3
			c3.3,3.3,9,6.5,14,8c-0.7,0.6-1.7,1.9-2.2,2.7c-1.7-0.6-3.3-1.4-5-2.3v2.1H517.3z M508,153.9c1.3,1.8,2.6,4.2,3.2,5.8l-2.7,1.2
			c-0.5-1.6-1.8-4.1-3-6L508,153.9z M522.9,143.8c-2.6-1.6-5.1-3.4-7.1-5.5c-2,2.1-4.2,3.9-6.8,5.5H522.9z M519.9,160
			c1.1-1.6,2.6-4.2,3.3-6l3,1.1c-1.3,2.1-2.8,4.4-3.9,5.9L519.9,160z"/>
		<path class="st16" d="M540.2,144.4c-1.2-0.8-3.5-1.9-5.3-2.6l1.6-2.1c1.7,0.6,4.1,1.5,5.3,2.3c2.7-2,5.1-5.1,6.5-8.2l3,0.9
			c-0.5,0.9-1,1.9-1.6,2.8h4.5c-0.3-0.8-0.7-1.8-1.1-2.5l3-0.8c0.5,0.9,1.2,2.3,1.6,3.3h6.5v2.4H557v2.1h5.9v2.1H557v2h6v2.1h-6v2.2
			h7.6v2.5h-16.1v1.3h-3.1v-11.4c-0.5,0.5-1,0.9-1.5,1.4c-0.5-0.5-1.6-1.4-2.4-1.9L540.2,144.4z M565.5,158.6h-13.6v6.3h-3.2v-6.3
			h-13.3v-2.8h13.3v-2.3h3.2v2.3h13.6V158.6z M535.8,152c1.8-1.6,4.4-4.3,6.6-6.9l1.7,2.1c-1.9,2.4-4.1,4.9-6.2,7.1L535.8,152z
			 M542.6,139c-1.1-0.9-3.4-2.1-5.3-2.8l1.6-2.2c1.8,0.6,4.1,1.7,5.3,2.6L542.6,139z M554,139.9h-5.5v2.1h5.5V139.9z M554,144h-5.5
			v2h5.5V144z M554,148.1h-5.5v2.2h5.5V148.1z"/>
		<path class="st16" d="M578.7,134.8c-0.7,2.3-1.6,4.5-2.6,6.7v23.3h-3v-17.6c-0.8,1.2-1.5,2.3-2.4,3.3c-0.2-0.8-1-2.5-1.5-3.3
			c2.7-3.3,5.1-8.3,6.6-13.3L578.7,134.8z M585.8,145.5c-0.5,0.8-1,1.5-1.6,2.3h14.4v14c0,1.3-0.2,2-1.1,2.4
			c-0.9,0.4-2.1,0.5-3.7,0.5c-0.2-0.7-0.5-1.8-0.9-2.5c0.9,0,2,0,2.3,0s0.4-0.1,0.4-0.4v-2H591v4.2h-2.8v-4.2h-5.1
			c-0.4,1.9-1.1,3.7-2.3,5.2c-0.5-0.5-1.8-1.5-2.6-1.9c2.1-2.6,2.3-6.1,2.3-8.9v-2.9c-0.8,0.7-1.6,1.3-2.5,1.8
			c-0.3-0.6-1.2-2-1.8-2.5c2.2-1.2,4.5-3.1,6-5.2H578v-2.9h5.9v-2.7H579v-2.9h4.9v-3h3v3h5v-3h3v3h4.3v2.9h-4.3v2.7h5.2v2.9
			L585.8,145.5L585.8,145.5z M588.3,157.6v-2.5h-4.6c0,0.8-0.1,1.7-0.2,2.5H588.3z M583.7,152.7h4.6v-2.4h-4.6V152.7z M586.9,142.6
			h5v-2.7h-5V142.6z M595.7,150.4h-4.6v2.4h4.6V150.4z M595.7,157.6v-2.5h-4.6v2.5H595.7z"/>
	</g>
	<g class="st15">
		<path class="st16" d="M478.7,461.7c-0.1,1.6-0.2,3.2-0.4,4.8h14.3c0,0,0,1-0.1,1.4c-0.6,9.3-1.3,13-2.6,14.4
			c-0.9,0.9-1.8,1.2-3.2,1.3c-1.2,0.1-3.4,0.1-5.7-0.1c0-0.9-0.5-2.2-1.1-3.1c2.4,0.2,4.7,0.2,5.6,0.2c0.7,0,1.2-0.1,1.6-0.4
			c0.9-0.8,1.5-3.9,2.1-10.8h-11.3c-1.1,5.8-3.5,11.2-9.8,14.6c-0.5-0.8-1.4-1.9-2.3-2.6c8.4-4.2,9.1-12.4,9.5-19.8h-8.8v-3.1h14.4
			c-0.4-1.3-1.3-3.3-2.1-4.7l3.1-1.1c0.9,1.5,1.9,3.5,2.4,4.9l-2.3,1h13.8v3.1L478.7,461.7L478.7,461.7z"/>
		<path class="st16" d="M530.8,476h-9.2c2.9,1.3,6.8,3.5,8.7,5.1l-2.4,2.2c-1.8-1.6-5.6-3.9-8.6-5.4l2.1-2h-4.3v7.9H514V476h-13.3
			v-2.6H514v-2.6h3.1v2.6h13.6v2.6H530.8z M527.2,472.2c-2.6-1-6.1-2-10.3-2.9c-3.6,1.5-8.5,2.2-14.9,2.6c-0.2-0.9-0.7-1.9-1.1-2.6
			c4.3-0.2,7.8-0.5,10.7-1.1c-2.1-0.4-4.3-0.8-6.5-1.1c0.9-0.8,2-2,3.1-3.1h-7.1v-2.5h9.3c1-1.2,1.8-2.3,2.5-3.4l3,0.9
			c-0.6,0.8-1.2,1.7-2,2.5h7.5c0.4-0.7,0.6-1.4,0.9-2.2l3.1,0.6c-0.2,0.5-0.4,1-0.6,1.5h5.6v2.5h-6.9c-0.9,1.4-2,2.6-3.4,3.5
			c3.9,0.9,7.4,1.9,10.1,2.7L527.2,472.2z M511.7,477.5c-2,2.3-5.3,4.4-8.2,5.7c-0.6-0.6-1.9-1.6-2.6-2.1c2.9-1,6-2.7,7.7-4.5
			L511.7,477.5z M526.9,458.1h-22.4v2.3h-2.9v-5H514c-0.3-0.6-0.7-1.2-0.9-1.7l3.2-0.7c0.4,0.7,1,1.6,1.5,2.5h12.1v5h-3L526.9,458.1
			L526.9,458.1z M511.7,464c-0.5,0.5-1.1,1-1.6,1.5c2.1,0.3,4.1,0.7,6.1,1.1c1.4-0.7,2.6-1.6,3.5-2.7h-8V464z"/>
		<path class="st16" d="M545.8,470.5c-1.1,0.3-2.2,0.7-3.3,0.9v8.8c0,1.6-0.3,2.4-1.3,2.9s-2.5,0.6-4.8,0.6
			c-0.1-0.8-0.5-2.1-0.9-2.8c1.5,0,2.9,0,3.3,0c0.5,0,0.7-0.2,0.7-0.7v-7.9l-3.9,1.1l-0.8-3c1.3-0.3,3-0.7,4.7-1.2v-6.7h-4.3v-2.9
			h4.3V453h3v6.6h3.9v2.9h-3.9v5.9l2.9-0.8L545.8,470.5z M563.6,468.4c-1.3,4.1-3.5,7.2-6.2,9.7c2.4,1.4,5.2,2.4,8.4,3
			c-0.7,0.7-1.5,2-2,2.9c-3.5-0.8-6.5-2.2-9.1-3.9c-2.8,1.8-6.1,3.1-9.5,3.9c-0.3-0.9-1-2.2-1.5-2.9c3.1-0.6,6-1.6,8.5-3.1
			c-2.2-2-3.8-4.4-5.2-7.2l0.8-0.3h-1.7v-2.9h14.8l0.5-0.1L563.6,468.4z M552.3,458c0,3.1-0.9,6.8-5.3,9.1c-0.4-0.6-1.5-1.9-2-2.3
			c3.8-1.9,4.3-4.5,4.3-6.9v-3.6h11.1v7.5c0,0.9,0.1,1.3,0.6,1.3h2.3c0.5,0,1.3-0.1,1.8-0.2c0,0.8,0.1,1.9,0.2,2.6
			c-0.5,0.2-1.2,0.2-2,0.2h-2.5c-2.7,0-3.3-1.1-3.3-4v-4.6h-5.2L552.3,458L552.3,458z M550.1,470.6c1.1,2.2,2.7,4.1,4.7,5.7
			c1.9-1.5,3.5-3.4,4.6-5.7H550.1z"/>
		<path class="st16" d="M598.1,462.1c-0.8,5.2-2.1,9.4-4.1,13c1.8,2.7,4,4.8,6.8,6.1c-0.7,0.6-1.7,1.8-2.1,2.7
			c-2.7-1.4-4.8-3.4-6.6-5.9c-2,2.5-4.5,4.5-7.6,6.1c-0.3-0.7-1.2-2.1-1.8-2.7c3.3-1.5,5.8-3.6,7.7-6.3c-1.2-2.4-2.2-5.2-3-8.3
			c-0.6,1.3-1.4,2.5-2.2,3.5c-0.4-0.6-1.4-1.6-2.2-2.3c-0.2,9.7-0.4,13.2-1.2,14.3c-0.6,0.8-1.1,1.1-2.1,1.2
			c-0.8,0.1-2.2,0.1-3.6,0.1c-0.1-0.8-0.4-2.1-0.8-2.9c1.2,0.1,2.3,0.1,2.9,0.1c0.5,0,0.8-0.1,1-0.5c0.5-0.7,0.8-3.8,0.9-12.4h-3.8
			c0,5.5-0.7,11.2-5,15.9c-0.5-0.7-1.5-1.5-2.3-2.1c3.9-4.2,4.4-9.3,4.4-13.9v-6.7h-3.7v-2.9h14.8v2.9h-8.1v3.9h6.9c0,0,0,0.9,0,1.3
			v1c2.6-3.4,4.3-8.9,5.3-14.5l3.2,0.5c-0.4,1.9-0.8,3.8-1.3,5.7h10.1v2.9h-2.5V462.1z M576.6,458.3c-0.3-1.2-1-3.2-1.6-4.6l2.8-0.7
			c0.7,1.4,1.4,3.3,1.7,4.5L576.6,458.3z M589.4,462.3c0.7,3.5,1.6,6.7,2.9,9.5c1.3-2.8,2.2-6,2.7-9.8h-5.5L589.4,462.3z"/>
		<path class="st16" d="M611.6,477.2c-1.2,2.5-3.2,5.1-5,6.8c-0.5-0.5-1.8-1.4-2.5-1.9c1.8-1.4,3.5-3.6,4.5-5.7L611.6,477.2z
			 M620.6,475.9h-16.4v-2.7h3.1V460h-2.7v-2.7h2.7v-3.9h2.8v3.9h5.3v-3.9h2.9v3.9h2.4v2.7h-2.4v13.1h2.3L620.6,475.9L620.6,475.9z
			 M610.2,460v2.5h5.3V460H610.2z M610.2,467.8h5.3V465h-5.3V467.8z M610.2,473.1h5.3v-2.9h-5.3V473.1z M615.9,476.3
			c1.3,1.5,2.9,3.6,3.6,4.9l-2.5,1.5c-0.7-1.3-2.2-3.5-3.5-5.1L615.9,476.3z M634.1,480.2c0,1.7-0.4,2.6-1.4,3
			c-1,0.5-2.6,0.6-5.1,0.6c-0.1-0.8-0.5-2.2-0.9-3c1.6,0.1,3.3,0,3.7,0c0.5,0,0.7-0.2,0.7-0.7v-7.5h-6.2c-0.4,4-1.2,8.3-3.1,11.3
			c-0.5-0.6-1.8-1.5-2.5-1.8c2.7-4.4,2.9-10.7,2.9-15.5v-12.1h11.9L634.1,480.2L634.1,480.2z M631,469.9V465h-5.9v1.8
			c0,1,0,2.1-0.1,3.1H631z M625.1,457.5v4.7h5.9v-4.7H625.1z"/>
		<path class="st16" d="M643.6,466.1V484h-3.1v-29.6h12.4v11.7H643.6z M643.6,456.7v2.3h6.4v-2.3H643.6z M650,463.8v-2.5h-6.4v2.5
			H650z M668.3,480c0,1.8-0.4,2.8-1.6,3.3c-1.2,0.5-3,0.5-5.9,0.5c-0.1-0.8-0.6-2.2-1-3.1h-9.1v1.7H648v-14.1h12.6v12.3
			c1.7,0.1,3.3,0,3.8,0c0.6,0,0.8-0.2,0.8-0.8V466h-9.6v-11.8h12.7V480z M650.8,470.8v2.6h6.8v-2.6H650.8z M657.7,478.5v-2.8h-6.8
			v2.8H657.7z M658.6,456.7v2.3h6.6v-2.3H658.6z M665.2,463.8v-2.6h-6.6v2.6H665.2z"/>
	</g>
	<path class="st0" d="M665.7,264.4h-144c-17.6,0-32-14.3-32-32l0,0c0-17.6,14.3-32,32-32h144c17.6,0,32,14.3,32,32l0,0
		C697.8,250.1,683.5,264.4,665.7,264.4z"/>
	<g class="st15">
		<path class="st7" d="M539.5,225.1c-0.1,1.6-0.2,3.2-0.4,4.8h14.3c0,0,0,1-0.1,1.4c-0.6,9.3-1.3,13-2.6,14.4
			c-0.9,0.9-1.8,1.2-3.2,1.3c-1.2,0.1-3.4,0.1-5.7-0.1c0-0.9-0.5-2.2-1.1-3.1c2.4,0.2,4.7,0.2,5.6,0.2c0.7,0,1.2-0.1,1.6-0.4
			c0.9-0.8,1.5-3.9,2.1-10.8h-11.3c-1.1,5.8-3.5,11.2-9.8,14.6c-0.5-0.8-1.4-1.9-2.3-2.6c8.4-4.2,9.1-12.4,9.5-19.8h-8.8v-3h14.4
			c-0.4-1.3-1.3-3.3-2.1-4.7l3.1-1.1c0.9,1.5,1.9,3.5,2.4,4.9l-2.3,1h13.8v3.1L539.5,225.1L539.5,225.1z"/>
		<path class="st7" d="M591.5,239.4h-9.2c2.9,1.3,6.8,3.5,8.7,5.1l-2.4,2.2c-1.8-1.6-5.6-3.9-8.6-5.4l2.1-2H578v7.9h-3.1v-7.9h-13.3
			v-2.6h13.3v-2.6h3.1v2.6h13.6L591.5,239.4L591.5,239.4z M588,235.6c-2.6-1-6.1-2-10.3-2.9c-3.6,1.5-8.5,2.2-14.9,2.6
			c-0.2-0.9-0.7-1.9-1.1-2.6c4.3-0.2,7.8-0.5,10.7-1.1c-2.1-0.4-4.3-0.8-6.5-1.1c0.9-0.8,2-2,3.1-3.1h-7.1v-2.5h9.3
			c1-1.2,1.8-2.3,2.5-3.4l3,0.9c-0.6,0.8-1.2,1.7-2,2.5h7.5c0.4-0.7,0.6-1.4,0.9-2.2l3.1,0.6c-0.2,0.5-0.4,1-0.6,1.5h5.6v2.5h-6.9
			c-0.9,1.4-2,2.6-3.4,3.5c3.9,0.9,7.4,1.9,10.1,2.7L588,235.6z M572.5,240.8c-2,2.3-5.3,4.4-8.2,5.7c-0.6-0.6-1.9-1.6-2.6-2.1
			c2.9-1,6-2.7,7.7-4.5L572.5,240.8z M587.7,221.4h-22.4v2.3h-2.9v-5h12.4c-0.3-0.6-0.7-1.2-0.9-1.7l3.2-0.7c0.4,0.7,1,1.6,1.5,2.5
			h12.1v5h-3L587.7,221.4L587.7,221.4z M572.4,227.4c-0.5,0.5-1.1,1-1.6,1.5c2.1,0.3,4.1,0.7,6.1,1.1c1.4-0.7,2.6-1.6,3.5-2.7
			L572.4,227.4L572.4,227.4z"/>
		<path class="st7" d="M600.4,229.2v18.1h-3.1v-29.6h12.5v11.5H600.4z M600.4,220.1v2.3h6.5v-2.3H600.4z M606.9,226.9v-2.5h-6.5v2.5
			H606.9z M615.8,239.5v7.2H613v-7.2h-4.1c-0.3,2.3-1.3,5.7-4.4,7.7c-0.4-0.6-1.4-1.4-2-1.9c2.5-1.5,3.4-4,3.7-5.9h-3.8v-2.6h3.9
			v-3.2H603v-2.5h16.3v2.5h-3.5v3.2h4.2v2.6L615.8,239.5L615.8,239.5z M613,236.9v-3.2h-4v3.2H613z M625.1,243.5
			c0,1.7-0.3,2.6-1.4,3.2c-1.1,0.5-2.8,0.6-5.3,0.6c-0.1-0.8-0.5-2.3-1-3.1c1.7,0,3.4,0,4,0c0.5,0,0.7-0.2,0.7-0.7v-14.1h-9.7v-11.6
			h12.8L625.1,243.5L625.1,243.5z M615.4,220.1v2.3h6.7v-2.3H615.4z M622.1,227v-2.5h-6.7v2.5H622.1z"/>
		<path class="st7" d="M641.9,226c0,3.6-0.4,7.9-2.2,12.1c1.5,1.3,2.9,2.7,3.8,3.7l-1.9,2.4c-0.8-1-2-2.2-3.3-3.4
			c-1.4,2.3-3.3,4.5-6,6.4c-0.5-0.6-1.5-1.6-2.2-2.1c2.7-2,4.6-4.1,5.9-6.4c-1.6-1.5-3.4-3-5-4.2c0.7-2.1,1.4-5,2.1-8l-2.6,0.2
			l-0.3-2.8c1,0,2.2-0.1,3.5-0.2c0.4-2.5,0.8-5,1.1-7.2l2.9,0.2c-0.3,2.2-0.7,4.5-1.1,6.9l2.5-0.1v-2.4h2.8v2.2l1.5-0.1v2.6
			L641.9,226z M636,226.4c-0.6,2.6-1.1,5.1-1.8,7.2c1,0.8,2.1,1.6,3.1,2.5c1.4-3.4,1.7-7,1.8-9.9L636,226.4z M659,232
			c-0.2-0.7-0.5-1.4-0.9-2.3c-11.7,1-13.2,1.1-14.3,1.5c-0.2-0.6-0.7-2.2-1-2.9c0.7-0.2,1.3-1,2.2-2.2c0.8-1.1,3.4-5.5,5-9.8
			l3.3,0.9c-1.6,3.6-3.7,7.3-5.8,10.3l9.2-0.6c-0.9-1.6-2-3.2-3-4.5l2.5-1.2c2.3,2.9,4.6,6.8,5.6,9.4L659,232z M644.3,233.6h15.1
			v13.7h-3v-1.4h-9.3v1.4h-2.9v-13.7H644.3z M647.2,236.4v6.7h9.3v-6.7H647.2z"/>
	</g>
	<path class="st1" d="M665.7,750.4h-144c-17.6,0-32-14.3-32-32l0,0c0-17.6,14.3-32,32-32h144c17.6,0,32,14.3,32,32l0,0
		C697.7,736.1,683.4,750.4,665.7,750.4z"/>
	<g class="st15">
		<path class="st7" d="M531.3,724.7c-0.5,2.9-1.4,6.1-2.2,8c-0.6-0.3-1.9-0.7-2.7-0.9c0.9-2,1.7-5,2.2-7.7L531.3,724.7z
			 M538.1,722.7c-0.1-0.5-0.2-1.1-0.4-1.8c-8.2,1.3-9.4,1.6-10.2,2c-0.2-0.6-0.6-2.1-1-2.9c0.8-0.2,1.6-0.9,2.8-2.1
			c0.5-0.5,1.7-1.8,3-3.5c-3.6,0.4-4.5,0.6-5,0.9c-0.2-0.6-0.6-2-1-2.8c0.7-0.1,1.3-0.8,2.1-1.8s3.4-4.7,5-8.3l2.9,1.2
			c-1.6,2.9-3.6,6-5.6,8.4l3.6-0.3c0.9-1.3,1.9-2.7,2.7-4.1l2.7,1.7c-2.3,3.5-5.1,7-7.8,9.8l5.2-0.7c-0.3-1-0.7-2-1-2.9l2.5-0.6
			c0.9,2.3,1.9,5.2,2.2,7L538.1,722.7z M535.1,723.9c0.5,2.4,1,5.4,1.1,7.4l-2.6,0.7c-0.1-2.1-0.5-5.1-0.9-7.5L535.1,723.9z
			 M539,723.1c0.8,2,1.8,4.5,2.2,6.3l-2.4,0.9c-0.4-1.7-1.2-4.3-2-6.4L539,723.1z M556.3,708.5c0,0,0,1.1,0,1.6
			c-0.4,14.7-0.8,19.8-2.1,21.4c-0.8,1.1-1.7,1.4-2.9,1.6c-1.2,0.2-3.2,0.1-5.1,0c-0.1-0.8-0.5-2.2-1-3.1c2.1,0.2,3.9,0.2,4.8,0.2
			c0.6,0,1-0.1,1.3-0.5c0.9-1,1.4-5.9,1.8-18.2h-8.9c-0.8,1.8-1.7,3.4-2.6,4.7c-0.6-0.4-2-1.3-2.7-1.8c2.4-2.9,4.1-7.4,5.2-11.9
			l3.1,0.6c-0.5,1.9-1,3.7-1.7,5.5L556.3,708.5L556.3,708.5z M548.3,724.5c-1-2-3.5-5.2-5.8-7.3l2.2-1.6c2.3,2.1,4.8,5.1,5.9,7.1
			L548.3,724.5z"/>
		<path class="st7" d="M566.3,717.2c-1.1-1-3.5-2.4-5.4-3.3l1.8-2.3c1.9,0.7,4.3,2,5.5,3L566.3,717.2z M561.6,731.3
			c1.3-2.6,3.2-6.8,4.5-10.7l2.6,1.7c-1.2,3.5-2.8,7.5-4.2,10.6L561.6,731.3z M581.6,713.1v2h9.3v15.4c0,1.3-0.3,2-1.1,2.4
			c-0.9,0.4-2.3,0.4-4.2,0.4c-0.1-0.7-0.4-1.7-0.8-2.3c1.2,0,2.5,0,2.8,0c0.4,0,0.5-0.1,0.5-0.5v-2.8c-0.4,0.3-0.9,0.7-1.1,1.1
			c-0.8-0.9-1.4-2.1-1.9-3.6c-0.5,1.4-1.2,2.7-2.4,3.7c-0.2-0.3-0.7-0.8-1.1-1.1v5.3h-2.7v-5.2c-0.4,0.3-0.8,0.7-1,1
			c-0.8-0.8-1.3-2-1.8-3.5c-0.4,1.5-1.2,2.8-2.3,3.8c-0.2-0.4-0.8-0.9-1.2-1.2v5.3H570v-18.2h9v-2h-4.8V708h-4.8v-1.9l-1.8,2.4
			c-1-1.1-3.4-2.6-5.2-3.5l1.8-2.2c1.8,0.8,4,2.1,5.2,3.2v-0.7h4.8v-2.8h3v2.8h6.6v-2.8h3.1v2.8h5.1v2.8h-5.1v5.1L581.6,713.1
			L581.6,713.1z M577,719.4c0.1,3.4,0.7,6.2,1.9,7.7v-9.3h-6.3v10c1.4-1.3,2.1-3.4,2.3-5.4h0.6c0-0.4-0.1-0.7-0.1-1.1h-1.8v-2
			L577,719.4L577,719.4z M577.1,710.5h6.6V708h-6.6V710.5z M581.6,717.8v9.7c1.4-1.2,2.1-3.2,2.3-5h0.6c0-0.3-0.1-0.7-0.1-1.1h-1.7
			v-2h3.2c0.1,3.5,0.8,6.3,2.2,7.8v-9.4H581.6z"/>
		<path class="st7" d="M606.9,727.2c2.2-0.4,4.5-0.8,6.7-1.2l0.2,2.7c-5.9,1.1-12.3,2.3-16.7,3.2l-0.7-3c2-0.3,4.7-0.7,7.5-1.2v-5.2
			h-6.4v-2.7h6.4v-3.3h3v3.3h6.4v2.7h-6.4V727.2z M596.7,704.5H614v2.7h-9c-1,2-2.2,3.9-3.4,5.6l7.4-0.6c-0.7-1.1-1.5-2.2-2.2-3.1
			l2.3-1.3c1.8,2.2,3.9,5.2,4.9,7.2l-2.4,1.5c-0.3-0.5-0.6-1.2-1-1.9c-9.9,0.8-11.2,1-12.1,1.4c-0.2-0.6-0.6-2.1-1-2.9
			c0.5-0.1,1-0.7,1.6-1.5c0.4-0.6,1.5-2.4,2.5-4.5h-4.8L596.7,704.5L596.7,704.5z M618.5,725.6h-2.9v-20.2h2.9V725.6z M625.1,702.9
			V729c0,1.8-0.4,2.7-1.5,3.2s-3,0.6-5.5,0.6c-0.1-0.8-0.6-2.2-1.1-3c1.9,0.1,3.7,0.1,4.3,0c0.6,0,0.7-0.2,0.7-0.7V703L625.1,702.9
			L625.1,702.9z"/>
		<path class="st7" d="M637.7,726.6c-1.2,2.5-3.2,5.1-5,6.8c-0.5-0.5-1.8-1.4-2.5-1.9c1.8-1.4,3.5-3.6,4.5-5.7L637.7,726.6z
			 M646.7,725.3h-16.4v-2.7h3.1v-13.1h-2.7v-2.7h2.7v-3.9h2.8v3.9h5.3v-3.9h2.9v3.9h2.4v2.7h-2.4v13.1h2.3L646.7,725.3L646.7,725.3z
			 M636.3,709.4v2.5h5.3v-2.5H636.3z M636.3,717.2h5.3v-2.8h-5.3V717.2z M636.3,722.5h5.3v-2.9h-5.3V722.5z M642,725.7
			c1.3,1.5,2.9,3.6,3.6,4.9l-2.5,1.5c-0.7-1.3-2.2-3.5-3.5-5.1L642,725.7z M660.2,729.7c0,1.7-0.4,2.6-1.4,3c-1,0.5-2.6,0.6-5.1,0.6
			c-0.1-0.8-0.5-2.2-0.9-3c1.6,0.1,3.3,0,3.7,0c0.5,0,0.7-0.2,0.7-0.7v-7.5H651c-0.4,4-1.2,8.3-3.1,11.3c-0.5-0.6-1.8-1.5-2.5-1.8
			c2.7-4.4,2.9-10.7,2.9-15.5V704h11.9L660.2,729.7L660.2,729.7z M657.1,719.3v-4.9h-5.9v1.8c0,1,0,2.1-0.1,3.1L657.1,719.3
			L657.1,719.3z M651.2,706.9v4.7h5.9v-4.7H651.2z"/>
	</g>
	<line class="st2" x1="440.2" y1="229.5" x2="440.2" y2="890.2"/>
	<line class="st3" x1="440.2" y1="55.7" x2="440.2" y2="229.5"/>
	<line class="st4" x1="440.2" y1="247.4" x2="440.2" y2="715.2"/>
	<g>
		<g>
			<line class="st5" x1="440.2" y1="55.7" x2="440.6" y2="55.7"/>
			<line class="st6" x1="447.1" y1="55.7" x2="495.7" y2="55.7"/>
			<line class="st5" x1="498.9" y1="55.7" x2="499.3" y2="55.7"/>
		</g>
	</g>
	<g>
		<circle class="st7" cx="440.2" cy="55.7" r="4.4"/>
		<path class="st0" d="M443.4,55.7c0,1.8-1.4,3.2-3.2,3.2c-1.8,0-3.2-1.4-3.2-3.2s1.4-3.2,3.2-3.2C441.9,52.5,443.4,53.9,443.4,55.7
			 M445.7,55.7c0-3.1-2.5-5.6-5.6-5.6s-5.6,2.5-5.6,5.6s2.5,5.6,5.6,5.6C443.3,61.2,445.7,58.7,445.7,55.7L445.7,55.7z"/>
	</g>
	<g>
		<g>
			<line class="st5" x1="440.2" y1="229.5" x2="440.6" y2="229.5"/>
			<line class="st6" x1="447.1" y1="229.5" x2="495.7" y2="229.5"/>
			<line class="st5" x1="498.9" y1="229.5" x2="499.3" y2="229.5"/>
		</g>
	</g>
	<g>
		<g>
			<line class="st6" x1="378.3" y1="247.4" x2="378.7" y2="247.4"/>
			<line class="st6" x1="385.3" y1="247.4" x2="433.8" y2="247.4"/>
			<line class="st6" x1="437.1" y1="247.4" x2="437.5" y2="247.4"/>
		</g>
	</g>
	<g>
		<circle class="st7" cx="440.2" cy="229.5" r="4.4"/>
		<path class="st0" d="M443.4,229.5c0,1.8-1.4,3.2-3.2,3.2c-1.8,0-3.2-1.4-3.2-3.2s1.4-3.2,3.2-3.2
			C441.9,226.3,443.4,227.8,443.4,229.5 M445.7,229.5c0-3.1-2.5-5.6-5.6-5.6s-5.6,2.5-5.6,5.6s2.5,5.6,5.6,5.6
			C443.3,235.2,445.7,232.7,445.7,229.5L445.7,229.5z"/>
	</g>
	<g>
		<circle class="st7" cx="440.2" cy="247.4" r="4.4"/>
		<path class="st0" d="M443.4,247.4c0,1.8-1.4,3.2-3.2,3.2c-1.8,0-3.2-1.4-3.2-3.2s1.4-3.2,3.2-3.2
			C441.9,244.2,443.4,245.7,443.4,247.4 M445.7,247.4c0-3.1-2.5-5.6-5.6-5.6s-5.6,2.5-5.6,5.6s2.5,5.6,5.6,5.6
			C443.3,253,445.7,250.6,445.7,247.4L445.7,247.4z"/>
	</g>
	<g>
		<g>
			<line class="st8" x1="440.2" y1="715.2" x2="440.6" y2="715.2"/>
			<line class="st9" x1="447.1" y1="715.2" x2="495.7" y2="715.2"/>
			<line class="st8" x1="498.9" y1="715.2" x2="499.3" y2="715.2"/>
		</g>
	</g>
	<g>
		<circle class="st7" cx="440.2" cy="715.2" r="4.4"/>
		<path class="st1" d="M443.4,715.2c0,1.8-1.4,3.2-3.2,3.2c-1.8,0-3.2-1.4-3.2-3.2s1.4-3.2,3.2-3.2
			C441.9,711.9,443.4,713.4,443.4,715.2 M445.7,715.2c0-3.1-2.5-5.6-5.6-5.6s-5.6,2.5-5.6,5.6s2.5,5.6,5.6,5.6
			C443.3,720.8,445.7,718.3,445.7,715.2L445.7,715.2z"/>
	</g>
	<g>
		<g>
			<line class="st10" x1="378.3" y1="735" x2="378.7" y2="735"/>
			<line class="st11" x1="385.3" y1="735" x2="433.8" y2="735"/>
			<line class="st10" x1="437.1" y1="735" x2="437.5" y2="735"/>
		</g>
	</g>
	<g>
		<circle class="st7" cx="440.2" cy="735" r="4.4"/>
		<path class="st12" d="M443.4,735c0,1.8-1.4,3.2-3.2,3.2c-1.8,0-3.2-1.4-3.2-3.2s1.4-3.2,3.2-3.2
			C441.9,731.8,443.4,733.2,443.4,735 M445.7,735c0-3.1-2.5-5.6-5.6-5.6s-5.6,2.5-5.6,5.6s2.5,5.6,5.6,5.6
			C443.3,740.6,445.7,738.1,445.7,735L445.7,735z"/>
	</g>
	<circle class="st0" cx="435.7" cy="990.5" r="136.2"/>
	<g>
		<g>
			<g class="st15">
				<path class="st7" d="M357.1,957.8c-1.2,2.9-3,6.2-4.4,8.4c-0.6-0.6-2-1.4-2.7-1.9c1.4-2,3.1-4.9,4-7.5L357.1,957.8z
					 M363.6,955.7h-11.9v-27.1h11.9V955.7z M360.3,932H355v4.6h5.3V932z M360.3,939.7H355v4.8h5.3V939.7z M360.3,947.6H355v4.8h5.3
					V947.6z M361.2,956.8c1.2,1.8,2.7,4.2,3.4,5.6l-2.7,1.7c-0.7-1.6-2.1-4.1-3.2-5.9L361.2,956.8z M381.5,960.5
					c3.2,1.1,6.6,2.6,8.7,3.6l-1.7,2.9c-2.3-1.2-6-2.9-9.4-4.2l1.3-2.3h-7.3l2.4,2.2c-3.4,1.5-7.6,3.1-10.7,4.3
					c-0.3-0.8-1-2-1.5-2.8c2.6-0.9,6.4-2.4,8.8-3.7H367v-12.9h21v12.9H381.5z M375.1,931.5h-9.8v-2.7h9.8v-2.2h4v2.2h10.3v2.7h-10.3
					v2h9.2v2.5h-21.5v-2.5h8.3V931.5z M365.6,937.6h23.5v8.5h-23.5V937.6z M368.8,943.9h3.7v-4.1h-3.7V943.9z M370.6,951.5h13.7
					v-1.6h-13.7V951.5z M370.6,954.8h13.7v-1.6h-13.7V954.8z M370.6,958.2h13.7v-1.7h-13.7V958.2z M379.3,943.9v-4.1h-4.2v4.1H379.3
					z M385.7,939.8H382v4.1h3.8L385.7,939.8L385.7,939.8z"/>
				<path class="st7" d="M432.1,928.3v38.5h-4.4v-2.4h-27.9v2.4h-4.2v-38.5H432.1z M427.7,960.6v-28.2h-27.9v28.2H427.7z
					 M422.3,938.4v16h-17.2v-16H422.3z M418.3,942H409v8.9h9.3V942z"/>
				<path class="st7" d="M464.8,933.2c0,0.3,0,0.7-0.1,1c2.4,2.4,7,3.9,12.8,4.2c-0.8,0.8-1.8,2.3-2.2,3.3c-5-0.7-9-2.3-11.7-4.8
					c-1.6,2-5,3.9-12.6,4.9c-0.4-0.9-1.3-2.3-2.1-3h-11.1v-3.2h12.7v2.9c9.5-1.2,10.5-3.7,10.5-5.6v-0.6h-3.6c-1,1.6-2.1,3-3.2,4.1
					c-0.7-0.6-2.1-1.6-3.1-2.1c2.3-2,4.1-5,5-8l3.6,0.8c-0.3,0.7-0.5,1.4-0.8,2.2h13.6l0.6-0.2l2.8,0.9c-1.1,2.3-2.6,4.9-3.8,6.5
					l-3.2-1.1c0.6-0.8,1.2-1.9,1.8-3h-6.1v0.8H464.8z M464.5,959.7c4.5,1.5,9.4,3.3,12.3,4.8l-3.7,2.2c-2.7-1.4-7.3-3.4-11.8-4.9
					l2.5-2.1h-13.1l3.6,1.7c-3.5,2.1-9,4.2-13.4,5.5c-0.7-0.8-2.1-2.3-3-3.1c4.5-0.9,9.6-2.4,12.6-4.1h-7v-17.6H472v17.6
					L464.5,959.7L464.5,959.7z M449.6,932.1h-10.7V929h10.7V932.1z M447.6,947.2h20.5v-2.5h-20.5V947.2z M447.6,952.1h20.5v-2.4
					h-20.5V952.1z M447.6,957.1h20.5v-2.5h-20.5V957.1z"/>
				<path class="st7" d="M521.3,962.2v3.3h-32.1v-3.3H503v-3.6h-9.7v-3.2h9.7v-3.2h-8.2c-1.3,2.1-2.8,4.1-4.3,5.6
					c-0.3-0.7-1.3-2.8-2-3.6c-0.4,4.5-1.5,9.5-4.5,13c-0.6-0.7-2.3-2.2-3.1-2.6c3.5-4.2,3.9-10.1,3.9-14.5v-8.5h5.6
					c-0.6-0.6-1.3-1.4-1.8-1.8c3.3-0.6,7.1-1.4,10.7-2.3c-3.1-0.9-6.3-1.7-9.2-2.3l2.2-1.7h-7.2v-3.2h15.6c-0.6-1-1.3-2-2-2.8
					l2.8-1.4c1.1,1.2,2.4,2.9,3.1,4.2h14.8v3.2h-6.5l1.9,1.2c-1.8,0.9-3.9,1.8-6.2,2.6c2.9,0.8,5.6,1.7,7.8,2.4l-2,1.8h6.3v3.3
					h-32.1v5.2c0,1.3,0,2.6-0.2,4c2.3-2.2,4.4-5.3,5.6-8.7l3.5,1c-0.3,0.8-0.7,1.6-1,2.4h6.5v-3.2h4v3.2h11.3v3.2H507v3.2h10.2v3.2
					H507v3.6h14.3V962.2z M512.4,941.6c-2.3-0.8-5.3-1.8-8.4-2.7c-3.6,1.1-7.3,2-10.7,2.7H512.4z M494.2,933.6
					c3.2,0.7,6.6,1.6,10,2.5c2.6-0.8,4.9-1.6,6.7-2.5H494.2z"/>
				<path class="st7" d="M400.6,1051.7c-1.6-1.5-4.9-3.5-7.5-4.7l2-3c2.6,1,5.9,2.8,7.6,4.3L400.6,1051.7z M394.1,1068.5
					c2.1-3.2,5.2-8.7,7.5-13.6l2.7,2.7c-2.1,4.5-4.8,9.5-7.1,13.6L394.1,1068.5z M402.7,1040.1c-1.5-1.6-4.8-3.7-7.4-5l2.1-3
					c2.6,1.2,5.9,3.1,7.5,4.7L402.7,1040.1z M433.6,1055h-3.3v6.6h-10.1v5.4c0,2.1-0.4,3.2-1.8,3.8c-1.4,0.6-3.7,0.6-7,0.6
					c-0.2-1-0.7-2.6-1.2-3.7c2.3,0.1,4.6,0.1,5.3,0.1c0.7,0,0.9-0.2,0.9-0.8v-5.4h-9.7v-3.2h9.7v-3.4h-12v-3.5h12v-3.2H407v-3.2h2.3
					c-0.3-1.5-1.4-3.7-2.4-5.3l2.8-1.2c1.1,1.6,2.2,3.8,2.7,5.2l-2.8,1.3h20.7v6.5h3.3V1055z M430.5,1034.6
					c-6.4,1.8-15.9,2.9-24,3.5c-0.1-0.9-0.6-2.3-1-3.1c7.9-0.6,17-1.7,22.2-3.2L430.5,1034.6z M417.5,1044.6
					c-0.2-1.6-1.2-4.1-2.1-5.9l3-0.9c1,1.8,2,4.2,2.3,5.8L417.5,1044.6z M420.1,1051.6h6.6v-3.2h-6.6V1051.6z M426.8,1055h-6.6v3.4
					h6.6V1055z M423.5,1043.4c1.2-1.7,2.6-4.6,3.4-6.6l3.8,1.1c-1.3,2.4-2.7,4.9-3.8,6.6L423.5,1043.4z"/>
				<path class="st7" d="M450.4,1032.8c-1.2,3.3-2.8,6.6-4.4,9.7v29.2h-3.8v-23.1c-1,1.5-2.1,2.8-3.2,4c-0.3-1-1.4-3.1-2.1-4.2
					c3.9-4.1,7.6-10.4,9.8-16.8L450.4,1032.8z M477.3,1067.2v3.5h-29.1v-3.5h4v-24.3h7.5c0.2-1,0.5-2.3,0.7-3.6h-10.3v-3.5h10.8
					c0.2-1.5,0.4-2.9,0.5-4.2l4.3,0.2c-0.2,1.3-0.5,2.7-0.7,4h11.2v3.5h-11.9c-0.3,1.3-0.6,2.5-0.9,3.6h10.4v24.3H477.3z
					 M455.9,1046v3.1H470v-3.1H455.9z M470,1052h-14.1v3.1H470V1052z M455.9,1058v3.2H470v-3.2H455.9z M455.9,1067.2H470v-3.1h-14.1
					V1067.2z"/>
			</g>
			<polygon class="st7" points="448.9,996.4 436,1009.3 423.2,996.4 			"/>
		</g>
	</g>
	<path class="st13" d="M325,319.5H186.3c-37.9,0-68.9-30.8-68.9-68.9l0,0c0-37.9,30.8-68.9,68.9-68.9H325
		c37.9,0,68.9,30.8,68.9,68.9l0,0C393.9,288.7,363.1,319.5,325,319.5z"/>
	<path class="st14" d="M325,799.8H186.3c-37.9,0-68.9-30.8-68.9-68.9l0,0c0-37.9,30.8-68.9,68.9-68.9H325
		c37.9,0,68.9,30.8,68.9,68.9l0,0C393.9,769,363.1,799.8,325,799.8z"/>
	<g class="st15">
		<path class="st16" d="M173.5,710c-0.5,2.9-1.4,6.1-2.2,8c-0.6-0.3-1.9-0.7-2.7-0.9c0.9-2,1.7-5,2.2-7.7L173.5,710z M180.3,708
			c-0.1-0.5-0.2-1.1-0.4-1.8c-8.2,1.3-9.4,1.6-10.2,2c-0.2-0.6-0.6-2.1-1-2.9c0.8-0.2,1.6-0.9,2.8-2.1c0.5-0.5,1.7-1.8,3-3.5
			c-3.6,0.4-4.5,0.6-5,0.9c-0.2-0.6-0.6-2-1-2.8c0.7-0.1,1.3-0.8,2.1-1.8c0.8-1,3.4-4.7,5-8.3l2.9,1.2c-1.6,2.9-3.6,6-5.6,8.4
			l3.6-0.3c0.9-1.3,1.9-2.7,2.7-4.1l2.7,1.7c-2.3,3.5-5.1,7-7.8,9.8l5.2-0.7c-0.3-1-0.7-2-1-2.9l2.5-0.6c0.9,2.3,1.9,5.2,2.2,7
			L180.3,708z M177.3,709.2c0.5,2.4,1,5.4,1.1,7.4l-2.6,0.7c-0.1-2.1-0.5-5.1-0.9-7.5L177.3,709.2z M181.2,708.4
			c0.8,2,1.8,4.5,2.2,6.3l-2.4,0.9c-0.4-1.7-1.2-4.3-2-6.4L181.2,708.4z M198.5,693.8c0,0,0,1.1,0,1.6c-0.4,14.7-0.8,19.8-2.1,21.4
			c-0.8,1.1-1.7,1.4-2.9,1.6c-1.2,0.2-3.2,0.1-5.1,0c-0.1-0.8-0.5-2.2-1-3.1c2.1,0.2,3.9,0.2,4.8,0.2c0.6,0,1-0.1,1.3-0.5
			c0.9-1,1.4-5.9,1.8-18.2h-8.9c-0.8,1.8-1.7,3.4-2.6,4.7c-0.6-0.4-2-1.3-2.7-1.8c2.4-2.9,4.1-7.4,5.2-11.9l3.1,0.6
			c-0.5,1.9-1,3.7-1.7,5.5H198.5z M190.5,709.8c-1-2-3.5-5.2-5.8-7.3l2.2-1.6c2.3,2.1,4.8,5.1,5.9,7.1L190.5,709.8z"/>
		<path class="st16" d="M207.5,702.5c-1.1-1-3.5-2.4-5.4-3.3l1.8-2.3c1.9,0.7,4.3,2,5.5,3L207.5,702.5z M202.8,716.6
			c1.3-2.6,3.2-6.8,4.5-10.7l2.6,1.7c-1.2,3.5-2.8,7.5-4.2,10.6L202.8,716.6z M222.9,698.4v2h9.3v15.4c0,1.3-0.3,2-1.1,2.4
			c-0.9,0.4-2.3,0.4-4.2,0.4c-0.1-0.7-0.4-1.7-0.8-2.3c1.2,0,2.5,0,2.8,0c0.4,0,0.5-0.1,0.5-0.5V713c-0.4,0.3-0.9,0.7-1.1,1.1
			c-0.8-0.9-1.4-2.1-1.9-3.6c-0.5,1.4-1.2,2.7-2.4,3.7c-0.2-0.3-0.7-0.8-1.1-1.1v5.3h-2.7v-5.2c-0.4,0.3-0.8,0.7-1,1
			c-0.8-0.8-1.3-2-1.8-3.5c-0.4,1.5-1.2,2.8-2.3,3.8c-0.2-0.4-0.8-0.9-1.2-1.2v5.3h-2.7v-18.2h9v-2h-4.8v-5.1h-4.8v-1.9l-1.8,2.4
			c-1-1.1-3.4-2.6-5.2-3.5l1.8-2.2c1.8,0.8,4,2.1,5.2,3.2v-0.7h4.8v-2.8h3v2.8h6.6v-2.8h3.1v2.8h5.1v2.8h-5.1v5.1H222.9z
			 M218.2,704.7c0.1,3.4,0.7,6.2,1.9,7.7v-9.3h-6.3v10c1.4-1.3,2.1-3.4,2.3-5.4h0.6c0-0.4-0.1-0.7-0.1-1.1h-1.8v-2H218.2z
			 M218.3,695.8h6.6v-2.4h-6.6V695.8z M222.9,703.1v9.7c1.4-1.2,2.1-3.2,2.3-5h0.6c0-0.3-0.1-0.7-0.1-1.1h-1.7v-2h3.2
			c0.1,3.5,0.8,6.3,2.2,7.8v-9.4H222.9z"/>
		<path class="st16" d="M247.1,712.5c2.2-0.4,4.5-0.8,6.7-1.2l0.2,2.7c-5.9,1.1-12.3,2.3-16.7,3.2l-0.7-3c2-0.3,4.7-0.7,7.5-1.2
			v-5.2h-6.4v-2.7h6.4v-3.3h3v3.3h6.4v2.7h-6.4V712.5z M236.9,689.8h17.3v2.7h-9c-1,2-2.2,3.9-3.4,5.6l7.4-0.6
			c-0.7-1.1-1.5-2.2-2.2-3.1l2.3-1.3c1.8,2.2,3.9,5.2,4.9,7.2l-2.4,1.5c-0.3-0.5-0.6-1.2-1-1.9c-9.9,0.8-11.2,1-12.1,1.4
			c-0.2-0.6-0.6-2.1-1-2.9c0.5-0.1,1-0.7,1.6-1.5c0.4-0.6,1.5-2.4,2.5-4.5h-4.8V689.8z M258.7,710.9h-2.9v-20.2h2.9V710.9z
			 M265.4,688.2v26.1c0,1.8-0.4,2.7-1.5,3.2c-1.1,0.5-3,0.6-5.5,0.6c-0.1-0.8-0.6-2.2-1.1-3c1.9,0.1,3.7,0.1,4.3,0
			c0.6,0,0.7-0.2,0.7-0.7v-26.1H265.4z"/>
		<path class="st16" d="M277,711.9c-1.2,2.5-3.2,5.1-5,6.8c-0.5-0.5-1.8-1.4-2.5-1.9c1.8-1.4,3.5-3.6,4.5-5.7L277,711.9z M286,710.6
			h-16.4v-2.7h3.1v-13.1H270V692h2.7v-3.9h2.8v3.9h5.3v-3.9h2.9v3.9h2.4v2.7h-2.4v13.1h2.3V710.6z M275.6,694.7v2.5h5.3v-2.5H275.6z
			 M275.6,702.5h5.3v-2.8h-5.3V702.5z M275.6,707.9h5.3V705h-5.3V707.9z M281.3,711c1.3,1.5,2.9,3.6,3.6,4.9l-2.5,1.5
			c-0.7-1.3-2.2-3.5-3.5-5.1L281.3,711z M299.4,715c0,1.7-0.4,2.6-1.4,3c-1,0.5-2.6,0.6-5.1,0.6c-0.1-0.8-0.5-2.2-0.9-3
			c1.6,0.1,3.3,0,3.7,0c0.5,0,0.7-0.2,0.7-0.7v-7.5h-6.2c-0.4,4-1.2,8.3-3.1,11.3c-0.5-0.6-1.8-1.5-2.5-1.8
			c2.7-4.4,2.9-10.7,2.9-15.5v-12.1h11.9V715z M296.4,704.6v-4.9h-5.9v1.8c0,1,0,2.1-0.1,3.1H296.4z M290.5,692.2v4.7h5.9v-4.7
			H290.5z"/>
		<path class="st16" d="M306.7,707.9c2.6-1,4.1-2.5,4.3-4.5c-0.1,0-0.3,0-0.5,0c-1.5,0-2.8-0.9-2.8-2.7c0-1.7,1.3-2.7,2.9-2.7
			c2.1,0,3.2,1.7,3.2,4.2c0,3.7-2.4,6.6-6.2,7.9L306.7,707.9z"/>
		<path class="st16" d="M178,735.3h3.1v30.4H178v-9c-5.8,2-6.8,2.6-7.5,3.1c-0.2-0.8-0.8-2.2-1.2-2.9c0.5-0.3,1.2-0.9,1.2-2.3v-16.3
			h3.1v16.7l4.5-1.4V735.3z M197.1,744.1c-0.9,5.2-2.3,9.4-4.3,13c1.9,2.6,4.2,4.6,6.9,6c-0.7,0.5-1.7,1.7-2.2,2.5
			c-2.5-1.4-4.7-3.4-6.5-5.8c-1.9,2.4-4.2,4.4-7.2,6.1c-0.3-0.7-1.4-2-2.1-2.6c3.2-1.5,5.6-3.6,7.5-6.2c-1.5-2.5-2.7-5.4-3.7-8.5
			c-0.6,1.3-1.4,2.4-2.2,3.4c-0.4-0.6-1.5-2-2.2-2.7c2.9-3.3,4.5-8.7,5.5-14.4l3.2,0.5c-0.3,2-0.8,3.9-1.3,5.8h10.9v3H197.1z
			 M187.3,744.8c0.9,3.4,2.1,6.6,3.7,9.4c1.4-2.8,2.4-6.2,3.1-10.1h-6.5L187.3,744.8z"/>
		<path class="st16" d="M232.3,739.6c-0.8,7.2-2.6,12.9-5.2,17.2c1.8,2.5,3.9,4.5,6.5,5.9c-0.7,0.6-1.7,1.8-2.2,2.6
			c-2.5-1.4-4.6-3.3-6.3-5.7c-1.8,2.3-4,4.1-6.4,5.6c-0.4-0.7-1.3-1.8-2-2.4v2.8h-3v-5.8c-4.1,0.7-8.2,1.3-11.3,1.9l-0.6-3.1
			c0.9-0.1,2-0.3,3.2-0.4v-18.5h-2.5v-2.9h16.5v2.4h10.7l0.5-0.1L232.3,739.6z M208,739.7v3.9h5.8v-3.9H208z M208,750.5h5.8v-4.1
			H208V750.5z M213.8,756.9v-3.6H208v4.4L213.8,756.9z M216.8,762.7c2.5-1.3,4.7-3.3,6.5-5.9c-2.2-3.9-3.7-8.6-4.8-13.8l3-0.6
			c0.8,4.2,2,8,3.6,11.4c1.7-3.2,2.9-7.1,3.6-11.5h-10.7v-2.6h-1.4V762.7z"/>
		<path class="st12" d="M241.6,739.5c-1,1.7-2.3,3.1-3.5,4.3c-0.4-0.5-1.5-1.5-2.1-2.1c2-1.8,3.9-4.5,5-7.2l2.8,0.8
			c-0.2,0.6-0.5,1.1-0.8,1.7h8v2.5h-5.7c1,0.8,2,1.8,2.5,2.5l-2,1.8c-0.6-0.9-2-2.3-3.1-3.2l1.2-1H241.6z M251.9,741.5
			c0.5,0.8,1,1.8,1.4,2.6h12.2v5.7h-3.2v-3.2h-21.6v3.2h-3V744h12.4c-0.3-0.7-0.6-1.4-1-2L251.9,741.5z M244.7,757.3h18.4v8.4H260
			v-1h-15.3v1h-3.2v-17.4h19.8v7h-16.6V757.3z M244.7,750.6v2.4h13.6v-2.4H244.7z M244.7,759.6v2.6H260v-2.6H244.7z M266.6,737v2.5
			H260c1.1,0.9,2.4,2,3.1,2.8L261,744c-0.7-0.9-2.4-2.4-3.6-3.4l1.4-1.2h-3.5c-0.7,1-1.6,2-2.4,2.7c-0.5-0.5-1.7-1.4-2.4-1.9
			c1.8-1.4,3.3-3.5,4.2-5.8l2.9,0.7c-0.2,0.6-0.5,1.2-0.8,1.8H266.6z"/>
		<path class="st12" d="M280.8,758.8c-3.7,1.3-7.6,2.6-10.6,3.6l-0.7-3.2c1.2-0.3,2.7-0.7,4.3-1.2v-8.6h-3.6v-2.9h3.6v-6.7h-4v-2.9
			h10.7v2.9h-3.7v6.7h3.2v2.9h-3.2v7.6c1.1-0.4,2.4-0.7,3.5-1.1L280.8,758.8z M300.7,761.7v2.9h-21.5v-2.9h9.8v-4h-7.3v-2.8h7.3
			v-3.5h-7v-15.2h17.2v15.2h-7v3.5h7.5v2.8h-7.5v4H300.7z M284.8,742.6h4.4v-3.6h-4.4V742.6z M284.8,748.8h4.4v-3.7h-4.4V748.8z
			 M296.2,738.9h-4.3v3.6h4.3V738.9z M296.2,745.1h-4.3v3.7h4.3V745.1z"/>
		<path class="st12" d="M325.1,760.6c3.2,1,6.4,2.2,8.5,3l-2.3,1.9c-2.2-1-6-2.5-9.7-3.7l1.3-1.2h-8.9l2.4,1.1
			c-2.7,1.6-7,3.1-10.3,4c-0.5-0.6-1.6-1.8-2.3-2.3c3.3-0.6,7.1-1.6,9.5-2.8H308v-10.3c-0.8,0.2-1.8,0.4-2.8,0.6
			c-0.3-0.7-1-1.9-1.5-2.5c4.1-0.6,6.5-1.6,7.9-2.8h-5.6c0.4-1.6,0.7-3.8,0.9-5.7h6.5v-1.7h-7.9v-2h7.9v-1.7h2.8v1.7h4.6v-1.7h3v1.7
			h7.3v5.6H324v1.8h9.4c0,0,0,0.6-0.1,0.9c-0.2,1.9-0.4,3-0.9,3.5c-0.5,0.4-1.1,0.6-1.8,0.7c-0.2,0-0.4,0-0.7,0v11.8H325.1z
			 M309.6,742c-0.1,0.6-0.2,1.2-0.3,1.8h3.9c0.2-0.6,0.3-1.1,0.4-1.8H309.6z M326.8,749.9h-15.7v1.7h15.7V749.9z M326.8,753.4h-15.7
			v1.8h15.7V753.4z M311.1,758.8h15.7V757h-15.7V758.8z M315.5,745.7c-0.5,0.8-1.1,1.5-2,2.2h7.5v-2.2H315.5z M321,742h-4.6
			c0,0.6-0.1,1.2-0.2,1.8h4.8V742z M316.4,740h4.6v-1.7h-4.6V740z M324,738.4v1.7h4.4v-1.7H324z M324,745.7v2.2h3.6
			c-0.1-0.4-0.3-0.8-0.4-1.1c0.9,0.1,1.7,0.1,2.1,0.1c0.4,0,0.6,0,0.8-0.2c0.1-0.2,0.2-0.4,0.3-1H324z"/>
	</g>
	<g class="st15">
		<path class="st16" d="M199.5,237.4v2.6h-24.7v-2.6h10.6v-2.8h-7.5v-2.5h7.5v-2.5H179c-1,1.7-2.1,3.2-3.3,4.3
			c-0.2-0.6-1-2.1-1.5-2.8c-0.3,3.5-1.2,7.3-3.5,10c-0.5-0.6-1.8-1.7-2.4-2c2.7-3.2,3-7.8,3-11.2v-6.5h4.3c-0.4-0.5-1-1-1.4-1.3
			c2.6-0.4,5.5-1.1,8.3-1.8c-2.4-0.7-4.8-1.3-7.1-1.8l1.7-1.3h-5.6v-2.5h12c-0.5-0.8-1-1.5-1.5-2.2l2.2-1c0.8,0.9,1.8,2.2,2.4,3.2
			h11.4v2.5h-5l1.5,0.9c-1.4,0.7-3,1.3-4.7,2c2.3,0.6,4.3,1.3,6,1.9l-1.5,1.3h4.9v2.6h-24.7v4c0,1,0,2-0.1,3.1
			c1.8-1.7,3.4-4.1,4.3-6.7l2.7,0.8c-0.2,0.6-0.5,1.2-0.8,1.9h5v-2.5h3.1v2.5h8.7v2.5h-8.7v2.5h7.8v2.5h-7.8v2.8H199.5z
			 M192.6,221.5c-1.8-0.6-4.1-1.3-6.5-2.1c-2.8,0.8-5.6,1.5-8.2,2.1H192.6z M178.6,215.4c2.5,0.6,5.1,1.2,7.7,2c2-0.6,3.8-1.2,5.2-2
			H178.6z"/>
		<path class="st16" d="M232.7,236.8v3h-29.9v-3h13.3v-7.7h-9.6v-3h9.6v-6.7h-7.5c-1,2-2.2,3.8-3.3,5.2c-0.6-0.5-2-1.4-2.9-1.9
			c2.7-2.9,4.8-7.5,6.1-12.2l3.2,0.7c-0.5,1.7-1.1,3.4-1.8,5.1h6.1V210h3.2v6.3h11.7v3.1h-11.7v6.7h10.5v3h-10.5v7.7H232.7z"/>
		<path class="st16" d="M248.3,222.3c-0.4,0.5-0.9,0.9-1.3,1.3c-0.4-0.4-1.2-1.3-1.8-1.8c0.3,2,0.4,4.1,0.4,6.2
			c0,4.7-0.4,9-1.8,10.9c-0.4,0.7-1.1,1-1.9,1.2c-1.1,0.3-2.5,0.3-4,0.2c0-1-0.4-2.2-0.9-3c1.6,0.1,2.9,0.1,3.6,0
			c0.5-0.1,0.8-0.2,1-0.6c0.8-1,1.1-4.6,1.1-8.8v-0.8c-1.5,2.3-3.4,4.4-5.2,5.8c-0.4-0.8-1.1-2-1.7-2.7c2.4-1.6,5.1-4.7,6.5-7.7
			c-0.2-1.3-0.5-2.5-1-3.8c-1.3,1.4-2.7,2.7-4,3.7c-0.4-0.8-1.1-2.1-1.8-2.8c1.4-0.9,3-2.2,4.3-3.6c-0.8-1.2-1.9-2.5-3.3-3.7
			l2.1-1.7c1.2,1,2.3,2.2,3.1,3.3c0.9-1.1,1.6-2.2,2.2-3.3l2.3,1.5c-0.8,1.3-1.8,2.8-2.9,4.2c0.8,1.7,1.3,3.3,1.6,5.1
			c1.7-1.4,3.5-3.6,4.6-5.7l2.2,0.7v-1.9h-5.3v-2.3h5.3V210h2.8v6.5l1.9-1c0.9,0.9,2,2.2,2.7,3h6.3v1.9h-6.9v1.3h6.1v1.7h-6.1v1.4
			h6.1v1.7h-6.1v1.5h7.3v2H251v0.8h-2.7V222.3z M265.5,232.5c-1.4,1.9-3.5,3.5-6,4.7c2.4,0.6,5.1,1,7.7,1.2
			c-0.6,0.6-1.4,1.8-1.8,2.5c-3.4-0.4-6.6-1.1-9.6-2.2c-3,1-6.3,1.7-9.7,2.2c-0.2-0.7-0.9-1.9-1.4-2.5c2.6-0.3,5.2-0.6,7.5-1.2
			c-1.7-0.9-3.1-1.9-4.3-3l1.1-0.5H247v-2.3h16.2l0.5-0.1L265.5,232.5z M255.8,220.4H251v1.3h4.8V220.4z M255.8,223.4H251v1.4h4.8
			V223.4z M255.8,226.6H251v1.5h4.8V226.6z M251.9,216.5l0.4,0.1c-0.3,0.6-0.7,1.2-1.1,1.8h4.6c-0.5-0.6-1-1.3-1.5-1.9l0.1-0.1
			H251.9z M251.3,233.7c1.2,0.9,2.8,1.7,4.6,2.4c1.8-0.7,3.4-1.5,4.6-2.4H251.3z M260.9,216.6H258V210h2.9v2.3h5.9v2.4h-5.9V216.6z"
			/>
		<path class="st16" d="M279.9,219.9h6.5v2.9h-6.5v1c1.7,1.4,5.3,4.9,6.2,5.8l-1.8,2.7c-0.9-1.2-2.8-3.3-4.4-5v13.5h-3.1v-13.3
			c-1.6,3.5-3.7,6.8-5.8,9c-0.3-0.9-1.1-2.2-1.6-3.1c2.6-2.4,5.3-6.7,6.8-10.6h-6.1v-2.9h6.7v-5c-2.1,0.4-4.1,0.7-6,0.9
			c-0.2-0.7-0.6-1.8-1-2.4c4.9-0.7,10.5-1.9,13.7-3.3l2.3,2.4c-1.7,0.7-3.7,1.3-5.8,1.8V219.9z M291.9,232.5h-3.1V214h3.1V232.5z
			 M299,210.4v26.4c0,2-0.5,2.9-1.6,3.4c-1.2,0.5-3.2,0.6-6.3,0.6c-0.1-0.9-0.6-2.4-1.1-3.2c2.3,0.1,4.4,0.1,5.1,0.1
			c0.6,0,0.9-0.2,0.9-0.9v-26.4H299z"/>
		<path class="st16" d="M306.7,230.1c2.6-1,4.1-2.5,4.3-4.5c-0.1,0-0.3,0-0.5,0c-1.5,0-2.8-0.9-2.8-2.7c0-1.7,1.3-2.7,2.9-2.7
			c2.1,0,3.2,1.7,3.2,4.2c0,3.7-2.4,6.6-6.2,7.9L306.7,230.1z"/>
		<path class="st16" d="M178,257.5h3.1v30.4H178v-9c-5.8,2-6.8,2.6-7.5,3.1c-0.2-0.8-0.8-2.2-1.2-2.9c0.5-0.3,1.2-0.9,1.2-2.3v-16.3
			h3.1v16.7l4.5-1.4V257.5z M197.1,266.3c-0.9,5.2-2.3,9.4-4.3,13c1.9,2.6,4.2,4.6,6.9,6c-0.7,0.5-1.7,1.7-2.2,2.5
			c-2.5-1.4-4.7-3.4-6.5-5.8c-1.9,2.4-4.2,4.4-7.2,6.1c-0.3-0.7-1.4-2-2.1-2.6c3.2-1.5,5.6-3.6,7.5-6.2c-1.5-2.5-2.7-5.4-3.7-8.5
			c-0.6,1.3-1.4,2.4-2.2,3.4c-0.4-0.6-1.5-2-2.2-2.7c2.9-3.3,4.5-8.7,5.5-14.4l3.2,0.5c-0.3,2-0.8,3.9-1.3,5.8h10.9v3H197.1z
			 M187.3,267c0.9,3.4,2.1,6.6,3.7,9.4c1.4-2.8,2.4-6.2,3.1-10.1h-6.5L187.3,267z"/>
		<path class="st16" d="M232.3,261.9c-0.8,7.2-2.6,12.9-5.2,17.2c1.8,2.5,3.9,4.5,6.5,5.9c-0.7,0.6-1.7,1.8-2.2,2.6
			c-2.5-1.4-4.6-3.3-6.3-5.7c-1.8,2.3-4,4.1-6.4,5.6c-0.4-0.7-1.3-1.8-2-2.4v2.8h-3v-5.8c-4.1,0.7-8.2,1.3-11.3,1.9l-0.6-3.1
			c0.9-0.1,2-0.3,3.2-0.4v-18.5h-2.5V259h16.5v2.4h10.7l0.5-0.1L232.3,261.9z M208,261.9v3.9h5.8v-3.9H208z M208,272.7h5.8v-4.1H208
			V272.7z M213.8,279.2v-3.6H208v4.4L213.8,279.2z M216.8,284.9c2.5-1.3,4.7-3.3,6.5-5.9c-2.2-3.9-3.7-8.6-4.8-13.8l3-0.6
			c0.8,4.2,2,8,3.6,11.4c1.7-3.2,2.9-7.1,3.6-11.5h-10.7v-2.6h-1.4V284.9z"/>
		<path class="st0" d="M245.6,277.6c-0.1-0.5-0.2-1.2-0.3-1.8c-6.6,1-7.6,1.2-8.3,1.6c-0.1-0.6-0.6-2-0.9-2.7c0.7-0.2,1.5-1,2.5-2.3
			c0.5-0.5,1.4-1.8,2.5-3.4c-3,0.3-3.8,0.5-4.3,0.7c-0.1-0.6-0.6-1.9-0.9-2.6c0.6-0.1,1.1-0.8,1.8-1.9c0.7-1,2.9-4.8,4.1-8.4
			l2.7,1.1c-1.3,3-3,6.1-4.7,8.6l3-0.3c0.9-1.4,1.7-3,2.4-4.5l2.5,1.5c-2,3.7-4.5,7.5-7.1,10.6l4.3-0.5c-0.3-1-0.5-2.1-0.8-3
			l2.2-0.5c0.7,2.3,1.5,5.3,1.9,7L245.6,277.6z M239.6,279c-0.3,3.1-0.9,6.5-1.6,8.6c-0.5-0.3-1.6-0.6-2.3-0.8
			c0.8-2.2,1.2-5.3,1.5-8.2L239.6,279z M242.9,278.4c0.4,2.5,0.8,5.7,0.8,7.8l-2.2,0.4c0-2.1-0.4-5.3-0.7-7.8L242.9,278.4z
			 M246,277.7c0.7,1.9,1.4,4.3,1.8,5.9l-2,0.7c-0.3-1.6-1-4.1-1.7-6L246,277.7z M255.9,284.5c-2.4,1.2-5.7,2.6-7.9,3.4
			c-0.4-0.6-1.3-1.5-1.9-2.1c2.3-0.8,5.6-2.2,7.4-3.3L255.9,284.5z M255.4,261.2H248V259h7.4V257h3v2.1h6.9v2.2h-6.9v1.5h6.2v2.1
			h-6.2v1.6h8.2v2.3h-19.8v-2.3h8.6v-1.6h-6.7v-2.1h6.7V261.2z M248.9,282.4V270h15.7v12.4H248.9z M251.8,273.6h9.9V272h-9.9V273.6z
			 M251.8,277h9.9v-1.7h-9.9V277z M251.8,280.4h9.9v-1.7h-9.9V280.4z M260.4,282.5c2.3,1.2,4.9,2.7,6.5,3.8l-2.7,1.6
			c-1.4-1.1-3.8-2.6-5.9-3.8L260.4,282.5z"/>
		<path class="st0" d="M276.5,265.9c-1.3,3-3.2,6.3-5,8.5c-0.5-0.5-1.5-1.5-2.2-2c1.7-1.9,3.4-4.7,4.4-7.3L276.5,265.9z
			 M281.8,284.5c-0.7-1.3-1.8-3-3.2-4.7c-1.8,3-4.1,5.4-6.9,7.3c-0.4-0.6-1.5-1.8-2.2-2.3c3-1.8,5.4-4.3,7.1-7.4
			c-1.3-1.4-2.6-2.9-3.8-4.1l2.3-1.7c0.9,0.9,1.9,1.9,2.9,3c0.5-1.3,1-2.7,1.4-4.2l3,0.5c-0.6,2.2-1.3,4.2-2.2,6
			c1.7,2,3.3,4,4.1,5.6L281.8,284.5z M285.7,264.6h-15.5v-2.8h6.9c-0.4-1.1-1.3-2.7-2.1-3.8l2.6-1c0.9,1.2,2,2.9,2.4,4l-2,0.8h7.6
			V264.6z M298.5,265.9c-0.8,5.4-2.1,9.8-4.1,13.4c1.7,2.6,3.9,4.7,6.4,6.1c-0.7,0.6-1.7,1.8-2.2,2.6c-2.4-1.4-4.4-3.5-6.1-6
			c-1.9,2.5-4.4,4.5-7.5,6.1c-0.4-0.6-1.5-1.8-2.1-2.4c3.5-1.5,6.1-3.7,8-6.5c-1.1-2.2-2.1-4.5-2.8-7.1c-0.5,0.9-1.1,1.8-1.7,2.6
			c-0.4-0.6-1.4-1.9-2-2.5c0.3-0.3,0.5-0.7,0.7-1l-2.1,1.2c-0.6-1.7-2.3-4.3-3.8-6.2l2.3-1.2c1.5,1.8,3.1,4.1,3.8,5.8
			c2.1-3.6,3.5-8.6,4.2-13.7l2.9,0.4c-0.3,1.9-0.7,3.8-1.1,5.6h8.8v2.9H298.5z M290.7,265.9c-0.3,0.8-0.5,1.5-0.7,2.2
			c0.6,2.9,1.5,5.7,2.7,8.2c1.4-2.9,2.3-6.3,2.8-10.4H290.7z"/>
		<path class="st0" d="M325.1,282.9c3.2,1,6.4,2.2,8.5,3l-2.3,1.9c-2.2-1-6-2.5-9.7-3.7l1.3-1.2h-8.9l2.4,1.1c-2.7,1.6-7,3.1-10.3,4
			c-0.5-0.6-1.6-1.8-2.3-2.3c3.3-0.6,7.1-1.6,9.5-2.8H308v-10.3c-0.8,0.2-1.8,0.4-2.8,0.6c-0.3-0.7-1-1.9-1.5-2.5
			c4.1-0.6,6.5-1.6,7.9-2.8h-5.6c0.4-1.6,0.7-3.8,0.9-5.7h6.5v-1.7h-7.9v-2h7.9V257h2.8v1.7h4.6V257h3v1.7h7.3v5.6H324v1.8h9.4
			c0,0,0,0.6-0.1,0.9c-0.2,1.9-0.4,3-0.9,3.5c-0.5,0.4-1.1,0.6-1.8,0.7c-0.2,0-0.4,0-0.7,0v11.8H325.1z M309.6,264.2
			c-0.1,0.6-0.2,1.2-0.3,1.8h3.9c0.2-0.6,0.3-1.1,0.4-1.8H309.6z M326.8,272.1h-15.7v1.7h15.7V272.1z M326.8,275.6h-15.7v1.8h15.7
			V275.6z M311.1,281h15.7v-1.8h-15.7V281z M315.5,268c-0.5,0.8-1.1,1.5-2,2.2h7.5V268H315.5z M321,264.2h-4.6
			c0,0.6-0.1,1.2-0.2,1.8h4.8V264.2z M316.4,262.3h4.6v-1.7h-4.6V262.3z M324,260.6v1.7h4.4v-1.7H324z M324,268v2.2h3.6
			c-0.1-0.4-0.3-0.8-0.4-1.1c0.9,0.1,1.7,0.1,2.1,0.1c0.4,0,0.6,0,0.8-0.2c0.1-0.2,0.2-0.4,0.3-1H324z"/>
	</g>
</g>
<text transform="matrix(1 0 0 1 -744.4557 715.9999)" class="st15"><tspan x="0" y="0" class="st16" style="font-family:'NotoSansTC-Medium-B5pc-H'; font-size:33.6785px;">約滿到期，</tspan><tspan x="0" y="47" class="st16" style="font-family:'NotoSansTC-Medium-B5pc-H'; font-size:33.6785px;">收取</tspan><tspan x="67.4" y="47" class="st12" style="font-family:'NotoSansTC-Medium-B5pc-H'; font-size:33.6785px;">管理費</tspan></text>
<text transform="matrix(1 0 0 1 -744.4556 238.2292)" class="st15"><tspan x="0" y="0" class="st16" style="font-family:'NotoSansTC-Medium-B5pc-H'; font-size:33.6785px;">產生獲利，</tspan><tspan x="0" y="47" class="st16" style="font-family:'NotoSansTC-Medium-B5pc-H'; font-size:33.6785px;">收取</tspan><tspan x="67.4" y="47" class="st0" style="font-family:'NotoSansTC-Medium-B5pc-H'; font-size:33.6785px;">績效費</tspan></text>
</svg>
